<svg version="1.1" x="0" y="0" width="100%" height="100%" viewBox="0 0 221184 48128" xmlns="http://www.w3.org/2000/svg">
  <path d="M 9560.45 17105.05 L 2967.3 17105.05 L 2967.3 14789.4 L 18912.95 14789.4 L 18912.95 17105.05 L 12322.7 17105.05 L 12322.7 36556.8 L 9560.45 36556.8 L 9560.45 17105.05 Z M 24202.55 33884.45 Q 21588.2 30765.5 21588.2 25597.7 Q 21588.2 20431.35 24202.55 17370.4 Q 26725.55 14371.8 30884.15 14371.8 Q 35041.3 14371.8 37594.75 17370.4 Q 40177.2 20431.35 40177.2 25597.7 Q 40177.2 30765.5 37594.75 33884.45 Q 35041.3 36942.5 30884.15 36942.5 Q 26725.55 36942.5 24202.55 33884.45  Z M 35573.45 32102.4 Q 37355.5 29666.4 37355.5 25599.15 Q 37355.5 21531.9 35573.45 19126.35 Q 33821.85 16778.8 30882.7 16778.8 Q 27913.1 16778.8 26190.5 19126.35 Q 24408.45 21531.9 24408.45 25599.15 Q 24408.45 29666.4 26190.5 32102.4 Q 27942.1 34538.4 30882.7 34538.4 Q 33821.85 34538.4 35573.45 32102.4  Z M 44851.2 14789.4 L 50314.8 14789.4 Q 55304.25 14789.4 57947.6 17609.65 Q 60590.95 20400.9 60590.95 25597.7 Q 60590.95 30794.5 57976.6 33646.65 Q 55333.25 36556.8 50433.7 36556.8 L 44849.75 36556.8 L 44849.75 14789.4 L 44851.2 14789.4 Z M 50077 34300.6 Q 53877.45 34300.6 55837.85 32013.95 Q 57738.8 29786.75 57738.8 25599.15 Q 57738.8 17016.6 50077 17016.6 L 47612 17016.6 L 47612 34300.6 L 50077 34300.6 Z M 66596.15 33884.45 Q 63981.8 30765.5 63981.8 25597.7 Q 63981.8 20431.35 66596.15 17370.4 Q 69119.15 14371.8 73277.75 14371.8 Q 77434.9 14371.8 79988.35 17370.4 Q 82570.8 20431.35 82570.8 25597.7 Q 82570.8 30765.5 79988.35 33884.45 Q 77434.9 36942.5 73277.75 36942.5 Q 69119.15 36942.5 66596.15 33884.45  Z M 77967.05 32102.4 Q 79749.1 29666.4 79749.1 25599.15 Q 79749.1 21531.9 77967.05 19126.35 Q 76215.45 16778.8 73276.3 16778.8 Q 70306.7 16778.8 68584.1 19126.35 Q 66802.05 21531.9 66802.05 25599.15 Q 66802.05 29666.4 68584.1 32102.4 Q 70335.7 34538.4 73276.3 34538.4 Q 76215.45 34538.4 77967.05 32102.4  Z M 87244.8 14789.4 L 90005.6 14789.4 L 90005.6 34212.15 L 99510.35 34212.15 L 99510.35 36556.8 L 87244.8 36556.8 L 87244.8 14789.4 Z M 103321.6 14789.4 L 106082.4 14789.4 L 106082.4 36556.8 L 103321.6 36556.8 L 103321.6 14789.4 Z M 110401.15 33704.65 L 112035.3 31835.6 Q 114646.75 34538.4 118062.95 34538.4 Q 120169.8 34538.4 121416.8 33558.2 Q 122634.8 32607 122634.8 30972.85 Q 122634.8 29459.05 121596.6 28538.3 Q 120942.65 27974.25 119011.25 27114.4 L 115863.3 25747.05 Q 111439.35 23846.1 111439.35 20163.1 Q 111439.35 17640.1 113398.3 16005.95 Q 115329.7 14371.8 118299.3 14371.8 Q 122099.75 14371.8 124711.2 17074.6 L 123256.85 18826.2 Q 121058.65 16777.35 118297.85 16777.35 Q 116454.9 16777.35 115328.25 17640.1 Q 114227.7 18528.95 114227.7 19984.75 Q 114227.7 21381.1 115386.25 22332.3 Q 116070.65 22865.9 117822.25 23608.3 L 120941.2 24943.75 Q 125424.6 26904.15 125424.6 30765.5 Q 125424.6 33408.85 123435.2 35131.45 Q 121357.35 36942.5 118029.6 36942.5 Q 113486.75 36942.5 110399.7 33704.65 L 110401.15 33704.65 Z M 134181.25 17105.05 L 127588.1 17105.05 L 127588.1 14789.4 L 143533.75 14789.4 L 143533.75 17105.05 L 136943.5 17105.05 L 136943.5 36556.8 L 134181.25 36556.8 L 134181.25 17105.05 Z " fill-rule="nonzero" style="fill:#ffffff;;fill-opacity:1;"/>
</svg>