<svg version="1.1" x="0" y="0" width="100%" height="100%" viewBox="0 0 186880 233779.2" xmlns="http://www.w3.org/2000/svg">
  <path d="M 11775.85 22370.35 L 10951.3 19731.1 Q 10244.05 17541.5 9207.9 13890.25 L 9114.75 13890.25 Q 8478.8 16292.6 7396.65 19729.95 L 6549.1 22369.2 L 11778.15 22369.2 L 11775.85 22370.35 Z M 12316.35 24112.6 L 6004 24112.6 L 4333.05 29388.8 L 2119.3 29388.8 L 7984.3 12125 L 10409.65 12125 L 16273.5 29388.8 L 13965.45 29388.8 L 12317.5 24112.6 L 12316.35 24112.6 Z M 19972.05 17471.35 Q 19430.4 16975.7 19430.4 16198.3 Q 19430.4 15397.9 19972.05 14904.55 Q 20467.7 14408.9 21197.95 14408.9 Q 21928.2 14408.9 22446.85 14904.55 Q 22988.5 15423.2 22988.5 16199.45 Q 22988.5 16976.85 22446.85 17472.5 Q 21928.2 17942.85 21197.95 17942.85 Q 20467.7 17942.85 19972.05 17472.5 L 19972.05 17471.35 Z M 19972.05 28988.6 Q 19430.4 28492.95 19430.4 27715.55 Q 19430.4 26939.3 19972.05 26420.65 Q 20467.7 25948 21197.95 25948 Q 21928.2 25948 22446.85 26420.65 Q 22988.5 26939.3 22988.5 27715.55 Q 22988.5 28492.95 22446.85 28988.6 Q 21928.2 29481.95 21197.95 29481.95 Q 20467.7 29481.95 19972.05 28988.6  Z M 60352.65 19260.75 L 60352.65 21168.6 L 38967.25 21168.6 L 38967.25 19260.75 L 60352.65 19260.75 Z M 80549.6 13068 L 80549.6 14927.55 L 63756.15 14927.55 L 63756.15 13068 L 80549.6 13068 Z M 82527.6 26940.45 L 82527.6 28848.3 L 61778.15 28848.3 L 61778.15 26940.45 L 82527.6 26940.45 Z M 103523.8 11960.55 L 103523.8 13702.8 L 85859.8 13702.8 L 85859.8 11960.55 L 103523.8 11960.55 Z M 101687.25 19590.8 L 101687.25 21357.2 L 87367.45 21357.2 L 87367.45 19590.8 L 101687.25 19590.8 Z M 104796.85 27715.55 L 104796.85 29481.95 L 84518.9 29481.95 L 84518.9 27715.55 L 104796.85 27715.55 Z M 126147.25 16742.25 L 126147.25 18484.5 L 108247.5 18484.5 L 108247.5 16742.25 L 126147.25 16742.25 Z M 124215.25 22087.45 L 124215.25 23853.85 L 109895.45 23853.85 L 109895.45 22087.45 L 124215.25 22087.45 Z M 127324.85 27811 L 127324.85 29577.4 L 107046.9 29577.4 L 107046.9 27811 L 127324.85 27811 Z M 123955.35 11513.2 L 123955.35 13279.6 L 110082.9 13279.6 L 110082.9 11513.2 L 123955.35 11513.2 Z M 4403.2 51088.2 L 9536.8 51088.2 Q 15471.95 51088.2 15471.95 55305.25 Q 15471.95 58249.25 12928.15 59049.65 L 12928.15 59168.1 Q 16460.95 59850.05 16460.95 63289.7 Q 16460.95 65761.05 14648.55 67081.25 Q 12905.15 68352 9914 68352 L 4403.2 68352 L 4403.2 51088.2 Z M 9160.75 58435.55 Q 13328.35 58435.55 13328.35 55587 Q 13328.35 52807.45 9253.9 52807.45 L 6591.65 52807.45 L 6591.65 58436.7 L 9159.6 58436.7 L 9160.75 58435.55 Z M 9609.25 66608.6 Q 14319.65 66608.6 14319.65 63218.4 Q 14319.65 60108.8 9609.25 60108.8 L 6592.8 60108.8 L 6592.8 66608.6 L 9609.25 66608.6 Z M 21149.65 56434.55 Q 20608 55938.9 20608 55161.5 Q 20608 54361.1 21149.65 53867.75 Q 21645.3 53372.1 22375.55 53372.1 Q 23105.8 53372.1 23624.45 53867.75 Q 24166.1 54386.4 24166.1 55162.65 Q 24166.1 55940.05 23624.45 56435.7 Q 23105.8 56906.05 22375.55 56906.05 Q 21645.3 56906.05 21149.65 56435.7 L 21149.65 56434.55 Z M 21149.65 67951.8 Q 20608 67456.15 20608 66678.75 Q 20608 65902.5 21149.65 65383.85 Q 21645.3 64911.2 22375.55 64911.2 Q 23105.8 64911.2 23624.45 65383.85 Q 24166.1 65902.5 24166.1 66678.75 Q 24166.1 67456.15 23624.45 67951.8 Q 23105.8 68445.15 22375.55 68445.15 Q 21645.3 68445.15 21149.65 67951.8  Z M 49894.55 51677 L 40543.9 51677 L 40543.9 50287.8 L 49894.55 50287.8 L 49894.55 48639.85 L 51637.95 48639.85 L 51637.95 50287.8 L 61081.75 50287.8 L 61081.75 51677 L 51637.95 51677 L 51637.95 53278.95 L 59269.35 53278.95 L 59269.35 54572.7 L 42358.6 54572.7 L 42358.6 53278.95 L 49894.55 53278.95 L 49894.55 51677 Z M 58892.15 59778.75 L 58892.15 57234.95 L 42617.35 57234.95 L 42617.35 59778.75 L 40992.4 59778.75 L 40992.4 55892.9 L 60588.4 55892.9 L 60588.4 59778.75 L 58892.15 59778.75 Z M 43960.55 59755.75 L 43960.55 58554 L 57525.95 58554 L 57525.95 59755.75 L 43960.55 59755.75 Z M 45279.6 64442 L 56159.75 64442 L 56159.75 62345.55 L 45279.6 62345.55 L 45279.6 64442 Z M 61295.65 68044.95 L 61295.65 69506.6 L 40333.45 69506.6 L 40333.45 68044.95 L 46740.1 68044.95 Q 46433.05 67197.4 45702.8 66019.8 L 47257.6 65689.75 Q 48105.15 66797.2 48505.35 68044.95 L 53192.75 68044.95 Q 53615.95 67221.55 54228.9 65666.75 L 43606.35 65666.75 L 43606.35 61097.8 L 57879 61097.8 L 57879 65666.75 L 54323.2 65666.75 L 55971.15 66043.95 L 55452.5 67080.1 Q 55147.75 67714.9 54959.15 68044.95 L 61294.5 68044.95 L 61295.65 68044.95 Z M 81797.35 52690.15 Q 80431.15 51016.9 78264.55 49627.7 L 79442.15 48708.85 Q 81843.35 50216.5 83020.95 51652.85 L 81797.35 52689 L 81797.35 52690.15 Z M 63050.05 66797.2 Q 66301.1 66397 74567.3 65100.95 L 74662.75 66725.9 Q 72353.55 67126.1 68702.3 67714.9 Q 64298.95 68422.15 63498.55 68563.6 L 63051.2 66797.2 L 63050.05 66797.2 Z M 73388.55 59001.35 L 73388.55 60649.3 L 63920.6 60649.3 L 63920.6 59001.35 L 73388.55 59001.35 Z M 76732.75 54621 Q 77157.1 60744.75 78450.85 64489.15 Q 79817.05 68352 81726.05 68352 Q 82644.9 68352 82809.35 64323.55 Q 83656.9 65030.8 84338.85 65266.55 Q 84104.25 68069.1 83515.45 69105.25 Q 82926.65 70117.25 81583.45 70117.25 Q 78686.6 70117.25 76943.2 65642.6 Q 75412.55 61685.45 74916.9 54619.85 L 62836.15 54619.85 L 62836.15 52900.6 L 74823.75 52900.6 Q 74705.3 50592.55 74705.3 48660.55 L 76541.85 48660.55 Q 76518.85 50145.2 76612 52900.6 L 83796.05 52900.6 L 83796.05 54619.85 L 76730.45 54619.85 L 76732.75 54621 Z M 86425.6 67786.2 L 105455.8 67786.2 L 105455.8 69318 L 86425.6 69318 L 86425.6 67786.2 Z M 102700.4 63853.2 L 102700.4 65385 L 89158 65385 L 89158 63853.2 L 102700.4 63853.2 Z M 100768.4 60131.8 Q 99449.35 59024.35 98413.2 57776.6 L 93161.15 57776.6 Q 92195.15 59049.65 90970.4 60131.8 L 100768.4 60131.8 Z M 100509.65 57776.6 Q 103148.9 60415.85 106823.15 61639.45 Q 106164.2 62182.25 105621.4 63075.8 Q 103408.8 62156.95 101546.95 60744.75 L 101546.95 61638.3 L 90148.15 61638.3 L 90148.15 60837.9 Q 88358.75 62274.25 86215.15 63310.4 Q 85602.2 62510 84871.95 61897.05 Q 88523.2 60366.4 90901.4 57775.45 L 85390.6 57775.45 L 85390.6 56244.8 L 92126.15 56244.8 Q 92926.55 55044.2 93373.9 54031.05 Q 89017.7 54242.65 88333.45 54455.4 Q 88144.85 53607.85 87814.8 52806.3 Q 88427.75 52713.15 89486.9 52077.2 Q 91771.95 50899.6 94220.3 48521.4 L 95822.25 49417.25 Q 93678.65 51253.8 91393.6 52595.85 L 100390.05 52242.8 Q 98742.1 50995.05 97659.95 50310.8 L 99002 49417.25 Q 102912 51772.45 105008.45 54127.65 L 103572.1 55162.65 Q 102983.3 54457.7 102017.3 53610.15 L 94858.55 53940.2 L 95305.9 54056.35 Q 94692.95 55446.7 94199.6 56247.1 L 106328.65 56247.1 L 106328.65 57777.75 L 100510.8 57777.75 L 100509.65 57776.6 Z M 115007.2 62959.65 Q 116773.6 66468.3 117455.55 68258.85 L 115924.9 68893.65 L 115263.65 67174.4 Q 109188.2 68375 108529.25 68752.2 Q 108316.5 67928.8 107940.45 67151.4 Q 108433.8 67032.95 109045.6 65973.8 Q 110247.35 63923.35 111000.6 61663.6 L 107656.4 61663.6 L 107656.4 60178.95 L 109658.55 60178.95 L 109658.55 49699 L 116935.75 49699 L 116935.75 51183.65 L 111329.5 51183.65 L 111329.5 53231.8 L 116205.5 53231.8 L 116205.5 54644 L 111329.5 54644 L 111329.5 56669.15 L 116252.65 56669.15 L 116252.65 58059.5 L 111329.5 58059.5 L 111329.5 60178.95 L 117124.35 60178.95 L 117124.35 61663.6 L 112907.3 61663.6 Q 111825.15 64419 110506.1 66562.6 L 114673.7 65808.2 L 113568.55 63453 L 115004.9 62959.65 L 115007.2 62959.65 Z M 123391.85 57846.75 L 126217.4 57846.75 L 126217.4 55704.3 L 123391.85 55704.3 L 123391.85 57846.75 Z M 123391.85 54243.8 L 126217.4 54243.8 L 126217.4 52195.65 L 123391.85 52195.65 L 123391.85 54243.8 Z M 123391.85 59284.25 L 123391.85 61146.1 L 128078.1 61146.1 L 128078.1 62653.75 L 123391.85 62653.75 L 123391.85 64678.9 L 128832.5 64678.9 L 128832.5 66209.55 L 123391.85 66209.55 L 123391.85 70119.55 L 121766.9 70119.55 L 121766.9 66209.55 L 116986.35 66209.55 L 116986.35 64678.9 L 121766.9 64678.9 L 121766.9 62653.75 L 117692.45 62653.75 L 117692.45 61146.1 L 121766.9 61146.1 L 121766.9 59284.25 L 117738.45 59284.25 L 117738.45 57847.9 L 121766.9 57847.9 L 121766.9 55705.45 L 116915.05 55705.45 L 116915.05 54243.8 L 121766.9 54243.8 L 121766.9 52195.65 L 117833.9 52195.65 L 117833.9 50736.3 L 121766.9 50736.3 L 121766.9 48711.15 L 123391.85 48711.15 L 123391.85 50736.3 L 127748.05 50736.3 L 127748.05 54244.95 L 129209.7 54244.95 L 129209.7 55706.6 L 127748.05 55706.6 L 127748.05 59285.4 L 123391.85 59285.4 L 123391.85 59284.25 Z M 5557.8 105267.05 Q 3414.2 102816.4 3414.2 98694.8 Q 3414.2 94597.35 5603.8 92123.7 Q 7724.4 89721.35 11068.6 89721.35 Q 13894.15 89721.35 15802 91864.95 L 14624.4 93277.15 Q 13093.75 91629.2 11091.6 91629.2 Q 8617.95 91629.2 7135.6 93514.05 Q 5650.95 95421.9 5650.95 98624.65 Q 5650.95 101898.7 7110.3 103806.55 Q 8546.65 105715.55 11020.3 105715.55 Q 13234.05 105715.55 15023.45 103783.55 L 16225.2 105149.75 Q 14081.6 107623.4 10926 107623.4 Q 7627.8 107623.4 5556.65 105268.2 L 5557.8 105267.05 Z M 20688.85 95397.75 Q 20147.2 94902.1 20147.2 94124.7 Q 20147.2 93324.3 20688.85 92830.95 Q 21184.5 92335.3 21914.75 92335.3 Q 22645 92335.3 23163.65 92830.95 Q 23705.3 93349.6 23705.3 94125.85 Q 23705.3 94903.25 23163.65 95398.9 Q 22645 95869.25 21914.75 95869.25 Q 21184.5 95869.25 20688.85 95398.9 L 20688.85 95397.75 Z M 20688.85 106915 Q 20147.2 106419.35 20147.2 105641.95 Q 20147.2 104865.7 20688.85 104347.05 Q 21184.5 103874.4 21914.75 103874.4 Q 22645 103874.4 23163.65 104347.05 Q 23705.3 104865.7 23705.3 105641.95 Q 23705.3 106419.35 23163.65 106915 Q 22645 107408.35 21914.75 107408.35 Q 21184.5 107408.35 20688.85 106915  Z M 57913.85 89886.95 L 50023.7 89886.95 L 50023.7 91794.8 L 57913.85 91794.8 L 57913.85 89886.95 Z M 57913.85 93090.85 L 50023.7 93090.85 L 50023.7 94998.7 L 57913.85 94998.7 L 57913.85 93090.85 Z M 59584.8 96339.6 L 48421.75 96339.6 L 48421.75 88543.75 L 59584.8 88543.75 L 59584.8 96339.6 Z M 41944.95 91464.75 L 41944.95 101285.75 L 44723.35 101285.75 L 44723.35 91464.75 L 41944.95 91464.75 Z M 46301.15 102911.85 L 41944.95 102911.85 L 41944.95 105148.6 L 40367.15 105148.6 L 40367.15 89839.8 L 46301.15 89839.8 L 46301.15 102911.85 Z M 49833.95 101520.35 L 49833.95 105125.6 L 57772.4 105125.6 L 57772.4 106396.35 L 48351.6 106396.35 L 48351.6 101520.35 L 49833.95 101520.35 Z M 55251.6 100061 Q 55017 100885.55 54592.65 101615.8 Q 56336.05 102746.25 57489.5 103805.4 L 56666.1 104748.4 Q 55818.55 103900.85 54029.15 102581.8 Q 52967.7 104041.15 51485.35 104888.7 Q 51226.6 104464.35 50613.65 103948 Q 53181.6 102534.65 53957.85 99897.7 L 55253.9 100062.15 L 55251.6 100061 Z M 60739.4 98836.25 Q 60386.35 107338.2 59608.95 108351.35 Q 59138.6 108963.15 58265.75 109033.3 Q 57630.95 109103.45 56076.15 109010.3 Q 56076.15 108351.35 55698.95 107692.4 Q 56946.7 107810.85 57512.5 107763.7 Q 57935.7 107786.7 58148.45 107504.95 Q 58737.25 106727.55 59042 99496.35 L 49832.8 99496.35 Q 48820.8 101098.3 47477.6 102346.05 Q 47007.25 101615.8 46442.6 101215.6 Q 48609.2 99307.75 49598.2 96363.75 L 51199 96575.35 Q 50822.95 97564.35 50564.2 98083 L 60738.25 98083 L 60738.25 98836.25 L 60739.4 98836.25 Z M 67699.85 91699.35 Q 66169.2 90263 63413.8 89085.4 L 64402.8 87814.65 Q 67181.2 88922.1 68759 90311.3 L 67699.85 91700.5 L 67699.85 91699.35 Z M 66499.25 97752.95 Q 64991.6 96551.2 62070.6 95397.75 L 63013.6 94101.7 Q 65957.6 95160.85 67488.25 96292.45 L 66499.25 97751.8 L 66499.25 97752.95 Z M 68642.85 100956.85 Q 66569.4 105171.6 64261.35 108799.85 L 62799.7 107622.25 Q 65108.9 104324.05 67345.65 99826.4 L 68641.7 100956.85 L 68642.85 100956.85 Z M 81430.85 107196.75 Q 81760.9 107196.75 81996.65 107078.3 Q 82185.25 106913.85 82255.4 106325.05 Q 82301.4 105783.4 82348.55 103498.35 Q 82937.35 104063 83761.9 104251.6 Q 83666.45 106818.4 83502 107384.2 Q 83336.4 108138.6 82794.75 108491.65 Q 82370.4 108773.4 81522.85 108773.4 L 80275.1 108773.4 Q 79381.55 108773.4 78862.9 108326.05 Q 78344.25 107879.85 78344.25 105806.4 L 78344.25 94712.35 L 74434.25 94712.35 Q 73868.45 105334.9 68593.4 109149.45 Q 68146.05 108490.5 67321.5 107901.7 Q 72220.5 104487.35 72763.3 94712.35 L 68664.7 94712.35 L 68664.7 93088.55 L 72833.45 93088.55 Q 72879.45 91322.15 72879.45 87646.75 L 74575.7 87646.75 Q 74575.7 91322.15 74505.55 93088.55 L 80063.5 93088.55 L 80063.5 105946.7 Q 80063.5 106912.7 80229.1 107077.15 Q 80417.7 107195.6 80676.45 107195.6 L 81429.7 107195.6 L 81430.85 107196.75 Z M 4403.2 129014.6 L 8736.4 129014.6 Q 12693.55 129014.6 14790 131251.35 Q 16886.45 133465.1 16886.45 137586.7 Q 16886.45 141708.3 14813 143970.35 Q 12716.55 146278.4 8830.7 146278.4 L 4402.05 146278.4 L 4402.05 129014.6 L 4403.2 129014.6 Z M 8547.8 144489 Q 11561.95 144489 13116.75 142675.45 Q 14624.4 140909.05 14624.4 137587.85 Q 14624.4 130781 8547.8 130781 L 6592.8 130781 L 6592.8 144489 L 8547.8 144489 Z M 21866.45 134360.95 Q 21324.8 133865.3 21324.8 133087.9 Q 21324.8 132287.5 21866.45 131794.15 Q 22362.1 131298.5 23092.35 131298.5 Q 23822.6 131298.5 24341.25 131794.15 Q 24882.9 132312.8 24882.9 133089.05 Q 24882.9 133866.45 24341.25 134362.1 Q 23822.6 134832.45 23092.35 134832.45 Q 22362.1 134832.45 21866.45 134362.1 L 21866.45 134360.95 Z M 21866.45 145878.2 Q 21324.8 145382.55 21324.8 144605.15 Q 21324.8 143828.9 21866.45 143310.25 Q 22362.1 142837.6 23092.35 142837.6 Q 23822.6 142837.6 24341.25 143310.25 Q 24882.9 143828.9 24882.9 144605.15 Q 24882.9 145382.55 24341.25 145878.2 Q 23822.6 146371.55 23092.35 146371.55 Q 22362.1 146371.55 21866.45 145878.2  Z M 47455.75 131817.15 Q 53650.8 136127.35 56664.95 139824.6 L 55063 141260.95 Q 52143.15 137375.1 46019.4 133017.75 L 47455.75 131817.15 Z M 67016.75 137139.35 Q 65815 135868.6 63271.2 134502.4 L 64072.75 133206.35 Q 66473.95 134336.8 67887.3 135680 L 67016.75 137139.35 Z M 63837 146419.85 Q 65792 143122.8 67535.4 139001.2 L 68713 140248.95 Q 67158.2 144063.5 65180.2 147691.75 L 63837 146418.7 L 63837 146419.85 Z M 65250.35 126941.15 Q 67605.55 128261.35 68829.15 129509.1 L 67935.6 130898.3 Q 66687.85 129579.25 64378.65 128190.05 L 65251.5 126940 L 65250.35 126941.15 Z M 78415.55 141167.8 L 74435.4 141167.8 L 74435.4 143546 L 78415.55 143546 L 78415.55 141167.8 Z M 84021.8 129980.6 L 79687.45 129980.6 L 80771.9 130262.35 Q 79830.05 132405.95 79546 132971.75 L 83220.25 132971.75 L 83220.25 146136.95 Q 83220.25 147384.7 82419.85 147714.75 Q 81783.9 148021.8 79452.85 148021.8 Q 79287.25 147220.25 78911.2 146515.3 L 81147.95 146515.3 Q 81548.15 146491.15 81548.15 146113.95 L 81548.15 134456.4 L 77144.8 134456.4 L 77144.8 136552.85 L 80393.55 136552.85 L 80393.55 137848.9 L 77144.8 137848.9 L 77144.8 139922.35 L 79734.6 139922.35 L 79734.6 144797.2 L 74435.4 144797.2 L 74435.4 145763.2 L 73139.35 145763.2 L 73139.35 139922.35 L 75707.3 139922.35 L 75707.3 137848.9 L 72338.95 137848.9 L 72338.95 136552.85 L 75707.3 136552.85 L 75707.3 134456.4 L 71349.95 134456.4 L 71349.95 148068.95 L 69725 148068.95 L 69725 132972.9 L 72999.05 132972.9 Q 72764.45 131795.3 72103.2 130381.95 L 73635 129981.75 Q 74435.4 131512.4 74624 132571.55 L 73327.95 132972.9 L 77968.2 132972.9 Q 78675.45 131488.25 79075.65 129980.6 L 69254.65 129980.6 L 69254.65 128521.25 L 75754.45 128521.25 Q 75472.7 127578.25 75095.5 126848 L 76650.3 126400.65 Q 77262.1 127389.65 77546.15 128521.25 L 84022.95 128521.25 L 84022.95 129980.6 L 84021.8 129980.6 Z M 4403.2 167977.8 L 14365.65 167977.8 L 14365.65 169814.35 L 6592.8 169814.35 L 6592.8 175232 L 13142.05 175232 L 13142.05 177091.55 L 6592.8 177091.55 L 6592.8 183380.9 L 14624.4 183380.9 L 14624.4 185240.45 L 4403.2 185240.45 L 4403.2 167976.65 L 4403.2 167977.8 Z M 19511.25 173324.15 Q 18969.6 172828.5 18969.6 172051.1 Q 18969.6 171250.7 19511.25 170757.35 Q 20006.9 170261.7 20737.15 170261.7 Q 21467.4 170261.7 21986.05 170757.35 Q 22527.7 171276 22527.7 172052.25 Q 22527.7 172829.65 21986.05 173325.3 Q 21467.4 173795.65 20737.15 173795.65 Q 20006.9 173795.65 19511.25 173325.3 L 19511.25 173324.15 Z M 19511.25 184841.4 Q 18969.6 184345.75 18969.6 183568.35 Q 18969.6 182792.1 19511.25 182273.45 Q 20006.9 181800.8 20737.15 181800.8 Q 21467.4 181800.8 21986.05 182273.45 Q 22527.7 182792.1 22527.7 183568.35 Q 22527.7 184345.75 21986.05 184841.4 Q 21467.4 185334.75 20737.15 185334.75 Q 20006.9 185334.75 19511.25 184841.4  Z M 58950 181378.75 Q 54732.95 185807.4 43615.9 187173.6 Q 43357.15 186466.35 42745.35 185618.8 Q 53485.2 184511.35 57372.2 180578.35 L 58950 181378.75 Z M 56806.4 178317.45 Q 53062 181308.6 45148.85 182650.65 Q 44818.8 181920.4 44182.85 181238.45 Q 51814.25 180154 55228.6 177517.05 L 56806.4 178317.45 Z M 45383.45 169532.6 Q 46396.6 171133.4 46703.65 172641.05 L 45713.5 172925.1 L 51978.7 172925.1 Q 52851.55 171088.55 53297.75 169533.75 L 45384.6 169533.75 L 45383.45 169532.6 Z M 59584.8 172923.95 L 59584.8 174571.9 L 53909.55 174571.9 L 55228.6 175253.85 Q 51814.25 177492.9 44890.1 178646.35 Q 44301.3 177704.5 43876.95 177280.15 Q 50307.75 176432.6 53486.35 174573.05 L 42110.55 174573.05 L 42110.55 176528.05 Q 42110.55 183475.2 39590.9 187149.45 Q 39002.1 186467.5 38201.7 186020.15 Q 40391.3 182817.4 40391.3 176505.05 L 40391.3 172926.25 L 44913.1 172926.25 Q 44608.35 171464.6 43688.35 169886.8 L 44984.4 169533.75 L 39969.25 169533.75 L 39969.25 168001.95 L 48871.4 168001.95 Q 48187.15 166708.2 47339.6 165695.05 L 49035.85 165317.85 Q 50379.05 167014.1 50826.4 167980.1 L 50753.95 168003.1 L 58596.95 168003.1 L 58596.95 169534.9 L 53604.8 169534.9 L 55206.75 169935.1 Q 54122.3 172220.15 53745.1 172927.4 L 59585.95 172927.4 L 59584.8 172923.95 Z M 67840.15 169155.4 Q 66875.3 170451.45 65296.35 172029.25 L 71514.4 172029.25 Q 72857.6 170804.5 73988.05 169156.55 L 67841.3 169156.55 L 67840.15 169155.4 Z M 78392.55 173654.2 L 72763.3 173654.2 L 72763.3 177752.8 L 78392.55 177752.8 L 78392.55 173654.2 Z M 65650.55 177752.8 L 71068.2 177752.8 L 71068.2 173654.2 L 65650.55 173654.2 L 65650.55 177752.8 Z M 77849.75 185053 Q 79570.15 185053 80111.8 184345.75 Q 80605.15 183686.8 80817.9 181308.6 Q 81548.15 181778.95 82490 181944.55 Q 82185.25 184770.1 81337.7 185663.65 Q 80441.85 186653.8 77850.9 186653.8 L 68807.3 186653.8 Q 65981.75 186653.8 64992.75 185994.85 Q 63956.6 185287.6 63956.6 183285.45 L 63956.6 173252.85 Q 63156.2 173983.1 61860.15 174878.95 Q 61648.55 174243 60917.15 173229.85 Q 65793.15 170239.85 68266.8 165459.3 L 69821.6 166048.1 Q 69420.25 166778.35 68949.9 167578.75 L 75144.95 167578.75 L 75498 167485.6 L 76652.6 168309 Q 75356.55 170287 73637.3 172030.4 L 80114.1 172030.4 L 80114.1 180462.2 L 78394.85 180462.2 L 78394.85 179426.05 L 65652.85 179426.05 L 65652.85 183311.9 Q 65652.85 184373.35 66217.5 184703.4 Q 66806.3 185056.45 68691.15 185056.45 L 77853.2 185056.45 L 77849.75 185053 Z M 4403.2 206941 L 14365.65 206941 L 14365.65 208777.55 L 6592.8 208777.55 L 6592.8 214618.4 L 13188.05 214618.4 L 13188.05 216457.25 L 6592.8 216457.25 L 6592.8 224204.8 L 4403.2 224204.8 L 4403.2 206941 Z M 18640.85 212287.35 Q 18099.2 211791.7 18099.2 211014.3 Q 18099.2 210213.9 18640.85 209720.55 Q 19136.5 209224.9 19866.75 209224.9 Q 20597 209224.9 21115.65 209720.55 Q 21657.3 210239.2 21657.3 211015.45 Q 21657.3 211792.85 21115.65 212288.5 Q 20597 212758.85 19866.75 212758.85 Q 19136.5 212758.85 18640.85 212288.5 L 18640.85 212287.35 Z M 18640.85 223804.6 Q 18099.2 223308.95 18099.2 222531.55 Q 18099.2 221755.3 18640.85 221236.65 Q 19136.5 220764 19866.75 220764 Q 20597 220764 21115.65 221236.65 Q 21657.3 221755.3 21657.3 222531.55 Q 21657.3 223308.95 21115.65 223804.6 Q 20597 224297.95 19866.75 224297.95 Q 19136.5 224297.95 18640.85 223804.6  Z M 46044.85 205716.25 Q 43619.5 211604.25 39427.75 215395.8 Q 38696.35 214713.85 37802.8 214148.05 Q 41924.4 210922.3 44184.15 205198.75 L 46046 205717.4 L 46044.85 205716.25 Z M 52521.65 216997.75 Q 56384.5 221684 58126.75 224912.05 L 56432.8 225853.9 Q 55985.45 224983.35 54878 223216.95 Q 41194.15 224158.8 40369.6 224465.85 Q 40110.85 223452.7 39687.65 222629.3 Q 40369.6 222463.7 41828.95 220674.3 Q 44749.95 217307.1 47482.35 211630.7 L 49367.2 212478.25 Q 46280.6 218153.5 42817.95 222252.1 L 53770.55 221593.15 Q 52168.6 219356.4 50897.85 217754.45 L 52522.8 217001.2 L 52521.65 216997.75 Z M 52144.45 205033.15 Q 54735.4 210379.5 59115.75 213912.3 Q 58268.2 214594.25 57655.25 215394.65 Q 53392.2 211461.65 50425.2 205692.1 L 52144.45 205033.15 Z M 64544.4 215796 L 64544.4 220176.35 L 72105.65 220176.35 L 72105.65 215796 L 64544.4 215796 Z M 64544.4 221731.15 L 64544.4 223450.4 L 62825.15 223450.4 L 62825.15 214242.35 L 73823.75 214242.35 L 73823.75 221731.15 L 64544.4 221731.15 Z M 75426.85 211721.55 L 61341.65 211721.55 L 61341.65 210143.75 L 75426.85 210143.75 L 75426.85 211721.55 Z M 79877.35 223404.4 Q 79877.35 225123.65 78815.9 225523.85 Q 77922.35 225853.9 74435.55 225853.9 Q 74294.1 224794.75 73823.75 223970.2 Q 76486 224040.35 77545.15 223994.35 Q 78110.95 223970.2 78110.95 223405.55 L 78110.95 207696.55 L 61177.2 207696.55 L 61177.2 206023.3 L 79877.35 206023.3 L 79877.35 223405.55 L 79877.35 223404.4 Z " fill-rule="nonzero" style="fill:#000000;;fill-opacity:1;"/>
</svg>