<svg version="1.1" x="0" y="0" width="100%" height="100%" viewBox="0 0 670617.6 149913.6" xmlns="http://www.w3.org/2000/svg">
  <path d="M 12934.4 25308.8 Q 9003.2 26464.4 3522.8 27987.2 L 3056 26120 L 6987.2 25161.2 L 6987.2 14692.4 L 3400.4 14692.4 L 3400.4 12946.4 L 12346.4 12946.4 L 12346.4 14692.4 L 8783.6 14692.4 L 8783.6 24670.4 L 12714.8 23613.2 L 12935.6 25308.8 L 12934.4 25308.8 Z M 25074.8 15626 Q 25074.8 16313.6 25050.8 16559.6 Q 24533.6 29928.8 23404.4 31281.2 Q 22740.8 32092.4 21512 32240 Q 20259.2 32363.6 17898.8 32190.8 Q 17849.6 31232 17334.8 30396.8 Q 18833.6 30544.4 20774 30544.4 Q 21461.6 30544.4 21806 30176 Q 22764.8 29094.8 23258 17396 L 18342.8 17396 Q 17998.4 22901.6 16596.8 26219.6 Q 14826.8 30347.6 10919.6 32535.2 Q 10476.8 31724 9617.6 31085.6 Q 13254.8 29142.8 14901.2 25432.4 Q 16229.6 22409.6 16547.6 17394.8 L 12516.8 17394.8 L 12516.8 15624.8 L 16620.8 15624.8 Q 16696.4 13143.2 16696.4 10464.8 L 18514.4 10464.8 Q 18514.4 13119.2 18441.2 15624.8 L 25076 15624.8 L 25074.8 15626 Z M 43065.2 20787.2 Q 41345.6 20787.2 40755.2 20246 Q 40164.8 19731.2 40164.8 18232.4 L 40164.8 10121.6 L 41934.8 10121.6 L 41934.8 14225.6 Q 45228.8 13144.4 47637.2 11915.6 L 48866 13241.6 Q 46532 14349.2 41934.8 15725.6 L 41934.8 18207.2 Q 41934.8 18797.6 42180.8 18969.2 Q 42425.6 19142 43236.8 19142 L 47145.2 19142 Q 47832.8 19142 48053.6 18624.8 Q 48274.4 18110 48374 16290.8 Q 48888.8 16733.6 49994 17003.6 Q 49822.4 19239.2 49281.2 20001.2 Q 48740 20788.4 47290.4 20788.4 L 43062.8 20788.4 L 43065.2 20787.2 Z M 36060.8 26070.8 L 36060.8 23835.2 L 30875.6 23835.2 L 30875.6 26070.8 L 36060.8 26070.8 Z M 30875.6 20296.4 L 30875.6 22384.4 L 36060.8 22384.4 L 36060.8 20296.4 L 30875.6 20296.4 Z M 37856 30396.8 Q 37856 31749.2 36995.6 32117.6 Q 36281.6 32438 33726.8 32438 Q 33555.2 31553.6 33136.4 30766.4 Q 34758.8 30839.6 35643.2 30766.4 Q 36060.8 30766.4 36060.8 30372.8 L 36060.8 27497.6 L 30875.6 27497.6 L 30875.6 32486 L 29180 32486 L 29180 18748.4 L 37857.2 18748.4 L 37857.2 30398 L 37856 30396.8 Z M 35816 11522 Q 38174 14619.2 38961.2 16830.8 L 37362.8 17542.4 Q 37142 16928 36821.6 16240.4 Q 29498 16781.6 28736 17051.6 Q 28415.6 15896 28145.6 15330.8 Q 28588.4 15207.2 29276 14372 Q 30825.2 12455.6 31832 9998 L 33700.4 10588.4 Q 32422.4 13046 30702.8 15183.2 L 36084.8 14862.8 Q 35346.8 13560.8 34314.8 12135.2 L 35813.6 11520.8 L 35816 11522 Z M 47267.6 30666.8 Q 48030.8 30666.8 48275.6 30076.4 Q 48496.4 29486 48596 27447.2 Q 49307.6 27938 50218.4 28109.6 Q 50045.6 30616.4 49504.4 31451.6 Q 48939.2 32286.8 47416.4 32286.8 L 43139.6 32286.8 Q 41369.6 32286.8 40779.2 31748 Q 40164.8 31230.8 40164.8 29708 L 40164.8 21474.8 L 41960 21474.8 L 41960 25334 Q 46064 24005.6 47931.2 22776.8 L 49136 24129.2 Q 46802 25529.6 41960 26858 L 41960 29709.2 Q 41960 30323.6 42204.8 30495.2 Q 42450.8 30668 43310 30668 L 47266.4 30668 L 47267.6 30666.8 Z M 56066 18182 Q 55500.8 17664.8 55500.8 16853.6 Q 55500.8 16018.4 56066 15503.6 Q 56583.2 14986.4 57345.2 14986.4 Q 58107.2 14986.4 58648.4 15503.6 Q 59213.6 16044.8 59213.6 16854.8 Q 59213.6 17666 58648.4 18183.2 Q 58107.2 18674 57345.2 18674 Q 56583.2 18674 56066 18183.2 L 56066 18182 Z M 56066 30200 Q 55500.8 29682.8 55500.8 28871.6 Q 55500.8 28061.6 56066 27520.4 Q 56583.2 27027.2 57345.2 27027.2 Q 58107.2 27027.2 58648.4 27520.4 Q 59213.6 28061.6 59213.6 28871.6 Q 59213.6 29682.8 58648.4 30200 Q 58107.2 30714.8 57345.2 30714.8 Q 56583.2 30714.8 56066 30200  Z M 83960 24842 L 84280.4 26464.4 Q 79486.4 28407.2 77471.6 29193.2 L 76881.2 27374 Q 77398.4 27226.4 79806.8 26367.2 L 79806.8 17716.4 L 77177.6 17716.4 L 77177.6 16020.8 L 79806.8 16020.8 L 79806.8 10343.6 L 81502.4 10343.6 L 81502.4 16020.8 L 83936 16020.8 L 83936 17716.4 L 81502.4 17716.4 L 81502.4 25752.8 L 83960 24842 Z M 87916.4 24621.2 L 87916.4 26661.2 L 95092.4 26661.2 L 95092.4 24621.2 L 87916.4 24621.2 Z M 95092.4 29855.6 L 95092.4 28012.4 L 87916.4 28012.4 L 87916.4 29855.6 L 95092.4 29855.6 Z M 86220.8 23220.8 L 96838.4 23220.8 L 96838.4 32436.8 L 95092.4 32436.8 L 95092.4 31281.2 L 87916.4 31281.2 L 87916.4 32436.8 L 86220.8 32436.8 L 86220.8 23220.8 Z M 88187.6 10121.6 Q 89465.6 11620.4 89956.4 12849.2 L 88383.2 13611.2 Q 87816.8 12358.4 86661.2 10760 L 88186.4 10121.6 L 88187.6 10121.6 Z M 88284.8 15626 Q 89538.8 17421.2 90004.4 19042.4 L 88899.2 19535.6 Q 88457.6 17840 87228.8 16020.8 L 88284.8 15627.2 L 88284.8 15626 Z M 92709.2 19164.8 Q 93888.8 17421.2 94626.8 15626 L 95879.6 16092.8 Q 94356.8 18674 93645.2 19582.4 L 92710.4 19164.8 L 92709.2 19164.8 Z M 96419.6 14913.2 L 92192 14913.2 L 92192 20393.6 L 96419.6 20393.6 L 96419.6 14913.2 Z M 86466.8 20393.6 L 90767.6 20393.6 L 90767.6 14913.2 L 86466.8 14913.2 L 86466.8 20393.6 Z M 97991.6 13611.2 L 97991.6 21695.6 L 84941.6 21695.6 L 84941.6 13611.2 L 92732 13611.2 Q 93863.6 12088.4 94822.4 9999.2 L 96689.6 10662.8 Q 95460.8 12530 94625.6 13611.2 L 97991.6 13611.2 Z M 112443.2 15478.4 Q 111828.8 29462 110699.6 30911.6 Q 110085.2 31748 109028 31845.2 Q 108069.2 31992.8 106349.6 31869.2 Q 106250 30789.2 105808.4 30002 Q 107110.4 30125.6 108215.6 30125.6 Q 108756.8 30125.6 109077.2 29708 Q 110085.2 28552.4 110600 16312.4 L 107134.4 16312.4 Q 106593.2 27765.2 102858.8 32386.4 Q 102219.2 31599.2 101408 31157.6 Q 104873.6 27028.4 105340.4 16313.6 L 101948 16313.6 L 101948 14519.6 L 105389.6 14519.6 Q 105438.8 13020.8 105438.8 10121.6 L 107256.8 10121.6 Q 107256.8 12258.8 107183.6 14519.6 L 112443.2 14519.6 L 112443.2 15478.4 Z M 120848 28577.6 L 120848 14889.2 L 116080.4 14889.2 L 116080.4 28577.6 L 120848 28577.6 Z M 122716.4 13120.4 L 122716.4 31970 L 120848 31970 L 120848 30347.6 L 116080.4 30347.6 L 116080.4 32141.6 L 114286.4 32141.6 L 114286.4 13120.4 L 122716.4 13120.4 Z M 131637.2 31994 Q 129228.8 28971.2 126206 26513.6 L 127803.2 25112 Q 130554.8 27324.8 133308.8 30568.4 L 131637.2 31994 Z M 163094 19558.4 L 163094 12455.6 L 160809.2 12455.6 L 160809.2 19558.4 L 163094 19558.4 Z M 156041.6 19558.4 L 156041.6 12455.6 L 153755.6 12455.6 L 153755.6 19558.4 L 156041.6 19558.4 Z M 164643.2 19558.4 L 165872 19558.4 L 165872 21254 L 164643.2 21254 L 164643.2 30273.2 Q 164643.2 31526 163929.2 31895.6 Q 163364 32213.6 161300 32213.6 Q 161200.4 31354.4 160832 30616.4 Q 161273.6 30640.4 162748.4 30640.4 Q 163092.8 30640.4 163092.8 30248 L 163092.8 21252.8 L 160808 21252.8 L 160808 21424.4 Q 160808 29093.6 159136.4 32510 Q 158718.8 32043.2 157834.4 31673.6 Q 159284 28626.8 159284 21450.8 L 159284 21254 L 157588.4 21254 L 157588.4 30273.2 Q 157588.4 31526 156876.8 31895.6 Q 156311.6 32213.6 154246.4 32213.6 Q 154149.2 31354.4 153780.8 30616.4 Q 154222.4 30640.4 155697.2 30640.4 Q 156041.6 30616.4 156041.6 30248 L 156041.6 21252.8 L 153755.6 21252.8 L 153755.6 22456.4 Q 153755.6 29535.2 151864.4 32510 Q 151445.6 32043.2 150561.2 31576.4 Q 152232.8 28922 152232.8 22457.6 L 152232.8 21254 L 150659.6 21254 L 150659.6 19558.4 L 152232.8 19558.4 L 152232.8 10833.2 L 157589.6 10833.2 L 157589.6 19558.4 L 159285.2 19558.4 L 159285.2 10859.6 L 164643.2 10859.6 L 164643.2 19558.4 Z M 168377.6 26537.6 L 166904 26537.6 L 166904 12776 L 168377.6 12776 L 168377.6 26537.6 Z M 172040 10466 L 172040 30444.8 Q 172040 31797.2 171204.8 32190.8 Q 170541.2 32511.2 168034.4 32511.2 Q 167913.2 31773.2 167495.6 30888.8 Q 168675.2 30912.8 169977.2 30912.8 Q 170444 30888.8 170444 30422 L 170444 10467.2 L 172041.2 10467.2 L 172040 10466 Z M 191848.4 10490 L 191283.2 11424.8 Q 193740.8 14520.8 197944.4 16905.2 Q 197084 17568.8 196739.6 18330.8 Q 192929.6 15897.2 190374.8 12728 Q 187596.8 16341.2 183786.8 18552.8 Q 183123.2 17668.4 182558 17250.8 Q 187719.2 14572.4 190324.4 9903.2 L 191847.2 10492.4 L 191848.4 10490 Z M 183026 11668.4 Q 181403.6 15797.6 180396.8 18034.4 Q 182754.8 20540 182754.8 23318 Q 182754.8 25481.6 181772 26193.2 Q 181205.6 26562.8 180443.6 26684 Q 179732 26757.2 178674.8 26709.2 Q 178626.8 25798.4 178257.2 25086.8 Q 179044.4 25160 179756 25110.8 Q 180297.2 25110.8 180567.2 24866 Q 181132.4 24496.4 181132.4 23146.4 Q 181084.4 20639.6 178774.4 18231.2 Q 179658.8 16142 180838.4 12701.6 L 177693.2 12701.6 L 177693.2 32435.6 L 176070.8 32435.6 L 176070.8 11052.8 L 181551.2 11052.8 L 181821.2 10955.6 L 183026 11667.2 L 183026 11668.4 Z M 187350.8 25653.2 Q 185753.6 28872.8 183737.6 31012.4 Q 183075.2 30398 182361.2 30028.4 Q 184426.4 28013.6 185728.4 25186.4 L 187349.6 25653.2 L 187350.8 25653.2 Z M 191406.8 23810 L 191406.8 30371.6 Q 191406.8 31773.2 190472 32166.8 Q 189710 32484.8 186884 32484.8 Q 186711.2 31649.6 186244.4 30790.4 Q 187620.8 30838.4 189146 30838.4 Q 189636.8 30814.4 189636.8 30371.6 L 189636.8 23810 L 183222.8 23810 L 183222.8 22139.6 L 189636.8 22139.6 L 189636.8 19164.8 L 185507.6 19164.8 L 185507.6 17542.4 L 195142.4 17542.4 L 195142.4 19164.8 L 191406.8 19164.8 L 191406.8 22139.6 L 197427.2 22139.6 L 197427.2 23810 L 191406.8 23810 Z M 194182.4 24940.4 Q 196566.8 27668 197771.6 29952.8 L 196296.8 30789.2 Q 195167.6 28479.2 192807.2 25677.2 L 194183.6 24939.2 L 194182.4 24940.4 Z M 205365.2 31994 Q 202956.8 28971.2 199934 26513.6 L 201531.2 25112 Q 204282.8 27324.8 207036.8 30568.4 L 205365.2 31994 Z M 230752.4 10686.8 Q 229966.4 13095.2 228810.8 15552.8 L 228810.8 32511.2 L 227040.8 32511.2 L 227040.8 18846.8 Q 226032.8 20517.2 224780 22040 Q 224362.4 21033.2 223821.2 20172.8 Q 227187.2 16289.6 229079.6 10194.8 L 230750 10685.6 L 230752.4 10686.8 Z M 230777.6 16880 L 232350.8 16880 L 232350.8 28650.8 L 230777.6 28650.8 L 230777.6 16880 Z M 236822 14249.6 Q 237977.6 16142 240189.2 17691.2 Q 242426 16240.4 243680 14249.6 L 236822 14249.6 Z M 245964.8 13193.6 Q 244563.2 16462.4 241614.8 18526.4 Q 243924.8 19779.2 247020.8 20418.8 Q 246382.4 21057.2 246014 21892.4 Q 242696 21106.4 240165.2 19508 Q 237363.2 21130.4 233259.2 22038.8 Q 232889.6 21130.4 232398.8 20639.6 Q 236061.2 19952 238788.8 18502.4 Q 237042.8 17150 235913.6 15503.6 Q 234954.8 16805.6 233750 17934.8 Q 233135.6 17320.4 232349.6 16853.6 Q 235518.8 14200.4 237116 10047.2 L 238787.6 10464.8 Q 238270.4 11717.6 237705.2 12725.6 L 244611.2 12725.6 L 244907.6 12652.4 L 245963.6 13193.6 L 245964.8 13193.6 Z M 244072.4 24153.2 Q 241344.8 27104 235667.6 28577.6 Q 235226 27839.6 234708.8 27398 Q 240311.6 26120 242672 23565.2 L 244072.4 24154.4 L 244072.4 24153.2 Z M 241737.2 21722 Q 239648 23883.2 235422.8 25308.8 Q 234929.6 24621.2 234388.4 24227.6 Q 238493.6 22974.8 240336.8 21131.6 L 241737.2 21722 Z M 246530 26882 Q 243164 30888.8 234341.6 32438 Q 233997.2 31650.8 233382.8 30963.2 Q 241811.6 29783.6 244983.2 26194.4 L 246530 26882 Z M 262480.4 16535.6 Q 263364.8 21106.4 265108.4 24423.2 Q 266804 21227.6 267566 16288.4 L 262577.6 16288.4 L 262480.4 16534.4 L 262480.4 16535.6 Z M 269484.8 16289.6 Q 268476.8 22433.6 266216 26243.6 Q 268329.2 29439.2 271474.4 30864.8 Q 270908 31306.4 270220.4 32387.6 Q 267221.6 30838.4 265084.4 27839.6 Q 262847.6 30790.4 259113.2 32608.4 Q 258816.8 31822.4 258030.8 30938 Q 261914 29168 264027.2 26144 Q 262478 23318 261396.8 19090.4 Q 260685.2 20516 259628 22038.8 Q 258890 21179.6 258227.6 20712.8 L 258348.8 20565.2 L 251910.8 20565.2 L 251910.8 28306.4 L 258375.2 25972.4 Q 258375.2 26856.8 258620 27692 Q 250732.4 30714.8 250068.8 31329.2 Q 249798.8 30176 249332 29462 Q 250094 29117.6 250094 28085.6 L 250094 18770 L 256607.6 18770 L 256607.6 13586 L 249800 13586 L 249800 11790.8 L 258401.6 11790.8 L 258401.6 20492 Q 261056 16977.2 262457.6 10047.2 L 264225.2 10391.6 Q 263734.4 12776 263145.2 14570 L 271083.2 14570 L 271083.2 16289.6 L 269486 16289.6 L 269484.8 16289.6 Z M 279093.2 31994 Q 276684.8 28971.2 273662 26513.6 L 275259.2 25112 Q 278010.8 27324.8 280764.8 30568.4 L 279093.2 31994 Z M 302858 23072 L 302858 30224 Q 302858 31576.4 302048 32019.2 Q 301334 32387.6 299146.4 32387.6 Q 299073.2 31649.6 298606.4 30617.6 Q 299565.2 30641.6 300696.8 30641.6 Q 301114.4 30641.6 301114.4 30224 L 301114.4 23735.6 L 298509.2 24743.6 L 298016 22997.6 Q 299541.2 22532 301114.4 21917.6 L 301114.4 16682 L 298190 16682 L 298190 14986.4 L 301114.4 14986.4 L 301114.4 10095.2 L 302858 10095.2 L 302858 14986.4 L 305315.6 14986.4 L 305315.6 16682 L 302858 16682 L 302858 21276.8 L 305267.6 20344.4 L 305585.6 21990.8 L 302858 23070.8 L 302858 23072 Z M 309051.2 25038.8 Q 310403.6 26981.6 312934.4 28431.2 Q 315465.2 27029.6 316793.6 25038.8 L 309051.2 25038.8 Z M 319275.2 23956.4 Q 317849.6 27152 314604.8 29265.2 Q 317235.2 30420.8 320528 30962 Q 319962.8 31503.2 319445.6 32462 Q 315759.2 31750.4 312909.2 30225.2 Q 309664.4 31847.6 305266.4 32559.2 Q 305044.4 31773.2 304479.2 31059.2 Q 308313.2 30520.4 311288 29266.4 Q 308706.8 27522.8 307208 25113.2 L 307380.8 25040 L 306299.6 25040 L 306299.6 23493.2 L 312026 23493.2 L 312026 21108.8 L 306617.6 21108.8 L 306617.6 12728 Q 309198.8 11867.6 310551.2 10959.2 L 311853.2 12164 Q 310403.6 12975.2 308216 13613.6 L 308216 15874.4 L 310845.2 15874.4 L 310845.2 17276 L 308216 17276 L 308216 19584.8 L 312026 19584.8 L 312026 10074.8 L 313696.4 10074.8 L 313696.4 19584.8 L 317727.2 19584.8 L 317727.2 17250.8 L 314778.8 17250.8 L 314778.8 15850.4 L 317727.2 15850.4 L 317727.2 13613.6 L 314655.2 13613.6 L 314655.2 12090.8 L 319373.6 12090.8 L 319373.6 21110 L 313696.4 21110 L 313696.4 23494.4 L 317873.6 23494.4 L 318194 23394.8 L 319275.2 23960 L 319275.2 23956.4 Z M 330383.6 27866 Q 327802.4 30371.6 324533.6 32019.2 Q 323968.4 31404.8 323132 30814.4 Q 326573.6 29315.6 328686.8 27226.4 L 330382.4 27866 L 330383.6 27866 Z M 335076.8 25948.4 L 335076.8 30370.4 Q 335076.8 31722.8 334070 32092.4 Q 333209.6 32386.4 330285.2 32386.4 Q 330161.6 31648.4 329620.4 30689.6 Q 332004.8 30762.8 332792 30713.6 Q 333306.8 30689.6 333306.8 30321.2 L 333306.8 26044.4 Q 325443.2 26561.6 324608 26806.4 Q 324362 25774.4 324117.2 25233.2 Q 325272.8 25085.6 327434 24201.2 Q 329056.4 23636 331956.8 22210.4 Q 326942 22530.8 326376.8 22751.6 Q 326180 21891.2 325886 21179.6 Q 326573.6 21080 327654.8 20514.8 Q 330063.2 19359.2 332250.8 17663.6 L 324975.2 17663.6 L 324975.2 20662.4 L 323255.6 20662.4 L 323255.6 16091.6 L 332889.2 16091.6 L 332889.2 13806.8 L 323501.6 13806.8 L 323501.6 12208.4 L 332889.2 12208.4 L 332889.2 10047.2 L 334757.6 10047.2 L 334757.6 12208.4 L 344145.2 12208.4 L 344145.2 13806.8 L 334757.6 13806.8 L 334757.6 16091.6 L 344464.4 16091.6 L 344464.4 20662.4 L 342670.4 20662.4 L 342670.4 17663.6 L 333330.8 17663.6 L 334068.8 18230 Q 331758.8 19900.4 329153.6 21153.2 L 334634 20835.2 Q 336353.6 19950.8 338073.2 18845.6 L 339351.2 19950.8 Q 334362.8 22949.6 329153.6 24890 L 339843.2 24324.8 Q 338639.6 23169.2 337852.4 22530.8 L 339154.4 21719.6 Q 342472.4 24422 344093.6 26511.2 L 342717.2 27470 Q 342128 26682.8 341096 25553.6 L 335073.2 25947.2 L 335076.8 25948.4 Z M 338445.2 27104 Q 342252.8 29068.4 344489.6 30911.6 L 343040 31943.6 Q 340976 30125.6 337068.8 28012.4 L 338445.2 27104 Z M 13548.8 55792 Q 12099.2 59896 11484.8 61124.8 L 10108.4 60780.4 Q 10673.6 59551.6 11460.8 57191.2 L 8855.6 57191.2 L 8855.6 66800.8 Q 8855.6 68226.4 7971.2 68570.8 Q 7209.2 68915.2 4481.6 68915.2 Q 4358 68054.8 3915.2 67170.4 Q 6078.8 67219.6 6620 67170.4 Q 7086.8 67170.4 7086.8 66778 L 7086.8 57192.4 L 3056 57192.4 L 3056 55546 L 9027.2 55546 Q 6642.8 53728 4284.8 52178.8 L 5292.8 51023.2 Q 6569.6 51834.4 7480.4 52472.8 Q 8954 51120.4 10182.8 49326.4 L 3597.2 49326.4 L 3597.2 47704 L 11362.4 47704 L 11682.8 47606.8 L 12788 48368.8 Q 11166.8 51096.4 8757.2 53308 Q 10700 54685.6 10970 54930.4 L 10503.2 55544.8 L 12149.6 55544.8 L 12419.6 55471.6 L 13548.8 55792 Z M 20210 59846.8 Q 20210 62747.2 19054.4 64638.4 Q 17432 67318 13280 68840.8 Q 12762.8 68029.6 12148.4 67512.4 Q 15982.4 66235.6 17481.2 63875.2 Q 18489.2 62278 18489.2 59820.4 L 18489.2 54954.4 L 20208.8 54954.4 L 20208.8 59844.4 L 20210 59846.8 Z M 21021.2 63754 Q 24020 66040 25542.8 67662.4 L 24290 68915.2 Q 22913.6 67318 19816.4 64860.4 L 21021.2 63752.8 L 21021.2 63754 Z M 25542.8 47608 L 25542.8 49230.4 L 20652.8 49230.4 Q 20013.2 51121.6 19768.4 51712 L 24560 51712 L 24560 63262 L 22790 63262 L 22790 53382.4 L 16031.6 53382.4 L 16031.6 63288.4 L 14336 63288.4 L 14336 51712 L 18022.4 51712 Q 18342.8 50580.4 18636.8 49230.4 L 13451.6 49230.4 L 13451.6 47608 L 25542.8 47608 Z M 41493.2 50656 Q 40534.4 53088.4 39280.4 54734.8 Q 38372 54096.4 37733.6 53802.4 Q 39870.8 51196 41002.4 46502.8 L 42772.4 46847.2 Q 42402.8 48173.2 42108.8 49008.4 L 49505.6 49008.4 L 49505.6 50656 L 41494.4 50656 L 41493.2 50656 Z M 43974.8 51097.6 Q 46162.4 53038 47267.6 54906.4 L 45646.4 55717.6 Q 44662.4 53849.2 42425.6 51736 L 43974.8 51097.6 Z M 36405.2 55571.2 L 34611.2 55571.2 L 34611.2 46747.6 L 36405.2 46747.6 L 36405.2 55571.2 Z M 33285.2 64073.2 L 31490 64073.2 L 31490 56306.8 L 46653.2 56306.8 L 46653.2 63925.6 L 44786 63925.6 L 44786 57929.2 L 33285.2 57929.2 L 33285.2 64073.2 Z M 31293.2 54760 L 29523.2 54760 L 29523.2 47878 L 31293.2 47878 L 31293.2 54760 Z M 46726.4 67048 Q 47440.4 67048 47661.2 66605.2 Q 47882 66163.6 47931.2 64517.2 Q 48569.6 64934.8 49553.6 65179.6 Q 49380.8 67244.8 48839.6 67907.2 Q 48324.8 68594.8 46875.2 68594.8 L 42598.4 68594.8 Q 40804.4 68594.8 40214 68153.2 Q 39599.6 67686.4 39599.6 66384.4 L 39599.6 62525.2 Q 38543.6 66851.2 29499.2 69012.4 Q 29057.6 68153.2 28343.6 67538.8 Q 34242.8 66284.8 36454.4 64270 Q 37880 62944 37880 60928 L 37880 59035.6 L 39747.2 59035.6 L 39747.2 60978.4 Q 39747.2 61764.4 39575.6 62526.4 L 41418.8 62526.4 L 41418.8 66361.6 Q 41418.8 66803.2 41663.6 66926.8 Q 41909.6 67050.4 42770 67050.4 L 46725.2 67050.4 L 46726.4 67048 Z M 56066 54636.4 Q 55500.8 54119.2 55500.8 53308 Q 55500.8 52472.8 56066 51958 Q 56583.2 51440.8 57345.2 51440.8 Q 58107.2 51440.8 58648.4 51958 Q 59213.6 52499.2 59213.6 53309.2 Q 59213.6 54120.4 58648.4 54637.6 Q 58107.2 55128.4 57345.2 55128.4 Q 56583.2 55128.4 56066 54637.6 L 56066 54636.4 Z M 56066 66654.4 Q 55500.8 66137.2 55500.8 65326 Q 55500.8 64516 56066 63974.8 Q 56583.2 63481.6 57345.2 63481.6 Q 58107.2 63481.6 58648.4 63974.8 Q 59213.6 64516 59213.6 65326 Q 59213.6 66137.2 58648.4 66654.4 Q 58107.2 67169.2 57345.2 67169.2 Q 56583.2 67169.2 56066 66654.4  Z M 78430.4 62944 L 78430.4 55546 L 76439.6 55546 L 76439.6 53850.4 L 78527.6 53729.2 L 78797.6 49993.6 L 80666 49993.6 L 80666 53729.2 L 84279.2 53729.2 L 84279.2 55547.2 L 80666 55547.2 L 80666 62993.2 Q 80666 65574.4 82730 65574.4 Q 83368.4 65574.4 84252.8 65230 L 84695.6 66900.4 Q 83170.4 67393.6 82238 67393.6 Q 78428 67393.6 78428 62945.2 L 78430.4 62944 Z M 88113.2 65549.2 Q 86244.8 63606.4 86244.8 60410.8 Q 86244.8 57191.2 88113.2 55224.4 Q 89856.8 53381.2 92438 53381.2 Q 95019.2 53381.2 96762.8 55224.4 Q 98631.2 57191.2 98631.2 60410.8 Q 98631.2 63606.4 96762.8 65549.2 Q 95019.2 67392.4 92438 67392.4 Q 89856.8 67392.4 88113.2 65549.2  Z M 95240 64123.6 Q 96321.2 62722 96321.2 60412 Q 96321.2 58103.2 95240 56677.6 Q 94184 55252 92438 55252 Q 90718.4 55252 89637.2 56677.6 Q 88581.2 58103.2 88581.2 60412 Q 88581.2 62722 89637.2 64123.6 Q 90694.4 65524 92438 65524 Q 94184 65524 95240 64123.6  Z M 102590.8 65573.2 Q 101092 63706 101092 60412 Q 101092 57266.8 102838 55276 Q 104484.4 53383.6 106868.8 53383.6 Q 108736 53383.6 110628.4 54958 L 110504.8 52648 L 110504.8 47510.8 L 112741.6 47510.8 L 112741.6 67074.4 L 110922.4 67074.4 L 110701.6 65501.2 L 110652.4 65501.2 Q 108712 67393.6 106598.8 67393.6 Q 104068 67393.6 102593.2 65574.4 L 102590.8 65573.2 Z M 110503.6 63679.6 L 110503.6 56676.4 Q 108930.4 55274.8 107258.8 55274.8 Q 105612.4 55274.8 104531.2 56676.4 Q 103402 58126 103402 60386.8 Q 103402 62820.4 104360.8 64172.8 Q 105319.6 65522.8 107089.6 65522.8 Q 108859.6 65522.8 110506 63679.6 L 110503.6 63679.6 Z M 118116.4 65549.2 Q 116248 63606.4 116248 60410.8 Q 116248 57191.2 118116.4 55224.4 Q 119860 53381.2 122441.2 53381.2 Q 125022.4 53381.2 126766 55224.4 Q 128634.4 57191.2 128634.4 60410.8 Q 128634.4 63606.4 126766 65549.2 Q 125022.4 67392.4 122441.2 67392.4 Q 119860 67392.4 118116.4 65549.2  Z M 125243.2 64123.6 Q 126324.4 62722 126324.4 60412 Q 126324.4 58103.2 125243.2 56677.6 Q 124187.2 55252 122441.2 55252 Q 120721.6 55252 119640.4 56677.6 Q 118584.4 58103.2 118584.4 60412 Q 118584.4 62722 119640.4 64123.6 Q 120697.6 65524 122441.2 65524 Q 124187.2 65524 125243.2 64123.6  Z M 132052.8 64417.6 L 132052.8 47508.4 L 134289.6 47508.4 L 134289.6 64564 Q 134289.6 65522.8 134928 65522.8 Q 135148.8 65522.8 135394.8 65474.8 L 135715.2 67194.4 Q 135198 67391.2 134412 67391.2 Q 132051.6 67391.2 132051.6 64416.4 L 132052.8 64417.6 Z M 138964.8 53728 L 141201.6 53728 L 141201.6 67072 L 138964.8 67072 L 138964.8 53728 Z M 138988.8 50556.4 Q 138547.2 50138.8 138547.2 49524.4 Q 138547.2 48074.8 140096.4 48074.8 Q 141643.2 48074.8 141643.2 49524.4 Q 141643.2 50138.8 141201.6 50556.4 Q 140758.8 50974 140096.4 50974 Q 139432.8 50974 138990 50556.4 L 138988.8 50556.4 Z M 144224.4 65549.2 L 145329.6 64074.4 Q 147272.4 65647.6 149287.2 65647.6 Q 150565.2 65647.6 151276.8 65033.2 Q 151916.4 64468 151916.4 63559.6 Q 151916.4 62207.2 148868.4 61026.4 Q 147025.2 60338.8 146190 59676.4 Q 144888 58668.4 144888 57169.6 Q 144888 55523.2 146092.8 54491.2 Q 147369.6 53383.6 149482.8 53383.6 Q 151695.6 53383.6 153636 54882.4 L 152554.8 56333.2 Q 150957.6 55152.4 149482.8 55152.4 Q 148303.2 55152.4 147639.6 55718.8 Q 147050.4 56233.6 147050.4 57068.8 Q 147050.4 57905.2 147958.8 58494.4 Q 148425.6 58790.8 149998.8 59380 Q 152013.6 60142 152775.6 60732.4 Q 154080 61764.4 154080 63436 Q 154080 65131.6 152826 66211.6 Q 151500 67392.4 149214 67392.4 Q 146462.4 67392.4 144225.6 65549.2 L 144224.4 65549.2 Z M 157534.4 62944 L 157534.4 55546 L 155543.6 55546 L 155543.6 53850.4 L 157631.6 53729.2 L 157901.6 49993.6 L 159770 49993.6 L 159770 53729.2 L 163383.2 53729.2 L 163383.2 55547.2 L 159770 55547.2 L 159770 62993.2 Q 159770 65574.4 161834 65574.4 Q 162472.4 65574.4 163356.8 65230 L 163799.6 66900.4 Q 162274.4 67393.6 161342 67393.6 Q 157532 67393.6 157532 62945.2 L 157534.4 62944 Z M 9126.8 92122.8 Q 11460.8 94507.2 12738.8 96250.8 L 11607.2 97749.6 Q 10992.8 96620.4 9125.6 94212 L 9125.6 105368.4 L 7379.6 105368.4 L 7379.6 93621.6 Q 5757.2 98389.2 3816.8 100846.8 Q 3620 100305.6 2858 99174 Q 5684 95784 7158.8 89934 L 3399.2 89934 L 3399.2 88214.4 L 7379.6 88214.4 L 7379.6 82954.8 L 9125.6 82954.8 L 9125.6 88214.4 L 12615.2 88214.4 L 12615.2 89934 L 9125.6 89934 L 9125.6 92121.6 L 9126.8 92122.8 Z M 22888.4 102051.6 L 22888.4 97800 L 15442.4 97800 L 15442.4 102051.6 L 22888.4 102051.6 Z M 15441.2 86126.4 L 15441.2 90230.4 L 22887.2 90230.4 L 22887.2 86126.4 L 15441.2 86126.4 Z M 15441.2 96129.6 L 22887.2 96129.6 L 22887.2 91902 L 15441.2 91902 L 15441.2 96129.6 Z M 24683.6 84406.8 L 24683.6 105148.8 L 22888.4 105148.8 L 22888.4 103747.2 L 15442.4 103747.2 L 15442.4 105222 L 13698.8 105222 L 13698.8 84405.6 L 24684.8 84405.6 L 24683.6 84406.8 Z M 33726.8 83202 Q 35496.8 85341.6 36258.8 87306 L 34636.4 88190.4 Q 33900.8 86175.6 32205.2 83962.8 L 33728 83200.8 L 33726.8 83202 Z M 40485.2 96153.6 Q 43409.6 101830.8 50144 103502.4 Q 49283.6 104313.6 48866 105222 Q 42401.6 103353.6 39280.4 97530 Q 37316 102544.8 29205.2 105370.8 Q 28565.6 104314.8 27903.2 103797.6 Q 36111.2 100995.6 37560.8 96153.6 L 28394 96153.6 L 28394 94359.6 L 37930.4 94359.6 Q 37978.4 93375.6 37978.4 92958 L 37978.4 89985.6 L 29870 89985.6 L 29870 88190.4 L 41370.8 88190.4 Q 42968 85732.8 44075.6 83054.4 L 46016 83742 Q 44517.2 86420.4 43337.6 88190.4 L 48203.6 88190.4 L 48203.6 89985.6 L 40019.6 89985.6 L 40019.6 92984.4 Q 40019.6 93426 39970.4 94360.8 L 49532 94360.8 L 49532 96154.8 L 40487.6 96154.8 L 40485.2 96153.6 Z M 60392 95366.4 L 57441.2 96250.8 L 57441.2 103206 Q 57441.2 104607.6 56532.8 105025.2 Q 55794.8 105393.6 53216 105345.6 Q 53092.4 104631.6 52625.6 103672.8 Q 54640.4 103722 55157.6 103672.8 Q 55648.4 103672.8 55648.4 103206 L 55648.4 96792 L 52700 97652.4 L 52182.8 95858.4 Q 53830.4 95488.8 55648.4 94974 L 55648.4 89616 L 52503.2 89616 L 52503.2 87896.4 L 55648.4 87896.4 L 55648.4 82981.2 L 57442.4 82981.2 L 57442.4 87896.4 L 60170 87896.4 L 60170 89616 L 57442.4 89616 L 57442.4 94483.2 Q 58696.4 94137.6 60170 93696 L 60392 95366.4 Z M 63537.2 93868.8 Q 64814 97161.6 67150.4 99519.6 Q 69828.8 97111.2 71106.8 93867.6 L 63537.2 93867.6 L 63537.2 93868.8 Z M 73466 92614.8 Q 71967.2 97480.8 68477.6 100701.6 Q 71132 102862.8 74818.4 103870.8 Q 74180 104485.2 73638.8 105444 Q 69779.6 104264.4 67077.2 101880 Q 64126.4 104116.8 60095.6 105393.6 Q 59703.2 104434.8 59112.8 103747.2 Q 62872.4 102739.2 65771.6 100627.2 Q 63192.8 97849.2 61742 93892.8 L 61817.6 93868.8 L 61006.4 93868.8 L 61006.4 92173.2 L 66266 92173.2 L 66266 88510.8 L 60514.4 88510.8 L 60514.4 86815.2 L 66266 86815.2 L 66266 82957.2 L 68060 82957.2 L 68060 86815.2 L 73934 86815.2 L 73934 88510.8 L 68060 88510.8 L 68060 92173.2 L 71967.2 92173.2 L 72263.6 92100 L 73467.2 92614.8 L 73466 92614.8 Z M 95043.2 88190.4 Q 93617.6 86667.6 90669.2 84530.4 L 91997.6 83425.2 Q 94896.8 85416 96419.6 86889.6 L 95043.2 88191.6 L 95043.2 88190.4 Z M 89834 90944.4 Q 93668 97285.2 99321.2 100822.8 Q 98510 101437.2 97871.6 102396 Q 93104 98979.6 89097.2 92811.6 L 89097.2 105420 L 87130.4 105420 L 87130.4 93549.6 Q 83346.8 99620.4 78111.2 102592.8 Q 77496.8 101684.4 76758.8 101046 Q 83026.4 97825.2 86615.6 90945.6 L 77496.8 90945.6 L 77496.8 89150.4 L 87130.4 89150.4 L 87130.4 83006.4 L 89097.2 83006.4 L 89097.2 89150.4 L 98486 89150.4 L 98486 90945.6 L 89835.2 90945.6 L 89834 90944.4 Z M 119889.2 87379.2 Q 118956.8 86250 117038 84627.6 L 118193.6 83692.8 Q 120036.8 85143.6 121094 86347.2 L 119889.2 87379.2 Z M 108609.2 96006 Q 108092 94874.4 106839.2 92589.6 L 106839.2 105392.4 L 105119.6 105392.4 L 105119.6 93522 Q 103791.2 97798.8 102218 100011.6 Q 101924 99127.2 101285.6 98266.8 Q 103718 94974 104972 89395.2 L 101948 89395.2 L 101948 87675.6 L 105119.6 87675.6 L 105119.6 82957.2 L 106839.2 82957.2 L 106839.2 87675.6 L 109566.8 87675.6 L 109566.8 89395.2 L 106839.2 89395.2 L 106839.2 90330 Q 107970.8 91828.8 109714.4 94728 L 108609.2 96006 Z M 123502.4 95636.4 Q 121635.2 98414.4 118686.8 100651.2 Q 120012.8 103623.6 121365.2 103623.6 Q 122224.4 103623.6 122397.2 99667.2 Q 123011.6 100281.6 123872 100651.2 Q 123602 103402.8 123060.8 104410.8 Q 122470.4 105418.8 121192.4 105418.8 Q 118907.6 105418.8 117161.6 101732.4 Q 113892.8 103820.4 110255.6 105001.2 Q 109814 104164.8 109150.4 103453.2 Q 113254.4 102224.4 116499.2 100111.2 Q 115712 97923.6 115194.8 95220 L 110600 96104.4 L 110231.6 94458 L 114876.8 93549.6 Q 114556.4 91582.8 114408.8 90230.4 L 110549.6 90844.8 L 110255.6 89149.2 L 114286.4 88534.8 Q 114065.6 86150.4 114016.4 83005.2 L 115810.4 83005.2 Q 115810.4 85708.8 116032.4 88290 L 122127.2 87331.2 L 122447.6 88977.6 L 116204 89960.4 Q 116400.8 91730.4 116646.8 93229.2 L 122864 92025.6 L 123232.4 93646.8 L 116940.8 94875.6 Q 117431.6 97185.6 118046 99004.8 Q 120430.4 97161.6 121929.2 94900.8 L 123502.4 95636.4 Z M 129794 91090.8 Q 129228.8 90573.6 129228.8 89762.4 Q 129228.8 88927.2 129794 88412.4 Q 130311.2 87895.2 131073.2 87895.2 Q 131835.2 87895.2 132376.4 88412.4 Q 132941.6 88953.6 132941.6 89763.6 Q 132941.6 90574.8 132376.4 91092 Q 131835.2 91582.8 131073.2 91582.8 Q 130311.2 91582.8 129794 91092 L 129794 91090.8 Z M 129794 103108.8 Q 129228.8 102591.6 129228.8 101780.4 Q 129228.8 100970.4 129794 100429.2 Q 130311.2 99936 131073.2 99936 Q 131835.2 99936 132376.4 100429.2 Q 132941.6 100970.4 132941.6 101780.4 Q 132941.6 102591.6 132376.4 103108.8 Q 131835.2 103623.6 131073.2 103623.6 Q 130311.2 103623.6 129794 103108.8  Z M 152158.4 99398.4 L 152158.4 92000.4 L 150167.6 92000.4 L 150167.6 90304.8 L 152255.6 90183.6 L 152525.6 86448 L 154394 86448 L 154394 90183.6 L 158007.2 90183.6 L 158007.2 92001.6 L 154394 92001.6 L 154394 99447.6 Q 154394 102028.8 156458 102028.8 Q 157096.4 102028.8 157980.8 101684.4 L 158423.6 103354.8 Q 156898.4 103848 155966 103848 Q 152156 103848 152156 99399.6 L 152158.4 99398.4 Z M 159628.4 109006.8 L 160071.2 107212.8 Q 160685.6 107433.6 161079.2 107433.6 Q 163167.2 107433.6 164102 104558.4 L 164396 103550.4 L 159039.2 90182.4 L 161373.2 90182.4 L 164100.8 97603.2 Q 165035.6 100381.2 165380 101340 L 165501.2 101340 L 166632.8 97604.4 L 169017.2 90183.6 L 171204.8 90183.6 L 166166 104632.8 Q 164519.6 109278 161201.6 109278 Q 160293.2 109278 159629.6 109008 L 159628.4 109006.8 Z M 173729.6 90182.4 L 175572.8 90182.4 L 175769.6 91705.2 L 175842.8 91705.2 Q 178128.8 89836.8 180093.2 89836.8 Q 182624 89836.8 184049.6 91705.2 Q 185402 93499.2 185402 96644.4 Q 185402 99937.2 183658.4 101953.2 Q 182010.8 103845.6 179602.4 103845.6 Q 177808.4 103845.6 175916 102296.4 L 175965.2 104630.4 L 175965.2 109152 L 173728.4 109152 L 173728.4 90181.2 L 173729.6 90182.4 Z M 181986.8 100578 Q 183068 99103.2 183068 96670.8 Q 183068 91730.4 179553.2 91730.4 Q 177956 91730.4 175965.2 93573.6 L 175965.2 100578 Q 177611.6 101978.4 179234 101978.4 Q 180929.6 101978.4 181985.6 100578 L 181986.8 100578 Z M 189796.4 102003.6 Q 187928 100060.8 187928 96865.2 Q 187928 93745.2 189771.2 91729.2 Q 191517.2 89836.8 193950.8 89836.8 Q 196456.4 89836.8 197882 91532.4 Q 199258.4 93204 199258.4 96103.2 Q 199258.4 96742.8 199161.2 97381.2 L 190166 97381.2 Q 190265.6 99518.4 191494.4 100772.4 Q 192698 102049.2 194590.4 102049.2 Q 196360.4 102049.2 197933.6 100993.2 L 198744.8 102468 Q 196605.2 103844.4 194320.4 103844.4 Q 191568.8 103844.4 189798.8 102001.2 L 189796.4 102003.6 Z M 197292.8 95785.2 Q 197292.8 91632 193974.8 91632 Q 192500 91632 191444 92713.2 Q 190338.8 93868.8 190142 95785.2 L 197294 95785.2 L 197292.8 95785.2 Z M 201005.2 102003.6 L 202110.4 100528.8 Q 204053.2 102102 206068 102102 Q 207346 102102 208057.6 101487.6 Q 208697.2 100922.4 208697.2 100014 Q 208697.2 98661.6 205649.2 97480.8 Q 203806 96793.2 202970.8 96130.8 Q 201668.8 95122.8 201668.8 93624 Q 201668.8 91977.6 202873.6 90945.6 Q 204150.4 89838 206263.6 89838 Q 208476.4 89838 210416.8 91336.8 L 209335.6 92787.6 Q 207738.4 91606.8 206263.6 91606.8 Q 205084 91606.8 204420.4 92173.2 Q 203831.2 92688 203831.2 93523.2 Q 203831.2 94359.6 204739.6 94948.8 Q 205206.4 95245.2 206779.6 95834.4 Q 208794.4 96596.4 209556.4 97186.8 Q 210860.8 98218.8 210860.8 99890.4 Q 210860.8 101586 209606.8 102666 Q 208280.8 103846.8 205994.8 103846.8 Q 203243.2 103846.8 201006.4 102003.6 L 201005.2 102003.6 Z M 214732.8 102003.6 Q 212913.6 100111.2 212913.6 96866.4 Q 212913.6 93646.8 214856.4 91680 Q 216674.4 89836.8 219354 89836.8 Q 221467.2 89836.8 223261.2 91411.2 L 222105.6 92908.8 Q 220779.6 91705.2 219427.2 91705.2 Q 217608 91705.2 216428.4 93130.8 Q 215248.8 94580.4 215248.8 96865.2 Q 215248.8 99175.2 216402 100576.8 Q 217533.6 101977.2 219376.8 101977.2 Q 221072.4 101977.2 222522 100651.2 L 223480.8 102150 Q 221637.6 103845.6 219180 103845.6 Q 216452.4 103845.6 214732.8 102002.4 L 214732.8 102003.6 Z M 226363.2 90182.4 L 228206.4 90182.4 L 228403.2 92614.8 L 228476.4 92614.8 Q 229999.2 89836.8 232261.2 89836.8 Q 233120.4 89836.8 233685.6 90133.2 L 233268 92100 Q 232702.8 91878 231964.8 91878 Q 229777.2 91878 228597.6 94950 L 228597.6 103527.6 L 226360.8 103527.6 L 226360.8 90183.6 L 226363.2 90182.4 Z M 235886.4 90182.4 L 238123.2 90182.4 L 238123.2 103526.4 L 235886.4 103526.4 L 235886.4 90182.4 Z M 235910.4 87010.8 Q 235468.8 86593.2 235468.8 85978.8 Q 235468.8 84529.2 237018 84529.2 Q 238564.8 84529.2 238564.8 85978.8 Q 238564.8 86593.2 238123.2 87010.8 Q 237680.4 87428.4 237018 87428.4 Q 236354.4 87428.4 235911.6 87010.8 L 235910.4 87010.8 Z M 242644.8 90182.4 L 244488 90182.4 L 244684.8 91705.2 L 244758 91705.2 Q 247044 89836.8 249008.4 89836.8 Q 251539.2 89836.8 252964.8 91705.2 Q 254317.2 93499.2 254317.2 96644.4 Q 254317.2 99937.2 252573.6 101953.2 Q 250926 103845.6 248517.6 103845.6 Q 246723.6 103845.6 244831.2 102296.4 L 244880.4 104630.4 L 244880.4 109152 L 242643.6 109152 L 242643.6 90181.2 L 242644.8 90182.4 Z M 250902 100578 Q 251983.2 99103.2 251983.2 96670.8 Q 251983.2 91730.4 248468.4 91730.4 Q 246871.2 91730.4 244880.4 93573.6 L 244880.4 100578 Q 246526.8 101978.4 248149.2 101978.4 Q 249844.8 101978.4 250900.8 100578 L 250902 100578 Z M 258244.8 99398.4 L 258244.8 92000.4 L 256254 92000.4 L 256254 90304.8 L 258342 90183.6 L 258612 86448 L 260480.4 86448 L 260480.4 90183.6 L 264093.6 90183.6 L 264093.6 92001.6 L 260480.4 92001.6 L 260480.4 99447.6 Q 260480.4 102028.8 262544.4 102028.8 Q 263182.8 102028.8 264067.2 101684.4 L 264510 103354.8 Q 262984.8 103848 262052.4 103848 Q 258242.4 103848 258242.4 99399.6 L 258244.8 99398.4 Z M 271515.6 104902.8 Q 269107.2 101880 266084.4 99422.4 L 267681.6 98020.8 Q 270433.2 100233.6 273187.2 103477.2 L 271515.6 104902.8 Z M 291840 85512 L 294124.8 85512 L 294124.8 93057.6 L 302530.8 93057.6 L 302530.8 85512 L 304791.6 85512 L 304791.6 103526.4 L 302530.8 103526.4 L 302530.8 95022 L 294124.8 95022 L 294124.8 103526.4 L 291840 103526.4 L 291840 85512 Z M 313468.4 87428.4 L 308012 87428.4 L 308012 85512 L 321208.4 85512 L 321208.4 87428.4 L 315754.4 87428.4 L 315754.4 103526.4 L 313468.4 103526.4 L 313468.4 87428.4 Z M 324454.4 85512 L 327206 85512 L 330671.6 95145.6 Q 331506.8 97652.4 331949.6 98905.2 L 332073.2 98905.2 Q 332294 98266.8 332687.6 97014 L 333302 95145.6 L 336742.4 85512 L 339494 85512 L 339494 103526.4 L 337356.8 103526.4 L 337356.8 93548.4 Q 337356.8 92025.6 337650.8 88239.6 L 337553.6 88239.6 L 336128 92343.6 L 332711.6 101707.2 L 331188.8 101707.2 L 327772.4 92343.6 L 326346.8 88239.6 L 326247.2 88239.6 Q 326517.2 92564.4 326517.2 93548.4 L 326517.2 103526.4 L 324453.2 103526.4 L 324453.2 85512 L 324454.4 85512 Z M 344422.4 85512 L 346707.2 85512 L 346707.2 101586 L 354573.2 101586 L 354573.2 103526.4 L 344422.4 103526.4 L 344422.4 85512 Z M 361934.8 104902.8 Q 359526.4 101880 356503.6 99422.4 L 358100.8 98020.8 Q 360852.4 100233.6 363606.4 103477.2 L 361934.8 104902.8 Z M 383464 101389.2 Q 381227.2 98832 381227.2 94531.2 Q 381227.2 90255.6 383512 87674.4 Q 385724.8 85167.6 389214.4 85167.6 Q 392162.8 85167.6 394153.6 87404.4 L 392924.8 88878 Q 391327.6 87158.4 389238.4 87158.4 Q 386657.2 87158.4 385110.4 89125.2 Q 383561.2 91116 383561.2 94458 Q 383561.2 97874.4 385084 99865.2 Q 386582.8 101857.2 389164 101857.2 Q 391474 101857.2 393341.2 99841.2 L 394595.2 101266.8 Q 392358.4 103848 389065.6 103848 Q 385624 103848 383462.8 101390.4 L 383464 101389.2 Z M 396624.4 101166 L 397976.8 99619.2 Q 400138 101856 402965.2 101856 Q 404708.8 101856 405740.8 101044.8 Q 406748.8 100257.6 406748.8 98905.2 Q 406748.8 97652.4 405889.6 96890.4 Q 405348.4 96423.6 403750 95712 L 401144.8 94580.4 Q 397483.6 93007.2 397483.6 89959.2 Q 397483.6 87871.2 399104.8 86518.8 Q 400703.2 85166.4 403160.8 85166.4 Q 406306 85166.4 408467.2 87403.2 L 407263.6 88852.8 Q 405444.4 87157.2 403159.6 87157.2 Q 401634.4 87157.2 400702 87871.2 Q 399791.2 88606.8 399791.2 89811.6 Q 399791.2 90967.2 400750 91754.4 Q 401316.4 92196 402766 92810.4 L 405347.2 93915.6 Q 409057.6 95538 409057.6 98733.6 Q 409057.6 100921.2 407411.2 102346.8 Q 405691.6 103845.6 402937.6 103845.6 Q 399178 103845.6 396623.2 101166 L 396624.4 101166 Z M 411216.4 101166 L 412568.8 99619.2 Q 414730 101856 417557.2 101856 Q 419300.8 101856 420332.8 101044.8 Q 421340.8 100257.6 421340.8 98905.2 Q 421340.8 97652.4 420481.6 96890.4 Q 419940.4 96423.6 418342 95712 L 415736.8 94580.4 Q 412075.6 93007.2 412075.6 89959.2 Q 412075.6 87871.2 413696.8 86518.8 Q 415295.2 85166.4 417752.8 85166.4 Q 420898 85166.4 423059.2 87403.2 L 421855.6 88852.8 Q 420036.4 87157.2 417751.6 87157.2 Q 416226.4 87157.2 415294 87871.2 Q 414383.2 88606.8 414383.2 89811.6 Q 414383.2 90967.2 415342 91754.4 Q 415908.4 92196 417358 92810.4 L 419939.2 93915.6 Q 423649.6 95538 423649.6 98733.6 Q 423649.6 100921.2 422003.2 102346.8 Q 420283.6 103845.6 417529.6 103845.6 Q 413770 103845.6 411215.2 101166 L 411216.4 101166 Z M 431362 104902.8 Q 428953.6 101880 425930.8 99422.4 L 427528 98020.8 Q 430279.6 100233.6 433033.6 103477.2 L 431362 104902.8 Z M 454414 87945.6 Q 453382 86372.4 451342 84602.4 L 452546.8 83667.6 Q 454684 85437.6 455692 86863.2 L 454414 87944.4 L 454414 87945.6 Z M 453726.4 94261.2 Q 452621.2 92884.8 450335.2 91238.4 L 451490.8 90182.4 Q 453776.8 91729.2 454906 93081.6 L 453726.4 94261.2 Z M 455545.6 97333.2 Q 453898 101634 452375.2 104658 L 450852.4 103699.2 Q 452596 100478.4 454169.2 96350.4 L 455546.8 97333.2 L 455545.6 97333.2 Z M 460288 87158.4 L 465055.6 87158.4 L 465055.6 88804.8 L 463457.2 88804.8 Q 462818.8 92984.4 461737.6 96326.4 Q 463728.4 99546 464491.6 101610 L 463016.8 102642 Q 462305.2 100675.2 460952.8 98390.4 Q 459233.2 102470.4 456430 104976 Q 455939.2 104288.4 455153.2 103650 Q 458200 101119.2 459895.6 96548.4 Q 458176 93770.4 456578.8 91681.2 L 457880.8 90822 Q 459281.2 92641.2 460559.2 94532.4 Q 461321.2 91780.8 461764 88806 L 456110.8 88806 L 456110.8 87159.6 L 460238.8 87159.6 Q 459527.2 85365.6 458592.4 83792.4 L 460091.2 83178 Q 461296 85070.4 461837.2 86470.8 L 460288 87158.4 Z M 467660.8 100086 L 466063.6 100086 L 466063.6 85585.2 L 467660.8 85585.2 L 467660.8 100086 Z M 471715.6 82957.2 L 471715.6 103353.6 Q 471715.6 104706 470880.4 105123.6 Q 470142.4 105444 467734 105444 Q 467610.4 104706 467192.8 103821.6 Q 469085.2 103870.8 469600 103821.6 Q 470042.8 103821.6 470042.8 103380 L 470042.8 82957.2 L 471713.2 82957.2 L 471715.6 82957.2 Z M 488674 87110.4 Q 487715.2 89542.8 486461.2 91189.2 Q 485552.8 90550.8 484914.4 90256.8 Q 487051.6 87650.4 488183.2 82957.2 L 489953.2 83301.6 Q 489583.6 84627.6 489289.6 85462.8 L 496686.4 85462.8 L 496686.4 87110.4 L 488675.2 87110.4 L 488674 87110.4 Z M 491155.6 87552 Q 493343.2 89492.4 494448.4 91360.8 L 492827.2 92172 Q 491843.2 90303.6 489606.4 88190.4 L 491155.6 87552 Z M 483586 92025.6 L 481792 92025.6 L 481792 83202 L 483586 83202 L 483586 92025.6 Z M 480466 100527.6 L 478670.8 100527.6 L 478670.8 92761.2 L 493834 92761.2 L 493834 100380 L 491966.8 100380 L 491966.8 94383.6 L 480466 94383.6 L 480466 100527.6 Z M 478474 91214.4 L 476704 91214.4 L 476704 84332.4 L 478474 84332.4 L 478474 91214.4 Z M 493907.2 103502.4 Q 494621.2 103502.4 494842 103059.6 Q 495062.8 102618 495112 100971.6 Q 495750.4 101389.2 496734.4 101634 Q 496561.6 103699.2 496020.4 104361.6 Q 495505.6 105049.2 494056 105049.2 L 489779.2 105049.2 Q 487985.2 105049.2 487394.8 104607.6 Q 486780.4 104140.8 486780.4 102838.8 L 486780.4 98979.6 Q 485724.4 103305.6 476680 105466.8 Q 476238.4 104607.6 475524.4 103993.2 Q 481423.6 102739.2 483635.2 100724.4 Q 485060.8 99398.4 485060.8 97382.4 L 485060.8 95490 L 486928 95490 L 486928 97432.8 Q 486928 98218.8 486756.4 98980.8 L 488599.6 98980.8 L 488599.6 102816 Q 488599.6 103257.6 488844.4 103381.2 Q 489090.4 103504.8 489950.8 103504.8 L 493906 103504.8 L 493907.2 103502.4 Z M 518065.6 85635.6 L 513520 85635.6 L 513520 89101.2 L 518065.6 89101.2 L 518065.6 85635.6 Z M 519835.6 90673.2 L 511824.4 90673.2 L 511824.4 84062.4 L 519835.6 84062.4 L 519835.6 90673.2 Z M 517771.6 103084.8 L 517771.6 99471.6 L 513421.6 99471.6 L 513421.6 103084.8 L 517771.6 103084.8 Z M 507694 99471.6 L 503615.2 99471.6 L 503615.2 103084.8 L 507694 103084.8 L 507694 99471.6 Z M 507449.2 85635.6 L 503099.2 85635.6 L 503099.2 89101.2 L 507449.2 89101.2 L 507449.2 85635.6 Z M 514993.6 94777.2 Q 517844.8 97087.2 522096.4 98143.2 Q 521458 98684.4 520940.8 99592.8 Q 520008.4 99298.8 519541.6 99127.2 L 519541.6 105271.2 L 517771.6 105271.2 L 517771.6 104680.8 L 513421.6 104680.8 L 513421.6 105392.4 L 511726 105392.4 L 511726 97872 L 516814 97872 Q 514429.6 96570 512710 94776 L 508115.2 94776 Q 506419.6 96546 504256 97872 L 509441.2 97872 L 509441.2 105270 L 507695.2 105270 L 507695.2 104679.6 L 503616.4 104679.6 L 503616.4 105391.2 L 501920.8 105391.2 L 501920.8 99150 Q 500839.6 99640.8 500249.2 99861.6 Q 499979.2 99099.6 499267.6 98485.2 Q 503027.2 97084.8 505705.6 94774.8 L 499709.2 94774.8 L 499709.2 93152.4 L 507278.8 93152.4 Q 508262.8 92023.2 508925.2 90670.8 L 501455.2 90670.8 L 501455.2 84060 L 509196.4 84060 L 509196.4 90400.8 L 510942.4 90745.2 Q 510304 91998 509467.6 93153.6 L 516325.6 93153.6 Q 515023.6 92293.2 513401.2 91678.8 L 514360 90720 Q 516620.8 91483.2 517973.2 92539.2 L 517382.8 93153.6 L 521635.6 93153.6 L 521635.6 94776 L 514998.4 94776 L 514993.6 94777.2 Z M 532639.6 87920.4 Q 531311.2 90944.4 529468 93475.2 L 529468 105369.6 L 527674 105369.6 L 527674 95612.4 Q 526175.2 97209.6 524749.6 98169.6 Q 524357.2 97285.2 523816 96522 Q 527944 93646.8 530647.6 87920.4 L 524600.8 87920.4 L 524600.8 86150.4 L 531383.2 86150.4 Q 532022.8 84529.2 532464.4 82956 L 534332.8 83397.6 Q 533766.4 85143.6 533374 86150.4 L 545932 86150.4 L 545932 87920.4 L 532636 87920.4 L 532639.6 87920.4 Z M 546401.2 98684.4 L 539839.6 98684.4 L 539839.6 103231.2 Q 539839.6 104754 538807.6 105122.4 Q 537996.4 105392.4 534556 105392.4 Q 534408.4 104630.4 533965.6 103647.6 Q 536645.2 103771.2 537480.4 103671.6 Q 538021.6 103647.6 538021.6 103204.8 L 538021.6 98683.2 L 531238 98683.2 L 531238 96963.6 L 538021.6 96963.6 L 538021.6 94947.6 Q 539692 94063.2 541634.8 92343.6 L 533303.2 92343.6 L 533303.2 90673.2 L 543305.2 90673.2 L 543673.6 90549.6 L 544854.4 91484.4 Q 542838.4 93696 539839.6 95539.2 L 539839.6 96964.8 L 546401.2 96964.8 L 546401.2 98684.4 Z M 557436.4 88707.6 Q 556576 87110.4 554684.8 85167.6 L 555937.6 84332.4 Q 558001.6 86299.2 558764.8 87748.8 L 557436.4 88707.6 Z M 554438.8 83348.4 Q 553700.8 85954.8 552620.8 88460.4 L 552620.8 105345.6 L 551022.4 105345.6 L 551022.4 91705.2 Q 550087.6 93351.6 549155.2 94604.4 Q 548737.6 93621.6 548220.4 92907.6 Q 551095.6 89221.2 552914.8 82929.6 L 554437.6 83347.2 L 554438.8 83348.4 Z M 560017.6 100086 Q 560114.8 100627.2 560459.2 101559.6 Q 556552 103968 556061.2 104534.4 Q 555740.8 103650 555175.6 103035.6 Q 556060 102396 556060 101143.2 L 556060 92517.6 L 553651.6 92517.6 L 553651.6 90771.6 L 557656 90771.6 L 557656 101462.4 L 560016.4 100086 L 560017.6 100086 Z M 568298.8 96153.6 L 562990 96153.6 L 562990 98611.2 L 568298.8 98611.2 L 568298.8 96153.6 Z M 568298.8 102543.6 L 568298.8 100012.8 L 562990 100012.8 L 562990 102543.6 L 568298.8 102543.6 Z M 564712 90378 L 565253.2 90378 Q 566358.4 88977.6 567390.4 87306 L 564712 87306 L 564712 90378 Z M 565988.8 92049.6 Q 564908.8 93351.6 563531.2 94629.6 L 569945.2 94629.6 L 569945.2 105222 L 568298.8 105222 L 568298.8 104066.4 L 562990 104066.4 L 562990 105319.2 L 561416.8 105319.2 L 561416.8 96399.6 Q 560114.8 97332 559600 97652.4 Q 559206.4 97038 558419.2 96250.8 Q 561270.4 94629.6 563777.2 92048.4 L 559132 92048.4 L 559132 90376.8 L 563039.2 90376.8 L 563039.2 87304.8 L 559843.6 87304.8 L 559843.6 85731.6 L 563039.2 85731.6 L 563039.2 82956 L 564710.8 82956 L 564710.8 85731.6 L 567560.8 85731.6 L 567560.8 87009.6 Q 568519.6 85412.4 569183.2 83790 L 570805.6 84231.6 Q 569380 87573.6 567316 90375.6 L 571002.4 90375.6 L 571002.4 92047.2 L 565987.6 92047.2 L 565988.8 92049.6 Z M 578818 104902.8 Q 576409.6 101880 573386.8 99422.4 L 574984 98020.8 Q 577735.6 100233.6 580489.6 103477.2 L 578818 104902.8 Z M 599142.4 85512 L 601427.2 85512 L 601427.2 93057.6 L 609833.2 93057.6 L 609833.2 85512 L 612094 85512 L 612094 103526.4 L 609833.2 103526.4 L 609833.2 95022 L 601427.2 95022 L 601427.2 103526.4 L 599142.4 103526.4 L 599142.4 85512 Z M 620770.8 87428.4 L 615314.4 87428.4 L 615314.4 85512 L 628510.8 85512 L 628510.8 87428.4 L 623056.8 87428.4 L 623056.8 103526.4 L 620770.8 103526.4 L 620770.8 87428.4 Z M 635516.4 87428.4 L 630060 87428.4 L 630060 85512 L 643256.4 85512 L 643256.4 87428.4 L 637802.4 87428.4 L 637802.4 103526.4 L 635516.4 103526.4 L 635516.4 87428.4 Z M 646502.4 85512 L 651638.4 85512 Q 658396.8 85512 658396.8 90796.8 Q 658396.8 93572.4 656553.6 95022 Q 654834 96374.4 651762 96374.4 L 648787.2 96374.4 L 648787.2 103526.4 L 646502.4 103526.4 L 646502.4 85512 Z M 651466.8 94531.2 Q 656136 94531.2 656136 90796.8 Q 656136 88904.4 654931.2 88093.2 Q 653826 87355.2 651368.4 87355.2 L 648787.2 87355.2 L 648787.2 94531.2 L 651466.8 94531.2 Z M 12738.8 126954.8 L 12738.8 129118.4 L 16842.8 129118.4 L 16842.8 126954.8 L 12738.8 126954.8 Z M 18489.2 126954.8 L 18489.2 129118.4 L 22764.8 129118.4 L 22764.8 126954.8 L 18489.2 126954.8 Z M 22764.8 132705.2 L 22764.8 130469.6 L 18489.2 130469.6 L 18489.2 132705.2 L 22764.8 132705.2 Z M 16842.8 132705.2 L 16842.8 130469.6 L 12738.8 130469.6 L 12738.8 132705.2 L 16842.8 132705.2 Z M 12738.8 138210.8 L 10992.8 138210.8 L 10992.8 125554.4 L 17948 125554.4 Q 15417.2 124300.4 13180.4 123465.2 L 14312 122433.2 Q 15885.2 122998.4 17876 123858.8 Q 19571.6 123047.6 21341.6 121769.6 L 11018 121769.6 L 11018 120320 L 23012 120320 L 23380.4 120222.8 L 24488 121082 Q 22472 123048.8 19473.2 124598 Q 20457.2 125039.6 21292.4 125556.8 L 24512 125556.8 L 24512 136370 Q 24512 137622.8 23676.8 137967.2 Q 22989.2 138263.6 20358.8 138263.6 Q 20235.2 137476.4 19866.8 136738.4 Q 20457.2 136763.6 22348.4 136763.6 Q 22766 136763.6 22766 136346 L 22766 134109.2 L 18490.4 134109.2 L 18490.4 138116 L 16844 138116 L 16844 134109.2 L 12740 134109.2 L 12740 138213.2 L 12738.8 138210.8 Z M 7871.6 125628.8 Q 6569.6 123933.2 3694.4 121426.4 L 4972.4 120394.4 Q 7971.2 122876 9200 124425.2 L 7871.6 125630 L 7871.6 125628.8 Z M 8388.8 137277.2 Q 8609.6 137400.8 9174.8 137818.4 Q 9814.4 138261.2 10256 138531.2 Q 12222.8 139734.8 16696.4 139734.8 Q 20997.2 139734.8 25763.6 139269.2 Q 25322 140325.2 25248.8 141063.2 Q 21021.2 141308 16647.2 141308 Q 12100.4 141308 9888.8 139958 Q 7602.8 138556.4 7505.6 138556.4 Q 6522.8 138556.4 4236.8 141604.4 L 3081.2 140105.6 Q 5268.8 137795.6 6621.2 137230.4 L 6621.2 130299.2 L 3180.8 130299.2 L 3180.8 128579.6 L 8390 128579.6 L 8390 137278.4 L 8388.8 137277.2 Z M 32841.2 124744.4 Q 31785.2 123195.2 29499.2 121007.6 L 30728 119951.6 Q 33185.6 122112.8 34169.6 123514.4 L 32841.2 124743.2 L 32841.2 124744.4 Z M 35495.6 135016.4 Q 35667.2 135557.6 36160.4 136541.6 Q 31342.4 140325.2 30974 140890.4 Q 30653.6 140055.2 30015.2 139317.2 Q 31194.8 138531.2 31194.8 137229.2 L 31194.8 128848.4 L 27754.4 128848.4 L 27754.4 127078.4 L 32963.6 127078.4 L 32963.6 136932.8 L 35494.4 135016.4 L 35495.6 135016.4 Z M 47267.6 120761.6 Q 47170.4 130667.6 47342 134108 Q 47638.4 139637.6 48719.6 139907.6 Q 49037.6 139980.8 49185.2 136073.6 Q 49899.2 137056.4 50316.8 137376.8 Q 50120 140228 49530.8 141234.8 Q 48989.6 142119.2 48005.6 141750.8 Q 46211.6 141185.6 45720.8 135729.2 Q 45424.4 132460.4 45449.6 122482.4 L 40731.2 122482.4 L 40731.2 129461.6 L 44514.8 129461.6 L 44514.8 131157.2 L 40731.2 131157.2 L 40731.2 141502.4 L 39009.2 141502.4 L 39009.2 131157.2 L 35298.8 131157.2 L 35298.8 129461.6 L 39009.2 129461.6 L 39009.2 122482.4 L 35446.4 122482.4 L 35446.4 120760.4 L 47267.6 120760.4 L 47267.6 120761.6 Z M 57909.2 141357.2 Q 55500.8 138334.4 52478 135876.8 L 54075.2 134475.2 Q 56826.8 136688 59580.8 139931.6 L 57909.2 141357.2 Z M 78233.6 121966.4 L 80594 121966.4 L 87155.6 133319.6 L 89072 137031.2 L 89195.6 137031.2 Q 88899.2 132657.2 88899.2 131328.8 L 88899.2 121965.2 L 91062.8 121965.2 L 91062.8 139979.6 L 88728.8 139979.6 L 82167.2 128600 L 80224.4 124889.6 L 80127.2 124889.6 Q 80397.2 129878 80397.2 130516.4 L 80397.2 139978.4 L 78233.6 139978.4 L 78233.6 121964 L 78233.6 121966.4 Z M 96561.2 138458 Q 94692.8 136515.2 94692.8 133319.6 Q 94692.8 130100 96561.2 128133.2 Q 98304.8 126290 100886 126290 Q 103467.2 126290 105210.8 128133.2 Q 107079.2 130100 107079.2 133319.6 Q 107079.2 136515.2 105210.8 138458 Q 103467.2 140301.2 100886 140301.2 Q 98304.8 140301.2 96561.2 138458  Z M 103688 137032.4 Q 104769.2 135630.8 104769.2 133320.8 Q 104769.2 131012 103688 129586.4 Q 102632 128160.8 100886 128160.8 Q 99166.4 128160.8 98085.2 129586.4 Q 97029.2 131012 97029.2 133320.8 Q 97029.2 135630.8 98085.2 137032.4 Q 99142.4 138432.8 100886 138432.8 Q 102632 138432.8 103688 137032.4  Z M 111038.8 138482 Q 109540 136614.8 109540 133320.8 Q 109540 130175.6 111286 128184.8 Q 112932.4 126292.4 115316.8 126292.4 Q 117184 126292.4 119076.4 127866.8 L 118952.8 125556.8 L 118952.8 120419.6 L 121189.6 120419.6 L 121189.6 139983.2 L 119370.4 139983.2 L 119149.6 138410 L 119100.4 138410 Q 117160 140302.4 115046.8 140302.4 Q 112516 140302.4 111041.2 138483.2 L 111038.8 138482 Z M 118951.6 136588.4 L 118951.6 129585.2 Q 117378.4 128183.6 115706.8 128183.6 Q 114060.4 128183.6 112979.2 129585.2 Q 111850 131034.8 111850 133295.6 Q 111850 135729.2 112808.8 137081.6 Q 113767.6 138431.6 115537.6 138431.6 Q 117307.6 138431.6 118954 136588.4 L 118951.6 136588.4 Z M 126564.4 138458 Q 124696 136515.2 124696 133319.6 Q 124696 130199.6 126539.2 128183.6 Q 128285.2 126291.2 130718.8 126291.2 Q 133224.4 126291.2 134650 127986.8 Q 136026.4 129658.4 136026.4 132557.6 Q 136026.4 133197.2 135929.2 133835.6 L 126934 133835.6 Q 127033.6 135972.8 128262.4 137226.8 Q 129466 138503.6 131358.4 138503.6 Q 133128.4 138503.6 134701.6 137447.6 L 135512.8 138922.4 Q 133373.2 140298.8 131088.4 140298.8 Q 128336.8 140298.8 126566.8 138455.6 L 126564.4 138458 Z M 134060.8 132239.6 Q 134060.8 128086.4 130742.8 128086.4 Q 129268 128086.4 128212 129167.6 Q 127106.8 130323.2 126910 132239.6 L 134062 132239.6 L 134060.8 132239.6 Z M 143720.4 141357.2 Q 141312 138334.4 138289.2 135876.8 L 139886.4 134475.2 Q 142638 136688 145392 139931.6 L 143720.4 141357.2 Z M 162201.6 121966.4 L 164562 121966.4 L 166994.4 134672 L 167511.6 137596.4 L 167608.8 137596.4 Q 168026.4 135656 168910.8 131772.8 L 171393.6 121966.4 L 173457.6 121966.4 L 175988.4 131772.8 Q 176505.6 133984.4 177267.6 137597.6 L 177388.8 137597.6 L 178422 131774 L 180313.2 121967.6 L 182500.8 121967.6 L 178766.4 139982 L 176038.8 139982 L 173311.2 129119.6 L 172426.8 125015.6 L 172327.2 125015.6 L 171418.8 129119.6 L 168740.4 139982 L 166036.8 139982 L 162202.8 121967.6 L 162201.6 121966.4 Z M 186263.6 138458 Q 184395.2 136515.2 184395.2 133319.6 Q 184395.2 130199.6 186238.4 128183.6 Q 187984.4 126291.2 190418 126291.2 Q 192923.6 126291.2 194349.2 127986.8 Q 195725.6 129658.4 195725.6 132557.6 Q 195725.6 133197.2 195628.4 133835.6 L 186633.2 133835.6 Q 186732.8 135972.8 187961.6 137226.8 Q 189165.2 138503.6 191057.6 138503.6 Q 192827.6 138503.6 194400.8 137447.6 L 195212 138922.4 Q 193072.4 140298.8 190787.6 140298.8 Q 188036 140298.8 186266 138455.6 L 186263.6 138458 Z M 193760 132239.6 Q 193760 128086.4 190442 128086.4 Q 188967.2 128086.4 187911.2 129167.6 Q 186806 130323.2 186609.2 132239.6 L 193761.2 132239.6 L 193760 132239.6 Z M 201035.2 138604.4 L 200962 138604.4 L 200765.2 139980.8 L 198971.2 139980.8 L 198971.2 120417.2 L 201208 120417.2 L 201208 125775.2 L 201134.8 128183.6 Q 203296 126291.2 205312 126291.2 Q 207866.8 126291.2 209268.4 128159.6 Q 210644.8 129953.6 210644.8 133074.8 Q 210644.8 136391.6 208901.2 138407.6 Q 207253.6 140300 204845.2 140300 Q 202878.4 140300 201035.2 138604.4  Z M 207228.4 137032.4 Q 208309.6 135557.6 208309.6 133125.2 Q 208309.6 128184.8 204794.8 128184.8 Q 203173.6 128184.8 201206.8 130028 L 201206.8 137032.4 Q 202804 138432.8 204475.6 138432.8 Q 206171.2 138432.8 207227.2 137032.4 L 207228.4 137032.4 Z M 214075.2 126636.8 L 215918.4 126636.8 L 216115.2 128159.6 L 216188.4 128159.6 Q 218474.4 126291.2 220438.8 126291.2 Q 222969.6 126291.2 224395.2 128159.6 Q 225747.6 129953.6 225747.6 133098.8 Q 225747.6 136391.6 224004 138407.6 Q 222356.4 140300 219948 140300 Q 218154 140300 216261.6 138750.8 L 216310.8 141084.8 L 216310.8 145606.4 L 214074 145606.4 L 214074 126635.6 L 214075.2 126636.8 Z M 222332.4 137032.4 Q 223413.6 135557.6 223413.6 133125.2 Q 223413.6 128184.8 219898.8 128184.8 Q 218301.6 128184.8 216310.8 130028 L 216310.8 137032.4 Q 217957.2 138432.8 219579.6 138432.8 Q 221275.2 138432.8 222331.2 137032.4 L 222332.4 137032.4 Z M 229551.6 139317.2 Q 228446.4 138285.2 228446.4 136515.2 Q 228446.4 134354 230413.2 133173.2 Q 232353.6 132017.6 236654.4 131526.8 Q 236654.4 128160.8 233902.8 128160.8 Q 232010.4 128160.8 229897.2 129586.4 L 229012.8 128037.2 Q 231740.4 126291.2 234271.2 126291.2 Q 238892.4 126291.2 238892.4 131772.8 L 238892.4 139980.8 L 237049.2 139980.8 L 236852.4 138383.6 L 236779.2 138383.6 Q 234469.2 140300 232356 140300 Q 230636.4 140300 229555.2 139316 L 229551.6 139317.2 Z M 236654.4 136736 L 236654.4 133001.6 Q 230634 133713.2 230634 136367.6 Q 230634 138504.8 232992 138504.8 Q 234663.6 138504.8 236654.4 136734.8 L 236654.4 136736 Z M 243916.8 138458 Q 242097.6 136565.6 242097.6 133320.8 Q 242097.6 130101.2 244040.4 128134.4 Q 245858.4 126291.2 248538 126291.2 Q 250651.2 126291.2 252445.2 127865.6 L 251289.6 129363.2 Q 249963.6 128159.6 248611.2 128159.6 Q 246792 128159.6 245612.4 129585.2 Q 244432.8 131034.8 244432.8 133319.6 Q 244432.8 135629.6 245586 137031.2 Q 246717.6 138431.6 248560.8 138431.6 Q 250256.4 138431.6 251706 137105.6 L 252664.8 138604.4 Q 250821.6 140300 248364 140300 Q 245636.4 140300 243916.8 138456.8 L 243916.8 138458 Z M 255547.2 120417.2 L 257760 120417.2 L 257760 133689.2 L 257808 133689.2 L 263534.4 126636.8 L 266016 126636.8 L 261543.6 131993.6 L 266606.4 139980.8 L 264172.8 139980.8 L 260265.6 133542.8 L 257760 136467.2 L 257760 139980.8 L 255547.2 139980.8 L 255547.2 120417.2 Z " fill-rule="nonzero" style="fill:#ffffff;;fill-opacity:1;"/>
</svg>