<svg version="1.1" x="0" y="0" width="100%" height="100%" viewBox="0 0 186214.4 34457.6" xmlns="http://www.w3.org/2000/svg">
  <path d="M 23767.8 13220 L 19507.8 13220 L 19507.8 10701 L 31099.8 10701 L 31099.8 13220 L 26798.8 13220 L 26798.8 25856 L 23767.8 25856 L 23767.8 13220 Z M 32736.8 30239 L 33289.8 27924 Q 33760.8 28068 34088.8 28068 Q 35665.8 28068 36238.8 26327 L 36443.8 25651 L 31978.8 14387 L 35009.8 14387 L 36832.8 19712 L 37795.8 22948 L 37898.8 22948 Q 38042.8 22416 38307.8 21329 Q 38594.8 20244 38717.8 19712 L 40294.8 14387 L 43182.8 14387 L 39106.8 26204 Q 38307.8 28375 37304.8 29338 Q 36136.8 30465 34313.8 30465 Q 33453.8 30465 32736.8 30240 L 32736.8 30239 Z M 45085.8 14387 L 47544.8 14387 L 47748.8 15575 L 47831.8 15575 Q 49571.8 14100 51210.8 14100 Q 53319.8 14100 54527.8 15697 Q 55715.8 17274 55715.8 19937 Q 55715.8 22764 54220.8 24504 Q 52828.8 26143 50841.8 26143 Q 49366.8 26143 47994.8 24894 L 48075.8 26778 L 48075.8 30259 L 45084.8 30259 L 45084.8 14387 L 45085.8 14387 Z M 51927.8 22764 Q 52623.8 21780 52623.8 19979 Q 52623.8 16579 50350.8 16579 Q 49265.8 16579 48077.8 17767 L 48077.8 22804 Q 49081.8 23664 50166.8 23664 Q 51271.8 23664 51927.8 22764  Z M 59238.4 24545 Q 57579.4 22906 57579.4 20142 Q 57579.4 17458 59218.4 15718 Q 60774.4 14099 62925.4 14099 Q 65218.4 14099 66509.4 15656 Q 67717.4 17131 67717.4 19588 Q 67717.4 20489 67574.4 20960 L 60507.4 20960 Q 60876.4 23827 63681.4 23827 Q 64992.4 23827 66261.4 23028 L 67285.4 24872 Q 65442.4 26141 63271.4 26141 Q 60814.4 26141 59237.4 24544 L 59238.4 24545 Z M 65137.4 18975 Q 65137.4 16435 62966.4 16435 Q 62023.4 16435 61347.4 17071 Q 60630.4 17767 60467.4 18975 L 65136.4 18975 L 65137.4 18975 Z M 69037.6 24525 L 70409.6 22640 Q 72008.6 23889 73481.6 23889 Q 75141.6 23889 75141.6 22681 Q 75141.6 22108 74404.6 21679 Q 74035.6 21474 72746.6 20962 Q 69611.6 19774 69611.6 17623 Q 69611.6 16067 70779.6 15084 Q 71946.6 14100 73871.6 14100 Q 75879.6 14100 77783.6 15513 L 76431.6 17336 Q 75018.6 16353 73954.6 16353 Q 72438.6 16353 72438.6 17458 Q 72438.6 18011 73155.6 18400 Q 73420.6 18543 74772.6 19055 Q 76267.6 19630 76943.6 20203 Q 77967.6 21083 77967.6 22516 Q 77967.6 24093 76800.6 25076 Q 75571.6 26141 73400.6 26141 Q 70963.6 26141 69038.6 24524 L 69037.6 24525 Z M 81142.2 24565 Q 79545.2 22906 79545.2 20142 Q 79545.2 17377 81306.2 15677 Q 82965.2 14100 85402.2 14100 Q 87245.2 14100 88740.2 15371 L 87307.2 17316 Q 86427.2 16559 85546.2 16559 Q 84235.2 16559 83436.2 17542 Q 82617.2 18525 82617.2 20144 Q 82617.2 21741 83416.2 22724 Q 84215.2 23687 85464.2 23687 Q 86591.2 23687 87696.2 22766 L 88884.2 24753 Q 87307.2 26145 85136.2 26145 Q 82699.2 26145 81143.2 24568 L 81142.2 24565 Z M 91012.2 14387 L 93471.2 14387 L 93675.2 16415 L 93758.2 16415 Q 95047.2 14100 97014.2 14100 Q 97771.2 14100 98366.2 14347 L 97833.2 16947 Q 97260.2 16763 96645.2 16763 Q 94884.2 16763 94004.2 19016 L 94004.2 25856 L 91013.2 25856 L 91013.2 14387 L 91012.2 14387 Z M 99972.2 14387 L 102963.2 14387 L 102963.2 25856 L 99972.2 25856 L 99972.2 14387 Z M 100198.2 12073 Q 99686.2 11622 99686.2 10905 Q 99686.2 10168 100198.2 9717 Q 100690.2 9266 101489.2 9266 Q 102268.2 9266 102759.2 9717 Q 103271.2 10168 103271.2 10905 Q 103271.2 11601 102759.2 12073 Q 102268.2 12544 101489.2 12544 Q 100710.2 12544 100198.2 12073  Z M 106167.4 14387 L 108626.4 14387 L 108830.4 15575 L 108913.4 15575 Q 110653.4 14100 112292.4 14100 Q 114401.4 14100 115609.4 15697 Q 116797.4 17274 116797.4 19937 Q 116797.4 22764 115302.4 24504 Q 113910.4 26143 111923.4 26143 Q 110448.4 26143 109076.4 24894 L 109157.4 26778 L 109157.4 30259 L 106166.4 30259 L 106166.4 14387 L 106167.4 14387 Z M 113009.4 22764 Q 113705.4 21780 113705.4 19979 Q 113705.4 16579 111432.4 16579 Q 110347.4 16579 109159.4 17767 L 109159.4 22804 Q 110163.4 23664 111248.4 23664 Q 112353.4 23664 113009.4 22764  Z M 119808 21841 L 119808 16762 L 118191 16762 L 118191 14530 L 119952 14386 L 120300 11314 L 122819 11314 L 122819 14386 L 125646 14386 L 125646 16762 L 122819 16762 L 122819 21841 Q 122819 23766 124375 23766 Q 124887 23766 125502 23521 L 125994 25712 Q 124703 26143 123576 26143 Q 119808 26143 119808 21842 L 119808 21841 Z M 131604.6 16947 L 134185.6 16947 L 134185.6 19262 Q 134185.6 21883 133448.6 23624 Q 132403.6 26123 129679.6 27659 Q 128922.6 26635 127631.6 25836 Q 131604.6 23727 131604.6 19200 L 131604.6 16947 Z M 139305.6 16907 L 141905.6 16907 L 141905.6 27638 L 139305.6 27638 L 139305.6 16907 Z M 138465.6 9636 Q 138218.6 10004 138075.6 10189 Q 141024.6 13670 146573.6 14981 Q 145488.6 15944 144833.6 17275 Q 139877.6 15780 136580.6 11971 Q 132996.6 15698 128224.6 17562 Q 127568.6 16190 126728.6 15207 Q 129657.6 14326 132360.6 12401 Q 135064.6 10477 136477.6 8244 L 138464.6 9637 L 138465.6 9636 Z M 147517.6 24423 Q 149893.6 23992 154869.6 22907 L 155094.6 24914 L 147946.6 26737 L 147517.6 24424 L 147517.6 24423 Z M 155258.6 18769 Q 155155.6 19589 155196.6 20756 Q 148991.6 21965 148254.6 22374 Q 147987.6 21289 147536.6 20305 Q 148212.6 20162 149256.6 19015 Q 150035.6 18236 151080.6 16864 Q 148601.6 17151 148048.6 17396 Q 147720.6 16208 147291.6 15205 Q 147803.6 15082 148602.6 13997 Q 150302.6 11785 151449.6 8488 L 153661.6 9593 Q 152412.6 12297 150344.6 15021 L 152535.6 14836 Q 153211.6 13812 153743.6 12829 L 155627.6 14058 Q 153826.6 16925 151573.6 19404 L 155260.6 18768 L 155258.6 18769 Z M 158453.6 21187 L 158453.6 24607 L 163328.6 24607 L 163328.6 21187 L 158453.6 21187 Z M 156180.6 19016 L 165724.6 19016 L 165724.6 27556 L 163328.6 27556 L 163328.6 26777 L 158453.6 26777 L 158453.6 27637 L 156180.6 27637 L 156180.6 19016 Z M 166072.6 9472 L 166031.6 10393 Q 165827.6 16434 165151.6 17254 Q 164639.6 17909 163676.6 18073 Q 163041.6 18176 161280.6 18135 Q 161239.6 16907 160624.6 15883 Q 161608.6 15984 162468.6 15984 Q 162897.6 15984 163144.6 15739 Q 163512.6 15248 163676.6 11684 L 160645.6 11684 Q 160317.6 14203 159416.6 15719 Q 158289.6 17583 155996.6 18607 Q 155484.6 17500 154603.6 16763 Q 157758.6 15432 158250.6 11684 L 155587.6 11684 L 155587.6 9472 L 166072.6 9472 Z " fill-rule="nonzero" style="fill:#ffffff;;fill-opacity:1;"/>
</svg>