<svg version="1.1" x="0" y="0" width="100%" height="100%" viewBox="0 0 530944 40550.4" xmlns="http://www.w3.org/2000/svg">
  <path d="M 20111.6 16732.4 L 8609.6 16732.4 L 8609.6 21033.2 L 20111.6 21033.2 L 20111.6 16732.4 Z M 22102.4 22754 L 6693.2 22754 L 6693.2 15011.6 L 10920.8 15011.6 Q 10158.8 13071.2 8439.2 10883.6 L 9986 10169.6 Q 11878.4 12406.4 12590 14274.8 L 11091.2 15010.4 L 16130 15010.4 Q 17900 12381.2 18810.8 10095.2 L 20678 10858.4 Q 19252.4 13340 18147.2 15010.4 L 22103.6 15010.4 L 22103.6 22752.8 L 22102.4 22754 Z M 13475.6 22974.8 Q 16400 24941.6 17898.8 26834 L 16572.8 28013.6 Q 14950.4 25876.4 12198.8 24008 L 13475.6 22976 L 13475.6 22974.8 Z M 3203.6 30323.6 Q 4678.4 28553.6 5513.6 25064 L 7209.2 25408.4 Q 6422 29045.6 4872.8 31134.8 L 3202.4 30323.6 L 3203.6 30323.6 Z M 17973.2 30568.4 Q 18884 30568.4 19154 30126.8 Q 19398.8 29709.2 19522.4 28086.8 Q 20284.4 28577.6 21243.2 28750.4 Q 21046.4 30838.4 20432 31526 Q 19817.6 32213.6 18122 32213.6 L 12641.6 32213.6 Q 10478 32213.6 9742.4 31698.8 Q 9028.4 31208 9028.4 29709.2 L 9028.4 24670.4 L 10896.8 24670.4 L 10896.8 29709.2 Q 10896.8 30250.4 11241.2 30422 Q 11559.2 30569.6 12740 30569.6 L 17973.2 30569.6 L 17973.2 30568.4 Z M 22029.2 24522.8 Q 24658.4 27495.2 25493.6 29879.6 L 24020 30790.4 Q 23159.6 28356.8 20628.8 25334 L 22030.4 24522.8 L 22029.2 24522.8 Z M 36430.4 22703.6 Q 36381.2 23538.8 36528.8 24300.8 Q 29008.4 25653.2 28270.4 26046.8 Q 28073.6 25335.2 27656 24278 Q 28343.6 24130.4 29572.4 22704.8 Q 30653.6 21623.6 32176.4 19486.4 Q 28613.6 19880 28098.8 20150 Q 27632 18699.2 27459.2 18306.8 Q 27976.4 18207.2 28860.8 16881.2 Q 30827.6 14006 32153.6 10220 L 33996.8 10982 Q 32301.2 14890.4 30064.4 18110 L 33333.2 17813.6 Q 34169.6 16536.8 34881.2 15208.4 L 36527.6 16216.4 Q 33996.8 20345.6 30974 23613.2 L 36430.4 22704.8 L 36430.4 22703.6 Z M 27606.8 29265.2 Q 29081.6 29020.4 36478.4 27521.6 L 36627.2 29216 Q 33947.6 29830.4 27903.2 31134.8 L 27606.8 29266.4 L 27606.8 29265.2 Z M 39699.2 24794 L 39699.2 29782.4 L 46875.2 29782.4 L 46875.2 24794 L 39699.2 24794 Z M 37929.2 23121.2 L 48692 23121.2 L 48692 32386.4 L 46874 32386.4 L 46874 31451.6 L 39698 31451.6 L 39698 32483.6 L 37928 32483.6 L 37928 23120 L 37929.2 23121.2 Z M 44171.6 15084.8 L 44171.6 18894.8 L 49307.6 18894.8 L 49307.6 20640.8 L 37316 20640.8 L 37316 18894.8 L 42304.4 18894.8 L 42304.4 15084.8 L 36675.2 15084.8 L 36675.2 13317.2 L 42304.4 13317.2 L 42304.4 10048.4 L 44171.6 10048.4 L 44171.6 13317.2 L 49701.2 13317.2 L 49701.2 15084.8 L 44171.6 15084.8 Z M 56066 18182 Q 55500.8 17664.8 55500.8 16853.6 Q 55500.8 16018.4 56066 15503.6 Q 56583.2 14986.4 57345.2 14986.4 Q 58107.2 14986.4 58648.4 15503.6 Q 59213.6 16044.8 59213.6 16854.8 Q 59213.6 17666 58648.4 18183.2 Q 58107.2 18674 57345.2 18674 Q 56583.2 18674 56066 18183.2 L 56066 18182 Z M 56066 30200 Q 55500.8 29682.8 55500.8 28871.6 Q 55500.8 28061.6 56066 27520.4 Q 56583.2 27027.2 57345.2 27027.2 Q 58107.2 27027.2 58648.4 27520.4 Q 59213.6 28061.6 59213.6 28871.6 Q 59213.6 29682.8 58648.4 30200 Q 58107.2 30714.8 57345.2 30714.8 Q 56583.2 30714.8 56066 30200  Z M 97721.6 18305.6 Q 97697.6 18944 97673.6 19190 Q 97107.2 29952.8 95978 31206.8 Q 95314.4 31992.8 94061.6 32092.4 Q 92856.8 32165.6 90350 32042 Q 90252.8 30984.8 89711.6 30222.8 Q 91284.8 30370.4 93374 30370.4 Q 94061.6 30395.6 94406 30051.2 Q 95364.8 29166.8 95831.6 20048 L 89466.8 20048 Q 89024 24472.4 87574.4 27250.4 Q 85828.4 30567.2 82241.6 32386.4 Q 81798.8 31599.2 81036.8 31058 Q 84354.8 29436.8 85928 26488.4 Q 87254 24030.8 87647.6 20048 L 82068.8 20048 L 82068.8 18304.4 L 87771.2 18304.4 Q 87892.4 16337.6 87917.6 14297.6 L 89784.8 14297.6 Q 89661.2 17639.6 89613.2 18303.2 L 97721.6 18303.2 L 97721.6 18305.6 Z M 98950.4 12996.8 L 80518.4 12996.8 L 80518.4 19041.2 Q 80518.4 28012.4 78330.8 32436.8 Q 77668.4 31773.2 76733.6 31404.8 Q 78674 27496.4 78674 19042.4 L 78674 11252 L 98949.2 11252 L 98949.2 12998 L 98950.4 12996.8 Z M 105218 20246 L 111755.6 20246 L 111755.6 15675.2 L 105218 15675.2 L 105218 20246 Z M 113598.8 15675.2 L 113598.8 20246 L 120160.4 20246 L 120160.4 15675.2 L 113598.8 15675.2 Z M 113548.4 22016 Q 113303.6 25923.2 111238.4 28160 Q 114950 30200 123945.2 30593.6 Q 123305.6 31404.8 123108.8 32436.8 Q 113918 31870.4 109814 29438 Q 107256.8 31378.4 102562.4 32483.6 Q 102096.8 31524.8 101482.4 30886.4 Q 105904.4 29927.6 108264.8 28354.4 Q 106004 26462 104578.4 23439.2 L 106200.8 22824.8 Q 107577.2 25576.4 109690.4 27174.8 Q 111484.4 25306.4 111705.2 22013.6 L 103424 22013.6 L 103424 13929.2 L 111755.6 13929.2 L 111755.6 10143.2 L 113598.8 10143.2 L 113598.8 13929.2 L 122003.6 13929.2 L 122003.6 22013.6 L 113549.6 22013.6 L 113548.4 22016 Z M 139182.8 14422.4 L 139182.8 12873.2 L 135396.8 12873.2 L 135396.8 14422.4 L 139182.8 14422.4 Z M 140926.4 12873.2 L 140926.4 14422.4 L 144785.6 14422.4 L 144785.6 12873.2 L 140926.4 12873.2 Z M 147981.2 18502.4 L 132104 18502.4 L 132104 17150 L 139182.8 17150 L 139182.8 15724.4 L 133702.4 15724.4 L 133702.4 11571.2 L 139182.8 11571.2 L 139182.8 10072.4 L 140926.4 10072.4 L 140926.4 11571.2 L 146555.6 11571.2 L 146555.6 15724.4 L 140926.4 15724.4 L 140926.4 17150 L 147981.2 17150 L 147981.2 18502.4 Z M 144195.2 25629.2 L 144195.2 21082.4 L 135790.4 21082.4 L 135790.4 25826 L 134020.4 25826 L 134020.4 19682 L 145990.4 19682 L 145990.4 25629.2 L 144195.2 25629.2 Z M 140878.4 23859.2 Q 140878.4 27618.8 133898 29338.4 Q 133480.4 28576.4 132842 27986 Q 139083.2 26832.8 139083.2 23834 L 139083.2 21941.6 L 140878.4 21941.6 L 140878.4 23858 L 140878.4 23859.2 Z M 146776.4 29339.6 Q 144712.4 28062.8 140878.4 26758.4 L 141640.4 25554.8 Q 145376 26710.4 147563.6 27939.2 L 146776.4 29339.6 Z M 130554.8 15578 Q 129401.6 13856 126795.2 11398.4 L 128147.6 10466 Q 130581.2 12677.6 132006.8 14471.6 L 130556 15579.2 L 130554.8 15578 Z M 131072 28012.4 Q 131195.6 28085.6 131834 28576.4 Q 132351.2 28970 132818 29264 Q 134709.2 30492.8 139403.6 30492.8 Q 144171.2 30492.8 148643.6 30002 Q 148152.8 31157.6 148128.8 31895.6 Q 143778.8 32140.4 139354.4 32140.4 Q 134464.4 32140.4 132375.2 30764 Q 130017.2 29214.8 129992 29214.8 Q 129083.6 29214.8 126846.8 32459.6 L 125594 30862.4 Q 127829.6 28256 129328.4 27717.2 L 129328.4 20048 L 126108.8 20048 L 126108.8 18328.4 L 131073.2 18328.4 L 131073.2 28011.2 L 131072 28012.4 Z M 159728 20320.4 Q 159482 19509.2 159212 18894.8 Q 153093.2 20566.4 152478.8 20984 L 152478.8 20960 Q 152109.2 20222 151520 19582.4 Q 152403.2 18771.2 152403.2 17518.4 L 152403.2 12161.6 Q 156827.6 11226.8 159334.4 10071.2 L 160563.2 11423.6 Q 158129.6 12406.4 154173.2 13241.6 L 154173.2 18502.4 L 158474 17421.2 Q 157835.6 16143.2 157049.6 14963.6 L 158499.2 14373.2 Q 160612.4 17321.6 161350.4 19607.6 L 159728 20319.2 L 159728 20320.4 Z M 155550.8 23762 L 155550.8 26170.4 L 160956.8 26170.4 L 160956.8 23762 L 155550.8 23762 Z M 168230 23762 L 162676.4 23762 L 162676.4 26170.4 L 168230 26170.4 L 168230 23762 Z M 168230 30100.4 L 168230 27594.8 L 162676.4 27594.8 L 162676.4 30100.4 L 168230 30100.4 Z M 160956.8 30100.4 L 160956.8 27594.8 L 155550.8 27594.8 L 155550.8 30100.4 L 160956.8 30100.4 Z M 153731.6 22262 L 170123.6 22262 L 170123.6 32410.4 L 168231.2 32410.4 L 168231.2 31624.4 L 155550.8 31624.4 L 155550.8 32508.8 L 153731.6 32508.8 L 153731.6 22260.8 L 153731.6 22262 Z M 171990.8 11423.6 L 171966.8 12209.6 Q 171646.4 19312.4 170910.8 20196.8 Q 170393.6 20811.2 169434.8 20884.4 Q 168452 20960 166682 20884.4 Q 166582.4 19925.6 166188.8 19263.2 Q 167246 19360.4 168622.4 19360.4 Q 169187.6 19384.4 169409.6 19115.6 Q 169900.4 18549.2 170170.4 13019.6 L 166384.4 13019.6 Q 166066.4 16215.2 165034.4 18107.6 Q 163829.6 20368.4 161272.4 21573.2 Q 160854.8 20762 160216.4 20268.8 Q 164099.6 18525.2 164688.8 13019.6 L 161813.6 13019.6 L 161813.6 11422.4 L 171988.4 11422.4 L 171990.8 11423.6 Z M 177398 31943.6 Q 180321.2 30740 180494 28331.6 Q 180346.4 28355.6 180076.4 28355.6 Q 179289.2 28355.6 178774.4 27912.8 Q 178233.2 27447.2 178233.2 26610.8 Q 178233.2 25775.6 178798.4 25284.8 Q 179315.6 24842 180101.6 24842 Q 182190.8 24842 182190.8 27669.2 Q 182190.8 31749.2 177939.2 33248 L 177398 31943.6 Z M 202466 13758.8 L 202466 19116.8 L 206643.2 19116.8 L 206643.2 13758.8 L 202466 13758.8 Z M 206643.2 26316.8 L 206643.2 20763.2 L 202466 20763.2 L 202466 26316.8 L 206643.2 26316.8 Z M 208362.8 27987.2 L 202464.8 27987.2 L 202464.8 29930 L 200745.2 29930 L 200745.2 12112.4 L 208362.8 12112.4 L 208362.8 27987.2 Z M 222200 16756.4 L 219225.2 16756.4 L 219225.2 29782.4 Q 219225.2 31526 217996.4 31919.6 Q 217037.6 32288 213130.4 32240 Q 212909.6 31158.8 212466.8 30420.8 Q 215514.8 30494 216719.6 30444.8 Q 217407.2 30420.8 217407.2 29782.4 L 217407.2 16756.4 L 209468 16756.4 L 209468 14962.4 L 217407.2 14962.4 L 217407.2 10194.8 L 219225.2 10194.8 L 219225.2 14962.4 L 222200 14962.4 L 222200 16756.4 Z M 214040 25505.6 Q 212787.2 23121.2 210305.6 19508 L 211804.4 18722 Q 214727.6 22899.2 215638.4 24569.6 L 214040 25504.4 L 214040 25505.6 Z M 244686.8 15503.6 Q 243384.8 13684.4 240730.4 11472.8 L 242058.8 10588.4 Q 244713.2 12676.4 246113.6 14519.6 L 244688 15503.6 L 244686.8 15503.6 Z M 232668.8 10883.6 Q 231710 13193.6 230039.6 15848 L 230039.6 32460.8 L 228196.4 32460.8 L 228196.4 18477.2 Q 226647.2 20493.2 224901.2 22090.4 Q 224483.6 21155.6 223845.2 20320.4 Q 228440 16413.2 230946.8 10342.4 L 232666.4 10883.6 L 232668.8 10883.6 Z M 239157.2 19190 Q 240533.6 30003.2 244220 30347.6 Q 245204 30420.8 245572.4 26120 Q 246113.6 26610.8 247097.6 27077.6 Q 246383.6 32607.2 244295.6 32483.6 Q 238913.6 32091.2 237364.4 19433.6 L 231466.4 20171.6 L 231220.4 18452 L 237167.6 17714 Q 236823.2 13781.6 236699.6 10439.6 L 238518.8 10439.6 Q 238642.4 14396 238986.8 17468 L 246334.4 16535.6 L 246580.4 18255.2 L 239158.4 19190 L 239157.2 19190 Z M 262799.6 13611.2 Q 262209.2 14619.2 261053.6 16313.6 L 261053.6 32436.8 L 259113.2 32436.8 L 259113.2 18771.2 Q 255082.4 23368.4 250215.2 25923.2 Q 249870.8 25334 248986.4 24326 Q 256432.4 20590.4 260463.2 13611.2 L 249600.8 13611.2 L 249600.8 11792 L 270590 11792 L 270590 13611.2 L 262799.6 13611.2 Z M 262898 17715.2 Q 268624.4 21425.6 271278.8 24179.6 L 269829.2 25580 Q 266878.4 22410.8 261545.6 18896 L 262898 17716.4 L 262898 17715.2 Z M 281452.4 21328.4 L 281452.4 25973.6 L 287890.4 25973.6 L 287890.4 21328.4 L 281452.4 21328.4 Z M 281452.4 27545.6 L 281452.4 29315.6 L 279756.8 29315.6 L 279756.8 19779.2 L 289611.2 19779.2 L 289611.2 27545.6 L 281452.4 27545.6 Z M 290913.2 17224.4 L 278528 17224.4 L 278528 15626 L 290913.2 15626 L 290913.2 17224.4 Z M 294772.4 30200 Q 294772.4 31749.2 293764.4 32190.8 Q 292880 32535.2 289660.4 32535.2 Q 289536.8 31626.8 288995.6 30742.4 Q 291478.4 30815.6 292386.8 30766.4 Q 292977.2 30742.4 292977.2 30201.2 L 292977.2 13071.2 L 276388.4 13071.2 L 276388.4 32559.2 L 274618.4 32559.2 L 274618.4 11325.2 L 294770 11325.2 L 294770 30200 L 294772.4 30200 Z M 300278 31943.6 Q 303201.2 30740 303374 28331.6 Q 303226.4 28355.6 302956.4 28355.6 Q 302169.2 28355.6 301654.4 27912.8 Q 301113.2 27447.2 301113.2 26610.8 Q 301113.2 25775.6 301678.4 25284.8 Q 302195.6 24842 302981.6 24842 Q 305070.8 24842 305070.8 27669.2 Q 305070.8 31749.2 300819.2 33248 L 300278 31943.6 Z M 343605.2 13660.4 L 332963.6 13660.4 L 332963.6 11938.4 L 343605.2 11938.4 L 343605.2 13660.4 Z M 330579.2 23220.8 Q 330137.6 22336.4 328367.6 19706 L 328367.6 32484.8 L 326548.4 32484.8 L 326548.4 20296.4 Q 325049.6 24794 323255.6 27029.6 Q 322985.6 26367.2 322223.6 25335.2 Q 324780.8 22287.2 326157.2 16954.4 L 322839.2 16954.4 L 322839.2 15234.8 L 326549.6 15234.8 L 326549.6 10073.6 L 328368.8 10073.6 L 328368.8 15234.8 L 331540.4 15234.8 L 331540.4 16954.4 L 328368.8 16954.4 L 328368.8 17592.8 Q 330311.6 19926.8 331661.6 21770 L 330580.4 23220.8 L 330579.2 23220.8 Z M 335273.6 22581.2 Q 334020.8 27226.4 331956.8 30126.8 Q 331022 29412.8 330504.8 29168 Q 332520.8 26586.8 333602 22212.8 L 335272.4 22581.2 L 335273.6 22581.2 Z M 338960 19485.2 L 338960 30176 Q 338960 31673.6 338051.6 32043.2 Q 337313.6 32411.6 334511.6 32411.6 Q 334414.4 31673.6 333947.6 30544.4 Q 335987.6 30617.6 336675.2 30568.4 Q 337142 30544.4 337142 30150.8 L 337142 19485.2 L 331906.4 19485.2 L 331906.4 17765.6 L 344906 17765.6 L 344906 19485.2 L 338958.8 19485.2 L 338960 19485.2 Z M 342155.6 22163.6 Q 344268.8 26415.2 344956.4 29562.8 L 343260.8 30152 Q 342671.6 26908.4 340631.6 22631.6 L 342154.4 22164.8 L 342155.6 22163.6 Z M 350682.8 17421.2 Q 349674.8 15160.4 347364.8 11891.6 L 348987.2 11153.6 Q 351395.6 14422.4 352379.6 16510.4 L 350684 17421.2 L 350682.8 17421.2 Z M 347390 30470 Q 349306.4 27077.6 351100.4 22286 L 352746.8 23170.4 Q 351149.6 27398 349233.2 31354.4 L 347390 30470 Z M 356826.8 29094.8 L 361962.8 29094.8 L 361962.8 25776.8 L 356826.8 25776.8 L 356826.8 29094.8 Z M 361962.8 16044.8 L 356826.8 16044.8 L 356826.8 19288.4 L 361962.8 19288.4 L 361962.8 16044.8 Z M 361962.8 20910.8 L 356826.8 20910.8 L 356826.8 24154.4 L 361962.8 24154.4 L 361962.8 20910.8 Z M 369459.2 30765.2 L 356826.8 30765.2 L 356826.8 32511.2 L 355107.2 32511.2 L 355107.2 18207.2 Q 354075.2 19829.6 352697.6 21279.2 Q 352083.2 20493.2 351347.6 19976 Q 355034 16486.4 357098 10269.2 L 358768.4 10710.8 Q 358253.6 12333.2 357245.6 14446.4 L 362848.4 14446.4 Q 362357.6 13070 361005.2 10932.8 L 362554.4 10218.8 Q 363954.8 12234.8 364472 13660.4 L 362949.2 14446.4 L 368969.6 14446.4 L 368969.6 16044.8 L 363758 16044.8 L 363758 19288.4 L 368477.6 19288.4 L 368477.6 20910.8 L 363758 20910.8 L 363758 24154.4 L 368452.4 24154.4 L 368452.4 25776.8 L 363758 25776.8 L 363758 29094.8 L 369460.4 29094.8 L 369460.4 30765.2 L 369459.2 30765.2 Z M 385679.6 13611.2 Q 385089.2 14619.2 383933.6 16313.6 L 383933.6 32436.8 L 381993.2 32436.8 L 381993.2 18771.2 Q 377962.4 23368.4 373095.2 25923.2 Q 372750.8 25334 371866.4 24326 Q 379312.4 20590.4 383343.2 13611.2 L 372480.8 13611.2 L 372480.8 11792 L 393470 11792 L 393470 13611.2 L 385679.6 13611.2 Z M 385778 17715.2 Q 391504.4 21425.6 394158.8 24179.6 L 392709.2 25580 Q 389758.4 22410.8 384425.6 18896 L 385778 17716.4 L 385778 17715.2 Z M 404332.4 21328.4 L 404332.4 25973.6 L 410770.4 25973.6 L 410770.4 21328.4 L 404332.4 21328.4 Z M 404332.4 27545.6 L 404332.4 29315.6 L 402636.8 29315.6 L 402636.8 19779.2 L 412491.2 19779.2 L 412491.2 27545.6 L 404332.4 27545.6 Z M 413793.2 17224.4 L 401408 17224.4 L 401408 15626 L 413793.2 15626 L 413793.2 17224.4 Z M 417652.4 30200 Q 417652.4 31749.2 416644.4 32190.8 Q 415760 32535.2 412540.4 32535.2 Q 412416.8 31626.8 411875.6 30742.4 Q 414358.4 30815.6 415266.8 30766.4 Q 415857.2 30742.4 415857.2 30201.2 L 415857.2 13071.2 L 399268.4 13071.2 L 399268.4 32559.2 L 397498.4 32559.2 L 397498.4 11325.2 L 417650 11325.2 L 417650 30200 L 417652.4 30200 Z " fill-rule="nonzero" style="fill:#ffffff;;fill-opacity:1;"/>
</svg>