<svg version="1.1" x="0" y="0" width="100%" height="100%" viewBox="0 0 455270.4 295731.2" xmlns="http://www.w3.org/2000/svg">
  <path d="M 4211.6 28750.4 L 8216 28750.4 L 8216 15306.8 L 5022.8 15306.8 L 5022.8 13881.2 Q 7258.4 13463.6 8757.2 12603.2 L 10476.8 12603.2 L 10476.8 28750.4 L 14090 28750.4 L 14090 30617.6 L 4211.6 30617.6 L 4211.6 28750.4 Z M 17900.8 30470 Q 17410 29979.2 17410 29241.2 Q 17410 28503.2 17900.8 27986 Q 18367.6 27495.2 19031.2 27495.2 Q 19694.8 27495.2 20185.6 27986 Q 20652.4 28503.2 20652.4 29241.2 Q 20652.4 29979.2 20185.6 30470 Q 19718.8 30936.8 19031.2 30936.8 Q 18343.6 30936.8 17900.8 30470  Z M 27168 21131.6 L 30192 21131.6 Q 34566 21131.6 34566 17666 Q 34566 14446.4 30192 14446.4 L 27168 14446.4 L 27168 21131.6 Z M 34786.8 30617.6 L 30412.8 22974.8 L 27168 22974.8 L 27168 30617.6 L 24883.2 30617.6 L 24883.2 12603.2 L 30536.4 12603.2 Q 36828 12603.2 36828 17666 Q 36828 21746 32748 22728.8 L 37369.2 30618.8 L 34788 30618.8 L 34786.8 30617.6 Z M 41060.4 29094.8 Q 39192 27152 39192 23956.4 Q 39192 20736.8 41060.4 18770 Q 42804 16926.8 45385.2 16926.8 Q 47966.4 16926.8 49710 18770 Q 51578.4 20736.8 51578.4 23956.4 Q 51578.4 27152 49710 29094.8 Q 47966.4 30938 45385.2 30938 Q 42804 30938 41060.4 29094.8  Z M 48187.2 27669.2 Q 49268.4 26267.6 49268.4 23957.6 Q 49268.4 21648.8 48187.2 20223.2 Q 47131.2 18797.6 45385.2 18797.6 Q 43665.6 18797.6 42584.4 20223.2 Q 41528.4 21648.8 41528.4 23957.6 Q 41528.4 26267.6 42584.4 27669.2 Q 43641.6 29069.6 45385.2 29069.6 Q 47131.2 29069.6 48187.2 27669.2  Z M 54996.8 27963.2 L 54996.8 11054 L 57233.6 11054 L 57233.6 28109.6 Q 57233.6 29068.4 57872 29068.4 Q 58092.8 29068.4 58338.8 29020.4 L 58659.2 30740 Q 58142 30936.8 57356 30936.8 Q 54995.6 30936.8 54995.6 27962 L 54996.8 27963.2 Z M 61908.8 27963.2 L 61908.8 11054 L 64145.6 11054 L 64145.6 28109.6 Q 64145.6 29068.4 64784 29068.4 Q 65004.8 29068.4 65250.8 29020.4 L 65571.2 30740 Q 65054 30936.8 64268 30936.8 Q 61907.6 30936.8 61907.6 27962 L 61908.8 27963.2 Z M 68649.2 25726.4 L 68649.2 17273.6 L 70884.8 17273.6 L 70884.8 25456.4 Q 70884.8 27324.8 71475.2 28160 Q 72065.6 28995.2 73391.6 28995.2 Q 75185.6 28995.2 77004.8 26734.4 L 77004.8 17273.6 L 79241.6 17273.6 L 79241.6 30617.6 L 77373.2 30617.6 L 77201.6 28528.4 L 77128.4 28528.4 Q 75039.2 30938 72705.2 30938 Q 68650.4 30938 68650.4 25726.4 L 68649.2 25726.4 Z M 83720 17273.6 L 85563.2 17273.6 L 85760 18796.4 L 85833.2 18796.4 Q 88119.2 16928 90083.6 16928 Q 92614.4 16928 94040 18796.4 Q 95392.4 20590.4 95392.4 23735.6 Q 95392.4 27028.4 93648.8 29044.4 Q 92001.2 30936.8 89592.8 30936.8 Q 87798.8 30936.8 85906.4 29387.6 L 85955.6 31721.6 L 85955.6 36243.2 L 83718.8 36243.2 L 83718.8 17272.4 L 83720 17273.6 Z M 91977.2 27669.2 Q 93058.4 26194.4 93058.4 23762 Q 93058.4 18821.6 89543.6 18821.6 Q 87946.4 18821.6 85955.6 20664.8 L 85955.6 27669.2 Q 87602 29069.6 89224.4 29069.6 Q 90920 29069.6 91976 27669.2 L 91977.2 27669.2 Z M 3129.2 65746 Q 11386.4 58520.8 11386.4 54120.4 Q 11386.4 52499.2 10575.2 51564.4 Q 9690.8 50556.4 8068.4 50556.4 Q 6077.6 50556.4 4331.6 52645.6 L 3029.6 51367.6 Q 5487.2 48713.2 8338.4 48713.2 Q 10746.8 48713.2 12172.4 50162.8 Q 13574 51613.6 13574 54046 Q 13574 58616.8 6521.6 65302 Q 8709.2 65130.4 9471.2 65130.4 L 14459.6 65130.4 L 14459.6 67070.8 L 3130.4 67070.8 L 3130.4 65744.8 L 3129.2 65746 Z M 17900.8 66924.4 Q 17410 66433.6 17410 65695.6 Q 17410 64957.6 17900.8 64440.4 Q 18367.6 63949.6 19031.2 63949.6 Q 19694.8 63949.6 20185.6 64440.4 Q 20652.4 64957.6 20652.4 65695.6 Q 20652.4 66433.6 20185.6 66924.4 Q 19718.8 67391.2 19031.2 67391.2 Q 18343.6 67391.2 17900.8 66924.4  Z M 24883.2 49057.6 L 30019.2 49057.6 Q 36777.6 49057.6 36777.6 54342.4 Q 36777.6 57118 34934.4 58567.6 Q 33214.8 59920 30142.8 59920 L 27168 59920 L 27168 67072 L 24883.2 67072 L 24883.2 49057.6 Z M 29847.6 58076.8 Q 34516.8 58076.8 34516.8 54342.4 Q 34516.8 52450 33312 51638.8 Q 32206.8 50900.8 29749.2 50900.8 L 27168 50900.8 L 27168 58076.8 L 29847.6 58076.8 Z M 40470 66408.4 Q 39364.8 65376.4 39364.8 63606.4 Q 39364.8 61445.2 41331.6 60264.4 Q 43272 59108.8 47572.8 58618 Q 47572.8 55252 44821.2 55252 Q 42928.8 55252 40815.6 56677.6 L 39931.2 55128.4 Q 42658.8 53382.4 45189.6 53382.4 Q 49810.8 53382.4 49810.8 58864 L 49810.8 67072 L 47967.6 67072 L 47770.8 65474.8 L 47697.6 65474.8 Q 45387.6 67391.2 43274.4 67391.2 Q 41554.8 67391.2 40473.6 66407.2 L 40470 66408.4 Z M 47572.8 63827.2 L 47572.8 60092.8 Q 41552.4 60804.4 41552.4 63458.8 Q 41552.4 65596 43910.4 65596 Q 45582 65596 47572.8 63826 L 47572.8 63827.2 Z M 54024 53728 L 55867.2 53728 L 56064 56160.4 L 56137.2 56160.4 Q 57660 53382.4 59922 53382.4 Q 60781.2 53382.4 61346.4 53678.8 L 60928.8 55645.6 Q 60363.6 55423.6 59625.6 55423.6 Q 57438 55423.6 56258.4 58495.6 L 56258.4 67073.2 L 54021.6 67073.2 L 54021.6 53729.2 L 54024 53728 Z M 64358.4 65549.2 Q 62539.2 63656.8 62539.2 60412 Q 62539.2 57192.4 64482 55225.6 Q 66300 53382.4 68979.6 53382.4 Q 71092.8 53382.4 72886.8 54956.8 L 71731.2 56454.4 Q 70405.2 55250.8 69052.8 55250.8 Q 67233.6 55250.8 66054 56676.4 Q 64874.4 58126 64874.4 60410.8 Q 64874.4 62720.8 66027.6 64122.4 Q 67159.2 65522.8 69002.4 65522.8 Q 70698 65522.8 72147.6 64196.8 L 73106.4 65695.6 Q 71263.2 67391.2 68805.6 67391.2 Q 66078 67391.2 64358.4 65548 L 64358.4 65549.2 Z M 76849.2 65549.2 Q 74980.8 63606.4 74980.8 60410.8 Q 74980.8 57290.8 76824 55274.8 Q 78570 53382.4 81003.6 53382.4 Q 83509.2 53382.4 84934.8 55078 Q 86311.2 56749.6 86311.2 59648.8 Q 86311.2 60288.4 86214 60926.8 L 77218.8 60926.8 Q 77318.4 63064 78547.2 64318 Q 79750.8 65594.8 81643.2 65594.8 Q 83413.2 65594.8 84986.4 64538.8 L 85797.6 66013.6 Q 83658 67390 81373.2 67390 Q 78621.6 67390 76851.6 65546.8 L 76849.2 65549.2 Z M 84345.6 59330.8 Q 84345.6 55177.6 81027.6 55177.6 Q 79552.8 55177.6 78496.8 56258.8 Q 77391.6 57414.4 77194.8 59330.8 L 84346.8 59330.8 L 84345.6 59330.8 Z M 89556.8 64417.6 L 89556.8 47508.4 L 91793.6 47508.4 L 91793.6 64564 Q 91793.6 65522.8 92432 65522.8 Q 92652.8 65522.8 92898.8 65474.8 L 93219.2 67194.4 Q 92702 67391.2 91916 67391.2 Q 89555.6 67391.2 89555.6 64416.4 L 89556.8 64417.6 Z M 2759.6 101389.2 L 3891.2 99914.4 Q 5858 101978.4 8364.8 101978.4 Q 9986 101978.4 10994 101070 Q 12026 100161.6 12026 98636.4 Q 12026 95023.2 6423.2 95023.2 L 6423.2 93303.6 Q 11411.6 93303.6 11411.6 89863.2 Q 11411.6 88561.2 10600.4 87774 Q 9765.2 87012 8364.8 86962.8 Q 6348.8 87036 4629.2 88758 L 3424.4 87332.4 Q 5758.4 85168.8 8462 85168.8 Q 10796 85168.8 12221.6 86348.4 Q 13696.4 87577.2 13696.4 89690.4 Q 13696.4 92835.6 10475.6 94040.4 L 10475.6 94137.6 Q 12147.2 94531.2 13203.2 95686.8 Q 14310.8 96940.8 14310.8 98708.4 Q 14310.8 101068.8 12615.2 102494.4 Q 11016.8 103846.8 8535.2 103846.8 Q 5021.6 103846.8 2759.6 101389.2  Z M 17900.8 103378.8 Q 17410 102888 17410 102150 Q 17410 101412 17900.8 100894.8 Q 18367.6 100404 19031.2 100404 Q 19694.8 100404 20185.6 100894.8 Q 20652.4 101412 20652.4 102150 Q 20652.4 102888 20185.6 103378.8 Q 19718.8 103845.6 19031.2 103845.6 Q 18343.6 103845.6 17900.8 103378.8  Z M 23040 85512 L 25400.4 85512 L 27832.8 98217.6 L 28350 101142 L 28447.2 101142 Q 28864.8 99201.6 29749.2 95318.4 L 32232 85512 L 34296 85512 L 36826.8 95318.4 Q 37344 97530 38106 101143.2 L 38227.2 101143.2 L 39260.4 95319.6 L 41151.6 85513.2 L 43339.2 85513.2 L 39604.8 103527.6 L 36877.2 103527.6 L 34149.6 92665.2 L 33265.2 88561.2 L 33165.6 88561.2 L 32257.2 92665.2 L 29578.8 103527.6 L 26875.2 103527.6 L 23041.2 85513.2 L 23040 85512 Z M 47102 102003.6 Q 45233.6 100060.8 45233.6 96865.2 Q 45233.6 93745.2 47076.8 91729.2 Q 48822.8 89836.8 51256.4 89836.8 Q 53762 89836.8 55187.6 91532.4 Q 56564 93204 56564 96103.2 Q 56564 96742.8 56466.8 97381.2 L 47471.6 97381.2 Q 47571.2 99518.4 48800 100772.4 Q 50003.6 102049.2 51896 102049.2 Q 53666 102049.2 55239.2 100993.2 L 56050.4 102468 Q 53910.8 103844.4 51626 103844.4 Q 48874.4 103844.4 47104.4 102001.2 L 47102 102003.6 Z M 54598.4 95785.2 Q 54598.4 91632 51280.4 91632 Q 49805.6 91632 48749.6 92713.2 Q 47644.4 93868.8 47447.6 95785.2 L 54599.6 95785.2 L 54598.4 95785.2 Z M 61873.6 102150 L 61800.4 102150 L 61603.6 103526.4 L 59809.6 103526.4 L 59809.6 83962.8 L 62046.4 83962.8 L 62046.4 89320.8 L 61973.2 91729.2 Q 64134.4 89836.8 66150.4 89836.8 Q 68705.2 89836.8 70106.8 91705.2 Q 71483.2 93499.2 71483.2 96620.4 Q 71483.2 99937.2 69739.6 101953.2 Q 68092 103845.6 65683.6 103845.6 Q 63716.8 103845.6 61873.6 102150  Z M 68066.8 100578 Q 69148 99103.2 69148 96670.8 Q 69148 91730.4 65633.2 91730.4 Q 64012 91730.4 62045.2 93573.6 L 62045.2 100578 Q 63642.4 101978.4 65314 101978.4 Q 67009.6 101978.4 68065.6 100578 L 68066.8 100578 Z M 74913.6 90182.4 L 76756.8 90182.4 L 76953.6 91705.2 L 77026.8 91705.2 Q 79312.8 89836.8 81277.2 89836.8 Q 83808 89836.8 85233.6 91705.2 Q 86586 93499.2 86586 96644.4 Q 86586 99937.2 84842.4 101953.2 Q 83194.8 103845.6 80786.4 103845.6 Q 78992.4 103845.6 77100 102296.4 L 77149.2 104630.4 L 77149.2 109152 L 74912.4 109152 L 74912.4 90181.2 L 74913.6 90182.4 Z M 83170.8 100578 Q 84252 99103.2 84252 96670.8 Q 84252 91730.4 80737.2 91730.4 Q 79140 91730.4 77149.2 93573.6 L 77149.2 100578 Q 78795.6 101978.4 80418 101978.4 Q 82113.6 101978.4 83169.6 100578 L 83170.8 100578 Z M 90390 102862.8 Q 89284.8 101830.8 89284.8 100060.8 Q 89284.8 97899.6 91251.6 96718.8 Q 93192 95563.2 97492.8 95072.4 Q 97492.8 91706.4 94741.2 91706.4 Q 92848.8 91706.4 90735.6 93132 L 89851.2 91582.8 Q 92578.8 89836.8 95109.6 89836.8 Q 99730.8 89836.8 99730.8 95318.4 L 99730.8 103526.4 L 97887.6 103526.4 L 97690.8 101929.2 L 97617.6 101929.2 Q 95307.6 103845.6 93194.4 103845.6 Q 91474.8 103845.6 90393.6 102861.6 L 90390 102862.8 Z M 97492.8 100281.6 L 97492.8 96547.2 Q 91472.4 97258.8 91472.4 99913.2 Q 91472.4 102050.4 93830.4 102050.4 Q 95502 102050.4 97492.8 100280.4 L 97492.8 100281.6 Z M 104755.2 102003.6 Q 102936 100111.2 102936 96866.4 Q 102936 93646.8 104878.8 91680 Q 106696.8 89836.8 109376.4 89836.8 Q 111489.6 89836.8 113283.6 91411.2 L 112128 92908.8 Q 110802 91705.2 109449.6 91705.2 Q 107630.4 91705.2 106450.8 93130.8 Q 105271.2 94580.4 105271.2 96865.2 Q 105271.2 99175.2 106424.4 100576.8 Q 107556 101977.2 109399.2 101977.2 Q 111094.8 101977.2 112544.4 100651.2 L 113503.2 102150 Q 111660 103845.6 109202.4 103845.6 Q 106474.8 103845.6 104755.2 102002.4 L 104755.2 102003.6 Z M 116385.6 83962.8 L 118598.4 83962.8 L 118598.4 97234.8 L 118646.4 97234.8 L 124372.8 90182.4 L 126854.4 90182.4 L 122382 95539.2 L 127444.8 103526.4 L 125011.2 103526.4 L 121104 97088.4 L 118598.4 100012.8 L 118598.4 103526.4 L 116385.6 103526.4 L 116385.6 83962.8 Z M 10379.6 133222.4 L 10379.6 127692.8 Q 10379.6 127226 10527.2 124424 L 10430 124424 Q 9839.6 125603.6 8980.4 127078.4 L 4875.2 133222.4 L 10380.8 133222.4 L 10379.6 133222.4 Z M 14901.2 135016.4 L 12516.8 135016.4 L 12516.8 139980.8 L 10379.6 139980.8 L 10379.6 135016.4 L 2540 135016.4 L 2540 133542.8 L 10036.4 121966.4 L 12518 121966.4 L 12518 133222.4 L 14902.4 133222.4 L 14902.4 135016.4 L 14901.2 135016.4 Z M 17900.8 139833.2 Q 17410 139342.4 17410 138604.4 Q 17410 137866.4 17900.8 137349.2 Q 18367.6 136858.4 19031.2 136858.4 Q 19694.8 136858.4 20185.6 137349.2 Q 20652.4 137866.4 20652.4 138604.4 Q 20652.4 139342.4 20185.6 139833.2 Q 19718.8 140300 19031.2 140300 Q 18343.6 140300 17900.8 139833.2  Z M 26136 137843.6 Q 23851.2 135312.8 23851.2 130986.8 Q 23851.2 126686 26185.2 124131.2 Q 28471.2 121624.4 32108.4 121624.4 Q 35204.4 121624.4 37293.6 123861.2 L 36064.8 125334.8 Q 34442.4 123615.2 32157.6 123615.2 Q 29430 123615.2 27807.6 125582 Q 26185.2 127548.8 26185.2 130914.8 Q 26185.2 134356.4 27734.4 136320.8 Q 29331.6 138312.8 32182.8 138312.8 Q 34320 138312.8 35451.6 137255.6 L 35451.6 132537.2 L 31641.6 132537.2 L 31641.6 130644.8 L 37539.6 130644.8 L 37539.6 138214.4 Q 35524.8 140303.6 31962 140303.6 Q 28348.8 140303.6 26136 137846 L 26136 137843.6 Z M 41582.4 126636.8 L 43425.6 126636.8 L 43622.4 129069.2 L 43695.6 129069.2 Q 45218.4 126291.2 47480.4 126291.2 Q 48339.6 126291.2 48904.8 126587.6 L 48487.2 128554.4 Q 47922 128332.4 47184 128332.4 Q 44996.4 128332.4 43816.8 131404.4 L 43816.8 139982 L 41580 139982 L 41580 126638 L 41582.4 126636.8 Z M 50934 135089.6 L 50934 126636.8 L 53169.6 126636.8 L 53169.6 134819.6 Q 53169.6 136688 53760 137523.2 Q 54350.4 138358.4 55676.4 138358.4 Q 57470.4 138358.4 59289.6 136097.6 L 59289.6 126636.8 L 61526.4 126636.8 L 61526.4 139980.8 L 59658 139980.8 L 59486.4 137891.6 L 59413.2 137891.6 Q 57324 140301.2 54990 140301.2 Q 50935.2 140301.2 50935.2 135089.6 L 50934 135089.6 Z M 66004.8 126636.8 L 67848 126636.8 L 68044.8 128553.2 L 68118 128553.2 Q 70428 126291.2 72591.6 126291.2 Q 76670.4 126291.2 76670.4 131526.8 L 76670.4 139980.8 L 74434.8 139980.8 L 74434.8 131820.8 Q 74434.8 128258 71904 128258 Q 70281.6 128258 68241.6 130298 L 68241.6 139980.8 L 66004.8 139980.8 L 66004.8 126636.8 Z M 81451.2 135852.8 L 81451.2 128454.8 L 79460.4 128454.8 L 79460.4 126759.2 L 81548.4 126638 L 81818.4 122902.4 L 83686.8 122902.4 L 83686.8 126638 L 87300 126638 L 87300 128456 L 83686.8 128456 L 83686.8 135902 Q 83686.8 138483.2 85750.8 138483.2 Q 86389.2 138483.2 87273.6 138138.8 L 87716.4 139809.2 Q 86191.2 140302.4 85258.8 140302.4 Q 81448.8 140302.4 81448.8 135854 L 81451.2 135852.8 Z M 2735.6 174371.2 L 3840.8 172896.4 Q 5831.6 174887.2 8265.2 174887.2 Q 9887.6 174887.2 10968.8 173758 Q 12098 172553.2 12098 170636.8 Q 12098 168720.4 11090 167615.2 Q 10083.2 166534 8363.6 166534 Q 6962 166534 5364.8 167590 L 4160 166854.4 L 4725.2 158424.4 L 13499.6 158424.4 L 13499.6 160340.8 L 6692 160340.8 L 6250.4 165552.4 Q 7527.2 164838.4 8928.8 164838.4 Q 11313.2 164838.4 12762.8 166214.8 Q 14360 167740 14360 170566 Q 14360 173417.2 12566 175136.8 Q 10870.4 176759.2 8462 176759.2 Q 5120 176759.2 2735.6 174374.8 L 2735.6 174371.2 Z M 17900.8 176287.6 Q 17410 175796.8 17410 175058.8 Q 17410 174320.8 17900.8 173803.6 Q 18367.6 173312.8 19031.2 173312.8 Q 19694.8 173312.8 20185.6 173803.6 Q 20652.4 174320.8 20652.4 175058.8 Q 20652.4 175796.8 20185.6 176287.6 Q 19718.8 176754.4 19031.2 176754.4 Q 18343.6 176754.4 17900.8 176287.6  Z M 26136 174298 Q 23851.2 171767.2 23851.2 167441.2 Q 23851.2 163140.4 26185.2 160585.6 Q 28471.2 158078.8 32108.4 158078.8 Q 35204.4 158078.8 37293.6 160315.6 L 36064.8 161789.2 Q 34442.4 160069.6 32157.6 160069.6 Q 29430 160069.6 27807.6 162036.4 Q 26185.2 164003.2 26185.2 167369.2 Q 26185.2 170810.8 27734.4 172775.2 Q 29331.6 174767.2 32182.8 174767.2 Q 34320 174767.2 35451.6 173710 L 35451.6 168991.6 L 31641.6 168991.6 L 31641.6 167099.2 L 37539.6 167099.2 L 37539.6 174668.8 Q 35524.8 176758 31962 176758 Q 28348.8 176758 26136 174300.4 L 26136 174298 Z M 41410.8 171544 L 41410.8 163091.2 L 43646.4 163091.2 L 43646.4 171274 Q 43646.4 173142.4 44236.8 173977.6 Q 44827.2 174812.8 46153.2 174812.8 Q 47947.2 174812.8 49766.4 172552 L 49766.4 163091.2 L 52003.2 163091.2 L 52003.2 176435.2 L 50134.8 176435.2 L 49963.2 174346 L 49890 174346 Q 47800.8 176755.6 45466.8 176755.6 Q 41412 176755.6 41412 171544 L 41410.8 171544 Z M 56481.6 173780.8 L 56481.6 156871.6 L 58718.4 156871.6 L 58718.4 173927.2 Q 58718.4 174886 59356.8 174886 Q 59577.6 174886 59823.6 174838 L 60144 176557.6 Q 59626.8 176754.4 58840.8 176754.4 Q 56480.4 176754.4 56480.4 173779.6 L 56481.6 173780.8 Z M 63393.6 163091.2 L 65236.8 163091.2 L 65433.6 164614 L 65506.8 164614 Q 67792.8 162745.6 69757.2 162745.6 Q 72288 162745.6 73713.6 164614 Q 75066 166408 75066 169553.2 Q 75066 172846 73322.4 174862 Q 71674.8 176754.4 69266.4 176754.4 Q 67472.4 176754.4 65580 175205.2 L 65629.2 177539.2 L 65629.2 182060.8 L 63392.4 182060.8 L 63392.4 163090 L 63393.6 163091.2 Z M 71650.8 173486.8 Q 72732 172012 72732 169579.6 Q 72732 164639.2 69217.2 164639.2 Q 67620 164639.2 65629.2 166482.4 L 65629.2 173486.8 Q 67275.6 174887.2 68898 174887.2 Q 70593.6 174887.2 71649.6 173486.8 L 71650.8 173486.8 Z M 11608.4 210334.8 Q 12492.8 209179.2 12492.8 207360 Q 12492.8 203379.6 9248 203379.6 Q 7184 203379.6 5561.6 205689.6 Q 5980.4 211464 9444.8 211464 Q 10746.8 211464 11607.2 210334.8 L 11608.4 210334.8 Z M 13058 197775.6 Q 11928.8 196398 10158.8 196398 Q 5637.2 196398 5513.6 203894.4 Q 7307.6 201706.8 9617.6 201706.8 Q 11951.6 201706.8 13253.6 203132.4 Q 14606 204607.2 14606 207358.8 Q 14606 209913.6 13083.2 211585.2 Q 11608.4 213207.6 9444.8 213207.6 Q 6742.4 213207.6 5144 210970.8 Q 3424.4 208610.4 3424.4 204285.6 Q 3424.4 199321.2 5440.4 196766.4 Q 7210.4 194529.6 10085.6 194529.6 Q 12567.2 194529.6 14286.8 196372.8 L 13058 197774.4 L 13058 197775.6 Z M 17900.8 212742 Q 17410 212251.2 17410 211513.2 Q 17410 210775.2 17900.8 210258 Q 18367.6 209767.2 19031.2 209767.2 Q 19694.8 209767.2 20185.6 210258 Q 20652.4 210775.2 20652.4 211513.2 Q 20652.4 212251.2 20185.6 212742 Q 19718.8 213208.8 19031.2 213208.8 Q 18343.6 213208.8 17900.8 212742  Z M 24883.2 194875.2 L 29404.8 194875.2 Q 33534 194875.2 35721.6 197209.2 Q 37909.2 199519.2 37909.2 203820 Q 37909.2 208120.8 35745.6 210481.2 Q 33558 212889.6 29503.2 212889.6 L 24882 212889.6 L 24882 194875.2 L 24883.2 194875.2 Z M 29208 211022.4 Q 32353.2 211022.4 33975.6 209130 Q 35548.8 207286.8 35548.8 203821.2 Q 35548.8 196718.4 29208 196718.4 L 27168 196718.4 L 27168 211022.4 L 29208 211022.4 Z M 42442.8 211366.8 Q 40574.4 209424 40574.4 206228.4 Q 40574.4 203108.4 42417.6 201092.4 Q 44163.6 199200 46597.2 199200 Q 49102.8 199200 50528.4 200895.6 Q 51904.8 202567.2 51904.8 205466.4 Q 51904.8 206106 51807.6 206744.4 L 42812.4 206744.4 Q 42912 208881.6 44140.8 210135.6 Q 45344.4 211412.4 47236.8 211412.4 Q 49006.8 211412.4 50580 210356.4 L 51391.2 211831.2 Q 49251.6 213207.6 46966.8 213207.6 Q 44215.2 213207.6 42445.2 211364.4 L 42442.8 211366.8 Z M 49939.2 205148.4 Q 49939.2 200995.2 46621.2 200995.2 Q 45146.4 200995.2 44090.4 202076.4 Q 42985.2 203232 42788.4 205148.4 L 49940.4 205148.4 L 49939.2 205148.4 Z M 55150.4 199545.6 L 56993.6 199545.6 L 57190.4 201462 L 57263.6 201462 Q 59573.6 199200 61737.2 199200 Q 65816 199200 65816 204435.6 L 65816 212889.6 L 63580.4 212889.6 L 63580.4 204729.6 Q 63580.4 201166.8 61049.6 201166.8 Q 59427.2 201166.8 57387.2 203206.8 L 57387.2 212889.6 L 55150.4 212889.6 L 55150.4 199545.6 Z M 71063.6 211366.8 Q 69195.2 209424 69195.2 206228.4 Q 69195.2 203008.8 71063.6 201042 Q 72807.2 199198.8 75388.4 199198.8 Q 77969.6 199198.8 79713.2 201042 Q 81581.6 203008.8 81581.6 206228.4 Q 81581.6 209424 79713.2 211366.8 Q 77969.6 213210 75388.4 213210 Q 72807.2 213210 71063.6 211366.8  Z M 78190.4 209941.2 Q 79271.6 208539.6 79271.6 206229.6 Q 79271.6 203920.8 78190.4 202495.2 Q 77134.4 201069.6 75388.4 201069.6 Q 73668.8 201069.6 72587.6 202495.2 Q 71531.6 203920.8 71531.6 206229.6 Q 71531.6 208539.6 72587.6 209941.2 Q 73644.8 211341.6 75388.4 211341.6 Q 77134.4 211341.6 78190.4 209941.2  Z M 6914 249344 Q 7331.6 239759.6 11976.8 233246 L 3254 233246 L 3254 231329.6 L 14534 231329.6 L 14534 232682 Q 11535.2 236540 10403.6 240399.2 Q 9471.2 243618.8 9249.2 249345.2 L 6915.2 249345.2 L 6914 249344 Z M 17900.8 249196.4 Q 17410 248705.6 17410 247967.6 Q 17410 247229.6 17900.8 246712.4 Q 18367.6 246221.6 19031.2 246221.6 Q 19694.8 246221.6 20185.6 246712.4 Q 20652.4 247229.6 20652.4 247967.6 Q 20652.4 248705.6 20185.6 249196.4 Q 19718.8 249663.2 19031.2 249663.2 Q 18343.6 249663.2 17900.8 249196.4  Z M 26136 247206.8 Q 23851.2 244676 23851.2 240350 Q 23851.2 236049.2 26185.2 233494.4 Q 28471.2 230987.6 32108.4 230987.6 Q 35204.4 230987.6 37293.6 233224.4 L 36064.8 234698 Q 34442.4 232978.4 32157.6 232978.4 Q 29430 232978.4 27807.6 234945.2 Q 26185.2 236912 26185.2 240278 Q 26185.2 243719.6 27734.4 245684 Q 29331.6 247676 32182.8 247676 Q 34320 247676 35451.6 246618.8 L 35451.6 241900.4 L 31641.6 241900.4 L 31641.6 240008 L 37539.6 240008 L 37539.6 247577.6 Q 35524.8 249666.8 31962 249666.8 Q 28348.8 249666.8 26136 247209.2 L 26136 247206.8 Z M 42442.8 247821.2 Q 40574.4 245878.4 40574.4 242682.8 Q 40574.4 239463.2 42442.8 237496.4 Q 44186.4 235653.2 46767.6 235653.2 Q 49348.8 235653.2 51092.4 237496.4 Q 52960.8 239463.2 52960.8 242682.8 Q 52960.8 245878.4 51092.4 247821.2 Q 49348.8 249664.4 46767.6 249664.4 Q 44186.4 249664.4 42442.8 247821.2  Z M 49569.6 246395.6 Q 50650.8 244994 50650.8 242684 Q 50650.8 240375.2 49569.6 238949.6 Q 48513.6 237524 46767.6 237524 Q 45048 237524 43966.8 238949.6 Q 42910.8 240375.2 42910.8 242684 Q 42910.8 244994 43966.8 246395.6 Q 45024 247796 46767.6 247796 Q 48513.6 247796 49569.6 246395.6  Z M 4775.6 284766.4 Q 3153.2 283414 3153.2 281324.8 Q 3153.2 278155.6 6471.2 276361.6 L 6471.2 276238 Q 4037.6 274566.4 4037.6 272084.8 Q 4037.6 270044.8 5439.2 268768 Q 6839.6 267514 8979.2 267514 Q 11240 267514 12590 268842.4 Q 13918.4 270144.4 13918.4 272257.6 Q 13918.4 274739.2 11510 276606.4 L 11510 276730 Q 14556.8 278500 14556.8 281448.4 Q 14556.8 283439.2 13010 284767.6 Q 11411.6 286120 8904.8 286120 Q 6423.2 286120 4776.8 284767.6 L 4775.6 284766.4 Z M 12002 272378.8 Q 12002 271002.4 11190.8 270094 Q 10330.4 269159.2 8930 269159.2 Q 7676 269159.2 6890 269970.4 Q 6078.8 270781.6 6078.8 272083.6 Q 6078.8 273533.2 7307.6 274541.2 Q 8168 275228.8 10132.4 276016 Q 12000.8 274369.6 12000.8 272377.6 L 12002 272378.8 Z M 11460.8 283586.8 Q 12419.6 282750.4 12419.6 281400.4 Q 12419.6 279778 10994 278696.8 Q 10109.6 278033.2 7652 277050.4 Q 5194.4 278623.6 5194.4 281130.4 Q 5194.4 282554.8 6275.6 283514.8 Q 7331.6 284447.2 8954 284447.2 Q 10503.2 284447.2 11462 283588 L 11460.8 283586.8 Z M 17900.8 285650.8 Q 17410 285160 17410 284422 Q 17410 283684 17900.8 283166.8 Q 18367.6 282676 19031.2 282676 Q 19694.8 282676 20185.6 283166.8 Q 20652.4 283684 20652.4 284422 Q 20652.4 285160 20185.6 285650.8 Q 19718.8 286117.6 19031.2 286117.6 Q 18343.6 286117.6 17900.8 285650.8  Z M 26088 283661.2 Q 23851.2 281104 23851.2 276803.2 Q 23851.2 272527.6 26136 269946.4 Q 28348.8 267439.6 31838.4 267439.6 Q 34786.8 267439.6 36777.6 269676.4 L 35548.8 271150 Q 33951.6 269430.4 31862.4 269430.4 Q 29281.2 269430.4 27734.4 271397.2 Q 26185.2 273388 26185.2 276730 Q 26185.2 280146.4 27708 282137.2 Q 29206.8 284129.2 31788 284129.2 Q 34098 284129.2 35965.2 282113.2 L 37219.2 283538.8 Q 34982.4 286120 31689.6 286120 Q 28248 286120 26086.8 283662.4 L 26088 283661.2 Z M 45735.6 266310.4 L 47358 266310.4 L 40009.2 290196.4 L 38362.8 290196.4 L 45735.6 266310.4 Z M 51329.6 283661.2 Q 49092.8 281104 49092.8 276803.2 Q 49092.8 272527.6 51377.6 269946.4 Q 53590.4 267439.6 57080 267439.6 Q 60028.4 267439.6 62019.2 269676.4 L 60790.4 271150 Q 59193.2 269430.4 57104 269430.4 Q 54522.8 269430.4 52976 271397.2 Q 51426.8 273388 51426.8 276730 Q 51426.8 280146.4 52949.6 282137.2 Q 54448.4 284129.2 57029.6 284129.2 Q 59339.6 284129.2 61206.8 282113.2 L 62460.8 283538.8 Q 60224 286120 56931.2 286120 Q 53489.6 286120 51328.4 283662.4 L 51329.6 283661.2 Z M 69257.6 277565.2 L 64269.2 277565.2 L 64269.2 275894.8 L 69257.6 275894.8 L 69257.6 270536.8 L 71051.6 270536.8 L 71051.6 275894.8 L 76040 275894.8 L 76040 277565.2 L 71051.6 277565.2 L 71051.6 282947.2 L 69257.6 282947.2 L 69257.6 277565.2 Z M 82825.6 277565.2 L 77837.2 277565.2 L 77837.2 275894.8 L 82825.6 275894.8 L 82825.6 270536.8 L 84619.6 270536.8 L 84619.6 275894.8 L 89608 275894.8 L 89608 277565.2 L 84619.6 277565.2 L 84619.6 282947.2 L 82825.6 282947.2 L 82825.6 277565.2 Z " fill-rule="nonzero" style="fill:#ffffff;;fill-opacity:1;"/>
</svg>