<svg version="1.1" x="0" y="0" width="100%" height="100%" viewBox="0 0 448768 149913.6" xmlns="http://www.w3.org/2000/svg">
  <path d="M 8289.2 15454.4 Q 7233.2 13905.2 4726.4 11496.8 L 5955.2 10439.6 Q 8609.6 12849.2 9617.6 14201.6 L 8289.2 15454.4 Z M 10649.6 26193.2 Q 10895.6 27053.6 11288 27741.2 Q 6766.4 31230.8 6348.8 31845.2 Q 6004.4 31010 5340.8 30198.8 Q 6569.6 29314.4 6569.6 27986 L 6569.6 19508 L 3179.6 19508 L 3179.6 17714 L 8315.6 17714 L 8315.6 27912.8 L 10649.6 26193.2 Z M 20259.2 22336.4 L 20259.2 16584.8 L 15933.2 16584.8 L 15933.2 21182 Q 15933.2 21944 15909.2 22337.6 L 20259.2 22337.6 L 20259.2 22336.4 Z M 25492.4 24153.2 L 22102.4 24153.2 L 22102.4 32436.8 L 20259.2 32436.8 L 20259.2 24153.2 L 15834.8 24153.2 Q 15317.6 29830.4 11975.6 32510 Q 11484.8 31895.6 10576.4 31329.2 Q 13524.8 28971.2 14042 24153.2 L 10306.4 24153.2 L 10306.4 22335.2 L 14116.4 22335.2 Q 14140.4 21941.6 14140.4 21179.6 L 14140.4 16582.4 L 10823.6 16582.4 L 10823.6 14788.4 L 14140.4 14788.4 L 14140.4 10070 L 15934.4 10070 L 15934.4 14788.4 L 20260.4 14788.4 L 20260.4 10046 L 22103.6 10046 L 22103.6 14788.4 L 25126.4 14788.4 L 25126.4 16582.4 L 22103.6 16582.4 L 22103.6 22334 L 25493.6 22334 L 25493.6 24152 L 25492.4 24153.2 Z M 30678.8 24694.4 L 29032.4 24694.4 L 29032.4 12873.2 L 30678.8 12873.2 L 30678.8 24694.4 Z M 32940.8 10096.4 L 34635.2 10096.4 L 34635.2 19853.6 Q 34635.2 24179.6 33947.6 26734.4 Q 33015.2 30224 30508.4 32484.8 Q 29967.2 31749.2 29156 31282.4 Q 31466 29217.2 32301.2 26072 Q 32940.8 23763.2 32940.8 19830.8 L 32940.8 10097.6 L 32940.8 10096.4 Z M 43630.4 13020.8 L 43630.4 16019.6 L 48890 16019.6 L 48890 26907.2 Q 48890 28160 48152 28504.4 Q 47537.6 28824.8 45376.4 28824.8 Q 45327.2 28210.4 44836.4 27202.4 Q 45768.8 27226.4 46826 27226.4 Q 47194.4 27226.4 47194.4 26882 L 47194.4 17691.2 L 43631.6 17691.2 L 43631.6 32460.8 L 41888 32460.8 L 41888 17691.2 L 38619.2 17691.2 L 38619.2 28995.2 L 36923.6 28995.2 L 36923.6 16019.6 L 41888 16019.6 L 41888 13020.8 L 36062 13020.8 L 36062 11350.4 L 49848.8 11350.4 L 49848.8 13020.8 L 43631.6 13020.8 L 43630.4 13020.8 Z M 56066 18182 Q 55500.8 17664.8 55500.8 16853.6 Q 55500.8 16018.4 56066 15503.6 Q 56583.2 14986.4 57345.2 14986.4 Q 58107.2 14986.4 58648.4 15503.6 Q 59213.6 16044.8 59213.6 16854.8 Q 59213.6 17666 58648.4 18183.2 Q 58107.2 18674 57345.2 18674 Q 56583.2 18674 56066 18183.2 L 56066 18182 Z M 56066 30200 Q 55500.8 29682.8 55500.8 28871.6 Q 55500.8 28061.6 56066 27520.4 Q 56583.2 27027.2 57345.2 27027.2 Q 58107.2 27027.2 58648.4 27520.4 Q 59213.6 28061.6 59213.6 28871.6 Q 59213.6 29682.8 58648.4 30200 Q 58107.2 30714.8 57345.2 30714.8 Q 56583.2 30714.8 56066 30200  Z M 78036.8 17273.6 L 80273.6 17273.6 L 80273.6 30617.6 L 78036.8 30617.6 L 78036.8 17273.6 Z M 78060.8 14102 Q 77619.2 13684.4 77619.2 13070 Q 77619.2 11620.4 79168.4 11620.4 Q 80715.2 11620.4 80715.2 13070 Q 80715.2 13684.4 80273.6 14102 Q 79830.8 14519.6 79168.4 14519.6 Q 78504.8 14519.6 78062 14102 L 78060.8 14102 Z M 84795.2 17273.6 L 86638.4 17273.6 L 86835.2 19190 L 86908.4 19190 Q 89218.4 16928 91382 16928 Q 95460.8 16928 95460.8 22163.6 L 95460.8 30617.6 L 93225.2 30617.6 L 93225.2 22457.6 Q 93225.2 18894.8 90694.4 18894.8 Q 89072 18894.8 87032 20934.8 L 87032 30617.6 L 84795.2 30617.6 L 84795.2 17273.6 Z M 100389.2 29118.8 Q 98890.4 27251.6 98890.4 23957.6 Q 98890.4 20812.4 100636.4 18821.6 Q 102282.8 16929.2 104667.2 16929.2 Q 106534.4 16929.2 108426.8 18503.6 L 108303.2 16193.6 L 108303.2 11056.4 L 110540 11056.4 L 110540 30620 L 108720.8 30620 L 108500 29046.8 L 108450.8 29046.8 Q 106510.4 30939.2 104397.2 30939.2 Q 101866.4 30939.2 100391.6 29120 L 100389.2 29118.8 Z M 108302 27225.2 L 108302 20222 Q 106728.8 18820.4 105057.2 18820.4 Q 103410.8 18820.4 102329.6 20222 Q 101200.4 21671.6 101200.4 23932.4 Q 101200.4 26366 102159.2 27718.4 Q 103118 29068.4 104888 29068.4 Q 106658 29068.4 108304.4 27225.2 L 108302 27225.2 Z M 115914.8 29094.8 Q 114046.4 27152 114046.4 23956.4 Q 114046.4 20836.4 115889.6 18820.4 Q 117635.6 16928 120069.2 16928 Q 122574.8 16928 124000.4 18623.6 Q 125376.8 20295.2 125376.8 23194.4 Q 125376.8 23834 125279.6 24472.4 L 116284.4 24472.4 Q 116384 26609.6 117612.8 27863.6 Q 118816.4 29140.4 120708.8 29140.4 Q 122478.8 29140.4 124052 28084.4 L 124863.2 29559.2 Q 122723.6 30935.6 120438.8 30935.6 Q 117687.2 30935.6 115917.2 29092.4 L 115914.8 29094.8 Z M 123411.2 22876.4 Q 123411.2 18723.2 120093.2 18723.2 Q 118618.4 18723.2 117562.4 19804.4 Q 116457.2 20960 116260.4 22876.4 L 123412.4 22876.4 L 123411.2 22876.4 Z M 129482.8 29094.8 Q 127614.4 27152 127614.4 23956.4 Q 127614.4 20836.4 129457.6 18820.4 Q 131203.6 16928 133637.2 16928 Q 136142.8 16928 137568.4 18623.6 Q 138944.8 20295.2 138944.8 23194.4 Q 138944.8 23834 138847.6 24472.4 L 129852.4 24472.4 Q 129952 26609.6 131180.8 27863.6 Q 132384.4 29140.4 134276.8 29140.4 Q 136046.8 29140.4 137620 28084.4 L 138431.2 29559.2 Q 136291.6 30935.6 134006.8 30935.6 Q 131255.2 30935.6 129485.2 29092.4 L 129482.8 29094.8 Z M 136979.2 22876.4 Q 136979.2 18723.2 133661.2 18723.2 Q 132186.4 18723.2 131130.4 19804.4 Q 130025.2 20960 129828.4 22876.4 L 136980.4 22876.4 L 136979.2 22876.4 Z M 144697.2 23662.4 L 140641.2 17273.6 L 143050.8 17273.6 L 146170.8 22433.6 L 146270.4 22433.6 L 149121.6 17273.6 L 151455.6 17273.6 L 147399.6 23883.2 L 151800 30617.6 L 149342.4 30617.6 L 147375.6 27496.4 Q 146761.2 26367.2 145950 25113.2 L 145826.4 25113.2 L 142657.2 30618.8 L 140296.8 30618.8 L 144697.2 23663.6 L 144697.2 23662.4 Z M 160008 11054 L 162244.8 11054 L 162244.8 16412 L 162171.6 19163.6 Q 164408.4 16926.8 166596 16926.8 Q 170674.8 16926.8 170674.8 22162.4 L 170674.8 30616.4 L 168439.2 30616.4 L 168439.2 22456.4 Q 168439.2 18893.6 165908.4 18893.6 Q 164286 18893.6 162246 20933.6 L 162246 30616.4 L 160009.2 30616.4 L 160009.2 11052.8 L 160008 11054 Z M 173408.4 29094.8 L 174513.6 27620 Q 176456.4 29193.2 178471.2 29193.2 Q 179749.2 29193.2 180460.8 28578.8 Q 181100.4 28013.6 181100.4 27105.2 Q 181100.4 25752.8 178052.4 24572 Q 176209.2 23884.4 175374 23222 Q 174072 22214 174072 20715.2 Q 174072 19068.8 175276.8 18036.8 Q 176553.6 16929.2 178666.8 16929.2 Q 180879.6 16929.2 182820 18428 L 181738.8 19878.8 Q 180141.6 18698 178666.8 18698 Q 177487.2 18698 176823.6 19264.4 Q 176234.4 19779.2 176234.4 20614.4 Q 176234.4 21450.8 177142.8 22040 Q 177609.6 22336.4 179182.8 22925.6 Q 181197.6 23687.6 181959.6 24278 Q 183264 25310 183264 26981.6 Q 183264 28677.2 182010 29757.2 Q 180684 30938 178398 30938 Q 175646.4 30938 173409.6 29094.8 L 173408.4 29094.8 Z M 186324.8 17273.6 L 188561.6 17273.6 L 188561.6 30617.6 L 186324.8 30617.6 L 186324.8 17273.6 Z M 186348.8 14102 Q 185907.2 13684.4 185907.2 13070 Q 185907.2 11620.4 187456.4 11620.4 Q 189003.2 11620.4 189003.2 13070 Q 189003.2 13684.4 188561.6 14102 Q 188118.8 14519.6 187456.4 14519.6 Q 186792.8 14519.6 186350 14102 L 186348.8 14102 Z M 212793.2 32978 Q 207902 28013.6 207902 21279.2 Q 207902 14546 212793.2 9581.6 L 214266.8 10343.6 Q 209696 15062 209696 21279.2 Q 209696 27496.4 214266.8 32214.8 L 212793.2 32978 Z M 220264.4 20246 L 226802 20246 L 226802 15675.2 L 220264.4 15675.2 L 220264.4 20246 Z M 228645.2 15675.2 L 228645.2 20246 L 235206.8 20246 L 235206.8 15675.2 L 228645.2 15675.2 Z M 228594.8 22016 Q 228350 25923.2 226284.8 28160 Q 229996.4 30200 238991.6 30593.6 Q 238352 31404.8 238155.2 32436.8 Q 228964.4 31870.4 224860.4 29438 Q 222303.2 31378.4 217608.8 32483.6 Q 217143.2 31524.8 216528.8 30886.4 Q 220950.8 29927.6 223311.2 28354.4 Q 221050.4 26462 219624.8 23439.2 L 221247.2 22824.8 Q 222623.6 25576.4 224736.8 27174.8 Q 226530.8 25306.4 226751.6 22013.6 L 218470.4 22013.6 L 218470.4 13929.2 L 226802 13929.2 L 226802 10143.2 L 228645.2 10143.2 L 228645.2 13929.2 L 237050 13929.2 L 237050 22013.6 L 228596 22013.6 L 228594.8 22016 Z M 241006.4 29291.6 Q 243046.4 28947.2 249657.2 27569.6 L 249828.8 29291.6 Q 245086.4 30298.4 241350.8 31158.8 L 241006.4 29291.6 Z M 249804.8 22924.4 Q 249731.6 23564 249855.2 24546.8 Q 242409.2 25678.4 241695.2 26046.8 Q 241377.2 24891.2 241056.8 24300.8 Q 241695.2 24153.2 243047.6 22703.6 Q 243882.8 21917.6 245678 19533.2 Q 241991.6 19925.6 241524.8 20195.6 Q 241131.2 18966.8 240885.2 18425.6 Q 241451.6 18278 242384 16925.6 Q 244424 14223.2 246070.4 10070 L 247889.6 10832 Q 245973.2 14912 243564.8 18131.6 L 246906.8 17811.2 Q 247545.2 16902.8 248553.2 15183.2 L 250174.4 16191.2 Q 247372.4 20589.2 244373.6 23661.2 L 249806 22923.2 L 249804.8 22924.4 Z M 263394.8 29094.8 L 263394.8 30912.8 L 250050.8 30912.8 L 250050.8 29094.8 L 255701.6 29094.8 L 255701.6 14176.4 L 250344.8 14176.4 L 250344.8 12382.4 L 262878.8 12382.4 L 262878.8 14176.4 L 257643.2 14176.4 L 257643.2 29094.8 L 263393.6 29094.8 L 263394.8 29094.8 Z M 269292.8 14864 L 269292.8 19682 Q 269292.8 28258.4 266910.8 32462 Q 266196.8 31750.4 265361.6 31454 Q 267474.8 27694.4 267474.8 19683.2 L 267474.8 13121.6 L 277354.4 13121.6 Q 276764 11892.8 275805.2 10688 L 277378.4 10049.6 Q 278704.4 11548.4 279418.4 13121.6 L 287823.2 13121.6 L 287823.2 14865.2 L 269291.6 14865.2 L 269292.8 14864 Z M 279419.6 21328.4 Q 282245.6 28184 288095.6 30765.2 Q 287333.6 31428.8 286792.4 32337.2 Q 281656.4 29756 278559.2 23588 Q 276618.8 29756 270868.4 32435.6 Q 270449.6 31672.4 269663.6 31034 Q 275734.4 28404.8 277281.2 21326 L 270671.6 21326 L 270671.6 19606.4 L 277551.2 19606.4 Q 277724 18352.4 277944.8 15624.8 L 279861.2 15624.8 Q 279689.6 17910.8 279443.6 19606.4 L 287381.6 19606.4 L 287381.6 21326 L 279419.6 21326 L 279419.6 21328.4 Z M 291731.6 9580.4 Q 296622.8 14544.8 296622.8 21278 Q 296622.8 28012.4 291731.6 32976.8 L 290258 32213.6 Q 294828.8 27495.2 294828.8 21278 Q 294828.8 15060.8 290258 10342.4 L 291731.6 9580.4 Z M 15614 51073.6 L 4112 51073.6 L 4112 49402 L 9200 49402 Q 8806.4 48246.4 8192 46870 L 9789.2 46403.2 Q 10503.2 47731.6 11092.4 49402 L 15615.2 49402 L 15615.2 51073.6 L 15614 51073.6 Z M 7136 55889.2 Q 6766.4 53996.8 5610.8 51688 L 7184 51294.4 Q 8388.8 53431.6 8806.4 55447.6 L 7136 55889.2 Z M 6545.6 61542.4 L 6545.6 65990.8 L 13230.8 65990.8 L 13230.8 61542.4 L 6545.6 61542.4 Z M 4799.6 59896 L 15023.6 59896 L 15023.6 68594.8 L 13229.6 68594.8 L 13229.6 67612 L 6544.4 67612 L 6544.4 68791.6 L 4798.4 68791.6 L 4798.4 59896 L 4799.6 59896 Z M 14532.8 51614.8 Q 13548.8 54169.6 12689.6 55988.8 L 16179.2 55988.8 L 16179.2 57659.2 L 3400.4 57659.2 L 3400.4 55988.8 L 10920.8 55988.8 Q 11976.8 53801.2 12714.8 51220 L 14534 51613.6 L 14532.8 51614.8 Z M 25271.6 48566.8 Q 23428.4 53236 22224.8 55866.4 Q 24952.4 58741.6 24952.4 61789.6 Q 24952.4 64174 23844.8 64909.6 Q 23230.4 65352.4 22322 65425.6 Q 21534.8 65522.8 20232.8 65474.8 Q 20184.8 64516 19742 63728.8 Q 20676.8 63826 21635.6 63778 Q 22250 63728.8 22618.4 63532 Q 23306 63090.4 23258 61615.6 Q 23258 58937.2 20456 56062 Q 21585.2 53504.8 22986.8 49500.4 L 19078.4 49500.4 L 19078.4 68915.2 L 17432 68915.2 L 17432 47828.8 L 23724.8 47828.8 L 24018.8 47731.6 L 25271.6 48566.8 Z M 28984.4 51442 L 30802.4 51442 L 30802.4 68965.6 L 28984.4 68965.6 L 28984.4 51442 Z M 31218.8 46476.4 Q 33528.8 48959.2 34733.6 50899.6 L 33234.8 51956.8 Q 32177.6 50064.4 29819.6 47360.8 L 31220 46476.4 L 31218.8 46476.4 Z M 48939.2 66530.8 Q 48939.2 68177.2 47783.6 68620 Q 46800.8 68964.4 43089.2 68915.2 Q 42892.4 67907.2 42425.6 67145.2 Q 45449.6 67268.8 46481.6 67169.2 Q 47120 67145.2 47120 66530.8 L 47120 49156 L 35446.4 49156 L 35446.4 47410 L 48939.2 47410 L 48939.2 66529.6 L 48939.2 66530.8 Z M 56066 54636.4 Q 55500.8 54119.2 55500.8 53308 Q 55500.8 52472.8 56066 51958 Q 56583.2 51440.8 57345.2 51440.8 Q 58107.2 51440.8 58648.4 51958 Q 59213.6 52499.2 59213.6 53309.2 Q 59213.6 54120.4 58648.4 54637.6 Q 58107.2 55128.4 57345.2 55128.4 Q 56583.2 55128.4 56066 54637.6 L 56066 54636.4 Z M 56066 66654.4 Q 55500.8 66137.2 55500.8 65326 Q 55500.8 64516 56066 63974.8 Q 56583.2 63481.6 57345.2 63481.6 Q 58107.2 63481.6 58648.4 63974.8 Q 59213.6 64516 59213.6 65326 Q 59213.6 66137.2 58648.4 66654.4 Q 58107.2 67169.2 57345.2 67169.2 Q 56583.2 67169.2 56066 66654.4  Z M 98853.2 50974 L 86811.2 50974 L 86811.2 49351.6 L 92217.2 49351.6 Q 91700 47975.2 91110.8 46870 L 92781.2 46403.2 Q 93740 48074.8 94133.6 49351.6 L 98852 49351.6 L 98852 50974 L 98853.2 50974 Z M 80788.4 50089.6 Q 80150 51539.2 79338.8 52793.2 L 82140.8 52793.2 Q 82755.2 51958 83639.6 50089.6 L 80788.4 50089.6 Z M 84474.8 54242.8 L 82656.8 54242.8 L 82656.8 57364 L 84474.8 57364 L 84474.8 54242.8 Z M 84474.8 58740.4 L 82656.8 58740.4 L 82656.8 61885.6 L 84474.8 61885.6 L 84474.8 58740.4 Z M 81429.2 57365.2 L 81429.2 54244 L 79438.4 54244 L 79438.4 57365.2 L 81429.2 57365.2 Z M 79438.4 58740.4 L 79438.4 61885.6 L 81429.2 61885.6 L 81429.2 58740.4 L 79438.4 58740.4 Z M 77987.6 54710.8 Q 77398.4 54023.2 76684.4 53653.6 Q 79142 50851.6 80420 46502.8 L 82091.6 46747.6 Q 81821.6 47706.4 81428 48617.2 L 84450.8 48617.2 L 84795.2 48517.6 L 85803.2 49304.8 Q 84894.8 51098.8 83763.2 52794.4 L 86000 52794.4 L 86000 63362.8 L 77987.6 63362.8 L 77987.6 54712 L 77987.6 54710.8 Z M 77004.8 66113.2 Q 78774.8 65892.4 86024 64835.2 L 86097.2 66334 L 81428 67072 Q 78626 67538.8 77297.6 67735.6 L 77003.6 66113.2 L 77004.8 66113.2 Z M 90521.6 61445.2 Q 89342 64811.2 87670.4 67392.4 Q 86982.8 66802 86344.4 66433.6 Q 87843.2 64294 88998.8 61025.2 L 90521.6 61444 L 90521.6 61445.2 Z M 89586.8 57905.2 L 95878.4 57905.2 L 95878.4 54733.6 L 89586.8 54733.6 L 89586.8 57905.2 Z M 93766.4 59551.6 L 93766.4 66948.4 Q 93766.4 68226.4 92955.2 68570.8 Q 92340.8 68864.8 89907.2 68864.8 Q 89734.4 68053.6 89316.8 67243.6 Q 89834 67267.6 91604 67267.6 Q 91997.6 67243.6 91997.6 66923.2 L 91997.6 59550.4 L 87917.6 59550.4 L 87917.6 53086 L 97648.4 53086 L 97648.4 59550.4 L 93766.4 59550.4 L 93766.4 59551.6 Z M 96542 61001.2 Q 98261.6 64196.8 99122 66554.8 L 97599.2 67194.4 Q 96911.6 65054.8 95116.4 61517.2 L 96542 61000 L 96542 61001.2 Z M 114335.6 51638.8 L 114335.6 53776 L 119520.8 53776 L 119520.8 51638.8 L 114335.6 51638.8 Z M 119522 61296.4 L 119522 58987.6 L 114336.8 58987.6 L 114336.8 61296.4 L 119522 61296.4 Z M 119522 55250.8 L 114336.8 55250.8 L 114336.8 57511.6 L 119522 57511.6 L 119522 55250.8 Z M 112616 51638.8 L 110279.6 51638.8 L 110279.6 49967.2 L 112616 49967.2 L 112616 46526.8 L 114335.6 46526.8 L 114335.6 49967.2 L 119520.8 49967.2 L 119520.8 46526.8 L 121264.4 46526.8 L 121264.4 49967.2 L 123353.6 49967.2 L 123353.6 51638.8 L 121264.4 51638.8 L 121264.4 61296.4 L 123894.8 61296.4 L 123894.8 62968 L 109787.6 62968 L 109787.6 61296.4 L 112614.8 61296.4 L 112614.8 51638.8 L 112616 51638.8 Z M 105954.8 50556.4 Q 105413.6 49057.6 103964 47263.6 L 105340.4 46476.4 Q 106742 48001.6 107429.6 49598.8 L 105954.8 50557.6 L 105954.8 50556.4 Z M 108977.6 61051.6 Q 108045.2 59773.6 106619.6 58200.4 L 106619.6 68965.6 L 104873.6 68965.6 L 104873.6 59011.6 Q 103448 60584.8 101901.2 61716.4 Q 101655.2 60708.4 101140.4 59994.4 Q 105292.4 57218.8 107553.2 52400.8 L 101679.2 52400.8 L 101679.2 50730.4 L 108437.6 50730.4 L 108734 50657.2 L 109666.4 51344.8 Q 108707.6 53923.6 106964 56454.4 Q 108020 57462.4 110036 59575.6 L 108978.8 61050.4 L 108977.6 61051.6 Z M 115638.8 64344.4 Q 113722.4 67048 110502.8 68988.4 Q 110036 68398 109348.4 67808.8 Q 112444.4 65916.4 114140 63508 L 115638.8 64343.2 L 115638.8 64344.4 Z M 119644.4 63509.2 Q 122396 65696.8 123993.2 67860.4 L 122543.6 68867.2 Q 121068.8 66706 118317.2 64420 L 119645.6 63511.6 L 119644.4 63509.2 Z M 139132.4 51809.2 Q 139770.8 50015.2 139992.8 49253.2 L 134290.4 49253.2 L 134290.4 47606.8 L 148372.4 47606.8 L 148372.4 49253.2 L 142107.2 49253.2 Q 141246.8 51317.2 141000.8 51808 L 146752.4 51808 L 146752.4 63236.8 L 144933.2 63236.8 L 144933.2 53455.6 L 136970 53455.6 L 136970 63286 L 135176 63286 L 135176 51808 L 139132.4 51808 L 139132.4 51809.2 Z M 134241.2 61666 Q 128564 63632.8 126206 64418.8 L 125715.2 62526.4 Q 127212.8 62134 129228.8 61519.6 L 129228.8 51148 L 126132.8 51148 L 126132.8 49402 L 133850 49402 L 133850 51148 L 131022.8 51148 L 131022.8 61002.4 L 133997.6 60094 L 134242.4 61667.2 L 134241.2 61666 Z M 141910.4 59993.2 Q 141910.4 62893.6 140508.8 64834 Q 138617.6 67439.2 133923.2 68914 Q 133505.6 68126.8 132791.6 67464.4 Q 137240 66259.6 138935.6 63998.8 Q 140115.2 62449.6 140115.2 59968 L 140115.2 54832 L 141910.4 54832 L 141910.4 59992 L 141910.4 59993.2 Z M 142966.4 63679.6 Q 146652.8 65940.4 148472 67636 L 147267.2 68938 Q 145376 67046.8 141810.8 64810 L 142966.4 63678.4 L 142966.4 63679.6 Z M 168108.8 65352.4 L 168108.8 61321.6 L 155254.4 61321.6 L 155254.4 65352.4 L 168108.8 65352.4 Z M 155254.4 55546 L 155254.4 59576.8 L 168108.8 59576.8 L 168108.8 55546 L 155254.4 55546 Z M 155254.4 49819.6 L 155254.4 53802.4 L 168108.8 53802.4 L 168108.8 49819.6 L 155254.4 49819.6 Z M 170000 48049.6 L 170000 68818 L 168108.8 68818 L 168108.8 67146.4 L 155254.4 67146.4 L 155254.4 68818 L 153460.4 68818 L 153460.4 48049.6 L 170000 48049.6 Z M 187646 51073.6 L 176144 51073.6 L 176144 49402 L 181232 49402 Q 180838.4 48246.4 180224 46870 L 181821.2 46403.2 Q 182535.2 47731.6 183124.4 49402 L 187647.2 49402 L 187647.2 51073.6 L 187646 51073.6 Z M 179168 55889.2 Q 178798.4 53996.8 177642.8 51688 L 179216 51294.4 Q 180420.8 53431.6 180838.4 55447.6 L 179168 55889.2 Z M 178577.6 61542.4 L 178577.6 65990.8 L 185262.8 65990.8 L 185262.8 61542.4 L 178577.6 61542.4 Z M 176831.6 59896 L 187055.6 59896 L 187055.6 68594.8 L 185261.6 68594.8 L 185261.6 67612 L 178576.4 67612 L 178576.4 68791.6 L 176830.4 68791.6 L 176830.4 59896 L 176831.6 59896 Z M 186564.8 51614.8 Q 185580.8 54169.6 184721.6 55988.8 L 188211.2 55988.8 L 188211.2 57659.2 L 175432.4 57659.2 L 175432.4 55988.8 L 182952.8 55988.8 Q 184008.8 53801.2 184746.8 51220 L 186566 51613.6 L 186564.8 51614.8 Z M 197303.6 48566.8 Q 195460.4 53236 194256.8 55866.4 Q 196984.4 58741.6 196984.4 61789.6 Q 196984.4 64174 195876.8 64909.6 Q 195262.4 65352.4 194354 65425.6 Q 193566.8 65522.8 192264.8 65474.8 Q 192216.8 64516 191774 63728.8 Q 192708.8 63826 193667.6 63778 Q 194282 63728.8 194650.4 63532 Q 195338 63090.4 195290 61615.6 Q 195290 58937.2 192488 56062 Q 193617.2 53504.8 195018.8 49500.4 L 191110.4 49500.4 L 191110.4 68915.2 L 189464 68915.2 L 189464 47828.8 L 195756.8 47828.8 L 196050.8 47731.6 L 197303.6 48566.8 Z M 220626.8 69432.4 Q 215735.6 64468 215735.6 57733.6 Q 215735.6 51000.4 220626.8 46036 L 222100.4 46798 Q 217529.6 51516.4 217529.6 57733.6 Q 217529.6 63950.8 222100.4 68669.2 L 220626.8 69432.4 Z M 232742 60240.4 L 232742 66016 L 242892.8 66016 L 242892.8 60240.4 L 232742 60240.4 Z M 230925.2 58519.6 L 244786.4 58519.6 L 244786.4 68939.2 L 242894 68939.2 L 242894 67710.4 L 232743.2 67710.4 L 232743.2 68988.4 L 230925.2 68988.4 L 230925.2 58519.6 Z M 246603.2 53261.2 L 246603.2 55031.2 L 228858.8 55031.2 Q 228858.8 64394.8 225615.2 69013.6 Q 224927.6 68154.4 224116.4 67760.8 Q 226991.6 63706 226991.6 55031.2 L 226991.6 48714.4 Q 238223.6 48002.8 243359.6 46724.8 L 244882.4 48174.4 Q 239255.6 49550.8 228858.8 50238.4 L 228858.8 53262.4 L 246603.2 53262.4 L 246603.2 53261.2 Z M 270393.2 53555.2 L 258105.2 53555.2 L 258105.2 47731.6 L 259800.8 47731.6 L 259800.8 51932.8 L 263190.8 51932.8 L 263190.8 46550.8 L 264936.8 46550.8 L 264936.8 51932.8 L 268647.2 51932.8 L 268647.2 47731.6 L 270393.2 47731.6 L 270393.2 53555.2 Z M 253164.8 50900.8 Q 252723.2 49451.2 251543.6 47263.6 L 253066.4 46772.8 Q 254222 48640 254787.2 50310.4 L 253164.8 50900.8 Z M 257318 52793.2 L 249134 52793.2 L 249134 51097.6 L 257318 51097.6 L 257318 52793.2 Z M 250953.2 62992 Q 250829.6 59305.6 249897.2 54218.8 L 251297.6 53972.8 Q 252256.4 58790.8 252429.2 62747.2 L 250954.4 62992 L 250953.2 62992 Z M 257294 62747.2 L 257490.8 64441.6 Q 250953.2 66137.2 249356 66506.8 L 248962.4 64736.8 L 253509.2 63679.6 Q 254417.6 59575.6 254958.8 53752 L 256556 54046 Q 255744.8 59796.4 254933.6 63335.2 L 257294 62746 L 257294 62747.2 Z M 265084.4 56971.6 Q 264273.2 59453.2 264372.8 59208.4 L 270688.4 59208.4 L 270688.4 67292.8 Q 270688.4 68374 270050 68718.4 Q 269508.8 69012.4 267813.2 69012.4 Q 267716 68374 267273.2 67538.8 Q 268478 67588 268772 67538.8 Q 269042 67538.8 269042 67268.8 L 269042 60780.4 L 266805.2 60780.4 L 266805.2 68644 L 265355.6 68644 L 265355.6 60780.4 L 263094.8 60780.4 L 263094.8 68718.4 L 261645.2 68718.4 L 261645.2 60780.4 L 259481.6 60780.4 L 259481.6 68939.2 L 257835.2 68939.2 L 257835.2 59208.4 L 262577.6 59208.4 L 263020.4 56971.6 L 257048 56971.6 L 257048 55349.2 L 271204.4 55349.2 L 271204.4 56971.6 L 265084.4 56971.6 Z M 286588.4 51809.2 Q 287226.8 50015.2 287448.8 49253.2 L 281746.4 49253.2 L 281746.4 47606.8 L 295828.4 47606.8 L 295828.4 49253.2 L 289563.2 49253.2 Q 288702.8 51317.2 288456.8 51808 L 294208.4 51808 L 294208.4 63236.8 L 292389.2 63236.8 L 292389.2 53455.6 L 284426 53455.6 L 284426 63286 L 282632 63286 L 282632 51808 L 286588.4 51808 L 286588.4 51809.2 Z M 281697.2 61666 Q 276020 63632.8 273662 64418.8 L 273171.2 62526.4 Q 274668.8 62134 276684.8 61519.6 L 276684.8 51148 L 273588.8 51148 L 273588.8 49402 L 281306 49402 L 281306 51148 L 278478.8 51148 L 278478.8 61002.4 L 281453.6 60094 L 281698.4 61667.2 L 281697.2 61666 Z M 289366.4 59993.2 Q 289366.4 62893.6 287964.8 64834 Q 286073.6 67439.2 281379.2 68914 Q 280961.6 68126.8 280247.6 67464.4 Q 284696 66259.6 286391.6 63998.8 Q 287571.2 62449.6 287571.2 59968 L 287571.2 54832 L 289366.4 54832 L 289366.4 59992 L 289366.4 59993.2 Z M 290422.4 63679.6 Q 294108.8 65940.4 295928 67636 L 294723.2 68938 Q 292832 67046.8 289266.8 64810 L 290422.4 63678.4 L 290422.4 63679.6 Z M 315564.8 65352.4 L 315564.8 61321.6 L 302710.4 61321.6 L 302710.4 65352.4 L 315564.8 65352.4 Z M 302710.4 55546 L 302710.4 59576.8 L 315564.8 59576.8 L 315564.8 55546 L 302710.4 55546 Z M 302710.4 49819.6 L 302710.4 53802.4 L 315564.8 53802.4 L 315564.8 49819.6 L 302710.4 49819.6 Z M 317456 48049.6 L 317456 68818 L 315564.8 68818 L 315564.8 67146.4 L 302710.4 67146.4 L 302710.4 68818 L 300916.4 68818 L 300916.4 48049.6 L 317456 48049.6 Z M 331415.6 59182 Q 331366.4 59796.4 331415.6 60707.2 Q 324090.8 62180.8 323379.2 62550.4 Q 323182.4 61715.2 322838 60977.2 Q 323525.6 60780.4 324779.6 59330.8 Q 325738.4 58372 327532.4 55938.4 Q 323846 56405.2 323206.4 56699.2 Q 323058.8 55961.2 322666.4 54978.4 Q 323181.2 54854.8 324116 53478.4 Q 326229.2 50578 327728 46499.2 L 329374.4 47285.2 Q 327407.6 51611.2 325122.8 54707.2 L 328660.4 54313.6 Q 329693.6 52764.4 330282.8 51708.4 L 331732.4 52568.8 Q 329079.2 56893.6 326055.2 60162.4 L 331413.2 59178.4 L 331415.6 59182 Z M 331415.6 65228.8 L 323132 67342 L 322814 65572 Q 323280.8 65498.8 331242.8 63679.6 L 331415.6 65228.8 Z M 335102 66751.6 L 341098.4 66751.6 L 341098.4 61984 L 335102 61984 L 335102 66751.6 Z M 335102 49402 L 335102 53972.8 L 341098.4 53972.8 L 341098.4 49402 L 335102 49402 Z M 335102 60337.6 L 341098.4 60337.6 L 341098.4 55644.4 L 335102 55644.4 L 335102 60337.6 Z M 345006.8 66751.6 L 345006.8 68423.2 L 330875.6 68423.2 L 330875.6 66751.6 L 333357.2 66751.6 L 333357.2 47730.4 L 342893.6 47730.4 L 342893.6 66751.6 L 345006.8 66751.6 Z M 348717.2 46034.8 Q 353608.4 50999.2 353608.4 57732.4 Q 353608.4 64466.8 348717.2 69431.2 L 347243.6 68668 Q 351814.4 63949.6 351814.4 57732.4 Q 351814.4 51515.2 347243.6 46796.8 L 348717.2 46034.8 Z M 22593.2 86446.8 L 15737.6 86446.8 L 15737.6 93770.4 L 22593.2 93770.4 L 22593.2 86446.8 Z M 24387.2 95515.2 L 13967.6 95515.2 L 13967.6 84700.8 L 24387.2 84700.8 L 24387.2 95515.2 Z M 6398 99692.4 Q 6618.8 99667.2 9936.8 99128.4 L 9936.8 95712 L 6398 95712 L 6398 99692.4 Z M 6398 85708.8 L 6398 89125.2 L 9936.8 89125.2 L 9936.8 85708.8 L 6398 85708.8 Z M 6398 94186.8 L 9936.8 94186.8 L 9936.8 90673.2 L 6398 90673.2 L 6398 94186.8 Z M 11632.4 100503.6 L 11632.4 105418.8 L 9938 105418.8 L 9938 100797.6 L 3449.6 101902.8 L 3056 100183.2 L 4702.4 99937.2 L 4702.4 85708.8 L 3326 85708.8 L 3326 84038.4 L 13056.8 84038.4 L 13056.8 85708.8 L 11631.2 85708.8 L 11631.2 98857.2 L 13180.4 98611.2 L 13304 100208.4 L 11632.4 100504.8 L 11632.4 100503.6 Z M 17678 98317.2 Q 16425.2 102618 13844 105393.6 Q 13302.8 104902.8 12344 104361.6 Q 14801.6 101977.2 15882.8 97922.4 L 17676.8 98316 L 17678 98317.2 Z M 22274 97849.2 Q 24707.6 101732.4 25542.8 104460 L 23823.2 105171.6 Q 22988 102345.6 20654 98462.4 L 22275.2 97848 L 22274 97849.2 Z M 41763.2 87134.4 Q 41442.8 85388.4 40607.6 83227.2 L 42327.2 82784.4 Q 43335.2 85586.4 43556 86594.4 L 41762 87135.6 L 41763.2 87134.4 Z M 48963.2 89174.4 L 35716.4 89174.4 L 35716.4 87404.4 L 48963.2 87404.4 L 48963.2 89174.4 Z M 38985.2 101510.4 Q 38640.8 96964.8 37314.8 91041.6 L 38961.2 90673.2 Q 40263.2 96129.6 40778 100995.6 L 38984 101510.4 L 38985.2 101510.4 Z M 35422.4 83571.6 Q 34514 86053.2 32940.8 88780.8 L 32940.8 105369.6 L 31121.6 105369.6 L 31121.6 91632 Q 30113.6 93105.6 28688 94604.4 Q 28294.4 93572.4 27656 92810.4 Q 31563.2 89000.4 33702.8 83053.2 L 35422.4 83570.4 L 35422.4 83571.6 Z M 49971.2 102642 L 49971.2 104412 L 34684.4 104412 L 34684.4 102642 L 43262 102642 Q 44760.8 97088.4 45596 90477.6 L 47488.4 90822 Q 46356.8 97456.8 44956.4 102642 L 49968.8 102642 L 49971.2 102642 Z M 56066 91090.8 Q 55500.8 90573.6 55500.8 89762.4 Q 55500.8 88927.2 56066 88412.4 Q 56583.2 87895.2 57345.2 87895.2 Q 58107.2 87895.2 58648.4 88412.4 Q 59213.6 88953.6 59213.6 89763.6 Q 59213.6 90574.8 58648.4 91092 Q 58107.2 91582.8 57345.2 91582.8 Q 56583.2 91582.8 56066 91092 L 56066 91090.8 Z M 56066 103108.8 Q 55500.8 102591.6 55500.8 101780.4 Q 55500.8 100970.4 56066 100429.2 Q 56583.2 99936 57345.2 99936 Q 58107.2 99936 58648.4 100429.2 Q 59213.6 100970.4 59213.6 101780.4 Q 59213.6 102591.6 58648.4 103108.8 Q 58107.2 103623.6 57345.2 103623.6 Q 56583.2 103623.6 56066 103108.8  Z M 76439.6 90182.4 L 78724.4 90182.4 L 80715.2 97899.6 L 81502.4 101634 L 81626 101634 Q 82313.6 98661.6 82534.4 97899.6 L 84598.4 90182.4 L 86786 90182.4 L 88875.2 97899.6 L 89810 101634 L 89907.2 101634 L 90742.4 97899.6 L 92709.2 90182.4 L 94822.4 90182.4 L 91233.2 103526.4 L 88530.8 103526.4 L 86588 96326.4 L 85679.6 92491.2 L 85556 92491.2 Q 84966.8 95145.6 84646.4 96374.4 L 82779.2 103526.4 L 80148.8 103526.4 L 76438.4 90182.4 L 76439.6 90182.4 Z M 98558 102003.6 Q 96689.6 100060.8 96689.6 96865.2 Q 96689.6 93745.2 98532.8 91729.2 Q 100278.8 89836.8 102712.4 89836.8 Q 105218 89836.8 106643.6 91532.4 Q 108020 93204 108020 96103.2 Q 108020 96742.8 107922.8 97381.2 L 98927.6 97381.2 Q 99027.2 99518.4 100256 100772.4 Q 101459.6 102049.2 103352 102049.2 Q 105122 102049.2 106695.2 100993.2 L 107506.4 102468 Q 105366.8 103844.4 103082 103844.4 Q 100330.4 103844.4 98560.4 102001.2 L 98558 102003.6 Z M 106054.4 95785.2 Q 106054.4 91632 102736.4 91632 Q 101261.6 91632 100205.6 92713.2 Q 99100.4 93868.8 98903.6 95785.2 L 106055.6 95785.2 L 106054.4 95785.2 Z M 113329.6 102150 L 113256.4 102150 L 113059.6 103526.4 L 111265.6 103526.4 L 111265.6 83962.8 L 113502.4 83962.8 L 113502.4 89320.8 L 113429.2 91729.2 Q 115590.4 89836.8 117606.4 89836.8 Q 120161.2 89836.8 121562.8 91705.2 Q 122939.2 93499.2 122939.2 96620.4 Q 122939.2 99937.2 121195.6 101953.2 Q 119548 103845.6 117139.6 103845.6 Q 115172.8 103845.6 113329.6 102150  Z M 119522.8 100578 Q 120604 99103.2 120604 96670.8 Q 120604 91730.4 117089.2 91730.4 Q 115468 91730.4 113501.2 93573.6 L 113501.2 100578 Q 115098.4 101978.4 116770 101978.4 Q 118465.6 101978.4 119521.6 100578 L 119522.8 100578 Z M 134209.2 98562 L 134209.2 96104.4 L 128776.8 96104.4 L 128776.8 98562 L 134209.2 98562 Z M 128778 92270.4 L 128778 94678.8 L 134210.4 94678.8 L 134210.4 92270.4 L 128778 92270.4 Z M 135979.2 103305.6 Q 135979.2 104607.6 135094.8 105001.2 Q 134407.2 105295.2 131679.6 105295.2 Q 131506.8 104508 131089.2 103698 Q 133056 103771.2 133743.6 103722 Q 134210.4 103698 134210.4 103279.2 L 134210.4 100011.6 L 128778 100011.6 L 128778 105295.2 L 127034.4 105295.2 L 127034.4 90697.2 L 135980.4 90697.2 L 135980.4 103305.6 L 135979.2 103305.6 Z M 143893.2 90206.4 L 145687.2 90206.4 L 145687.2 103108.8 Q 145687.2 104607.6 144704.4 105001.2 Q 143745.6 105369.6 140821.2 105320.4 Q 140648.4 104485.2 140157.6 103576.8 Q 142542 103650 143353.2 103600.8 Q 143894.4 103576.8 143894.4 103110 L 143894.4 90207.6 L 143893.2 90206.4 Z M 140648.4 100921.2 L 138952.8 100921.2 L 138952.8 90943.2 L 140648.4 90943.2 L 140648.4 100921.2 Z M 147332.4 86840.4 L 147332.4 88510.8 L 125510.4 88510.8 L 125510.4 86840.4 L 131530.8 86840.4 Q 130891.2 85438.8 129294 83571.6 L 130964.4 82932 Q 132612 84702 133422 86373.6 L 132218.4 86840.4 L 139542 86840.4 Q 140918.4 84897.6 141853.2 82857.6 L 143769.6 83497.2 Q 142909.2 84970.8 141583.2 86839.2 L 147333.6 86839.2 L 147332.4 86840.4 Z M 171270 90009.6 L 158982 90009.6 L 158982 84186 L 160677.6 84186 L 160677.6 88387.2 L 164067.6 88387.2 L 164067.6 83005.2 L 165813.6 83005.2 L 165813.6 88387.2 L 169524 88387.2 L 169524 84186 L 171270 84186 L 171270 90009.6 Z M 154041.6 87355.2 Q 153600 85905.6 152420.4 83718 L 153943.2 83227.2 Q 155098.8 85094.4 155664 86764.8 L 154041.6 87355.2 Z M 158194.8 89247.6 L 150010.8 89247.6 L 150010.8 87552 L 158194.8 87552 L 158194.8 89247.6 Z M 151830 99446.4 Q 151706.4 95760 150774 90673.2 L 152174.4 90427.2 Q 153133.2 95245.2 153306 99201.6 L 151831.2 99446.4 L 151830 99446.4 Z M 158170.8 99201.6 L 158367.6 100896 Q 151830 102591.6 150232.8 102961.2 L 149839.2 101191.2 L 154386 100134 Q 155294.4 96030 155835.6 90206.4 L 157432.8 90500.4 Q 156621.6 96250.8 155810.4 99789.6 L 158170.8 99200.4 L 158170.8 99201.6 Z M 165961.2 93426 Q 165150 95907.6 165249.6 95662.8 L 171565.2 95662.8 L 171565.2 103747.2 Q 171565.2 104828.4 170926.8 105172.8 Q 170385.6 105466.8 168690 105466.8 Q 168592.8 104828.4 168150 103993.2 Q 169354.8 104042.4 169648.8 103993.2 Q 169918.8 103993.2 169918.8 103723.2 L 169918.8 97234.8 L 167682 97234.8 L 167682 105098.4 L 166232.4 105098.4 L 166232.4 97234.8 L 163971.6 97234.8 L 163971.6 105172.8 L 162522 105172.8 L 162522 97234.8 L 160358.4 97234.8 L 160358.4 105393.6 L 158712 105393.6 L 158712 95662.8 L 163454.4 95662.8 L 163897.2 93426 L 157924.8 93426 L 157924.8 91803.6 L 172081.2 91803.6 L 172081.2 93426 L 165961.2 93426 Z M 196534.8 101707.2 L 196534.8 103526.4 L 174613.2 103526.4 L 174613.2 101707.2 L 184492.8 101707.2 L 184492.8 87601.2 L 175891.2 87601.2 L 175891.2 85732.8 L 195306 85732.8 L 195306 87601.2 L 186483.6 87601.2 L 186483.6 101707.2 L 196534.8 101707.2 Z M 218062.8 85388.4 L 210272.4 85388.4 L 210272.4 89468.4 L 218062.8 89468.4 L 218062.8 85388.4 Z M 219831.6 91065.6 L 208551.6 91065.6 L 208551.6 83816.4 L 219831.6 83816.4 L 219831.6 91065.6 Z M 206241.6 97947.6 Q 205824 96915.6 204447.6 94458 L 204447.6 105420 L 202728 105420 L 202728 95072.4 Q 201229.2 99176.4 199704 101143.2 Q 199459.2 100431.6 198745.2 99399.6 Q 201006 96475.2 202456.8 91681.2 L 199285.2 91681.2 L 199285.2 89961.6 L 202726.8 89961.6 L 202726.8 86005.2 Q 201595.2 86251.2 200096.4 86521.2 Q 199948.8 85906.8 199555.2 85071.6 Q 203881.2 84235.2 206042.4 83155.2 L 207198 84628.8 Q 206092.8 85146 204446.4 85587.6 L 204446.4 89961.6 L 207469.2 89961.6 L 207469.2 91681.2 L 204446.4 91681.2 L 204446.4 92247.6 Q 206116.8 94262.4 207418.8 96426 L 206239.2 97948.8 L 206241.6 97947.6 Z M 221233.2 103059.6 L 221233.2 104755.2 L 207002.4 104755.2 L 207002.4 103059.6 L 213442.8 103059.6 L 213442.8 99667.2 L 208675.2 99667.2 L 208675.2 98020.8 L 213442.8 98020.8 L 213442.8 94827.6 L 208084.8 94827.6 L 208084.8 93156 L 220693.2 93156 L 220693.2 94827.6 L 215236.8 94827.6 L 215236.8 98020.8 L 220152 98020.8 L 220152 99667.2 L 215236.8 99667.2 L 215236.8 103059.6 L 221233.2 103059.6 Z M 226467.6 97603.2 L 224821.2 97603.2 L 224821.2 85782 L 226467.6 85782 L 226467.6 97603.2 Z M 228729.6 83005.2 L 230424 83005.2 L 230424 92762.4 Q 230424 97088.4 229736.4 99643.2 Q 228804 103132.8 226297.2 105393.6 Q 225756 104658 224944.8 104191.2 Q 227254.8 102126 228090 98980.8 Q 228729.6 96672 228729.6 92739.6 L 228729.6 83006.4 L 228729.6 83005.2 Z M 239419.2 85929.6 L 239419.2 88928.4 L 244678.8 88928.4 L 244678.8 99816 Q 244678.8 101068.8 243940.8 101413.2 Q 243326.4 101733.6 241165.2 101733.6 Q 241116 101119.2 240625.2 100111.2 Q 241557.6 100135.2 242614.8 100135.2 Q 242983.2 100135.2 242983.2 99790.8 L 242983.2 90600 L 239420.4 90600 L 239420.4 105369.6 L 237676.8 105369.6 L 237676.8 90600 L 234408 90600 L 234408 101904 L 232712.4 101904 L 232712.4 88928.4 L 237676.8 88928.4 L 237676.8 85929.6 L 231850.8 85929.6 L 231850.8 84259.2 L 245637.6 84259.2 L 245637.6 85929.6 L 239420.4 85929.6 L 239419.2 85929.6 Z M 268959.6 105886.8 Q 264068.4 100922.4 264068.4 94188 Q 264068.4 87454.8 268959.6 82490.4 L 270433.2 83252.4 Q 265862.4 87970.8 265862.4 94188 Q 265862.4 100405.2 270433.2 105123.6 L 268959.6 105886.8 Z M 275324.4 89788.8 L 273530.4 89788.8 L 273530.4 85167.6 L 283311.6 85167.6 Q 282549.6 83742 282205.2 83200.8 L 283975.2 82759.2 Q 284686.8 83815.2 285400.8 85167.6 L 294150 85167.6 L 294150 89788.8 L 292306.8 89788.8 L 292306.8 86864.4 L 275324.4 86864.4 L 275324.4 89788.8 Z M 289676.4 97899.6 Q 286407.6 96940.8 283876.8 95563.2 Q 281271.6 96964.8 278396.4 97899.6 L 289676.4 97899.6 Z M 288768 103009.2 L 288768 99446.4 L 279061.2 99446.4 L 279061.2 103009.2 L 288768 103009.2 Z M 280239.6 90648 Q 281592 92221.2 283902 93622.8 Q 286359.6 92100 287760 90550.8 L 280339.2 90550.8 L 280239.6 90648 Z M 290562 89812.8 Q 288818.4 92443.2 285673.2 94507.2 Q 289777.2 96423.6 295183.2 97111.2 Q 294642 97652.4 294027.6 98832 Q 292430.4 98635.2 290611.2 98144.4 L 290611.2 105369.6 L 288768 105369.6 L 288768 104582.4 L 279061.2 104582.4 L 279061.2 105393.6 L 277291.2 105393.6 L 277291.2 98266.8 Q 275768.4 98733.6 273408 99224.4 Q 273063.6 98289.6 272522.4 97627.2 Q 277782 96716.4 282182.4 94555.2 Q 280290 93226.8 278961.6 91728 Q 277218 93080.4 275128.8 94112.4 Q 274614 93301.2 273900 92810.4 Q 278643.6 90697.2 280879.2 87304.8 L 282846 87649.2 Q 282649.2 87945.6 281716.8 89101.2 L 289016.4 89101.2 L 289334.4 89028 L 290563.2 89814 L 290562 89812.8 Z M 315014.4 93351.6 L 315014.4 88460.4 L 302235.6 88460.4 L 302235.6 92049.6 Q 302235.6 92884.8 302211.6 93351.6 L 315014.4 93351.6 Z M 316857.6 86740.8 L 316857.6 96670.8 L 315014.4 96670.8 L 315014.4 95072.4 L 302137.2 95072.4 Q 301596 101954.4 298621.2 105543.6 Q 297958.8 104829.6 297074.4 104436 Q 300367.2 100431.6 300367.2 92050.8 L 300367.2 86742 L 308305.2 86742 Q 307814.4 85119.6 306979.2 83301.6 L 308749.2 82834.8 Q 309805.2 84922.8 310248 86397.6 L 309116.4 86742 L 316857.6 86742 L 316857.6 86740.8 Z M 343302 90009.6 L 331014 90009.6 L 331014 84186 L 332709.6 84186 L 332709.6 88387.2 L 336099.6 88387.2 L 336099.6 83005.2 L 337845.6 83005.2 L 337845.6 88387.2 L 341556 88387.2 L 341556 84186 L 343302 84186 L 343302 90009.6 Z M 326073.6 87355.2 Q 325632 85905.6 324452.4 83718 L 325975.2 83227.2 Q 327130.8 85094.4 327696 86764.8 L 326073.6 87355.2 Z M 330226.8 89247.6 L 322042.8 89247.6 L 322042.8 87552 L 330226.8 87552 L 330226.8 89247.6 Z M 323862 99446.4 Q 323738.4 95760 322806 90673.2 L 324206.4 90427.2 Q 325165.2 95245.2 325338 99201.6 L 323863.2 99446.4 L 323862 99446.4 Z M 330202.8 99201.6 L 330399.6 100896 Q 323862 102591.6 322264.8 102961.2 L 321871.2 101191.2 L 326418 100134 Q 327326.4 96030 327867.6 90206.4 L 329464.8 90500.4 Q 328653.6 96250.8 327842.4 99789.6 L 330202.8 99200.4 L 330202.8 99201.6 Z M 337993.2 93426 Q 337182 95907.6 337281.6 95662.8 L 343597.2 95662.8 L 343597.2 103747.2 Q 343597.2 104828.4 342958.8 105172.8 Q 342417.6 105466.8 340722 105466.8 Q 340624.8 104828.4 340182 103993.2 Q 341386.8 104042.4 341680.8 103993.2 Q 341950.8 103993.2 341950.8 103723.2 L 341950.8 97234.8 L 339714 97234.8 L 339714 105098.4 L 338264.4 105098.4 L 338264.4 97234.8 L 336003.6 97234.8 L 336003.6 105172.8 L 334554 105172.8 L 334554 97234.8 L 332390.4 97234.8 L 332390.4 105393.6 L 330744 105393.6 L 330744 95662.8 L 335486.4 95662.8 L 335929.2 93426 L 329956.8 93426 L 329956.8 91803.6 L 344113.2 91803.6 L 344113.2 93426 L 337993.2 93426 Z M 361194 93278.4 L 361194 86323.2 L 354362.4 86323.2 L 354362.4 93278.4 L 361194 93278.4 Z M 368516.4 95048.4 L 363060 95048.4 L 363060 105444 L 361192.8 105444 L 361192.8 95048.4 L 354286.8 95048.4 Q 353647.2 102076.8 348190.8 105517.2 Q 347479.2 104658 346741.2 104164.8 Q 351804 101068.8 352418.4 95048.4 L 346668 95048.4 L 346668 93278.4 L 352491.6 93278.4 Q 352516.8 92908.8 352516.8 92221.2 L 352516.8 86323.2 L 347576.4 86323.2 L 347576.4 84577.2 L 367754.4 84577.2 L 367754.4 86323.2 L 363060 86323.2 L 363060 93278.4 L 368516.4 93278.4 L 368516.4 95048.4 Z M 389480.4 87798 Q 388596 86544 386384.4 84186 L 387784.8 83301.6 Q 390021.6 85586.4 390956.4 86791.2 L 389481.6 87799.2 L 389480.4 87798 Z M 380386.8 94654.8 Q 381812.4 97603.2 384319.2 99716.4 Q 386800.8 97555.2 388078.8 94654.8 L 380385.6 94654.8 L 380386.8 94654.8 Z M 390537.6 93402 Q 389088 97850.4 385770 100822.8 Q 389013.6 103035.6 393487.2 103870.8 Q 392848.8 104485.2 392355.6 105493.2 Q 387662.4 104461.2 384368.4 101978.4 Q 381148.8 104288.4 376800 105468 Q 376454.4 104658 375840 103894.8 Q 379846.8 102962.4 382918.8 100798.8 Q 380731.2 98758.8 379257.6 96007.2 Q 376627.2 100676.4 372080.4 103503.6 Q 371565.6 102716.4 370730.4 102102 Q 376971.6 98292 379526.4 90280.8 L 376110 90280.8 Q 373849.2 90280.8 373504.8 90698.4 Q 373112.4 89469.6 372890.4 88978.8 Q 373357.2 88855.2 373774.8 87994.8 Q 374782.8 86300.4 375421.2 83646 L 377337.6 84014.4 Q 376798.8 86054.4 375570 88512 L 379992 88512 Q 380706 85857.6 381024 82885.2 L 383064 83179.2 Q 382646.4 86127.6 382081.2 88512 L 392673.6 88512 L 392649.6 90282 L 381590.4 90282 Q 381196.8 91534.8 380730 92887.2 L 388963.2 92887.2 L 389307.6 92790 L 390536.4 93404.4 L 390537.6 93402 Z M 397050 82489.2 Q 401941.2 87453.6 401941.2 94186.8 Q 401941.2 100921.2 397050 105885.6 L 395576.4 105122.4 Q 400147.2 100404 400147.2 94186.8 Q 400147.2 87969.6 395576.4 83251.2 L 397050 82489.2 Z M 22593.2 122901.2 L 15737.6 122901.2 L 15737.6 130224.8 L 22593.2 130224.8 L 22593.2 122901.2 Z M 24387.2 131969.6 L 13967.6 131969.6 L 13967.6 121155.2 L 24387.2 121155.2 L 24387.2 131969.6 Z M 6398 136146.8 Q 6618.8 136121.6 9936.8 135582.8 L 9936.8 132166.4 L 6398 132166.4 L 6398 136146.8 Z M 6398 122163.2 L 6398 125579.6 L 9936.8 125579.6 L 9936.8 122163.2 L 6398 122163.2 Z M 6398 130641.2 L 9936.8 130641.2 L 9936.8 127127.6 L 6398 127127.6 L 6398 130641.2 Z M 11632.4 136958 L 11632.4 141873.2 L 9938 141873.2 L 9938 137252 L 3449.6 138357.2 L 3056 136637.6 L 4702.4 136391.6 L 4702.4 122163.2 L 3326 122163.2 L 3326 120492.8 L 13056.8 120492.8 L 13056.8 122163.2 L 11631.2 122163.2 L 11631.2 135311.6 L 13180.4 135065.6 L 13304 136662.8 L 11632.4 136959.2 L 11632.4 136958 Z M 17678 134771.6 Q 16425.2 139072.4 13844 141848 Q 13302.8 141357.2 12344 140816 Q 14801.6 138431.6 15882.8 134376.8 L 17676.8 134770.4 L 17678 134771.6 Z M 22274 134303.6 Q 24707.6 138186.8 25542.8 140914.4 L 23823.2 141626 Q 22988 138800 20654 134916.8 L 22275.2 134302.4 L 22274 134303.6 Z M 35963.6 131379.2 Q 35963.6 132141.2 36111.2 132928.4 Q 28935.2 135065.6 28221.2 135582.8 Q 28025.6 134795.6 27656 133911.2 Q 28319.6 133787.6 29548.4 132288.8 Q 30556.4 131232.8 32153.6 128848.4 Q 28713.2 129315.2 28073.6 129609.2 Q 27876.8 128798 27508.4 127889.6 Q 27950 127790 28934 126365.6 Q 31071.2 123170 32399.6 119384 L 34070 120195.2 Q 32202.8 124422.8 29942 127568 L 33234.8 127199.6 Q 33873.2 126191.6 34784 124545.2 L 36281.6 125453.6 Q 33996.8 129386 31194.8 132728 L 35962.4 131375.6 L 35963.6 131379.2 Z M 36430.4 137154.8 Q 33603.2 138284 28197.2 140324 L 27755.6 138530 Q 29892.8 137842.4 36110 135581.6 L 36430.4 137154.8 Z M 41001.2 122728.4 Q 40901.6 125138 40656.8 127668.8 Q 42006.8 132090.8 44416.4 135359.6 Q 46307.6 132705.2 47192 129288.8 L 42990.8 129288.8 Q 43949.6 126610.4 44908.4 122727.2 L 41001.2 122727.2 L 41001.2 122728.4 Z M 49283.6 128061.2 Q 48226.4 133173.2 45548 136736 Q 47637.2 139096.4 50266.4 140349.2 Q 49530.8 141012.8 49013.6 141848 Q 46556 140546 44418.8 138137.6 Q 42353.6 140422.4 39454.4 141921.2 Q 38987.6 141086 38176.4 140520.8 Q 41076.8 139192.4 43312.4 136760 Q 41494.4 134277.2 40240.4 131205.2 Q 39233.6 138160.4 36333.2 141920 Q 35842.4 141429.2 34761.2 140790.8 Q 38693.6 136145.6 39208.4 122726 L 36480.8 122726 L 36480.8 121006.4 L 47171.6 121006.4 Q 46311.2 124324.4 45304.4 127666.4 L 47835.2 127666.4 L 48153.2 127593.2 L 49284.8 128058.8 L 49283.6 128061.2 Z M 56066 127545.2 Q 55500.8 127028 55500.8 126216.8 Q 55500.8 125381.6 56066 124866.8 Q 56583.2 124349.6 57345.2 124349.6 Q 58107.2 124349.6 58648.4 124866.8 Q 59213.6 125408 59213.6 126218 Q 59213.6 127029.2 58648.4 127546.4 Q 58107.2 128037.2 57345.2 128037.2 Q 56583.2 128037.2 56066 127546.4 L 56066 127545.2 Z M 56066 139563.2 Q 55500.8 139046 55500.8 138234.8 Q 55500.8 137424.8 56066 136883.6 Q 56583.2 136390.4 57345.2 136390.4 Q 58107.2 136390.4 58648.4 136883.6 Q 59213.6 137424.8 59213.6 138234.8 Q 59213.6 139046 58648.4 139563.2 Q 58107.2 140078 57345.2 140078 Q 56583.2 140078 56066 139563.2  Z M 78233.6 121966.4 L 83369.6 121966.4 Q 90128 121966.4 90128 127251.2 Q 90128 130026.8 88284.8 131476.4 Q 86565.2 132828.8 83493.2 132828.8 L 80518.4 132828.8 L 80518.4 139980.8 L 78233.6 139980.8 L 78233.6 121966.4 Z M 83198 130985.6 Q 87867.2 130985.6 87867.2 127251.2 Q 87867.2 125358.8 86662.4 124547.6 Q 85557.2 123809.6 83099.6 123809.6 L 80518.4 123809.6 L 80518.4 130985.6 L 83198 130985.6 Z M 91977.2 137916.8 L 93082.4 136442 Q 95073.2 138432.8 97506.8 138432.8 Q 99129.2 138432.8 100210.4 137303.6 Q 101339.6 136098.8 101339.6 134182.4 Q 101339.6 132266 100331.6 131160.8 Q 99324.8 130079.6 97605.2 130079.6 Q 96203.6 130079.6 94606.4 131135.6 L 93401.6 130400 L 93966.8 121970 L 102741.2 121970 L 102741.2 123886.4 L 95933.6 123886.4 L 95492 129098 Q 96768.8 128384 98170.4 128384 Q 100554.8 128384 102004.4 129760.4 Q 103601.6 131285.6 103601.6 134111.6 Q 103601.6 136962.8 101807.6 138682.4 Q 100112 140304.8 97703.6 140304.8 Q 94361.6 140304.8 91977.2 137920.4 L 91977.2 137916.8 Z " fill-rule="nonzero" style="fill:#ffffff;;fill-opacity:1;"/>
</svg>