<svg version="1.1" x="0" y="0" width="100%" height="100%" viewBox="0 0 561868.8 40550.4" xmlns="http://www.w3.org/2000/svg">
  <path d="M 2908.4 28086.8 L 4529.6 26931.2 Q 5685.2 28947.2 7652 28947.2 Q 10552.4 28947.2 10552.4 25112 L 10552.4 12603.2 L 12813.2 12603.2 L 12813.2 25334 Q 12813.2 27839.6 11657.6 29290.4 Q 10379.6 30936.8 7872.8 30936.8 Q 4530.8 30936.8 2909.6 28085.6 L 2908.4 28086.8 Z M 17788.4 29954 Q 16683.2 28922 16683.2 27152 Q 16683.2 24990.8 18650 23810 Q 20590.4 22654.4 24891.2 22163.6 Q 24891.2 18797.6 22139.6 18797.6 Q 20247.2 18797.6 18134 20223.2 L 17249.6 18674 Q 19977.2 16928 22508 16928 Q 27129.2 16928 27129.2 22409.6 L 27129.2 30617.6 L 25286 30617.6 L 25089.2 29020.4 L 25016 29020.4 Q 22706 30936.8 20592.8 30936.8 Q 18873.2 30936.8 17792 29952.8 L 17788.4 29954 Z M 24891.2 27372.8 L 24891.2 23638.4 Q 18870.8 24350 18870.8 27004.4 Q 18870.8 29141.6 21228.8 29141.6 Q 22900.4 29141.6 24891.2 27371.6 L 24891.2 27372.8 Z M 29402 17273.6 L 31736 17273.6 L 34242.8 24867.2 L 35495.6 28798.4 L 35592.8 28798.4 L 36821.6 24867.2 L 39352.4 17273.6 L 41565.2 17273.6 L 36821.6 30617.6 L 34216.4 30617.6 L 29400.8 17273.6 L 29402 17273.6 Z M 44361.2 29954 Q 43256 28922 43256 27152 Q 43256 24990.8 45222.8 23810 Q 47163.2 22654.4 51464 22163.6 Q 51464 18797.6 48712.4 18797.6 Q 46820 18797.6 44706.8 20223.2 L 43822.4 18674 Q 46550 16928 49080.8 16928 Q 53702 16928 53702 22409.6 L 53702 30617.6 L 51858.8 30617.6 L 51662 29020.4 L 51588.8 29020.4 Q 49278.8 30936.8 47165.6 30936.8 Q 45446 30936.8 44364.8 29952.8 L 44361.2 29954 Z M 51464 27372.8 L 51464 23638.4 Q 45443.6 24350 45443.6 27004.4 Q 45443.6 29141.6 47801.6 29141.6 Q 49473.2 29141.6 51464 27371.6 L 51464 27372.8 Z M 56416.4 29094.8 L 57521.6 27620 Q 59464.4 29193.2 61479.2 29193.2 Q 62757.2 29193.2 63468.8 28578.8 Q 64108.4 28013.6 64108.4 27105.2 Q 64108.4 25752.8 61060.4 24572 Q 59217.2 23884.4 58382 23222 Q 57080 22214 57080 20715.2 Q 57080 19068.8 58284.8 18036.8 Q 59561.6 16929.2 61674.8 16929.2 Q 63887.6 16929.2 65828 18428 L 64746.8 19878.8 Q 63149.6 18698 61674.8 18698 Q 60495.2 18698 59831.6 19264.4 Q 59242.4 19779.2 59242.4 20614.4 Q 59242.4 21450.8 60150.8 22040 Q 60617.6 22336.4 62190.8 22925.6 Q 64205.6 23687.6 64967.6 24278 Q 66272 25310 66272 26981.6 Q 66272 28677.2 65018 29757.2 Q 63692 30938 61406 30938 Q 58654.4 30938 56417.6 29094.8 L 56416.4 29094.8 Z M 70144 29094.8 Q 68324.8 27202.4 68324.8 23957.6 Q 68324.8 20738 70267.6 18771.2 Q 72085.6 16928 74765.2 16928 Q 76878.4 16928 78672.4 18502.4 L 77516.8 20000 Q 76190.8 18796.4 74838.4 18796.4 Q 73019.2 18796.4 71839.6 20222 Q 70660 21671.6 70660 23956.4 Q 70660 26266.4 71813.2 27668 Q 72944.8 29068.4 74788 29068.4 Q 76483.6 29068.4 77933.2 27742.4 L 78892 29241.2 Q 77048.8 30936.8 74591.2 30936.8 Q 71863.6 30936.8 70144 29093.6 L 70144 29094.8 Z M 81774.4 17273.6 L 83617.6 17273.6 L 83814.4 19706 L 83887.6 19706 Q 85410.4 16928 87672.4 16928 Q 88531.6 16928 89096.8 17224.4 L 88679.2 19191.2 Q 88114 18969.2 87376 18969.2 Q 85188.4 18969.2 84008.8 22041.2 L 84008.8 30618.8 L 81772 30618.8 L 81772 17274.8 L 81774.4 17273.6 Z M 91297.6 17273.6 L 93534.4 17273.6 L 93534.4 30617.6 L 91297.6 30617.6 L 91297.6 17273.6 Z M 91321.6 14102 Q 90880 13684.4 90880 13070 Q 90880 11620.4 92429.2 11620.4 Q 93976 11620.4 93976 13070 Q 93976 13684.4 93534.4 14102 Q 93091.6 14519.6 92429.2 14519.6 Q 91765.6 14519.6 91322.8 14102 L 91321.6 14102 Z M 98056 17273.6 L 99899.2 17273.6 L 100096 18796.4 L 100169.2 18796.4 Q 102455.2 16928 104419.6 16928 Q 106950.4 16928 108376 18796.4 Q 109728.4 20590.4 109728.4 23735.6 Q 109728.4 27028.4 107984.8 29044.4 Q 106337.2 30936.8 103928.8 30936.8 Q 102134.8 30936.8 100242.4 29387.6 L 100291.6 31721.6 L 100291.6 36243.2 L 98054.8 36243.2 L 98054.8 17272.4 L 98056 17273.6 Z M 106313.2 27669.2 Q 107394.4 26194.4 107394.4 23762 Q 107394.4 18821.6 103879.6 18821.6 Q 102282.4 18821.6 100291.6 20664.8 L 100291.6 27669.2 Q 101938 29069.6 103560.4 29069.6 Q 105256 29069.6 106312 27669.2 L 106313.2 27669.2 Z M 113656 26489.6 L 113656 19091.6 L 111665.2 19091.6 L 111665.2 17396 L 113753.2 17274.8 L 114023.2 13539.2 L 115891.6 13539.2 L 115891.6 17274.8 L 119504.8 17274.8 L 119504.8 19092.8 L 115891.6 19092.8 L 115891.6 26538.8 Q 115891.6 29120 117955.6 29120 Q 118594 29120 119478.4 28775.6 L 119921.2 30446 Q 118396 30939.2 117463.6 30939.2 Q 113653.6 30939.2 113653.6 26490.8 L 113656 26489.6 Z M 139829.2 14889.2 Q 138944.8 13635.2 136733.2 11277.2 L 138133.6 10392.8 Q 140370.4 12677.6 141305.2 13882.4 L 139830.4 14890.4 L 139829.2 14889.2 Z M 130735.6 21746 Q 132161.2 24694.4 134668 26807.6 Q 137149.6 24646.4 138427.6 21746 L 130734.4 21746 L 130735.6 21746 Z M 140886.4 20493.2 Q 139436.8 24941.6 136118.8 27914 Q 139362.4 30126.8 143836 30962 Q 143197.6 31576.4 142704.4 32584.4 Q 138011.2 31552.4 134717.2 29069.6 Q 131497.6 31379.6 127148.8 32559.2 Q 126803.2 31749.2 126188.8 30986 Q 130195.6 30053.6 133267.6 27890 Q 131080 25850 129606.4 23098.4 Q 126976 27767.6 122429.2 30594.8 Q 121914.4 29807.6 121079.2 29193.2 Q 127320.4 25383.2 129875.2 17372 L 126458.8 17372 Q 124198 17372 123853.6 17789.6 Q 123461.2 16560.8 123239.2 16070 Q 123706 15946.4 124123.6 15086 Q 125131.6 13391.6 125770 10737.2 L 127686.4 11105.6 Q 127147.6 13145.6 125918.8 15603.2 L 130340.8 15603.2 Q 131054.8 12948.8 131372.8 9976.4 L 133412.8 10270.4 Q 132995.2 13218.8 132430 15603.2 L 143022.4 15603.2 L 142998.4 17373.2 L 131939.2 17373.2 Q 131545.6 18626 131078.8 19978.4 L 139312 19978.4 L 139656.4 19881.2 L 140885.2 20495.6 L 140886.4 20493.2 Z M 150150.4 12824 L 150150.4 15330.8 L 164774.8 15330.8 L 164774.8 12824 L 150150.4 12824 Z M 150150.4 16928 L 150150.4 18378.8 Q 150150.4 27939.2 147275.2 32534 Q 146513.2 31870.4 145678 31600.4 Q 148332.4 27423.2 148332.4 18380 L 148332.4 11228 L 166591.6 11228 L 166591.6 16929.2 L 150150.4 16929.2 L 150150.4 16928 Z M 156343.6 23538.8 L 161234.8 23538.8 L 161234.8 20960 L 156343.6 20960 L 156343.6 23538.8 Z M 166764.4 26219.6 Q 165018.4 27545.6 162857.2 28701.2 Q 165092.8 30347.6 168337.6 31011.2 Q 167674 31600.4 167207.2 32535.2 Q 160596.4 30864.8 158065.6 25138.4 L 154675.6 25138.4 L 154675.6 30150.8 L 159959.2 28971.2 Q 159811.6 29906 159884.8 30495.2 Q 153029.2 32166.8 152488 32535.2 Q 152364.4 31823.6 151774 30987.2 Q 152954.8 30324.8 152954.8 29120 L 152954.8 25139.6 L 150300.4 25139.6 L 150300.4 23541.2 L 154625.2 23541.2 L 154625.2 20962.4 L 150962.8 20962.4 L 150962.8 19388 L 154625.2 19388 L 154625.2 17176.4 L 156344.8 17176.4 L 156344.8 19388 L 161236 19388 L 161236 17176.4 L 162955.6 17176.4 L 162955.6 19388 L 167084.8 19388 L 167084.8 20962.4 L 162955.6 20962.4 L 162955.6 23541.2 L 168067.6 23541.2 L 168067.6 25139.6 L 159760 25139.6 Q 160595.2 26662.4 161726.8 27743.6 Q 164160.4 26294 165389.2 25286 L 166765.6 26220.8 L 166764.4 26219.6 Z M 189595.6 22727.6 L 189595.6 16215.2 L 182543.2 16215.2 L 182543.2 22727.6 L 189595.6 22727.6 Z M 180649.6 22727.6 L 180649.6 16215.2 L 173621.2 16215.2 L 173621.2 22727.6 L 180649.6 22727.6 Z M 191464 14422.4 L 191464 25923.2 L 189595.6 25923.2 L 189595.6 24522.8 L 182543.2 24522.8 L 182543.2 32484.8 L 180650.8 32484.8 L 180650.8 24522.8 L 173622.4 24522.8 L 173622.4 26045.6 L 171828.4 26045.6 L 171828.4 14421.2 L 180650.8 14421.2 L 180650.8 10047.2 L 182543.2 10047.2 L 182543.2 14421.2 L 191465.2 14421.2 L 191464 14422.4 Z M 202988.8 15626 L 197828.8 15626 L 197828.8 20763.2 L 202988.8 20763.2 L 202988.8 15626 Z M 202988.8 28283.6 L 202988.8 22384.4 L 197828.8 22384.4 L 197828.8 28283.6 L 202988.8 28283.6 Z M 201859.6 10366.4 Q 200778.4 13463.6 200581.6 13978.4 L 204661.6 13978.4 L 204661.6 29928.8 L 197830 29928.8 L 197830 31869.2 L 196158.4 31869.2 L 196158.4 13978.4 L 198912.4 13978.4 Q 199650.4 11594 199895.2 9996.8 L 201862 10365.2 L 201859.6 10366.4 Z M 216678.4 14840 Q 216161.2 29585.6 214981.6 31035.2 Q 214294 31895.6 213041.2 32019.2 Q 212033.2 32140.4 209402.8 31992.8 Q 209305.6 30984.8 208788.4 30198.8 Q 210386.8 30346.4 212426.8 30346.4 Q 213138.4 30346.4 213432.4 29978 Q 214489.6 28846.4 214931.2 15599.6 L 208690 15599.6 Q 207558.4 18327.2 206378.8 19900.4 Q 206058.4 19606.4 204878.8 18868.4 Q 207287.2 15696.8 208639.6 9946.4 L 210385.6 10364 Q 209918.8 12280.4 209328.4 13902.8 L 216677.2 13902.8 L 216677.2 14837.6 L 216678.4 14840 Z M 211246 25923.2 Q 210116.8 23638.4 207511.6 20246 L 208937.2 19410.8 Q 211639.6 22851.2 212795.2 24964.4 L 211246 25923.2 Z M 220882 15578 L 222676 15578 L 222676 32511.2 L 220882 32511.2 L 220882 15578 Z M 222478 10391.6 Q 225205.6 13119.2 226140.4 14348 L 224788 15354.8 Q 223730.8 13930.4 221152 11250.8 L 222478 10391.6 Z M 228131.2 19140.8 L 228131.2 24794 L 233267.2 24794 L 233267.2 19140.8 L 228131.2 19140.8 Z M 228131.2 26464.4 L 228131.2 28062.8 L 226459.6 28062.8 L 226459.6 17469.2 L 235037.2 17469.2 L 235037.2 26464.4 L 228131.2 26464.4 Z M 240737.2 29954 Q 240737.2 31600.4 239705.2 31970 Q 238772.8 32363.6 235627.6 32314.4 Q 235504 31430 235013.2 30521.6 Q 237200.8 30594.8 238356.4 30521.6 Q 238945.6 30521.6 238945.6 29931.2 L 238945.6 13145.6 L 227272 13145.6 L 227272 11450 L 240739.6 11450 L 240739.6 29955.2 L 240737.2 29954 Z M 259048 15036.8 Q 259318 14373.2 259783.6 12677.6 L 255361.6 12677.6 L 255361.6 11178.8 L 266494 11178.8 L 266494 12677.6 L 261652 12677.6 L 260717.2 15038 L 265312 15038 L 265312 25236.8 L 263690.8 25236.8 L 263690.8 16414.4 L 257891.2 16414.4 L 257891.2 25310 L 256342 25310 L 256342 15038 L 259045.6 15038 L 259048 15036.8 Z M 265339.6 29757.2 Q 263814.4 28037.6 260988.4 26022.8 L 262069.6 25064 Q 264895.6 27054.8 266444.8 28628 L 265339.6 29757.2 Z M 261702.4 17618 Q 261529.6 23319.2 260497.6 25629.2 Q 259145.2 28577.6 255238 29879.6 Q 254893.6 29093.6 254352.4 28700 Q 257939.2 27544.4 259120 24914 Q 260004.4 22899.2 260125.6 17615.6 L 261700 17615.6 L 261702.4 17618 Z M 252461.2 12431.6 L 247472.8 12431.6 L 247472.8 14274.8 L 252461.2 14274.8 L 252461.2 12431.6 Z M 252461.2 15551.6 L 247472.8 15551.6 L 247472.8 17394.8 L 252461.2 17394.8 L 252461.2 15551.6 Z M 254180.8 18747.2 L 245825.2 18747.2 L 245825.2 11080.4 L 254180.8 11080.4 L 254180.8 18747.2 Z M 250912 29486 Q 253124.8 30396.8 258211.6 30444.8 Q 265266.4 30444.8 266692 30396.8 Q 266174.8 31158.8 266003.2 31970 L 258187.6 31970 Q 253862.8 31970 251552.8 31256 Q 248701.6 30420.8 247178.8 28136 Q 246612.4 30765.2 245310.4 32460.8 Q 244819.6 32019.2 244008.4 31526 Q 245975.2 29241.2 246221.2 23170.4 L 247768 23294 Q 247694.8 24743.6 247498 26242.4 Q 248188 27642.8 249341.2 28577.6 L 249341.2 21992 L 244378 21992 L 244378 20566.4 L 255412 20566.4 L 255412 21992 L 250914.4 21992 L 250914.4 24597.2 L 254970.4 24597.2 L 254970.4 25997.6 L 250914.4 25997.6 L 250914.4 29487.2 L 250912 29486 Z M 275587.6 17273.6 L 279864.4 17273.6 L 279864.4 18968 L 275587.6 18968 L 275587.6 19607.6 Q 277430.8 21548 279691.6 24350 L 278586.4 25848.8 Q 277872.4 24669.2 275587.6 21694.4 L 275587.6 32435.6 L 273793.6 32435.6 L 273793.6 21621.2 Q 271801.6 26364.8 269393.2 28946 Q 269075.2 28182.8 268385.2 27274.4 Q 271433.2 24226.4 273325.6 18966.8 L 268999.6 18966.8 L 268999.6 17272.4 L 273793.6 17272.4 L 273793.6 13192.4 Q 271901.2 13486.4 269737.6 13780.4 Q 269566 12970.4 269221.6 12330.8 Q 275486.8 11471.6 278461.6 10290.8 L 279690.4 11716.4 Q 277994.8 12330.8 275586.4 12848 L 275586.4 17272.4 L 275587.6 17273.6 Z M 287972.8 27618.8 L 287972.8 14078 L 282492.4 14078 L 282492.4 27618.8 L 287972.8 27618.8 Z M 289792 12333.2 L 289792 31232 L 287972.8 31232 L 287972.8 29388.8 L 282492.4 29388.8 L 282492.4 31404.8 L 280698.4 31404.8 L 280698.4 12333.2 L 289790.8 12333.2 L 289792 12333.2 Z M 302276.8 25260.8 L 302276.8 22016 L 300064 22016 L 300064 25260.8 L 302276.8 25260.8 Z M 298738 25260.8 L 298738 22016 L 296574.4 22016 L 296574.4 22778 Q 296574.4 23957.6 296501.2 25262 L 298738 25262 L 298738 25260.8 Z M 297509.2 13684.4 Q 296723.2 15454.4 296280.4 16240.4 L 299573.2 16240.4 Q 300212.8 15036.8 300678.4 13684.4 L 297509.2 13684.4 Z M 300064 20639.6 L 302276.8 20639.6 L 302276.8 17691.2 L 300064 17691.2 L 300064 20639.6 Z M 296574.4 20639.6 L 298738 20639.6 L 298738 17691.2 L 296574.4 17691.2 L 296574.4 20639.6 Z M 303826 30420.8 Q 303826 31600.4 303136 31970 Q 302597.2 32288 300654.4 32288 Q 300482.8 31305.2 300162.4 30714.8 Q 301022.8 30740 301931.2 30740 Q 302275.6 30740 302275.6 30395.6 L 302275.6 26709.2 L 300062.8 26709.2 L 300062.8 31206.8 L 298736.8 31206.8 L 298736.8 26709.2 L 296352.4 26709.2 Q 295910.8 30443.6 294509.2 32583.2 Q 294042.4 32066 293183.2 31721.6 Q 295001.2 28870.4 295001.2 22751.6 L 295001.2 18230 L 294460 18892.4 Q 294067.6 18450.8 293132.8 17836.4 Q 295714 15009.2 296966.8 10046 L 298613.2 10390.4 Q 298441.6 11004.8 298048 12233.6 L 301440.4 12233.6 L 301710.4 12160.4 L 302815.6 12872 Q 302101.6 14715.2 301266.4 16238 L 303823.6 16238 L 303823.6 30418.4 L 303826 30420.8 Z M 309773.2 12849.2 Q 308936.8 17739.2 305275.6 19509.2 Q 304906 18771.2 304267.6 18232.4 Q 307412.8 16830.8 308126.8 12850.4 L 304784.8 12850.4 L 304784.8 11301.2 L 315080.8 11301.2 Q 315080.8 11768 315056.8 12012.8 Q 314786.8 17445.2 314123.2 18207.2 Q 313681.6 18748.4 312797.2 18821.6 Q 312109.6 18894.8 310266.4 18797.6 Q 310166.8 17862.8 309822.4 17273.6 Q 310781.2 17370.8 312035.2 17370.8 Q 312550 17394.8 312746.8 17150 Q 313140.4 16659.2 313361.2 12849.2 L 309774.4 12849.2 L 309773.2 12849.2 Z M 315744.4 27791.6 L 311468.8 27791.6 L 311468.8 32484.8 L 309746.8 32484.8 L 309746.8 27791.6 L 304807.6 27791.6 L 304807.6 26193.2 L 309746.8 26193.2 L 309746.8 23194.4 L 307068.4 23194.4 Q 306380.8 24767.6 305790.4 25578.8 Q 305201.2 25185.2 304390 24816.8 Q 305939.2 22802 306601.6 19336.4 L 308174.8 19630.4 Q 308051.2 20220.8 307633.6 21621.2 L 309746.8 21621.2 L 309746.8 19287.2 L 311468.8 19287.2 L 311468.8 21621.2 L 315130 21621.2 L 315130 23194.4 L 311468.8 23194.4 L 311468.8 26193.2 L 315744.4 26193.2 L 315744.4 27791.6 Z M 321913.6 16904 Q 320832.4 14790.8 318152.8 11915.6 L 319603.6 11031.2 Q 322331.2 13857.2 323486.8 15873.2 L 321913.6 16905.2 L 321913.6 16904 Z M 323436.4 23342 Q 321716.8 27324.8 319406.8 31404.8 L 317857.6 30297.2 Q 320021.2 26783.6 322085.2 22212.8 L 323437.6 23342 L 323436.4 23342 Z M 332431.6 18232.4 Q 332431.6 20026.4 332282.8 21304.4 L 336166 21304.4 L 336166 15675.2 L 332431.6 15675.2 L 332431.6 18232.4 Z M 333414.4 23072 Q 335306.8 29094.8 340516 30888.8 Q 339925.6 31430 339311.2 32462 Q 333905.2 30274.4 331865.2 23762 Q 330391.6 29512.4 324295.6 32559.2 Q 323657.2 31626.8 322993.6 31109.6 Q 328916.8 28431.2 330145.6 23073.2 L 324395.2 23073.2 L 324395.2 21305.6 L 330439.6 21305.6 Q 330563.2 19977.2 330563.2 18233.6 L 330563.2 15676.4 L 325648 15676.4 L 325648 13932.8 L 330563.2 13932.8 L 330563.2 10097.6 L 332431.6 10097.6 L 332431.6 13932.8 L 337936 13932.8 L 337936 21305.6 L 340369.6 21305.6 L 340369.6 23073.2 L 333414.4 23073.2 L 333414.4 23072 Z M 351822.4 16092.8 Q 351698.8 18353.6 351478 19976 L 361922.8 19976 Q 361897.6 20590.4 361849.6 20860.4 Q 361235.2 30076.4 359930.8 31378.4 Q 359219.2 32140.4 357817.6 32240 Q 356244.4 32337.2 353713.6 32140.4 Q 353616.4 31157.6 353075.2 30370.4 Q 355115.2 30543.2 357179.2 30543.2 Q 358014.4 30543.2 358334.8 30273.2 Q 359392 29364.8 359957.2 21746 L 351208 21746 Q 349806.4 29487.2 343956.4 32584.4 Q 343417.6 31700 342630.4 31109.6 Q 346807.6 29021.6 348479.2 24524 Q 349535.2 21599.6 349805.2 16094 L 343170.4 16094 L 343170.4 14300 L 353909.2 14300 Q 353344 12580.4 352238.8 10613.6 L 353982.4 9926 Q 355284.4 12186.8 355751.2 13563.2 L 354055.6 14301.2 L 364304.8 14301.2 L 364304.8 16095.2 L 351820 16095.2 L 351822.4 16092.8 Z M 369737.2 15430.4 L 368017.6 15430.4 L 368017.6 11915.6 L 377478.4 11915.6 L 376595.2 10466 L 378118 9924.8 Q 378856 10932.8 379397.2 11915.6 L 388637.2 11915.6 L 388637.2 15430.4 L 386867.2 15430.4 L 386867.2 13463.6 L 369737.2 13463.6 L 369737.2 15430.4 Z M 375290.8 17494.4 Q 373841.2 18944 373547.2 19214 Q 376398.4 19631.6 378830.8 20172.8 Q 381043.6 19091.6 382247.2 17494.4 L 375292 17494.4 L 375290.8 17494.4 Z M 386916.4 23859.2 Q 383941.6 22754 379126 21696.8 Q 375414.4 23246 368214.4 23763.2 Q 368017.6 22926.8 367526.8 22288.4 Q 372956.8 22018.4 376298.8 21083.6 Q 373620.4 20568.8 370696 20126 Q 371900.8 19070 373350.4 17496.8 L 367600 17496.8 L 367600 15998 L 374652.4 15998 Q 375587.2 14866.4 376325.2 13761.2 L 377946.4 14278.4 Q 377504.8 14940.8 376620.4 15998 L 389005.6 15998 L 389005.6 17496.8 L 384263.2 17496.8 Q 383182 19340 381142 20642 Q 385712.8 21674 388440.4 22608.8 L 386917.6 23861.6 L 386916.4 23859.2 Z M 380650 26489.6 Q 384188.8 29486 389791.6 30690.8 Q 389226.4 31208 388612 32190.8 Q 382712.8 30617.6 379099.6 27004.4 L 379099.6 32484.8 L 377305.6 32484.8 L 377305.6 27104 Q 373692.4 30690.8 368039.2 32165.6 Q 367351.6 31084.4 366884.8 30714.8 Q 372414.4 29486 375880 26489.6 L 367351.6 26489.6 L 367351.6 24940.4 L 377305.6 24940.4 L 377305.6 22924.4 L 379099.6 22924.4 L 379099.6 24940.4 L 389250.4 24940.4 L 389250.4 26489.6 L 380648.8 26489.6 L 380650 26489.6 Z " fill-rule="nonzero" style="fill:#ffffff;;fill-opacity:1;"/>
</svg>