<svg version="1.1" x="0" y="0" width="100%" height="100%" viewBox="0 0 632780.8 350668.8" xmlns="http://www.w3.org/2000/svg">
  <path d="M 4121.45 27599.4 L 7959 27599.4 L 7959 14715.95 L 4898.85 14715.95 L 4898.85 13349.75 Q 7041.3 12949.55 8477.65 12125 L 10125.6 12125 L 10125.6 27599.4 L 13588.25 27599.4 L 13588.25 29388.8 L 4121.45 29388.8 L 4121.45 27599.4 Z M 16218.4 29247.35 Q 15748.05 28777 15748.05 28069.75 Q 15748.05 27362.5 16218.4 26866.85 Q 16665.75 26396.5 17301.7 26396.5 Q 17937.65 26396.5 18408 26866.85 Q 18855.35 27362.5 18855.35 28069.75 Q 18855.35 28777 18408 29247.35 Q 17960.65 29694.7 17301.7 29694.7 Q 16642.75 29694.7 16218.4 29247.35  Z M 38895.65 10688.65 Q 37529.45 12573.5 36139.1 13962.7 L 34726.9 13421.05 Q 36186.25 11701.8 37082.1 10124 L 38895.65 10688.65 Z M 26388.25 14127.15 Q 25587.85 12502.2 23891.6 10900.25 L 25353.25 10195.3 Q 27165.65 11843.25 27920.05 13350.9 L 26388.25 14128.3 L 26388.25 14127.15 Z M 30415.55 16528.35 Q 27235.8 20108.3 22006.75 21615.95 Q 21560.55 20792.55 20876.3 20203.75 Q 25986.9 19002 29001.05 15869.4 L 21323.65 15869.4 L 21323.65 14245.6 L 30414.4 14245.6 L 30414.4 9699.65 L 32133.65 9699.65 L 32133.65 14245.6 L 41436 14245.6 L 41436 15869.4 L 33216.95 15869.4 Q 38893.35 18578.8 41341.7 20133.6 L 40494.15 21545.8 Q 37738.75 19756.4 32132.5 16953.85 L 32132.5 20463.65 L 30413.25 20463.65 L 30413.25 16529.5 L 30415.55 16528.35 Z M 33053.65 25148.75 Q 35621.6 28823 42144.4 29554.4 Q 41485.45 30213.35 41038.1 31202.35 Q 33902.35 30070.75 31288.4 25290.2 Q 29357.55 29836.15 21633 31202.35 Q 21348.95 30283.5 20714.15 29599.25 Q 27544 28540.1 29380.55 25148.75 L 21207.5 25148.75 L 21207.5 23500.8 L 30016.5 23500.8 Q 30275.25 22558.95 30486.85 20980 L 32300.4 20980 Q 32111.8 22464.65 31853.05 23500.8 L 41532.6 23500.8 L 41532.6 25148.75 L 33053.65 25148.75 Z M 63047.45 20321.05 Q 63047.45 21664.25 62153.9 22017.3 Q 61376.5 22301.35 58644.1 22301.35 Q 58525.65 21569.95 58055.3 20699.4 Q 60340.35 20769.55 60929.15 20699.4 Q 61376.5 20699.4 61376.5 20276.2 L 61376.5 9842.25 L 63047.45 9842.25 L 63047.45 20322.2 L 63047.45 20321.05 Z M 58642.95 18860.55 L 57018 18860.55 L 57018 11017.55 L 58642.95 11017.55 L 58642.95 18860.55 Z M 48351.6 15423.2 L 51248.45 15423.2 L 51248.45 12195.15 L 48351.6 12195.15 L 48351.6 15423.2 Z M 48233.15 16976.85 Q 47714.5 20698.25 44700.35 22606.1 Q 44181.7 21875.85 43545.75 21382.5 Q 46089.55 19827.7 46608.2 16976.85 L 43759.65 16976.85 L 43759.65 15423.2 L 46726.65 15423.2 L 46726.65 12195.15 L 44535.9 12195.15 L 44535.9 10640.35 L 55088.3 10640.35 L 55088.3 12195.15 L 52897.55 12195.15 L 52897.55 15423.2 L 55559.8 15423.2 L 55559.8 16976.85 L 52897.55 16976.85 L 52897.55 22017.3 L 51249.6 22017.3 L 51249.6 16976.85 L 48235.45 16976.85 L 48233.15 16976.85 Z M 64437.8 28752.85 L 64437.8 30400.8 L 43287 30400.8 L 43287 28752.85 L 53108 28752.85 L 53108 25785.85 L 45712.35 25785.85 L 45712.35 24183.9 L 53108 24183.9 L 53108 21546.95 L 54874.4 21546.95 L 54874.4 24183.9 L 61987.15 24183.9 L 61987.15 25785.85 L 54874.4 25785.85 L 54874.4 28752.85 L 64437.8 28752.85 Z M 79452.85 14057 Q 78864.05 12266.45 77520.85 10147 L 79098.65 9581.2 Q 80630.45 11866.25 81123.8 13398.05 L 79452.85 14057 Z M 71326.95 13844.25 Q 69702 12573.5 66922.45 11230.3 L 67888.45 9959.55 Q 70714 11230.3 72338.95 12407.9 L 71326.95 13844.25 Z M 70006.75 20249.75 Q 68594.55 19119.3 65673.55 17682.95 L 66616.55 16386.9 Q 69324.8 17611.65 70998.05 18766.25 L 70007.9 20248.6 L 70006.75 20249.75 Z M 72103.2 23359.35 Q 70125.2 27292.35 67840.15 30943.6 L 66380.8 29741.85 Q 68405.95 26916.3 70831.3 22205.9 L 72102.05 23360.5 L 72103.2 23359.35 Z M 87154.4 28800 L 87154.4 30473.25 L 71773.15 30473.25 L 71773.15 28800 L 78651.3 28800 L 78651.3 22746.4 L 73422.25 22746.4 L 73422.25 21075.45 L 78651.3 21075.45 L 78651.3 15823.4 L 72479.25 15823.4 L 72479.25 14150.15 L 86610.45 14150.15 L 86610.45 15823.4 L 80463.7 15823.4 L 80463.7 21075.45 L 85762.9 21075.45 L 85762.9 22746.4 L 80463.7 22746.4 L 80463.7 28800 L 87153.25 28800 L 87154.4 28800 Z M 100661.8 12479.2 Q 101769.25 14361.75 103511.5 15823.4 Q 105655.1 14268.6 106855.7 12479.2 L 100662.95 12479.2 L 100661.8 12479.2 Z M 93854.95 19826.55 Q 96044.55 21874.7 97387.75 23476.65 L 96280.3 24654.25 Q 95455.75 23499.65 93854.95 21686.1 L 93854.95 31225.35 L 92276 31225.35 L 92276 22063.3 Q 90605.05 25831.85 88861.65 27762.7 Q 88579.9 26962.3 87991.1 26043.45 Q 90393.45 23688.25 91971.25 19636.8 L 88414.3 19636.8 L 88414.3 18129.15 L 92277.15 18129.15 L 92277.15 12171 Q 90229 12405.6 88628.2 12501.05 Q 88581.05 12123.85 88228 11182 Q 93950.4 10663.35 96494.2 9908.95 L 97436.05 11252.15 Q 96212.45 11629.35 93857.25 11959.4 L 93857.25 18129.15 L 96917.4 18129.15 L 96917.4 19048 Q 99696.95 18247.6 102240.75 16645.65 Q 100308.75 14809.1 99131.15 12478.05 L 98095 12478.05 L 98095 10899.1 L 107893 10899.1 L 108174.75 10828.95 L 109259.2 11417.75 Q 107822.85 14361.75 104785.7 16764.1 Q 107140.9 18341.9 110037.75 19026.15 Q 109519.1 19567.8 109071.75 20486.65 Q 105939.15 19590.8 103490.8 17682.95 Q 100853.85 19449.35 97791.4 20462.5 Q 97555.65 19826.55 96919.7 19142.3 L 96919.7 19637.95 L 93859.55 19637.95 L 93859.55 19826.55 L 93854.95 19826.55 Z M 89850.65 13302.6 Q 90982.25 14998.85 91571.05 16623.8 L 90275 17142.45 Q 89733.35 15446.2 88671.9 13772.95 L 89849.5 13302.6 L 89850.65 13302.6 Z M 94419.6 16600.8 Q 95408.6 15046 96163 13068 L 97505.05 13538.35 Q 96374.6 15869.4 95644.35 17024 L 94419.6 16600.8 Z M 104310.75 25833 L 109445.5 25833 L 109445.5 27410.8 L 104310.75 27410.8 L 104310.75 31225.35 L 102568.5 31225.35 L 102568.5 27410.8 L 97410.75 27410.8 L 97410.75 25833 L 102568.5 25833 L 102568.5 23430.65 L 98328.45 23430.65 L 98328.45 21852.85 L 102568.5 21852.85 L 102568.5 19779.4 L 104310.75 19779.4 L 104310.75 21852.85 L 108456.5 21852.85 L 108456.5 23430.65 L 104310.75 23430.65 L 104310.75 25833 Z M 117254.65 16600.8 L 121353.25 16600.8 L 121353.25 18224.6 L 117254.65 18224.6 L 117254.65 18837.55 Q 119021.05 20697.1 121187.65 23382.35 L 120128.5 24818.7 Q 119444.25 23688.25 117254.65 20837.4 L 117254.65 31131.05 L 115535.4 31131.05 L 115535.4 20767.25 Q 113626.4 25313.2 111318.35 27786.85 Q 111013.6 27055.45 110352.35 26184.9 Q 113273.35 23263.9 115086.9 18223.45 L 110941.15 18223.45 L 110941.15 16599.65 L 115535.4 16599.65 L 115535.4 12689.65 Q 113721.85 12971.4 111648.4 13253.15 Q 111483.95 12476.9 111153.9 11863.95 Q 117158.05 11040.55 120008.9 9908.95 L 121186.5 11275.15 Q 119561.55 11863.95 117253.5 12359.6 L 117253.5 16599.65 L 117254.65 16600.8 Z M 129123.8 26514.95 L 129123.8 13538.35 L 123871.75 13538.35 L 123871.75 26514.95 L 129123.8 26514.95 Z M 130867.2 11866.25 L 130867.2 29977.6 L 129123.8 29977.6 L 129123.8 28211.2 L 123871.75 28211.2 L 123871.75 30143.2 L 122152.5 30143.2 L 122152.5 11866.25 L 130866.05 11866.25 L 130867.2 11866.25 Z M 140088.55 21923 Q 140088.55 22793.55 140204.7 23335.2 Q 134552.45 24655.4 133845.2 25055.6 Q 133680.75 24255.2 133350.7 23523.8 Q 133892.35 23407.65 134974.5 21971.3 Q 135681.75 21123.75 137095.1 18814.55 Q 134128.1 19238.9 133726.75 19450.5 Q 133492.15 18602.95 133162.1 17872.7 Q 133609.45 17779.55 134409.85 16389.2 Q 136246.4 13352.05 137305.55 9677.8 L 138978.8 10289.6 Q 137447 14364.05 135398.85 17543.8 L 137989.8 17262.05 Q 138908.65 15637.1 139354.85 14577.95 L 140768.2 15401.35 Q 138743.05 19429.8 136199.25 22726.85 L 140086.25 21926.45 L 140088.55 21923 Z M 140371.45 26915.15 L 133658.9 29670.55 L 133235.7 28045.6 Q 134577.75 27622.4 140065.55 25502.95 L 140372.6 26915.15 L 140371.45 26915.15 Z M 143574.2 13702.8 L 143574.2 16223.6 L 152170.45 16223.6 L 152170.45 13702.8 L 143574.2 13702.8 Z M 143574.2 17705.95 Q 143527.05 26350.5 140983.25 30802.15 Q 140441.6 30213.35 139641.2 29812 Q 141972.25 25690.4 141972.25 17305.75 L 141972.25 12219.3 L 147437.05 12219.3 Q 147012.7 11041.7 146423.9 10028.55 L 148074.15 9535.2 Q 148897.55 10924.4 149297.75 12220.45 L 153796.55 12220.45 L 153796.55 17707.1 L 143575.35 17707.1 L 143574.2 17705.95 Z M 152640.8 24585.25 L 152640.8 21145.6 L 150898.55 21145.6 L 150898.55 24585.25 L 152640.8 24585.25 Z M 149720.95 24585.25 L 149720.95 21145.6 L 148024.7 21145.6 L 148024.7 24585.25 L 149720.95 24585.25 Z M 146848.25 24585.25 L 146848.25 21145.6 L 144916.25 21145.6 L 144916.25 24585.25 L 146848.25 24585.25 Z M 154007 19686.25 L 154007 29507.25 Q 154007 30473.25 153488.35 30755 Q 153088.15 30989.6 151721.95 30989.6 Q 151605.8 30354.8 151298.75 29718.85 L 152406.2 29718.85 Q 152640.8 29718.85 152640.8 29483.1 L 152640.8 25997.45 L 150898.55 25997.45 L 150898.55 30400.8 L 149720.95 30400.8 L 149720.95 25997.45 L 148024.7 25997.45 L 148024.7 30426.1 L 146847.1 30426.1 L 146847.1 25997.45 L 144915.1 25997.45 L 144915.1 30989.6 L 143525.9 30989.6 L 143525.9 19709.25 L 152639.65 19709.25 L 152639.65 19686.25 L 154005.85 19686.25 L 154007 19686.25 Z M 159907.15 15164.45 Q 159059.6 13468.2 157174.75 11088.85 L 158494.95 10241.3 Q 160425.8 12503.35 161321.65 14151.3 L 159908.3 15164.45 L 159907.15 15164.45 Z M 170882.75 25714.55 L 176840.9 25714.55 L 176840.9 27315.35 L 170882.75 27315.35 L 170882.75 31155.2 L 169116.35 31155.2 L 169116.35 27315.35 L 163321.5 27315.35 L 163321.5 27010.6 Q 159483.95 30047.75 159036.6 30659.55 L 159013.6 30589.4 Q 158566.25 29789 158047.6 29341.65 Q 159201.05 28494.1 159201.05 27057.75 L 159201.05 18698.4 L 155904 18698.4 L 155904 17025.15 L 160896.15 17002.15 L 160896.15 26916.3 L 162709.7 25527.1 Q 162968.45 26234.35 163321.5 26799 L 163321.5 25716.85 L 169116.35 25716.85 L 169116.35 23361.65 L 164453.1 23361.65 L 164453.1 21783.85 L 169116.35 21783.85 L 169116.35 19710.4 L 170882.75 19710.4 L 170882.75 21783.85 L 175451.7 21783.85 L 175451.7 23361.65 L 170882.75 23361.65 L 170882.75 25716.85 L 170882.75 25714.55 Z M 166879.6 12525.2 Q 168150.35 14433.05 170152.5 15894.7 Q 172460.55 14316.9 173756.6 12526.35 L 166879.6 12526.35 L 166879.6 12525.2 Z M 176346.4 11536.2 Q 174792.75 14550.35 171636 16858.4 Q 174298.25 18367.2 177524 19072.15 Q 176912.2 19590.8 176418.85 20556.8 Q 172932.05 19709.25 170153.65 17849.7 Q 167232.65 19639.1 163465.25 20651.1 Q 163088.05 19757.55 162522.25 19144.6 Q 166032.05 18274.05 168692 16766.4 Q 166455.25 14858.55 165136.2 12526.35 L 163651.55 12526.35 L 163651.55 10948.55 L 174885.9 10948.55 L 175192.95 10878.4 L 176346.4 11537.35 L 176346.4 11536.2 Z M 180905.65 13232.45 L 180905.65 18367.2 L 184908.8 18367.2 L 184908.8 13232.45 L 180905.65 13232.45 Z M 184908.8 25267.2 L 184908.8 19945 L 180905.65 19945 L 180905.65 25267.2 L 184908.8 25267.2 Z M 186556.75 26868 L 180904.5 26868 L 180904.5 28729.85 L 179256.55 28729.85 L 179256.55 11654.65 L 186556.75 11654.65 L 186556.75 26868 Z M 199817.4 16105.15 L 196966.55 16105.15 L 196966.55 28588.4 Q 196966.55 30259.35 195788.95 30636.55 Q 194870.1 30989.6 191125.7 30943.6 Q 190914.1 29907.45 190489.75 29200.2 Q 193410.75 29270.35 194565.35 29223.2 Q 195224.3 29200.2 195224.3 28588.4 L 195224.3 16105.15 L 187615.9 16105.15 L 187615.9 14385.9 L 195224.3 14385.9 L 195224.3 9816.95 L 196966.55 9816.95 L 196966.55 14385.9 L 199817.4 14385.9 L 199817.4 16105.15 Z M 191997.4 24489.8 Q 190796.8 22204.75 188418.6 18742.1 L 189854.95 17988.85 Q 192656.35 21992 193529.2 23592.8 L 191997.4 24488.65 L 191997.4 24489.8 Z M 219119.65 10688.65 Q 217753.45 12573.5 216363.1 13962.7 L 214950.9 13421.05 Q 216410.25 11701.8 217306.1 10124 L 219119.65 10688.65 Z M 206612.25 14127.15 Q 205811.85 12502.2 204115.6 10900.25 L 205577.25 10195.3 Q 207389.65 11843.25 208144.05 13350.9 L 206612.25 14128.3 L 206612.25 14127.15 Z M 210639.55 16528.35 Q 207459.8 20108.3 202230.75 21615.95 Q 201784.55 20792.55 201100.3 20203.75 Q 206210.9 19002 209225.05 15869.4 L 201547.65 15869.4 L 201547.65 14245.6 L 210638.4 14245.6 L 210638.4 9699.65 L 212357.65 9699.65 L 212357.65 14245.6 L 221660 14245.6 L 221660 15869.4 L 213440.95 15869.4 Q 219117.35 18578.8 221565.7 20133.6 L 220718.15 21545.8 Q 217962.75 19756.4 212356.5 16953.85 L 212356.5 20463.65 L 210637.25 20463.65 L 210637.25 16529.5 L 210639.55 16528.35 Z M 213277.65 25148.75 Q 215845.6 28823 222368.4 29554.4 Q 221709.45 30213.35 221262.1 31202.35 Q 214126.35 30070.75 211512.4 25290.2 Q 209581.55 29836.15 201857 31202.35 Q 201572.95 30283.5 200938.15 29599.25 Q 207768 28540.1 209604.55 25148.75 L 201431.5 25148.75 L 201431.5 23500.8 L 210240.5 23500.8 Q 210499.25 22558.95 210710.85 20980 L 212524.4 20980 Q 212335.8 22464.65 212077.05 23500.8 L 221756.6 23500.8 L 221756.6 25148.75 L 213277.65 25148.75 Z M 243271.45 20321.05 Q 243271.45 21664.25 242377.9 22017.3 Q 241600.5 22301.35 238868.1 22301.35 Q 238749.65 21569.95 238279.3 20699.4 Q 240564.35 20769.55 241153.15 20699.4 Q 241600.5 20699.4 241600.5 20276.2 L 241600.5 9842.25 L 243271.45 9842.25 L 243271.45 20322.2 L 243271.45 20321.05 Z M 238866.95 18860.55 L 237242 18860.55 L 237242 11017.55 L 238866.95 11017.55 L 238866.95 18860.55 Z M 228575.6 15423.2 L 231472.45 15423.2 L 231472.45 12195.15 L 228575.6 12195.15 L 228575.6 15423.2 Z M 228457.15 16976.85 Q 227938.5 20698.25 224924.35 22606.1 Q 224405.7 21875.85 223769.75 21382.5 Q 226313.55 19827.7 226832.2 16976.85 L 223983.65 16976.85 L 223983.65 15423.2 L 226950.65 15423.2 L 226950.65 12195.15 L 224759.9 12195.15 L 224759.9 10640.35 L 235312.3 10640.35 L 235312.3 12195.15 L 233121.55 12195.15 L 233121.55 15423.2 L 235783.8 15423.2 L 235783.8 16976.85 L 233121.55 16976.85 L 233121.55 22017.3 L 231473.6 22017.3 L 231473.6 16976.85 L 228459.45 16976.85 L 228457.15 16976.85 Z M 244661.8 28752.85 L 244661.8 30400.8 L 223511 30400.8 L 223511 28752.85 L 233332 28752.85 L 233332 25785.85 L 225936.35 25785.85 L 225936.35 24183.9 L 233332 24183.9 L 233332 21546.95 L 235098.4 21546.95 L 235098.4 24183.9 L 242211.15 24183.9 L 242211.15 25785.85 L 235098.4 25785.85 L 235098.4 28752.85 L 244661.8 28752.85 Z M 261017.75 10076.85 L 260547.4 10947.4 Q 263302.8 14738.95 267494.55 17235.6 Q 266975.9 17848.55 266599.85 18813.4 Q 262666.85 16176.45 259722.85 12336.6 Q 257083.6 16388.05 253246.05 19027.3 Q 252561.8 17965.85 252208.75 17635.8 Q 257130.75 14527.35 259485.95 9509.9 L 261016.6 10075.7 L 261017.75 10076.85 Z M 263798.45 18460.35 L 255885.3 18460.35 L 255885.3 16952.7 L 263798.45 16952.7 L 263798.45 18460.35 Z M 259676.85 25997.45 Q 259488.25 23523.8 258733.85 20368.2 L 260124.2 20179.6 Q 260947.6 23666.4 261113.2 25737.55 L 259676.85 25996.3 L 259676.85 25997.45 Z M 255578.25 20675.25 Q 256803 23737.7 257156.05 26280.35 L 255719.7 26681.7 Q 255343.65 23972.3 254189.05 21028.3 L 255578.25 20675.25 Z M 252304.2 22230.05 Q 251904 21216.9 250726.4 19027.3 L 250726.4 31179.35 L 249101.45 31179.35 L 249101.45 19922 Q 247994 23832 246581.8 26094.05 Q 246204.6 25103.9 245685.95 24421.95 Q 247852.55 21242.2 248937 15755.55 L 246086.15 15755.55 L 246086.15 14130.6 L 249100.3 14130.6 L 249100.3 9678.95 L 250725.25 9678.95 L 250725.25 14130.6 L 253173.6 14130.6 L 253173.6 15755.55 L 250725.25 15755.55 L 250725.25 16767.55 Q 252184.6 18841 253362.2 20983.45 L 252303.05 22233.5 L 252304.2 22230.05 Z M 266153.65 20603.95 Q 264151.5 25573.1 262526.55 28517.1 L 266860.9 28517.1 L 266860.9 30070.75 L 252941.3 30070.75 L 252941.3 28517.1 L 261066.05 28517.1 Q 263162.5 24677.25 264598.85 20178.45 L 266153.65 20602.8 L 266153.65 20603.95 Z M 269179.95 28870.15 L 289199.15 28870.15 L 289199.15 30447.95 L 269179.95 30447.95 L 269179.95 28870.15 Z M 283829.8 21075.45 L 274338.85 21075.45 L 274338.85 23030.45 L 283829.8 23030.45 L 283829.8 21075.45 Z M 283829.8 24255.2 L 274338.85 24255.2 L 274338.85 26209.05 L 283829.8 26209.05 L 283829.8 24255.2 Z M 285619.2 19826.55 L 285619.2 27456.8 L 272618.45 27456.8 L 272618.45 19826.55 L 285619.2 19826.55 Z M 281804.65 14221.45 Q 285171.85 17707.1 289977.7 19191.75 Q 289411.9 19662.1 288823.1 20605.1 Q 283405.45 18602.95 279942.8 14316.9 L 279942.8 19120.45 L 278223.55 19120.45 L 278223.55 14339.9 Q 274949.5 18579.95 269438.7 20793.7 Q 268802.75 19874.85 268284.1 19402.2 Q 273135.95 17731.25 276315.7 14221.45 L 268779.75 14221.45 L 268779.75 12666.65 L 278223.55 12666.65 L 278223.55 9699.65 L 279942.8 9699.65 L 279942.8 12666.65 L 289529.2 12666.65 L 289529.2 14221.45 L 281804.65 14221.45 Z M 3084.15 145007.65 Q 10997.3 138083.5 10997.3 133866.45 Q 10997.3 132312.8 10219.9 131416.95 Q 9372.35 130450.95 7817.55 130450.95 Q 5909.7 130450.95 4236.45 132453.1 L 2988.7 131228.35 Q 5343.9 128684.55 8076.3 128684.55 Q 10384.35 128684.55 11750.55 130073.75 Q 13093.75 131464.1 13093.75 133795.15 Q 13093.75 138175.5 6335.2 144582.15 Q 8431.65 144417.7 9161.9 144417.7 L 13942.45 144417.7 L 13942.45 146277.25 L 3085.3 146277.25 L 3085.3 145006.5 L 3084.15 145007.65 Z M 16218.4 146136.95 Q 15748.05 145666.6 15748.05 144959.35 Q 15748.05 144252.1 16218.4 143756.45 Q 16665.75 143286.1 17301.7 143286.1 Q 17937.65 143286.1 18408 143756.45 Q 18855.35 144252.1 18855.35 144959.35 Q 18855.35 145666.6 18408 146136.95 Q 17960.65 146584.3 17301.7 146584.3 Q 16642.75 146584.3 16218.4 146136.95  Z M 29497.85 131770 Q 27519.85 130169.2 24151.5 128896.15 L 25117.5 127625.4 Q 28627.3 128873.15 30486.85 130357.8 L 29497.85 131770 Z M 27354.25 136150.35 Q 25517.7 134549.55 22055.05 133159.2 L 23114.2 131935.6 Q 26624 133231.65 28460.55 134785.3 L 27353.1 136151.5 L 27354.25 136150.35 Z M 33123.8 141120.65 Q 38541.45 143641.45 41674.05 146419.85 L 40519.45 147738.9 Q 37529.45 144960.5 32206.1 142346.55 L 33124.95 141121.8 L 33123.8 141120.65 Z M 41767.2 137304.95 L 41767.2 138929.9 L 32793.75 138929.9 Q 30792.75 145782.75 22006.75 147996.5 Q 21676.7 147266.25 20994.75 146536 Q 29002.2 144628.15 30981.35 138928.75 L 20994.75 138928.75 L 20994.75 137303.8 L 31427.55 137303.8 Q 31970.35 134737 32016.35 126823.85 L 33806.9 126823.85 Q 33759.75 134431.1 33193.95 137304.95 L 41767.2 137304.95 Z M 53792.25 130662.55 Q 53321.9 129037.6 52048.85 126966.45 L 53862.4 126447.8 Q 55205.6 128544.25 55698.95 130051.9 L 53791.1 130663.7 L 53792.25 130662.55 Z M 48798.95 132428.95 Q 50706.8 137093.35 53932.55 140319.1 Q 57018 137209.5 58784.4 132428.95 L 48798.95 132428.95 Z M 60762.4 132428.95 Q 58784.4 137893.75 55251.6 141545 Q 59327.2 144982.35 64767.85 146325.55 Q 64179.05 146890.2 63566.1 147951.65 Q 57843.7 146326.7 53910.7 142793.9 Q 50093.85 146138.1 44112.7 148045.95 Q 43665.35 147127.1 43029.4 146419.85 Q 48824.25 144771.9 52638.8 141546.15 Q 49083 137894.9 46986.55 132430.1 L 43358.3 132430.1 L 43358.3 130710.85 L 64461.95 130710.85 L 64461.95 132430.1 L 60763.55 132430.1 L 60762.4 132428.95 Z M 72621.85 127178.05 Q 71539.7 129980.6 70291.95 132265.65 L 70291.95 148044.8 L 68618.7 148044.8 L 68618.7 134972.75 Q 67748.15 136268.8 66452.1 137728.15 Q 66122.05 136857.6 65463.1 136010.05 Q 68972.9 132335.8 70973.9 126659.4 L 72621.85 127178.05 Z M 86941.65 139967.2 L 80560.3 139967.2 L 80560.3 148091.95 L 78816.9 148091.95 L 78816.9 139967.2 L 72104.35 139967.2 L 72104.35 138246.8 L 78816.9 138246.8 L 78816.9 133089.05 L 75119.65 133089.05 Q 74342.25 135256.8 73423.4 136669 Q 72834.6 136221.65 71915.75 135774.3 Q 73869.6 133066.05 74812.6 127743.85 L 76460.55 128096.9 Q 76130.5 129816.15 75683.15 131370.95 L 78815.75 131370.95 L 78815.75 126872.15 L 80559.15 126872.15 L 80559.15 131370.95 L 85928.5 131370.95 L 85928.5 133090.2 L 80559.15 133090.2 L 80559.15 138247.95 L 86940.5 138247.95 L 86940.5 139968.35 L 86941.65 139967.2 Z M 108197.75 148540.45 Q 103510.35 143782.9 103510.35 137329.1 Q 103510.35 130876.45 108197.75 126118.9 L 109609.95 126849.15 Q 105229.6 131370.95 105229.6 137329.1 Q 105229.6 143287.25 109609.95 147809.05 L 108197.75 148540.45 Z M 115062.75 137187.65 L 115062.75 138812.6 Q 115062.75 139871.75 114969.6 140790.6 L 120575.85 140790.6 L 120575.85 137187.65 L 115063.9 137187.65 L 115062.75 137187.65 Z M 128253.25 137187.65 L 122272.1 137187.65 L 122272.1 140790.6 L 128253.25 140790.6 L 128253.25 137187.65 Z M 129996.65 143500 L 128253.25 143500 L 128253.25 142322.4 L 114758 142322.4 Q 113980.6 146066.8 111766.85 148210.4 Q 111343.65 147574.45 110447.8 147008.65 Q 113344.65 144230.25 113344.65 138812.6 L 113344.65 135703 L 129996.65 135703 L 129996.65 143500 Z M 122293.95 130050.75 L 122293.95 132358.8 L 130467 132358.8 L 130467 133866.45 L 112803 133866.45 L 112803 132358.8 L 120527.55 132358.8 L 120527.55 130050.75 L 111413.8 130050.75 L 111413.8 128520.1 L 120527.55 128520.1 L 120527.55 126517.95 L 122293.95 126517.95 L 122293.95 128520.1 L 131479 128520.1 L 131479 130050.75 L 122293.95 130050.75 Z M 135801.35 129626.4 L 135801.35 134079.2 L 139641.2 134079.2 L 139641.2 129626.4 L 135801.35 129626.4 Z M 139641.2 140343.25 L 139641.2 135680 L 135801.35 135680 L 135801.35 140343.25 L 139641.2 140343.25 Z M 135801.35 141968.2 L 135801.35 144134.8 L 134153.4 144134.8 L 134153.4 128025.6 L 141289.15 128025.6 L 141289.15 141968.2 L 135801.35 141968.2 Z M 152052 138977.05 L 152052 134855.45 L 145833.95 134855.45 L 145833.95 135916.9 Q 145833.95 137706.3 145692.5 138977.05 L 152050.85 138977.05 L 152052 138977.05 Z M 145833.95 129226.2 L 145833.95 133254.65 L 152052 133254.65 L 152052 129226.2 L 145833.95 129226.2 Z M 153772.4 145782.75 Q 153772.4 147290.4 152783.4 147714.75 Q 151887.55 148044.8 148707.8 148044.8 Q 148591.65 147220.25 148096 146326.7 Q 148850.4 146349.7 151487.35 146349.7 Q 152052 146326.7 152052 145783.9 L 152052 140580.15 L 145459.05 140580.15 Q 144586.2 145525.15 141266.15 148211.55 Q 140747.5 147504.3 139970.1 147056.95 Q 144114.7 143665.6 144114.7 135918.05 L 144114.7 127579.4 L 153771.25 127579.4 L 153771.25 145785.05 L 153772.4 145782.75 Z M 166432.25 130662.55 Q 165961.9 129037.6 164688.85 126966.45 L 166502.4 126447.8 Q 167845.6 128544.25 168338.95 130051.9 L 166431.1 130663.7 L 166432.25 130662.55 Z M 161438.95 132428.95 Q 163346.8 137093.35 166572.55 140319.1 Q 169658 137209.5 171424.4 132428.95 L 161438.95 132428.95 Z M 173402.4 132428.95 Q 171424.4 137893.75 167891.6 141545 Q 171967.2 144982.35 177407.85 146325.55 Q 176819.05 146890.2 176206.1 147951.65 Q 170483.7 146326.7 166550.7 142793.9 Q 162733.85 146138.1 156752.7 148045.95 Q 156305.35 147127.1 155669.4 146419.85 Q 161464.25 144771.9 165278.8 141546.15 Q 161723 137894.9 159626.55 132430.1 L 155998.3 132430.1 L 155998.3 130710.85 L 177101.95 130710.85 L 177101.95 132430.1 L 173403.55 132430.1 L 173402.4 132428.95 Z M 185261.85 127178.05 Q 184179.7 129980.6 182931.95 132265.65 L 182931.95 148044.8 L 181258.7 148044.8 L 181258.7 134972.75 Q 180388.15 136268.8 179092.1 137728.15 Q 178762.05 136857.6 178103.1 136010.05 Q 181612.9 132335.8 183613.9 126659.4 L 185261.85 127178.05 Z M 199581.65 139967.2 L 193200.3 139967.2 L 193200.3 148091.95 L 191456.9 148091.95 L 191456.9 139967.2 L 184744.35 139967.2 L 184744.35 138246.8 L 191456.9 138246.8 L 191456.9 133089.05 L 187759.65 133089.05 Q 186982.25 135256.8 186063.4 136669 Q 185474.6 136221.65 184555.75 135774.3 Q 186509.6 133066.05 187452.6 127743.85 L 189100.55 128096.9 Q 188770.5 129816.15 188323.15 131370.95 L 191455.75 131370.95 L 191455.75 126872.15 L 193199.15 126872.15 L 193199.15 131370.95 L 198568.5 131370.95 L 198568.5 133090.2 L 193199.15 133090.2 L 193199.15 138247.95 L 199580.5 138247.95 L 199580.5 139968.35 L 199581.65 139967.2 Z M 202962.15 147549.15 Q 205763.55 146395.7 205929.15 144087.65 Q 205787.7 144110.65 205528.95 144110.65 Q 204774.55 144110.65 204281.2 143686.3 Q 203762.55 143240.1 203762.55 142438.55 Q 203762.55 141638.15 204304.2 141167.8 Q 204799.85 140743.45 205553.1 140743.45 Q 207555.25 140743.45 207555.25 143452.85 Q 207555.25 147362.85 203480.8 148799.2 L 202962.15 147549.15 Z M 241647.65 127578.25 Q 240281.45 129463.1 238891.1 130852.3 L 237478.9 130310.65 Q 238938.25 128591.4 239834.1 127013.6 L 241647.65 127578.25 Z M 229140.25 131016.75 Q 228339.85 129391.8 226643.6 127789.85 L 228105.25 127084.9 Q 229917.65 128732.85 230672.05 130240.5 L 229140.25 131017.9 L 229140.25 131016.75 Z M 233167.55 133417.95 Q 229987.8 136997.9 224758.75 138505.55 Q 224312.55 137682.15 223628.3 137093.35 Q 228738.9 135891.6 231753.05 132759 L 224075.65 132759 L 224075.65 131135.2 L 233166.4 131135.2 L 233166.4 126589.25 L 234885.65 126589.25 L 234885.65 131135.2 L 244188 131135.2 L 244188 132759 L 235968.95 132759 Q 241645.35 135468.4 244093.7 137023.2 L 243246.15 138435.4 Q 240490.75 136646 234884.5 133843.45 L 234884.5 137353.25 L 233165.25 137353.25 L 233165.25 133419.1 L 233167.55 133417.95 Z M 235805.65 142038.35 Q 238373.6 145712.6 244896.4 146444 Q 244237.45 147102.95 243790.1 148091.95 Q 236654.35 146960.35 234040.4 142179.8 Q 232109.55 146725.75 224385 148091.95 Q 224100.95 147173.1 223466.15 146488.85 Q 230296 145429.7 232132.55 142038.35 L 223959.5 142038.35 L 223959.5 140390.4 L 232768.5 140390.4 Q 233027.25 139448.55 233238.85 137869.6 L 235052.4 137869.6 Q 234863.8 139354.25 234605.05 140390.4 L 244284.6 140390.4 L 244284.6 142038.35 L 235805.65 142038.35 Z M 259251.35 136621.85 Q 258521.1 133419.1 256377.5 129274.5 L 257790.85 128732.85 Q 260098.9 132830.3 260829.15 136010.05 L 259251.35 136621.85 Z M 251997.15 127178.05 Q 251266.9 129463.1 250159.45 131771.15 L 250159.45 148068.95 L 248488.5 148068.95 L 248488.5 134903.75 Q 247569.65 136458.55 246273.6 138036.35 Q 245920.55 137094.5 245354.75 136269.95 Q 248580.5 132525.55 250394.05 126707.7 L 251994.85 127178.05 L 251997.15 127178.05 Z M 259346.8 139636 Q 259488.25 140201.8 259841.3 141144.8 Q 254118.9 145123.8 253505.95 145855.2 Q 253082.75 144935.2 252564.1 144300.4 Q 253388.65 143641.45 253388.65 142298.25 L 253388.65 128191.2 L 255107.9 128191.2 L 255107.9 142438.55 L 259347.95 139636 L 259346.8 139636 Z M 265893.75 147337.55 Q 265209.5 144889.2 263372.95 140909.05 Q 261842.3 145383.7 258616.55 147951.65 Q 258073.75 147267.4 257203.2 146631.45 Q 260713 144134.8 262125.2 139047.2 Q 263232.65 135091.2 263468.4 127225.2 L 265234.8 127248.2 Q 264904.75 134761.15 264008.9 138575.7 Q 266717.15 143663.3 267518.7 146514.15 L 265893.75 147337.55 Z M 289575.2 137635 L 280272.85 137635 L 280272.85 145524 Q 280272.85 147244.4 279049.25 147644.6 Q 278106.25 147974.65 274266.4 147974.65 Q 274054.8 147127.1 273513.15 146161.1 Q 276598.6 146231.25 277776.2 146185.25 Q 278460.45 146161.1 278460.45 145525.15 L 278460.45 137636.15 L 268732.6 137636.15 L 268732.6 135916.9 L 278460.45 135916.9 L 278460.45 129981.75 L 270358.7 129981.75 L 270358.7 128262.5 L 287927.25 128262.5 L 287927.25 129981.75 L 280272.85 129981.75 L 280272.85 135916.9 L 289575.2 135916.9 L 289575.2 137636.15 L 289575.2 137635 Z M 293404.2 144230.25 Q 291260.6 141779.6 291260.6 137658 Q 291260.6 133560.55 293450.2 131086.9 Q 295570.8 128684.55 298915 128684.55 Q 301740.55 128684.55 303648.4 130828.15 L 302470.8 132240.35 Q 300940.15 130592.4 298938 130592.4 Q 296464.35 130592.4 294982 132477.25 Q 293497.35 134385.1 293497.35 137587.85 Q 293497.35 140861.9 294956.7 142769.75 Q 296393.05 144678.75 298866.7 144678.75 Q 301080.45 144678.75 302869.85 142746.75 L 304071.6 144112.95 Q 301928 146586.6 298772.4 146586.6 Q 295474.2 146586.6 293403.05 144231.4 L 293404.2 144230.25 Z M 311196.35 127602.4 L 312751.15 127602.4 L 305708.55 150493.15 L 304130.75 150493.15 L 311196.35 127602.4 Z M 315573.8 144230.25 Q 313430.2 141779.6 313430.2 137658 Q 313430.2 133560.55 315619.8 131086.9 Q 317740.4 128684.55 321084.6 128684.55 Q 323910.15 128684.55 325818 130828.15 L 324640.4 132240.35 Q 323109.75 130592.4 321107.6 130592.4 Q 318633.95 130592.4 317151.6 132477.25 Q 315666.95 134385.1 315666.95 137587.85 Q 315666.95 140861.9 317126.3 142769.75 Q 318562.65 144678.75 321036.3 144678.75 Q 323250.05 144678.75 325039.45 142746.75 L 326241.2 144112.95 Q 324097.6 146586.6 320942 146586.6 Q 317643.8 146586.6 315572.65 144231.4 L 315573.8 144230.25 Z M 331718 138388.25 L 326937.45 138388.25 L 326937.45 136787.45 L 331718 136787.45 L 331718 131652.7 L 333437.25 131652.7 L 333437.25 136787.45 L 338217.8 136787.45 L 338217.8 138388.25 L 333437.25 138388.25 L 333437.25 143546 L 331718 143546 L 331718 138388.25 Z M 343698.8 138388.25 L 338918.25 138388.25 L 338918.25 136787.45 L 343698.8 136787.45 L 343698.8 131652.7 L 345418.05 131652.7 L 345418.05 136787.45 L 350198.6 136787.45 L 350198.6 138388.25 L 345418.05 138388.25 L 345418.05 143546 L 343698.8 143546 L 343698.8 138388.25 Z M 369386.45 138717.15 L 369386.45 132476.1 L 362627.9 132476.1 L 362627.9 138717.15 L 369386.45 138717.15 Z M 360813.2 138717.15 L 360813.2 132476.1 L 354077.65 132476.1 L 354077.65 138717.15 L 360813.2 138717.15 Z M 371177 130758 L 371177 141779.6 L 369386.45 141779.6 L 369386.45 140437.55 L 362627.9 140437.55 L 362627.9 148067.8 L 360814.35 148067.8 L 360814.35 140437.55 L 354078.8 140437.55 L 354078.8 141896.9 L 352359.55 141896.9 L 352359.55 130756.85 L 360814.35 130756.85 L 360814.35 126565.1 L 362627.9 126565.1 L 362627.9 130756.85 L 371178.15 130756.85 L 371177 130758 Z M 381197.6 131911.45 L 376252.6 131911.45 L 376252.6 136834.6 L 381197.6 136834.6 L 381197.6 131911.45 Z M 381197.6 144041.65 L 381197.6 138388.25 L 376252.6 138388.25 L 376252.6 144041.65 L 381197.6 144041.65 Z M 380115.45 126871 Q 379079.3 129839.15 378890.7 130332.5 L 382800.7 130332.5 L 382800.7 145618.3 L 376253.75 145618.3 L 376253.75 147477.85 L 374651.8 147477.85 L 374651.8 130332.5 L 377291.05 130332.5 Q 377998.3 128047.45 378232.9 126516.8 L 380117.75 126869.85 L 380115.45 126871 Z M 394316.8 131158.2 Q 393821.15 145289.4 392690.7 146678.6 Q 392031.75 147503.15 390831.15 147621.6 Q 389865.15 147737.75 387344.35 147596.3 Q 387251.2 146630.3 386755.55 145877.05 Q 388287.35 146018.5 390242.35 146018.5 Q 390924.3 146018.5 391206.05 145665.45 Q 392219.2 144581 392642.4 131886.15 L 386661.25 131886.15 Q 385576.8 134500.1 384446.35 136007.75 Q 384139.3 135726 383008.85 135018.75 Q 385316.9 131979.3 386612.95 126468.5 L 388286.2 126868.7 Q 387838.85 128705.25 387273.05 130260.05 L 394315.65 130260.05 L 394315.65 131155.9 L 394316.8 131158.2 Z M 389110.75 141779.6 Q 388028.6 139590 385531.95 136338.95 L 386898.15 135538.55 Q 389487.95 138835.6 390595.4 140860.75 L 389110.75 141779.6 Z M 404998.65 131770 Q 403020.65 130169.2 399652.3 128896.15 L 400618.3 127625.4 Q 404128.1 128873.15 405987.65 130357.8 L 404998.65 131770 Z M 402855.05 136150.35 Q 401018.5 134549.55 397555.85 133159.2 L 398615 131935.6 Q 402124.8 133231.65 403961.35 134785.3 L 402853.9 136151.5 L 402855.05 136150.35 Z M 408624.6 141120.65 Q 414042.25 143641.45 417174.85 146419.85 L 416020.25 147738.9 Q 413030.25 144960.5 407706.9 142346.55 L 408625.75 141121.8 L 408624.6 141120.65 Z M 417268 137304.95 L 417268 138929.9 L 408294.55 138929.9 Q 406293.55 145782.75 397507.55 147996.5 Q 397177.5 147266.25 396495.55 146536 Q 404503 144628.15 406482.15 138928.75 L 396495.55 138928.75 L 396495.55 137303.8 L 406928.35 137303.8 Q 407471.15 134737 407517.15 126823.85 L 409307.7 126823.85 Q 409260.55 134431.1 408694.75 137304.95 L 417268 137304.95 Z M 429293.05 130662.55 Q 428822.7 129037.6 427549.65 126966.45 L 429363.2 126447.8 Q 430706.4 128544.25 431199.75 130051.9 L 429291.9 130663.7 L 429293.05 130662.55 Z M 424299.75 132428.95 Q 426207.6 137093.35 429433.35 140319.1 Q 432518.8 137209.5 434285.2 132428.95 L 424299.75 132428.95 Z M 436263.2 132428.95 Q 434285.2 137893.75 430752.4 141545 Q 434828 144982.35 440268.65 146325.55 Q 439679.85 146890.2 439066.9 147951.65 Q 433344.5 146326.7 429411.5 142793.9 Q 425594.65 146138.1 419613.5 148045.95 Q 419166.15 147127.1 418530.2 146419.85 Q 424325.05 144771.9 428139.6 141546.15 Q 424583.8 137894.9 422487.35 132430.1 L 418859.1 132430.1 L 418859.1 130710.85 L 439962.75 130710.85 L 439962.75 132430.1 L 436264.35 132430.1 L 436263.2 132428.95 Z M 448122.65 127178.05 Q 447040.5 129980.6 445792.75 132265.65 L 445792.75 148044.8 L 444119.5 148044.8 L 444119.5 134972.75 Q 443248.95 136268.8 441952.9 137728.15 Q 441622.85 136857.6 440963.9 136010.05 Q 444473.7 132335.8 446474.7 126659.4 L 448122.65 127178.05 Z M 462442.45 139967.2 L 456061.1 139967.2 L 456061.1 148091.95 L 454317.7 148091.95 L 454317.7 139967.2 L 447605.15 139967.2 L 447605.15 138246.8 L 454317.7 138246.8 L 454317.7 133089.05 L 450620.45 133089.05 Q 449843.05 135256.8 448924.2 136669 Q 448335.4 136221.65 447416.55 135774.3 Q 449370.4 133066.05 450313.4 127743.85 L 451961.35 128096.9 Q 451631.3 129816.15 451183.95 131370.95 L 454316.55 131370.95 L 454316.55 126872.15 L 456059.95 126872.15 L 456059.95 131370.95 L 461429.3 131370.95 L 461429.3 133090.2 L 456059.95 133090.2 L 456059.95 138247.95 L 462441.3 138247.95 L 462441.3 139968.35 L 462442.45 139967.2 Z M 465139.85 126117.75 Q 469827.25 130875.3 469827.25 137327.95 Q 469827.25 143781.75 465139.85 148539.3 L 463727.65 147807.9 Q 468108 143286.1 468108 137327.95 Q 468108 131369.8 463727.65 126848 L 465139.85 126117.75 Z M 492755.45 133490.4 L 496854.05 133490.4 L 496854.05 135114.2 L 492755.45 135114.2 L 492755.45 135727.15 Q 494521.85 137586.7 496688.45 140271.95 L 495629.3 141708.3 Q 494945.05 140577.85 492755.45 137727 L 492755.45 148020.65 L 491036.2 148020.65 L 491036.2 137656.85 Q 489127.2 142202.8 486819.15 144676.45 Q 486514.4 143945.05 485853.15 143074.5 Q 488774.15 140153.5 490587.7 135113.05 L 486441.95 135113.05 L 486441.95 133489.25 L 491036.2 133489.25 L 491036.2 129579.25 Q 489222.65 129861 487149.2 130142.75 Q 486984.75 129366.5 486654.7 128753.55 Q 492658.85 127930.15 495509.7 126798.55 L 496687.3 128164.75 Q 495062.35 128753.55 492754.3 129249.2 L 492754.3 133489.25 L 492755.45 133490.4 Z M 504624.6 143404.55 L 504624.6 130427.95 L 499372.55 130427.95 L 499372.55 143404.55 L 504624.6 143404.55 Z M 506368 128755.85 L 506368 146867.2 L 504624.6 146867.2 L 504624.6 145100.8 L 499372.55 145100.8 L 499372.55 147032.8 L 497653.3 147032.8 L 497653.3 128755.85 L 506366.85 128755.85 L 506368 128755.85 Z M 512386.6 137846.6 L 512386.6 142745.6 L 516272.45 142745.6 L 516272.45 137846.6 L 512386.6 137846.6 Z M 517920.4 144300.4 L 512386.6 144300.4 L 512386.6 146278.4 L 510761.65 146278.4 L 510761.65 136291.8 L 517920.4 136291.8 L 517920.4 144300.4 Z M 528307.2 142887.05 Q 528307.2 144230.25 527459.65 144583.3 Q 526800.7 144890.35 523903.85 144890.35 Q 523808.4 144206.1 523385.2 143264.25 Q 524044.15 143287.25 526163.6 143287.25 Q 526610.95 143264.25 526610.95 142864.05 L 526610.95 137869.6 L 522089.15 137869.6 L 522089.15 148114.95 L 520369.9 148114.95 L 520369.9 136268.8 L 528306.05 136268.8 L 528306.05 142887.05 L 528307.2 142887.05 Z M 524020 132759 Q 521383.05 131088.05 519546.5 129014.6 Q 517615.65 131088.05 514883.25 132759 L 524020 132759 Z M 520959.85 127318.35 L 520559.65 127837 Q 524162.6 131865.45 530380.65 133490.4 Q 529814.85 133983.75 529107.6 135138.35 Q 526659.25 134383.95 524045.3 132759 L 524045.3 134360.95 L 514694.65 134360.95 L 514694.65 132876.3 Q 511986.4 134501.25 509584.05 135255.65 Q 509159.7 134265.5 508595.05 133560.55 Q 511820.8 132687.7 514883.25 130662.55 Q 517945.7 128661.55 519593.65 126306.35 L 520959.85 127318.35 Z M 548386.85 145242.25 L 548386.85 139895.9 L 537929.9 139895.9 L 537929.9 145242.25 L 548386.85 145242.25 Z M 550176.25 148067.8 L 548386.85 148067.8 L 548386.85 146844.2 L 537929.9 146844.2 L 537929.9 148067.8 L 536209.5 148067.8 L 536209.5 140320.25 Q 534326.95 140979.2 532301.8 141449.55 Q 532017.75 140507.7 531405.95 139848.75 Q 536093.35 138859.75 540072.35 136739.15 Q 538330.1 135161.35 536493.55 133842.3 L 537812.6 132829.15 Q 539979.2 134290.8 541698.45 135798.45 Q 545467 133466.25 547469.15 130522.25 L 538753.3 130522.25 Q 536352.1 132830.3 533172.35 134503.55 Q 532606.55 133607.7 531971.75 133184.5 Q 537223.8 130640.7 539837.75 126496.1 L 541792.75 126919.3 Q 540992.35 128119.9 540260.95 128921.45 L 548599.6 128921.45 L 548881.35 128826 L 550058.95 129556.25 Q 547350.7 134809.45 540826.75 138272.1 L 550177.4 138272.1 L 550177.4 148068.95 L 550176.25 148067.8 Z M 556335.15 134691 L 554614.75 134691 L 554614.75 129438.95 L 563919.4 129438.95 Q 563188 127814 562764.8 126966.45 L 564578.35 126447.8 Q 565567.35 128284.35 566014.7 129438.95 L 574469.5 129438.95 L 574469.5 134125.2 L 572703.1 134125.2 L 572703.1 131039.75 L 556335.15 131039.75 L 556335.15 134691 Z M 567122.15 132524.4 Q 571502.5 134643.85 574303.9 136528.7 L 573150.45 137870.75 Q 570699.8 136081.35 566013.55 133656 L 567121 132525.55 L 567122.15 132524.4 Z M 554828.65 136575.85 Q 558573.05 135232.65 561824.1 132454.25 L 563024.7 133490.4 Q 559703.5 136434.4 555865.95 138082.35 L 554829.8 136574.7 L 554828.65 136575.85 Z M 574493.65 145689.6 L 574493.65 147314.55 L 554640.05 147314.55 L 554640.05 145689.6 L 563590.5 145689.6 L 563590.5 139778.6 L 557066.55 139778.6 L 557066.55 138176.65 L 572116.6 138176.65 L 572116.6 139778.6 L 565404.05 139778.6 L 565404.05 145689.6 L 574494.8 145689.6 L 574493.65 145689.6 Z M 577519.95 131865.45 L 579286.35 131865.45 L 579286.35 148093.1 L 577519.95 148093.1 L 577519.95 131865.45 Z M 579216.2 126895.15 Q 581289.65 128731.7 582113.05 130214.05 L 580700.85 131157.05 Q 579805 129625.25 577874.15 127717.4 L 579216.2 126894 L 579216.2 126895.15 Z M 584233.65 142463.85 L 589837.6 142463.85 L 589837.6 139307.1 L 584233.65 139307.1 L 584233.65 142463.85 Z M 584233.65 137846.6 L 589837.6 137846.6 L 589837.6 134714 L 584233.65 134714 L 584233.65 137846.6 Z M 582655.85 133254.65 L 591487.85 133254.65 L 591487.85 143923.2 L 582655.85 143923.2 L 582655.85 133254.65 Z M 596691.6 145948.35 Q 596691.6 147290.4 595868.2 147667.6 Q 595209.25 147997.65 592829.9 147997.65 Q 592665.45 147127.1 592265.25 146349.7 Q 592758.6 146372.7 594502 146372.7 Q 594902.2 146372.7 594902.2 145949.5 L 594902.2 129556.25 L 583596.55 129556.25 L 583596.55 127908.3 L 596691.6 127908.3 L 596691.6 145949.5 L 596691.6 145948.35 Z M 2729.95 339046.25 L 3814.4 337632.9 Q 5699.25 339610.9 8101.6 339610.9 Q 9655.25 339610.9 10621.25 338740.35 Q 11610.25 337869.8 11610.25 336408.15 Q 11610.25 332945.5 6240.9 332945.5 L 6240.9 331297.55 Q 11021.45 331297.55 11021.45 328000.5 Q 11021.45 326752.75 10244.05 325998.35 Q 9443.65 325268.1 8101.6 325220.95 Q 6169.6 325291.1 4521.65 326941.35 L 3367.05 325575.15 Q 5603.8 323501.7 8194.75 323501.7 Q 10431.5 323501.7 11797.7 324632.15 Q 13211.05 325809.75 13211.05 327834.9 Q 13211.05 330849.05 10124.45 332003.65 L 10124.45 332096.8 Q 11726.4 332474 12738.4 333581.45 Q 13799.85 334783.2 13799.85 336477.15 Q 13799.85 338739.2 12174.9 340105.4 Q 10643.1 341401.45 8264.9 341401.45 Q 4897.7 341401.45 2729.95 339046.25  Z M 16218.4 340952.95 Q 15748.05 340482.6 15748.05 339775.35 Q 15748.05 339068.1 16218.4 338572.45 Q 16665.75 338102.1 17301.7 338102.1 Q 17937.65 338102.1 18408 338572.45 Q 18855.35 339068.1 18855.35 339775.35 Q 18855.35 340482.6 18408 340952.95 Q 17960.65 341400.3 17301.7 341400.3 Q 16642.75 341400.3 16218.4 340952.95  Z M 38895.65 322394.25 Q 37529.45 324279.1 36139.1 325668.3 L 34726.9 325126.65 Q 36186.25 323407.4 37082.1 321829.6 L 38895.65 322394.25 Z M 26388.25 325832.75 Q 25587.85 324207.8 23891.6 322605.85 L 25353.25 321900.9 Q 27165.65 323548.85 27920.05 325056.5 L 26388.25 325833.9 L 26388.25 325832.75 Z M 30415.55 328233.95 Q 27235.8 331813.9 22006.75 333321.55 Q 21560.55 332498.15 20876.3 331909.35 Q 25986.9 330707.6 29001.05 327575 L 21323.65 327575 L 21323.65 325951.2 L 30414.4 325951.2 L 30414.4 321405.25 L 32133.65 321405.25 L 32133.65 325951.2 L 41436 325951.2 L 41436 327575 L 33216.95 327575 Q 38893.35 330284.4 41341.7 331839.2 L 40494.15 333251.4 Q 37738.75 331462 32132.5 328659.45 L 32132.5 332169.25 L 30413.25 332169.25 L 30413.25 328235.1 L 30415.55 328233.95 Z M 33053.65 336854.35 Q 35621.6 340528.6 42144.4 341260 Q 41485.45 341918.95 41038.1 342907.95 Q 33902.35 341776.35 31288.4 336995.8 Q 29357.55 341541.75 21633 342907.95 Q 21348.95 341989.1 20714.15 341304.85 Q 27544 340245.7 29380.55 336854.35 L 21207.5 336854.35 L 21207.5 335206.4 L 30016.5 335206.4 Q 30275.25 334264.55 30486.85 332685.6 L 32300.4 332685.6 Q 32111.8 334170.25 31853.05 335206.4 L 41532.6 335206.4 L 41532.6 336854.35 L 33053.65 336854.35 Z M 63141.75 343356.45 Q 58454.35 338598.9 58454.35 332145.1 Q 58454.35 325692.45 63141.75 320934.9 L 64553.95 321665.15 Q 60173.6 326186.95 60173.6 332145.1 Q 60173.6 338103.25 64553.95 342625.05 L 63141.75 343356.45 Z M 66969.6 323830.6 L 76932.05 323830.6 L 76932.05 325667.15 L 69159.2 325667.15 L 69159.2 331084.8 L 75708.45 331084.8 L 75708.45 332944.35 L 69159.2 332944.35 L 69159.2 339233.7 L 77190.8 339233.7 L 77190.8 341093.25 L 66969.6 341093.25 L 66969.6 323829.45 L 66969.6 323830.6 Z M 80924.2 339046.25 Q 78780.6 336595.6 78780.6 332474 Q 78780.6 328376.55 80970.2 325902.9 Q 83090.8 323500.55 86435 323500.55 Q 89260.55 323500.55 91168.4 325644.15 L 89990.8 327056.35 Q 88460.15 325408.4 86458 325408.4 Q 83984.35 325408.4 82502 327293.25 Q 81017.35 329201.1 81017.35 332403.85 Q 81017.35 335677.9 82476.7 337585.75 Q 83913.05 339494.75 86386.7 339494.75 Q 88600.45 339494.75 90389.85 337562.75 L 91591.6 338928.95 Q 89448 341402.6 86292.4 341402.6 Q 82994.2 341402.6 80923.05 339047.4 L 80924.2 339046.25 Z M 93747.2 323830.6 L 96384.15 323830.6 L 99705.35 333062.8 Q 100505.75 335465.15 100930.1 336665.75 L 101048.55 336665.75 Q 101260.15 336053.95 101637.35 334853.35 L 102226.15 333062.8 L 105523.2 323830.6 L 108160.15 323830.6 L 108160.15 341094.4 L 106112 341094.4 L 106112 331532.15 Q 106112 330072.8 106393.75 326444.55 L 106300.6 326444.55 L 104934.4 330377.55 L 101660.35 339351 L 100201 339351 L 96926.95 330377.55 L 95560.75 326444.55 L 95465.3 326444.55 Q 95724.05 330589.15 95724.05 331532.15 L 95724.05 341094.4 L 93746.05 341094.4 L 93746.05 323830.6 L 93747.2 323830.6 Z M 119193.45 334075.95 L 118368.9 331436.7 Q 117661.65 329247.1 116625.5 325595.85 L 116532.35 325595.85 Q 115896.4 327998.2 114814.25 331435.55 L 113966.7 334074.8 L 119195.75 334074.8 L 119193.45 334075.95 Z M 119733.95 335818.2 L 113421.6 335818.2 L 111750.65 341094.4 L 109536.9 341094.4 L 115401.9 323830.6 L 117827.25 323830.6 L 123691.1 341094.4 L 121383.05 341094.4 L 119735.1 335818.2 L 119733.95 335818.2 Z M 123833.85 338832.35 L 125129.9 337350 Q 127201.05 339493.6 129910.45 339493.6 Q 131581.4 339493.6 132570.4 338716.2 Q 133536.4 337961.8 133536.4 336665.75 Q 133536.4 335465.15 132713 334734.9 Q 132194.35 334287.55 130662.55 333605.6 L 128165.9 332521.15 Q 124657.25 331013.5 124657.25 328092.5 Q 124657.25 326091.5 126210.9 324795.45 Q 127742.7 323499.4 130097.9 323499.4 Q 133112.05 323499.4 135183.2 325643 L 134029.75 327032.2 Q 132286.35 325407.25 130096.75 325407.25 Q 128635.1 325407.25 127741.55 326091.5 Q 126868.7 326796.45 126868.7 327951.05 Q 126868.7 329058.5 127787.55 329812.9 Q 128330.35 330236.1 129719.55 330824.9 L 132193.2 331884.05 Q 135749 333438.85 135749 336501.3 Q 135749 338597.75 134171.2 339963.95 Q 132523.25 341400.3 129884 341400.3 Q 126281.05 341400.3 123832.7 338832.35 L 123833.85 338832.35 Z M 138675.2 339635.05 Q 136931.8 337821.5 136931.8 334711.9 Q 136931.8 331626.45 138793.65 329741.6 Q 140535.9 327975.2 143103.85 327975.2 Q 145129 327975.2 146848.25 329484 L 145740.8 330919.2 Q 144470.05 329765.75 143174 329765.75 Q 141430.6 329765.75 140300.15 331131.95 Q 139169.7 332521.15 139169.7 334710.75 Q 139169.7 336924.5 140274.85 338267.7 Q 141359.3 339609.75 143125.7 339609.75 Q 144750.65 339609.75 146139.85 338339 L 147058.7 339775.35 Q 145292.3 341400.3 142937.1 341400.3 Q 140323.15 341400.3 138675.2 339633.9 L 138675.2 339635.05 Z M 148803.4 328306.4 L 150569.8 328306.4 L 150758.4 330637.45 L 150828.55 330637.45 Q 152287.9 327975.2 154455.65 327975.2 Q 155279.05 327975.2 155820.7 328259.25 L 155420.5 330144.1 Q 154878.85 329931.35 154171.6 329931.35 Q 152075.15 329931.35 150944.7 332875.35 L 150944.7 341095.55 L 148801.1 341095.55 L 148801.1 328307.55 L 148803.4 328306.4 Z M 156893 328306.4 L 159036.6 328306.4 L 159036.6 341094.4 L 156893 341094.4 L 156893 328306.4 Z M 156916 325266.95 Q 156492.8 324866.75 156492.8 324277.95 Q 156492.8 322888.75 157977.45 322888.75 Q 159459.8 322888.75 159459.8 324277.95 Q 159459.8 324866.75 159036.6 325266.95 Q 158612.25 325667.15 157977.45 325667.15 Q 157341.5 325667.15 156917.15 325266.95 L 156916 325266.95 Z M 162320.2 328306.4 L 164086.6 328306.4 L 164275.2 329765.75 L 164345.35 329765.75 Q 166536.1 327975.2 168418.65 327975.2 Q 170844 327975.2 172210.2 329765.75 Q 173506.25 331485 173506.25 334499.15 Q 173506.25 337654.75 171835.3 339586.75 Q 170256.35 341400.3 167948.3 341400.3 Q 166229.05 341400.3 164415.5 339915.65 L 164462.65 342152.4 L 164462.65 346485.6 L 162319.05 346485.6 L 162319.05 328305.25 L 162320.2 328306.4 Z M 170233.35 338268.85 Q 171269.5 336855.5 171269.5 334524.45 Q 171269.5 329789.9 167901.15 329789.9 Q 166370.5 329789.9 164462.65 331556.3 L 164462.65 338268.85 Q 166040.45 339610.9 167595.25 339610.9 Q 169220.2 339610.9 170232.2 338268.85 L 170233.35 338268.85 Z M 176265.4 337138.4 L 176265.4 330048.65 L 174357.55 330048.65 L 174357.55 328423.7 L 176358.55 328307.55 L 176617.3 324727.6 L 178407.85 324727.6 L 178407.85 328307.55 L 181870.5 328307.55 L 181870.5 330049.8 L 178407.85 330049.8 L 178407.85 337185.55 Q 178407.85 339659.2 180385.85 339659.2 Q 180997.65 339659.2 181845.2 339329.15 L 182269.55 340929.95 Q 180807.9 341402.6 179914.35 341402.6 Q 176263.1 341402.6 176263.1 337139.55 L 176265.4 337138.4 Z M 186789.75 339823.65 Q 194702.9 332899.5 194702.9 328682.45 Q 194702.9 327128.8 193925.5 326232.95 Q 193077.95 325266.95 191523.15 325266.95 Q 189615.3 325266.95 187942.05 327269.1 L 186694.3 326044.35 Q 189049.5 323500.55 191781.9 323500.55 Q 194089.95 323500.55 195456.15 324889.75 Q 196799.35 326280.1 196799.35 328611.15 Q 196799.35 332991.5 190040.8 339398.15 Q 192137.25 339233.7 192867.5 339233.7 L 197648.05 339233.7 L 197648.05 341093.25 L 186790.9 341093.25 L 186790.9 339822.5 L 186789.75 339823.65 Z M 200348.35 339162.4 Q 198889 336807.2 198889 332403.85 Q 198889 328000.5 200348.35 325692.45 Q 201737.55 323501.7 204281.35 323501.7 Q 206802.15 323501.7 208191.35 325715.45 Q 209650.7 328023.5 209650.7 332403.85 Q 209650.7 336807.2 208191.35 339162.4 Q 206802.15 341401.45 204281.35 341401.45 Q 201761.7 341401.45 200348.35 339162.4  Z M 207555.4 332403.85 Q 207555.4 325245.1 204281.35 325245.1 Q 200984.3 325245.1 200984.3 332403.85 Q 200984.3 339681.05 204281.35 339681.05 Q 207555.4 339681.05 207555.4 332403.85  Z M 211788.65 339305 L 215626.2 339305 L 215626.2 326421.55 L 212566.05 326421.55 L 212566.05 325055.35 Q 214708.5 324655.15 216144.85 323830.6 L 217792.8 323830.6 L 217792.8 339305 L 221255.45 339305 L 221255.45 341094.4 L 211788.65 341094.4 L 211788.65 339305 Z M 222354.95 339116.4 L 223414.1 337703.05 Q 225321.95 339610.9 227654.15 339610.9 Q 229208.95 339610.9 230245.1 338528.75 Q 231327.25 337374.15 231327.25 335537.6 Q 231327.25 333701.05 230361.25 332641.9 Q 229396.4 331605.75 227748.45 331605.75 Q 226405.25 331605.75 224874.6 332617.75 L 223720 331912.8 L 224261.65 323834.05 L 232670.45 323834.05 L 232670.45 325670.6 L 226146.5 325670.6 L 225723.3 330665.05 Q 226946.9 329980.8 228290.1 329980.8 Q 230575.15 329980.8 231964.35 331299.85 Q 233495 332761.5 233495 335469.75 Q 233495 338202.15 231775.75 339850.1 Q 230150.8 341404.9 227842.75 341404.9 Q 224640 341404.9 222354.95 339119.85 L 222354.95 339116.4 Z M 247549.25 325126.65 Q 245901.3 326611.3 243827.85 327718.75 Q 243286.2 326941.35 242650.25 326541.15 Q 246701.7 324562 248703.85 321383.4 L 250470.25 321736.45 Q 249692.85 322914.05 249008.6 323644.3 L 253437.25 323644.3 L 253744.3 323574.15 L 254851.75 324162.95 Q 252189.5 330003.8 243639.25 332288.85 Q 243380.5 331700.05 242721.55 330946.8 Q 245642.55 330262.55 247997.75 328968.8 Q 247031.75 328072.95 245712.7 327248.4 L 247008.75 326400.85 Q 248020.75 326989.65 249409.95 328097.1 Q 251341.95 326801.05 252426.4 325130.1 L 247550.4 325130.1 L 247549.25 325126.65 Z M 241872.85 335253.55 Q 241472.65 334357.7 240060.45 332143.95 L 240060.45 342930.95 L 238410.2 342930.95 L 238410.2 332521.15 Q 237021 336595.6 235443.2 338762.2 Q 235090.15 337891.65 234524.35 337184.4 Q 236643.8 334452 238057.15 329741.6 L 234877.4 329741.6 L 234877.4 328093.65 L 238410.2 328093.65 L 238410.2 324302.1 Q 237186.6 324537.85 235608.8 324796.6 Q 235466.2 324089.35 235090.15 323430.4 Q 239304.9 322723.15 241730.25 321592.7 L 242814.7 323006.05 Q 241589.95 323499.4 240059.3 323899.6 L 240059.3 328091.35 L 242930.85 328091.35 L 242930.85 329739.3 L 240059.3 329739.3 L 240059.3 330282.1 Q 241448.5 331812.75 242907.85 333860.9 L 241871.7 335251.25 L 241872.85 335253.55 Z M 256144.35 332498.15 Q 253459.1 340552.75 243096.45 343001.1 Q 242837.7 342293.85 242201.75 341563.6 Q 246418.8 340740.2 249504.25 338643.75 Q 248279.5 337419 246843.15 336500.15 L 248139.2 335604.3 Q 249623.85 336474.85 250824.45 337606.45 Q 252849.6 335863.05 253908.75 333530.85 L 249316.8 333530.85 Q 247054.75 335769.9 244110.75 337229.25 Q 243710.55 336547.3 242980.3 336004.5 Q 247997.75 333696.45 250094.2 329881.9 L 251907.75 330234.95 Q 251318.95 331176.8 250660 332024.35 L 254709.15 332024.35 L 255040.35 331954.2 L 256145.5 332497 L 256144.35 332498.15 Z M 263600.45 333981.65 Q 263270.4 333158.25 262069.8 330849.05 L 262069.8 342860.8 L 260419.55 342860.8 L 260419.55 331862.2 Q 259195.95 335983.8 257759.6 338103.25 Q 257382.4 337138.4 256840.75 336431.15 Q 259148.8 333298.55 260326.4 327552 L 257429.55 327552 L 257429.55 325904.05 L 260419.55 325904.05 L 260419.55 321382.25 L 262069.8 321382.25 L 262069.8 325904.05 L 264518.15 325904.05 L 264518.15 327552 L 262069.8 327552 L 262069.8 328588.15 Q 263766.05 330990.5 264684.9 332684.45 L 263600.45 333980.5 L 263600.45 333981.65 Z M 267650.75 340694.2 L 274904.95 340694.2 L 274904.95 338669.05 L 267650.75 338669.05 L 267650.75 340694.2 Z M 267650.75 328799.75 L 267650.75 330777.75 L 274904.95 330777.75 L 274904.95 328799.75 L 267650.75 328799.75 Z M 267650.75 335347.85 L 267650.75 337373 L 274904.95 337373 L 274904.95 335347.85 L 267650.75 335347.85 Z M 274904.95 332073.8 L 267650.75 332073.8 L 267650.75 334075.95 L 274904.95 334075.95 L 274904.95 332073.8 Z M 278697.65 340694.2 L 278697.65 342224.85 L 263907.5 342224.85 L 263907.5 340694.2 L 266026.95 340694.2 L 266026.95 327458.85 L 269325.15 327458.85 Q 269489.6 326845.9 269701.2 325503.85 L 265037.95 325503.85 L 265037.95 323996.2 L 269959.95 323996.2 Q 270195.7 322605.85 270314.15 321263.8 L 272103.55 321382.25 Q 271796.5 323290.1 271632.05 323997.35 L 277943.25 323997.35 L 277943.25 325505 L 271302 325505 Q 271090.4 326587.15 270831.65 327460 L 276601.2 327460 L 276601.2 340695.35 L 278697.65 340695.35 L 278697.65 340694.2 Z M 281229.45 320933.75 Q 285916.85 325691.3 285916.85 332143.95 Q 285916.85 338597.75 281229.45 343355.3 L 279817.25 342623.9 Q 284197.6 338102.1 284197.6 332143.95 Q 284197.6 326185.8 279817.25 321664 L 281229.45 320933.75 Z " fill-rule="nonzero" style="fill:#ffffff;;fill-opacity:1;"/>
</svg>