<svg version="1.1" x="0" y="0" width="100%" height="100%" viewBox="0 0 300390.4 34457.6" xmlns="http://www.w3.org/2000/svg">
  <path d="M 25569.6 10701 L 28928.6 10701 L 31508.6 17786 L 32429.6 20715 L 32532.6 20715 L 33003.6 19240 Q 33270.6 18297 33454.6 17785 L 35974.6 10700 L 39333.6 10700 L 39333.6 25855 L 36568.6 25855 L 36568.6 19527 Q 36568.6 18236 36937.6 14549 L 36854.6 14549 L 35626.6 18113 L 33290.6 24482 L 31550.6 24482 L 29194.6 18113 L 27986.6 14549 L 27905.6 14549 Q 28294.6 18441 28294.6 19526 L 28294.6 25854 L 25570.6 25854 L 25570.6 10699 L 25569.6 10701 Z M 42781.8 14387 L 45772.8 14387 L 45772.8 25856 L 42781.8 25856 L 42781.8 14387 Z M 43007.8 12073 Q 42495.8 11622 42495.8 10905 Q 42495.8 10168 43007.8 9717 Q 43499.8 9266 44298.8 9266 Q 45077.8 9266 45568.8 9717 Q 46080.8 10168 46080.8 10905 Q 46080.8 11601 45568.8 12073 Q 45077.8 12544 44298.8 12544 Q 43519.8 12544 43007.8 12073  Z M 49859 24565 Q 48262 22906 48262 20142 Q 48262 17377 50023 15677 Q 51682 14100 54119 14100 Q 55962 14100 57457 15371 L 56024 17316 Q 55144 16559 54263 16559 Q 52952 16559 52153 17542 Q 51334 18525 51334 20144 Q 51334 21741 52133 22724 Q 52932 23687 54181 23687 Q 55308 23687 56413 22766 L 57601 24753 Q 56024 26145 53853 26145 Q 51416 26145 49860 24568 L 49859 24565 Z M 59729 14387 L 62188 14387 L 62392 16415 L 62475 16415 Q 63764 14100 65731 14100 Q 66488 14100 67083 14347 L 66550 16947 Q 65977 16763 65362 16763 Q 63601 16763 62721 19016 L 62721 25856 L 59730 25856 L 59730 14387 L 59729 14387 Z M 69652 24565 Q 67973 22865 67973 20142 Q 67973 17377 69652 15677 Q 71209 14100 73482 14100 Q 75755 14100 77311 15677 Q 78991 17377 78991 20142 Q 78991 22865 77311 24565 Q 75734 26142 73482 26142 Q 71229 26142 69652 24565  Z M 75284 22723 Q 75920 21780 75920 20143 Q 75920 18483 75284 17542 Q 74629 16559 73482 16559 Q 72335 16559 71679 17542 Q 71044 18483 71044 20143 Q 71044 21780 71679 22723 Q 72335 23686 73482 23686 Q 74629 23686 75284 22723  Z M 80404 24525 L 81776 22640 Q 83375 23889 84848 23889 Q 86508 23889 86508 22681 Q 86508 22108 85771 21679 Q 85402 21474 84113 20962 Q 80978 19774 80978 17623 Q 80978 16067 82146 15084 Q 83313 14100 85238 14100 Q 87246 14100 89150 15513 L 87798 17336 Q 86385 16353 85321 16353 Q 83805 16353 83805 17458 Q 83805 18011 84522 18400 Q 84787 18543 86139 19055 Q 87634 19630 88310 20203 Q 89334 21083 89334 22516 Q 89334 24093 88167 25076 Q 86938 26141 84767 26141 Q 82330 26141 80405 24524 L 80404 24525 Z M 92589.6 24565 Q 90910.6 22865 90910.6 20142 Q 90910.6 17377 92589.6 15677 Q 94146.6 14100 96419.6 14100 Q 98692.6 14100 100248.6 15677 Q 101928.6 17377 101928.6 20142 Q 101928.6 22865 100248.6 24565 Q 98671.6 26142 96419.6 26142 Q 94166.6 26142 92589.6 24565  Z M 98221.6 22723 Q 98857.6 21780 98857.6 20143 Q 98857.6 18483 98221.6 17542 Q 97566.6 16559 96419.6 16559 Q 95272.6 16559 94616.6 17542 Q 93981.6 18483 93981.6 20143 Q 93981.6 21780 94616.6 22723 Q 95272.6 23686 96419.6 23686 Q 97566.6 23686 98221.6 22723  Z M 110550.6 11848 Q 109874.6 11601 109342.6 11601 Q 107949.6 11601 107949.6 13404 L 107949.6 14387 L 110100.6 14387 L 110100.6 16763 L 107949.6 16763 L 107949.6 25856 L 104938.6 25856 L 104938.6 16763 L 103402.6 16763 L 103402.6 14531 L 104938.6 14408 L 104938.6 13465 Q 104938.6 9226 108933.6 9226 Q 110080.6 9226 111104.6 9635 L 110551.6 11847 L 110550.6 11848 Z M 112435.2 21841 L 112435.2 16762 L 110818.2 16762 L 110818.2 14530 L 112579.2 14386 L 112927.2 11314 L 115446.2 11314 L 115446.2 14386 L 118273.2 14386 L 118273.2 16762 L 115446.2 16762 L 115446.2 21841 Q 115446.2 23766 117002.2 23766 Q 117514.2 23766 118129.2 23521 L 118621.2 25712 Q 117330.2 26143 116203.2 26143 Q 112435.2 26143 112435.2 21842 L 112435.2 21841 Z M 128471.8 13220 L 124211.8 13220 L 124211.8 10701 L 135803.8 10701 L 135803.8 13220 L 131502.8 13220 L 131502.8 25856 L 128471.8 25856 L 128471.8 13220 Z M 137440.8 30239 L 137993.8 27924 Q 138464.8 28068 138792.8 28068 Q 140369.8 28068 140942.8 26327 L 141147.8 25651 L 136682.8 14387 L 139713.8 14387 L 141536.8 19712 L 142499.8 22948 L 142602.8 22948 Q 142746.8 22416 143011.8 21329 Q 143298.8 20244 143421.8 19712 L 144998.8 14387 L 147886.8 14387 L 143810.8 26204 Q 143011.8 28375 142008.8 29338 Q 140840.8 30465 139017.8 30465 Q 138157.8 30465 137440.8 30240 L 137440.8 30239 Z M 149789.8 14387 L 152248.8 14387 L 152452.8 15575 L 152535.8 15575 Q 154275.8 14100 155914.8 14100 Q 158023.8 14100 159231.8 15697 Q 160419.8 17274 160419.8 19937 Q 160419.8 22764 158924.8 24504 Q 157532.8 26143 155545.8 26143 Q 154070.8 26143 152698.8 24894 L 152779.8 26778 L 152779.8 30259 L 149788.8 30259 L 149788.8 14387 L 149789.8 14387 Z M 156631.8 22764 Q 157327.8 21780 157327.8 19979 Q 157327.8 16579 155054.8 16579 Q 153969.8 16579 152781.8 17767 L 152781.8 22804 Q 153785.8 23664 154870.8 23664 Q 155975.8 23664 156631.8 22764  Z M 163942.4 24545 Q 162283.4 22906 162283.4 20142 Q 162283.4 17458 163922.4 15718 Q 165478.4 14099 167629.4 14099 Q 169922.4 14099 171213.4 15656 Q 172421.4 17131 172421.4 19588 Q 172421.4 20489 172278.4 20960 L 165211.4 20960 Q 165580.4 23827 168385.4 23827 Q 169696.4 23827 170965.4 23028 L 171989.4 24872 Q 170146.4 26141 167975.4 26141 Q 165518.4 26141 163941.4 24544 L 163942.4 24545 Z M 169841.4 18975 Q 169841.4 16435 167670.4 16435 Q 166727.4 16435 166051.4 17071 Q 165334.4 17767 165171.4 18975 L 169840.4 18975 L 169841.4 18975 Z M 173741.6 24525 L 175113.6 22640 Q 176712.6 23889 178185.6 23889 Q 179845.6 23889 179845.6 22681 Q 179845.6 22108 179108.6 21679 Q 178739.6 21474 177450.6 20962 Q 174315.6 19774 174315.6 17623 Q 174315.6 16067 175483.6 15084 Q 176650.6 14100 178575.6 14100 Q 180583.6 14100 182487.6 15513 L 181135.6 17336 Q 179722.6 16353 178658.6 16353 Q 177142.6 16353 177142.6 17458 Q 177142.6 18011 177859.6 18400 Q 178124.6 18543 179476.6 19055 Q 180971.6 19630 181647.6 20203 Q 182671.6 21083 182671.6 22516 Q 182671.6 24093 181504.6 25076 Q 180275.6 26141 178104.6 26141 Q 175667.6 26141 173742.6 24524 L 173741.6 24525 Z M 185846.2 24565 Q 184249.2 22906 184249.2 20142 Q 184249.2 17377 186010.2 15677 Q 187669.2 14100 190106.2 14100 Q 191949.2 14100 193444.2 15371 L 192011.2 17316 Q 191131.2 16559 190250.2 16559 Q 188939.2 16559 188140.2 17542 Q 187321.2 18525 187321.2 20144 Q 187321.2 21741 188120.2 22724 Q 188919.2 23687 190168.2 23687 Q 191295.2 23687 192400.2 22766 L 193588.2 24753 Q 192011.2 26145 189840.2 26145 Q 187403.2 26145 185847.2 24568 L 185846.2 24565 Z M 195716.2 14387 L 198175.2 14387 L 198379.2 16415 L 198462.2 16415 Q 199751.2 14100 201718.2 14100 Q 202475.2 14100 203070.2 14347 L 202537.2 16947 Q 201964.2 16763 201349.2 16763 Q 199588.2 16763 198708.2 19016 L 198708.2 25856 L 195717.2 25856 L 195717.2 14387 L 195716.2 14387 Z M 204676.2 14387 L 207667.2 14387 L 207667.2 25856 L 204676.2 25856 L 204676.2 14387 Z M 204902.2 12073 Q 204390.2 11622 204390.2 10905 Q 204390.2 10168 204902.2 9717 Q 205394.2 9266 206193.2 9266 Q 206972.2 9266 207463.2 9717 Q 207975.2 10168 207975.2 10905 Q 207975.2 11601 207463.2 12073 Q 206972.2 12544 206193.2 12544 Q 205414.2 12544 204902.2 12073  Z M 210871.4 14387 L 213330.4 14387 L 213534.4 15575 L 213617.4 15575 Q 215357.4 14100 216996.4 14100 Q 219105.4 14100 220313.4 15697 Q 221501.4 17274 221501.4 19937 Q 221501.4 22764 220006.4 24504 Q 218614.4 26143 216627.4 26143 Q 215152.4 26143 213780.4 24894 L 213861.4 26778 L 213861.4 30259 L 210870.4 30259 L 210870.4 14387 L 210871.4 14387 Z M 217713.4 22764 Q 218409.4 21780 218409.4 19979 Q 218409.4 16579 216136.4 16579 Q 215051.4 16579 213863.4 17767 L 213863.4 22804 Q 214867.4 23664 215952.4 23664 Q 217057.4 23664 217713.4 22764  Z M 224512 21841 L 224512 16762 L 222895 16762 L 222895 14530 L 224656 14386 L 225004 11314 L 227523 11314 L 227523 14386 L 230350 14386 L 230350 16762 L 227523 16762 L 227523 21841 Q 227523 23766 229079 23766 Q 229591 23766 230206 23521 L 230698 25712 Q 229407 26143 228280 26143 Q 224512 26143 224512 21842 L 224512 21841 Z M 250398.6 21821 Q 249599.6 21042 248923.6 20121 L 243147.6 20121 Q 242595.6 20920 241694.6 21821 L 244643.6 21821 L 244643.6 20552 L 247120.6 20552 L 247120.6 21821 L 250397.6 21821 L 250398.6 21821 Z M 242738.6 18135 L 249149.6 18135 L 249149.6 17214 L 242738.6 17214 L 242738.6 18135 Z M 242738.6 12032 L 242738.6 12933 L 249149.6 12933 L 249149.6 12032 L 242738.6 12032 Z M 242738.6 15513 L 249149.6 15513 L 249149.6 14612 L 242738.6 14612 L 242738.6 15513 Z M 251689.6 20121 Q 253449.6 21718 255682.6 22497 Q 254698.6 23276 254063.6 24381 Q 252446.6 23624 250849.6 22231 L 250849.6 23747 L 247121.6 23747 L 247121.6 25078 L 253798.6 25078 L 253798.6 27086 L 238213.6 27086 L 238213.6 25078 L 244644.6 25078 L 244644.6 23747 L 241019.6 23747 L 241019.6 22478 Q 239402.6 23829 237763.6 24566 Q 237066.6 23441 236206.6 22704 Q 238582.6 21823 240343.6 20123 L 236391.6 20123 L 236391.6 18136 L 240302.6 18136 L 240302.6 12033 L 237477.6 12033 L 237477.6 10066 L 240302.6 10066 L 240302.6 8530 L 242739.6 8530 L 242739.6 10066 L 249150.6 10066 L 249150.6 8530 L 251649.6 8530 L 251649.6 10066 L 254454.6 10066 L 254454.6 12033 L 251649.6 12033 L 251649.6 18136 L 255437.6 18136 L 255437.6 20123 L 251690.6 20123 L 251689.6 20121 Z M 261929.6 17889 L 260330.6 17889 L 260330.6 23029 L 261929.6 23029 L 261929.6 17889 Z M 257096.6 9411 L 264345.6 9411 L 264345.6 11623 L 261540.6 11623 Q 261048.6 14039 260433.6 15760 L 263936.6 15760 L 263936.6 25160 L 260331.6 25160 L 260331.6 26675 L 258324.6 26675 L 258324.6 20306 Q 257895.6 20942 257484.6 21433 Q 257300.6 19897 256645.6 18525 Q 258385.6 16190 259286.6 11623 L 257095.6 11623 L 257095.6 9411 L 257096.6 9411 Z M 275425.6 18565 L 275425.6 27556 L 273049.6 27556 L 273049.6 26491 L 264693.6 26491 L 264693.6 18544 L 267130.6 18544 L 267130.6 24136 L 268850.6 24136 L 268850.6 17603 L 265123.6 17603 L 265123.6 10516 L 267314.6 10516 L 267314.6 15472 L 268850.6 15472 L 268850.6 8592 L 271267.6 8592 L 271267.6 15472 L 272659.6 15472 L 272659.6 10516 L 274952.6 10516 L 274952.6 17603 L 271267.6 17603 L 271267.6 24136 L 273048.6 24136 L 273048.6 18565 L 275424.6 18565 L 275425.6 18565 Z " fill-rule="nonzero" style="fill:#ffffff;;fill-opacity:1;"/>
</svg>