<svg version="1.1" x="0" y="0" width="100%" height="100%" viewBox="0 0 748492.8 272742.4" xmlns="http://www.w3.org/2000/svg">
  <path d="M 8594.95 25408.65 L 8594.95 28564.25 L 19805.15 28564.25 L 19805.15 25408.65 L 8594.95 25408.65 Z M 8594.95 17142.45 L 8594.95 20062.3 L 19004.75 20062.3 L 19004.75 17142.45 L 8594.95 17142.45 Z M 8594.95 23853.85 L 21571.55 23853.85 L 21571.55 31062.05 L 19805.15 31062.05 L 19805.15 30143.2 L 8594.95 30143.2 L 8594.95 31178.2 L 6851.55 31178.2 L 6851.55 15610.65 L 20724 15610.65 L 20724 21594.1 L 8594.95 21594.1 L 8594.95 23853.85 Z M 23740.45 11936.4 L 23740.45 16105.15 L 21926.9 16105.15 L 21926.9 13584.35 L 5629.1 13584.35 L 5629.1 16105.15 L 3908.7 16105.15 L 3908.7 11936.4 L 13401.95 11936.4 Q 13000.6 10712.8 12600.4 9958.4 L 14343.8 9558.2 Q 14955.6 10688.65 15379.95 11936.4 L 23741.6 11936.4 L 23740.45 11936.4 Z M 35340 25644.4 Q 34774.2 24559.95 33549.45 22652.1 Q 32113.1 26020.45 30041.95 28233.05 Q 29640.6 27880 28675.75 27268.2 Q 31053.95 24959 32443.15 21096.15 Q 30842.35 18788.1 29194.4 16785.95 L 30276.55 15821.1 Q 31407 17114.85 33031.95 19305.6 Q 33620.75 17232.15 34091.1 14383.6 L 35693.05 14548.05 Q 35104.25 18128 34185.4 20906.4 Q 35670.05 23050 36493.45 24509.35 L 35340 25640.95 L 35340 25644.4 Z M 42121.55 26351.65 Q 41321.15 24655.4 40190.7 22770.55 Q 38729.05 26233.2 36609.6 28422.8 Q 35879.35 27811 35220.4 27456.8 Q 37645.75 25267.2 39153.4 21122.6 Q 37575.6 18813.4 35950.65 16788.25 L 37081.1 15917.7 Q 38258.7 17283.9 39718.05 19309.05 Q 40283.85 17354.05 40731.2 14433.05 L 42309 14598.65 Q 41767.35 18201.6 40848.5 20957 Q 42496.45 23477.8 43344 25337.35 L 42119.25 26350.5 L 42121.55 26351.65 Z M 46031.55 28870.15 Q 46031.55 30400.8 44972.4 30825.15 Q 44053.55 31178.2 40825.5 31132.2 Q 40709.35 30543.4 40166.55 29388.8 Q 41202.7 29435.95 43699.35 29435.95 Q 44312.3 29411.8 44312.3 28870.15 L 44312.3 12760.95 L 28484.85 12760.95 L 28484.85 31155.2 L 26741.45 31155.2 L 26741.45 11113 L 46030.4 11113 L 46030.4 28870.15 L 46031.55 28870.15 Z M 51767.25 17471.35 Q 51225.6 16975.7 51225.6 16198.3 Q 51225.6 15397.9 51767.25 14904.55 Q 52262.9 14408.9 52993.15 14408.9 Q 53723.4 14408.9 54242.05 14904.55 Q 54783.7 15423.2 54783.7 16199.45 Q 54783.7 16976.85 54242.05 17472.5 Q 53723.4 17942.85 52993.15 17942.85 Q 52262.9 17942.85 51767.25 17472.5 L 51767.25 17471.35 Z M 51767.25 28988.6 Q 51225.6 28492.95 51225.6 27715.55 Q 51225.6 26939.3 51767.25 26420.65 Q 52262.9 25948 52993.15 25948 Q 53723.4 25948 54242.05 26420.65 Q 54783.7 26939.3 54783.7 27715.55 Q 54783.7 28492.95 54242.05 28988.6 Q 53723.4 29481.95 52993.15 29481.95 Q 52262.9 29481.95 51767.25 28988.6  Z M 71798.6 10640.35 L 73942.2 10640.35 L 73942.2 15775.1 L 73872.05 18412.05 Q 76015.65 16268.45 78112.1 16268.45 Q 82020.95 16268.45 82020.95 21285.9 L 82020.95 29387.65 L 79878.5 29387.65 L 79878.5 21567.65 Q 79878.5 18153.3 77453.15 18153.3 Q 75898.35 18153.3 73943.35 20108.3 L 73943.35 29387.65 L 71799.75 29387.65 L 71799.75 10639.2 L 71798.6 10640.35 Z M 85436.6 25432.8 L 85436.6 18343.05 L 83528.75 18343.05 L 83528.75 16718.1 L 85529.75 16601.95 L 85788.5 13022 L 87579.05 13022 L 87579.05 16601.95 L 91041.7 16601.95 L 91041.7 18344.2 L 87579.05 18344.2 L 87579.05 25479.95 Q 87579.05 27953.6 89557.05 27953.6 Q 90168.85 27953.6 91016.4 27623.55 L 91440.75 29224.35 Q 89979.1 29697 89085.55 29697 Q 85434.3 29697 85434.3 25433.95 L 85436.6 25432.8 Z M 93219 25432.8 L 93219 18343.05 L 91311.15 18343.05 L 91311.15 16718.1 L 93312.15 16601.95 L 93570.9 13022 L 95361.45 13022 L 95361.45 16601.95 L 98824.1 16601.95 L 98824.1 18344.2 L 95361.45 18344.2 L 95361.45 25479.95 Q 95361.45 27953.6 97339.45 27953.6 Q 97951.25 27953.6 98798.8 27623.55 L 99223.15 29224.35 Q 97761.5 29697 96867.95 29697 Q 93216.7 29697 93216.7 25433.95 L 93219 25432.8 Z M 100624.2 16600.8 L 102390.6 16600.8 L 102579.2 18060.15 L 102649.35 18060.15 Q 104840.1 16269.6 106722.65 16269.6 Q 109148 16269.6 110514.2 18060.15 Q 111810.25 19779.4 111810.25 22793.55 Q 111810.25 25949.15 110139.3 27881.15 Q 108560.35 29694.7 106252.3 29694.7 Q 104533.05 29694.7 102719.5 28210.05 L 102766.65 30446.8 L 102766.65 34780 L 100623.05 34780 L 100623.05 16599.65 L 100624.2 16600.8 Z M 108537.35 26563.25 Q 109573.5 25149.9 109573.5 22818.85 Q 109573.5 18084.3 106205.15 18084.3 Q 104674.5 18084.3 102766.65 19850.7 L 102766.65 26563.25 Q 104344.45 27905.3 105899.25 27905.3 Q 107524.2 27905.3 108536.2 26563.25 L 108537.35 26563.25 Z M 112755.85 27929.45 L 113815 26516.1 Q 115676.85 28023.75 117607.7 28023.75 Q 118832.45 28023.75 119514.4 27434.95 Q 120127.35 26893.3 120127.35 26022.75 Q 120127.35 24726.7 117206.35 23595.1 Q 115439.95 22936.15 114639.55 22301.35 Q 113391.8 21335.35 113391.8 19899 Q 113391.8 18321.2 114546.4 17332.2 Q 115770 16270.75 117795.15 16270.75 Q 119915.75 16270.75 121775.3 17707.1 L 120739.15 19097.45 Q 119208.5 17965.85 117795.15 17965.85 Q 116664.7 17965.85 116028.75 18508.65 Q 115464.1 19002 115464.1 19802.4 Q 115464.1 20603.95 116334.65 21168.6 Q 116782 21452.65 118289.65 22017.3 Q 120220.5 22747.55 120950.75 23313.35 Q 122200.8 24302.35 122200.8 25904.3 Q 122200.8 27529.25 120999.05 28564.25 Q 119728.3 29695.85 117537.55 29695.85 Q 114900.6 29695.85 112757 27929.45 L 112755.85 27929.45 Z M 124148 19732.25 Q 123677.65 19286.05 123677.65 18578.8 Q 123677.65 17848.55 124148 17375.9 Q 124572.35 16905.55 125231.3 16905.55 Q 125890.25 16905.55 126337.6 17375.9 Q 126784.95 17848.55 126784.95 18578.8 Q 126784.95 19286.05 126337.6 19732.25 Q 125867.25 20204.9 125231.3 20204.9 Q 124595.35 20204.9 124148 19732.25  Z M 124148 29247.35 Q 123677.65 28777 123677.65 28069.75 Q 123677.65 27362.5 124148 26866.85 Q 124595.35 26396.5 125231.3 26396.5 Q 125867.25 26396.5 126337.6 26866.85 Q 126784.95 27362.5 126784.95 28069.75 Q 126784.95 28777 126337.6 29247.35 Q 125890.25 29694.7 125231.3 29694.7 Q 124572.35 29694.7 124148 29247.35  Z M 134812.35 10712.8 L 136367.15 10712.8 L 129324.55 33603.55 L 127746.75 33603.55 L 134812.35 10712.8 Z M 143004.35 10712.8 L 144559.15 10712.8 L 137516.55 33603.55 L 135938.75 33603.55 L 143004.35 10712.8 Z M 144507.95 16600.8 L 146697.55 16600.8 L 148605.4 23996.45 L 149359.8 27575.25 L 149478.25 27575.25 Q 150137.2 24726.7 150348.8 23996.45 L 152326.8 16600.8 L 154423.25 16600.8 L 156425.4 23996.45 L 157321.25 27575.25 L 157414.4 27575.25 L 158214.8 23996.45 L 160099.65 16600.8 L 162124.8 16600.8 L 158685.15 29388.8 L 156095.35 29388.8 L 154233.5 22488.8 L 153362.95 18813.4 L 153244.5 18813.4 Q 152679.85 21357.2 152372.8 22534.8 L 150583.4 29388.8 L 148062.6 29388.8 L 144506.8 16600.8 L 144507.95 16600.8 Z M 162325.55 16600.8 L 164515.15 16600.8 L 166423 23996.45 L 167177.4 27575.25 L 167295.85 27575.25 Q 167954.8 24726.7 168166.4 23996.45 L 170144.4 16600.8 L 172240.85 16600.8 L 174243 23996.45 L 175138.85 27575.25 L 175232 27575.25 L 176032.4 23996.45 L 177917.25 16600.8 L 179942.4 16600.8 L 176502.75 29388.8 L 173912.95 29388.8 L 172051.1 22488.8 L 171180.55 18813.4 L 171062.1 18813.4 Q 170497.45 21357.2 170190.4 22534.8 L 168401 29388.8 L 165880.2 29388.8 L 162324.4 16600.8 L 162325.55 16600.8 Z M 180143.15 16600.8 L 182332.75 16600.8 L 184240.6 23996.45 L 184995 27575.25 L 185113.45 27575.25 Q 185772.4 24726.7 185984 23996.45 L 187962 16600.8 L 190058.45 16600.8 L 192060.6 23996.45 L 192956.45 27575.25 L 193049.6 27575.25 L 193850 23996.45 L 195734.85 16600.8 L 197760 16600.8 L 194320.35 29388.8 L 191730.55 29388.8 L 189868.7 22488.8 L 188998.15 18813.4 L 188879.7 18813.4 Q 188315.05 21357.2 188008 22534.8 L 186218.6 29388.8 L 183697.8 29388.8 L 180142 16600.8 L 180143.15 16600.8 Z M 199514.4 29247.35 Q 199044.05 28777 199044.05 28069.75 Q 199044.05 27362.5 199514.4 26866.85 Q 199961.75 26396.5 200597.7 26396.5 Q 201233.65 26396.5 201704 26866.85 Q 202151.35 27362.5 202151.35 28069.75 Q 202151.35 28777 201704 29247.35 Q 201256.65 29694.7 200597.7 29694.7 Q 199938.75 29694.7 199514.4 29247.35  Z M 205398.2 25432.8 L 205398.2 18343.05 L 203490.35 18343.05 L 203490.35 16718.1 L 205491.35 16601.95 L 205750.1 13022 L 207540.65 13022 L 207540.65 16601.95 L 211003.3 16601.95 L 211003.3 18344.2 L 207540.65 18344.2 L 207540.65 25479.95 Q 207540.65 27953.6 209518.65 27953.6 Q 210130.45 27953.6 210978 27623.55 L 211402.35 29224.35 Q 209940.7 29697 209047.15 29697 Q 205395.9 29697 205395.9 25433.95 L 205398.2 25432.8 Z M 211507.35 34640.85 L 211931.7 32921.6 Q 212520.5 33133.2 212897.7 33133.2 Q 214898.7 33133.2 215794.55 30377.8 L 216076.3 29411.8 L 210942.7 16600.8 L 213179.45 16600.8 L 215793.4 23712.4 Q 216689.25 26374.65 217019.3 27293.5 L 217135.45 27293.5 L 218219.9 23713.55 L 220504.95 16601.95 L 222601.4 16601.95 L 217772.55 30449.1 Q 216194.75 34900.75 213015 34900.75 Q 212144.45 34900.75 211508.5 34642 L 211507.35 34640.85 Z M 224016.2 16600.8 L 225782.6 16600.8 L 225971.2 18060.15 L 226041.35 18060.15 Q 228232.1 16269.6 230114.65 16269.6 Q 232540 16269.6 233906.2 18060.15 Q 235202.25 19779.4 235202.25 22793.55 Q 235202.25 25949.15 233531.3 27881.15 Q 231952.35 29694.7 229644.3 29694.7 Q 227925.05 29694.7 226111.5 28210.05 L 226158.65 30446.8 L 226158.65 34780 L 224015.05 34780 L 224015.05 16599.65 L 224016.2 16600.8 Z M 231929.35 26563.25 Q 232965.5 25149.9 232965.5 22818.85 Q 232965.5 18084.3 229597.15 18084.3 Q 228066.5 18084.3 226158.65 19850.7 L 226158.65 26563.25 Q 227736.45 27905.3 229291.25 27905.3 Q 230916.2 27905.3 231928.2 26563.25 L 231929.35 26563.25 Z M 238408.75 27929.45 Q 236618.2 26067.6 236618.2 23005.15 Q 236618.2 20015.15 238384.6 18083.15 Q 240057.85 16269.6 242390.05 16269.6 Q 244791.25 16269.6 246157.45 17894.55 Q 247476.5 19496.5 247476.5 22274.9 Q 247476.5 22887.85 247383.35 23499.65 L 238762.95 23499.65 Q 238858.4 25547.8 240036 26749.55 Q 241189.45 27973.15 243003 27973.15 Q 244699.25 27973.15 246206.9 26961.15 L 246984.3 28374.5 Q 244933.85 29693.55 242744.25 29693.55 Q 240107.3 29693.55 238411.05 27927.15 L 238408.75 27929.45 Z M 245592.8 21970.15 Q 245592.8 17990 242413.05 17990 Q 240999.7 17990 239987.7 19026.15 Q 238928.55 20133.6 238739.95 21970.15 L 245593.95 21970.15 L 245592.8 21970.15 Z M 248128.65 27929.45 L 249187.8 26516.1 Q 251049.65 28023.75 252980.5 28023.75 Q 254205.25 28023.75 254887.2 27434.95 Q 255500.15 26893.3 255500.15 26022.75 Q 255500.15 24726.7 252579.15 23595.1 Q 250812.75 22936.15 250012.35 22301.35 Q 248764.6 21335.35 248764.6 19899 Q 248764.6 18321.2 249919.2 17332.2 Q 251142.8 16270.75 253167.95 16270.75 Q 255288.55 16270.75 257148.1 17707.1 L 256111.95 19097.45 Q 254581.3 17965.85 253167.95 17965.85 Q 252037.5 17965.85 251401.55 18508.65 Q 250836.9 19002 250836.9 19802.4 Q 250836.9 20603.95 251707.45 21168.6 Q 252154.8 21452.65 253662.45 22017.3 Q 255593.3 22747.55 256323.55 23313.35 Q 257573.6 24302.35 257573.6 25904.3 Q 257573.6 27529.25 256371.85 28564.25 Q 255101.1 29695.85 252910.35 29695.85 Q 250273.4 29695.85 248129.8 27929.45 L 248128.65 27929.45 Z M 260275.2 27929.45 Q 258531.8 26115.9 258531.8 23006.3 Q 258531.8 19920.85 260393.65 18036 Q 262135.9 16269.6 264703.85 16269.6 Q 266729 16269.6 268448.25 17778.4 L 267340.8 19213.6 Q 266070.05 18060.15 264774 18060.15 Q 263030.6 18060.15 261900.15 19426.35 Q 260769.7 20815.55 260769.7 23005.15 Q 260769.7 25218.9 261874.85 26562.1 Q 262959.3 27904.15 264725.7 27904.15 Q 266350.65 27904.15 267739.85 26633.4 L 268658.7 28069.75 Q 266892.3 29694.7 264537.1 29694.7 Q 261923.15 29694.7 260275.2 27928.3 L 260275.2 27929.45 Z M 270403.4 16600.8 L 272169.8 16600.8 L 272358.4 18931.85 L 272428.55 18931.85 Q 273887.9 16269.6 276055.65 16269.6 Q 276879.05 16269.6 277420.7 16553.65 L 277020.5 18438.5 Q 276478.85 18225.75 275771.6 18225.75 Q 273675.15 18225.75 272544.7 21169.75 L 272544.7 29389.95 L 270401.1 29389.95 L 270401.1 16601.95 L 270403.4 16600.8 Z M 278493 16600.8 L 280636.6 16600.8 L 280636.6 29388.8 L 278493 29388.8 L 278493 16600.8 Z M 278516 13561.35 Q 278092.8 13161.15 278092.8 12572.35 Q 278092.8 11183.15 279577.45 11183.15 Q 281059.8 11183.15 281059.8 12572.35 Q 281059.8 13161.15 280636.6 13561.35 Q 280212.25 13961.55 279577.45 13961.55 Q 278941.5 13961.55 278517.15 13561.35 L 278516 13561.35 Z M 283920.2 16600.8 L 285686.6 16600.8 L 285875.2 18060.15 L 285945.35 18060.15 Q 288136.1 16269.6 290018.65 16269.6 Q 292444 16269.6 293810.2 18060.15 Q 295106.25 19779.4 295106.25 22793.55 Q 295106.25 25949.15 293435.3 27881.15 Q 291856.35 29694.7 289548.3 29694.7 Q 287829.05 29694.7 286015.5 28210.05 L 286062.65 30446.8 L 286062.65 34780 L 283919.05 34780 L 283919.05 16599.65 L 283920.2 16600.8 Z M 291833.35 26563.25 Q 292869.5 25149.9 292869.5 22818.85 Q 292869.5 18084.3 289501.15 18084.3 Q 287970.5 18084.3 286062.65 19850.7 L 286062.65 26563.25 Q 287640.45 27905.3 289195.25 27905.3 Q 290820.2 27905.3 291832.2 26563.25 L 291833.35 26563.25 Z M 297865.4 25432.8 L 297865.4 18343.05 L 295957.55 18343.05 L 295957.55 16718.1 L 297958.55 16601.95 L 298217.3 13022 L 300007.85 13022 L 300007.85 16601.95 L 303470.5 16601.95 L 303470.5 18344.2 L 300007.85 18344.2 L 300007.85 25479.95 Q 300007.85 27953.6 301985.85 27953.6 Q 302597.65 27953.6 303445.2 27623.55 L 303869.55 29224.35 Q 302407.9 29697 301514.35 29697 Q 297863.1 29697 297863.1 25433.95 L 297865.4 25432.8 Z M 305270.6 26845 L 305270.6 10640.35 L 307414.2 10640.35 L 307414.2 26985.3 Q 307414.2 27904.15 308026 27904.15 Q 308237.6 27904.15 308473.35 27858.15 L 308780.4 29506.1 Q 308284.75 29694.7 307531.5 29694.7 Q 305269.45 29694.7 305269.45 26843.85 L 305270.6 26845 Z M 311161.35 28752.85 Q 310102.2 27763.85 310102.2 26067.6 Q 310102.2 23996.45 311987.05 22864.85 Q 313846.6 21757.4 317968.2 21287.05 Q 317968.2 18061.3 315331.25 18061.3 Q 313517.7 18061.3 311492.55 19427.5 L 310645 17942.85 Q 313258.95 16269.6 315684.3 16269.6 Q 320112.95 16269.6 320112.95 21522.8 L 320112.95 29388.8 L 318346.55 29388.8 L 318157.95 27858.15 L 318087.8 27858.15 Q 315874.05 29694.7 313848.9 29694.7 Q 312200.95 29694.7 311164.8 28751.7 L 311161.35 28752.85 Z M 317968.2 26279.2 L 317968.2 22700.4 Q 312198.65 23382.35 312198.65 25926.15 Q 312198.65 27974.3 314458.4 27974.3 Q 316060.35 27974.3 317968.2 26278.05 L 317968.2 26279.2 Z M 323088.2 16600.8 L 324854.6 16600.8 L 325043.2 18437.35 L 325113.35 18437.35 Q 327327.1 16269.6 329400.55 16269.6 Q 333309.4 16269.6 333309.4 21287.05 L 333309.4 29388.8 L 331166.95 29388.8 L 331166.95 21568.8 Q 331166.95 18154.45 328741.6 18154.45 Q 327186.8 18154.45 325231.8 20109.45 L 325231.8 29388.8 L 323088.2 29388.8 L 323088.2 16600.8 Z M 336947.05 34380.95 Q 335462.4 33462.1 335462.4 31837.15 Q 335462.4 30166.2 337370.25 28941.45 L 337370.25 28848.3 Q 336192.65 28164.05 336192.65 26751.85 Q 336192.65 25408.65 337629 24372.5 L 337629 24279.35 Q 335958.05 22936.15 335958.05 20839.7 Q 335958.05 18791.55 337394.4 17495.5 Q 338759.45 16270.75 340761.6 16270.75 Q 341657.45 16270.75 342551 16601.95 L 347002.65 16601.95 L 347002.65 18249.9 L 344388.7 18249.9 Q 345424.85 19238.9 345424.85 20886.85 Q 345424.85 22889 344058.65 24136.75 Q 342764.9 25337.35 340762.75 25337.35 Q 339750.75 25337.35 338854.9 24890 Q 338030.35 25597.25 338030.35 26421.8 Q 338030.35 27811 340267.1 27811 L 342764.9 27811 Q 347216.55 27811 347216.55 30848.15 Q 347216.55 32684.7 345473.15 33957.75 Q 343636.6 35276.8 340762.75 35276.8 Q 338360.4 35276.8 336948.2 34380.95 L 336947.05 34380.95 Z M 342669.45 23053.45 Q 343469.85 22205.9 343469.85 20839.7 Q 343469.85 19473.5 342693.6 18650.1 Q 341916.2 17849.7 340761.6 17849.7 Q 339584 17849.7 338829.6 18625.95 Q 338029.2 19473.5 338029.2 20839.7 Q 338029.2 22205.9 338829.6 23053.45 Q 339607 23878 340761.6 23878 Q 341892.05 23878 342669.45 23053.45  Z M 344035.65 32991.75 Q 345143.1 32238.5 345143.1 31177.05 Q 345143.1 29599.25 342529.15 29599.25 L 340315.4 29599.25 Q 339515 29599.25 338667.45 29387.65 Q 337348.4 30329.5 337348.4 31554.25 Q 337348.4 32590.4 338337.4 33202.2 Q 339326.4 33815.15 341069.8 33815.15 Q 342836.2 33815.15 344036.8 32990.6 L 344035.65 32991.75 Z M 348660 29247.35 Q 348189.65 28777 348189.65 28069.75 Q 348189.65 27362.5 348660 26866.85 Q 349107.35 26396.5 349743.3 26396.5 Q 350379.25 26396.5 350849.6 26866.85 Q 351296.95 27362.5 351296.95 28069.75 Q 351296.95 28777 350849.6 29247.35 Q 350402.25 29694.7 349743.3 29694.7 Q 349084.35 29694.7 348660 29247.35  Z M 354991.15 27929.45 Q 353200.6 26067.6 353200.6 23005.15 Q 353200.6 19919.7 354991.15 18034.85 Q 356662.1 16268.45 359135.75 16268.45 Q 361609.4 16268.45 363280.35 18034.85 Q 365070.9 19919.7 365070.9 23005.15 Q 365070.9 26067.6 363280.35 27929.45 Q 361609.4 29695.85 359135.75 29695.85 Q 356662.1 29695.85 354991.15 27929.45  Z M 361821 26563.25 Q 362857.15 25220.05 362857.15 23006.3 Q 362857.15 20793.7 361821 19427.5 Q 360809 18061.3 359135.75 18061.3 Q 357487.8 18061.3 356451.65 19427.5 Q 355439.65 20793.7 355439.65 23006.3 Q 355439.65 25220.05 356451.65 26563.25 Q 357464.8 27905.3 359135.75 27905.3 Q 360809 27905.3 361821 26563.25  Z M 367325 16600.8 L 369091.4 16600.8 L 369280 18931.85 L 369350.15 18931.85 Q 370809.5 16269.6 372977.25 16269.6 Q 373800.65 16269.6 374342.3 16553.65 L 373942.1 18438.5 Q 373400.45 18225.75 372693.2 18225.75 Q 370596.75 18225.75 369466.3 21169.75 L 369466.3 29389.95 L 367322.7 29389.95 L 367322.7 16601.95 L 367325 16600.8 Z M 375910.25 34380.95 Q 374425.6 33462.1 374425.6 31837.15 Q 374425.6 30166.2 376333.45 28941.45 L 376333.45 28848.3 Q 375155.85 28164.05 375155.85 26751.85 Q 375155.85 25408.65 376592.2 24372.5 L 376592.2 24279.35 Q 374921.25 22936.15 374921.25 20839.7 Q 374921.25 18791.55 376357.6 17495.5 Q 377722.65 16270.75 379724.8 16270.75 Q 380620.65 16270.75 381514.2 16601.95 L 385965.85 16601.95 L 385965.85 18249.9 L 383351.9 18249.9 Q 384388.05 19238.9 384388.05 20886.85 Q 384388.05 22889 383021.85 24136.75 Q 381728.1 25337.35 379725.95 25337.35 Q 378713.95 25337.35 377818.1 24890 Q 376993.55 25597.25 376993.55 26421.8 Q 376993.55 27811 379230.3 27811 L 381728.1 27811 Q 386179.75 27811 386179.75 30848.15 Q 386179.75 32684.7 384436.35 33957.75 Q 382599.8 35276.8 379725.95 35276.8 Q 377323.6 35276.8 375911.4 34380.95 L 375910.25 34380.95 Z M 381632.65 23053.45 Q 382433.05 22205.9 382433.05 20839.7 Q 382433.05 19473.5 381656.8 18650.1 Q 380879.4 17849.7 379724.8 17849.7 Q 378547.2 17849.7 377792.8 18625.95 Q 376992.4 19473.5 376992.4 20839.7 Q 376992.4 22205.9 377792.8 23053.45 Q 378570.2 23878 379724.8 23878 Q 380855.25 23878 381632.65 23053.45  Z M 382998.85 32991.75 Q 384106.3 32238.5 384106.3 31177.05 Q 384106.3 29599.25 381492.35 29599.25 L 379278.6 29599.25 Q 378478.2 29599.25 377630.65 29387.65 Q 376311.6 30329.5 376311.6 31554.25 Q 376311.6 32590.4 377300.6 33202.2 Q 378289.6 33815.15 380033 33815.15 Q 381799.4 33815.15 383000 32990.6 L 382998.85 32991.75 Z M 392757.95 10712.8 L 394312.75 10712.8 L 387270.15 33603.55 L 385692.35 33603.55 L 392757.95 10712.8 Z M 6051.15 56080.35 L 4308.9 56080.35 L 4308.9 51369.95 L 12928.15 51369.95 Q 12386.5 50146.35 11820.7 49038.9 L 13611.25 48614.55 Q 14434.65 50122.2 14977.45 51369.95 L 23336.8 51369.95 L 23336.8 56080.35 L 21524.4 56080.35 L 21524.4 52994.9 L 6050 52994.9 L 6050 56080.35 L 6051.15 56080.35 Z M 11210.05 59449.85 Q 10198.05 61120.8 9350.5 62322.55 Q 11563.1 63029.8 14413.95 64137.25 Q 16462.1 62182.25 17498.25 59449.85 L 11210.05 59449.85 Z M 19500.4 59449.85 Q 18298.65 62652.6 16132.05 64819.2 Q 20912.6 66844.35 23480.55 68492.3 L 22044.2 69999.95 Q 19500.4 68257.7 14648.55 66137.1 Q 11280.2 68751.05 5157.6 70094.25 Q 4826.4 69316.85 4050.15 68492.3 Q 9654.1 67526.3 12833.85 65359.7 Q 9230.9 63923.35 6616.95 63099.95 L 6639.95 63075.8 Q 7817.55 61593.45 9136.6 59449.85 L 3721.25 59449.85 L 3721.25 57776.6 L 10125.6 57776.6 Q 11421.65 55421.4 11987.45 53985.05 L 13872.3 54386.4 Q 13142.05 56010.2 12176.05 57776.6 L 23975.05 57776.6 L 23975.05 59449.85 L 19500.4 59449.85 Z M 39273 53420.4 L 33666.75 53420.4 L 33666.75 51865.6 L 39273 51865.6 L 39273 48639.85 L 40992.25 48639.85 L 40992.25 51865.6 L 46527.2 51865.6 L 46527.2 53420.4 L 40992.25 53420.4 L 40992.25 57141.8 L 46079.85 57141.8 L 46079.85 58695.45 L 34374 58695.45 L 34374 57141.8 L 39273 57141.8 L 39273 53420.4 Z M 29120.8 53466.4 Q 28178.95 52265.8 26248.1 50946.75 L 27307.25 49957.75 Q 29308.25 51228.5 30227.1 52360.1 L 29119.65 53465.25 L 29120.8 53466.4 Z M 31005.65 56175.8 Q 26508 58249.25 26106.65 58413.7 L 25517.85 56954.35 Q 26413.7 56624.3 31005.65 54550.85 L 31005.65 48639.85 L 32653.6 48639.85 L 32653.6 59661.45 L 31005.65 59661.45 L 31005.65 56175.8 Z M 45561.2 63853.2 Q 43770.65 65077.95 41369.45 66208.4 Q 43747.65 67881.65 47139 68563.6 Q 46454.75 69152.4 46124.7 69999.95 Q 39059.1 68280.7 36233.55 62511.15 Q 34678.75 63923.35 32466.15 65030.8 L 32466.15 68070.25 L 38188.55 66868.5 Q 38095.4 67811.5 38118.4 68304.85 Q 30771.05 69906.8 30135.1 70259.85 Q 29993.65 69506.6 29523.3 68847.65 Q 30746.9 68470.45 30746.9 67386 L 30746.9 65831.2 Q 28816.05 66655.75 26508 67197.4 Q 26200.95 66608.6 25542 65903.65 Q 30699.75 64890.5 33996.8 62512.3 L 25846.75 62512.3 L 25846.75 61075.95 L 35740.2 61075.95 Q 35340 60180.1 34915.65 59521.15 L 36611.9 59050.8 Q 37247.85 59944.35 37695.2 61075.95 L 46857.25 61075.95 L 46857.25 62512.3 L 37906.8 62512.3 Q 38895.8 64183.25 40262 65360.85 Q 42617.2 64160.25 44288.15 62935.5 L 45561.2 63854.35 L 45561.2 63853.2 Z M 51767.25 56434.55 Q 51225.6 55938.9 51225.6 55161.5 Q 51225.6 54361.1 51767.25 53867.75 Q 52262.9 53372.1 52993.15 53372.1 Q 53723.4 53372.1 54242.05 53867.75 Q 54783.7 54386.4 54783.7 55162.65 Q 54783.7 55940.05 54242.05 56435.7 Q 53723.4 56906.05 52993.15 56906.05 Q 52262.9 56906.05 51767.25 56435.7 L 51767.25 56434.55 Z M 51767.25 67951.8 Q 51225.6 67456.15 51225.6 66678.75 Q 51225.6 65902.5 51767.25 65383.85 Q 52262.9 64911.2 52993.15 64911.2 Q 53723.4 64911.2 54242.05 65383.85 Q 54783.7 65902.5 54783.7 66678.75 Q 54783.7 67456.15 54242.05 67951.8 Q 53723.4 68445.15 52993.15 68445.15 Q 52262.9 68445.15 51767.25 67951.8  Z M 10268.2 165999.8 Q 9325.2 168332 7842.85 170898.8 L 7842.85 187149.45 L 6169.6 187149.45 L 6169.6 173418.45 Q 4992 175066.4 3578.65 176479.75 Q 3178.45 175490.75 2589.65 174783.5 Q 6429.5 171157.55 8619.1 165481.15 L 10269.35 165999.8 L 10268.2 165999.8 Z M 16109.05 177021.4 Q 16132.05 176668.35 16132.05 175961.1 L 16132.05 173535.75 L 11940.3 173535.75 L 11940.3 177021.4 L 16109.05 177021.4 Z M 17852.45 173535.75 L 17852.45 175961.1 Q 17852.45 176668.35 17828.3 177021.4 L 22185.65 177021.4 L 22185.65 173535.75 L 17852.45 173535.75 Z M 17734 178506.05 Q 17426.95 181238.45 16179.2 183027.85 Q 19570.55 184889.7 24845.6 185524.5 Q 24256.8 186113.3 23810.6 187102.3 Q 18604.55 186326.05 15141.9 184252.6 Q 13257.05 186112.15 9819.7 187125.3 Q 9372.35 186229.45 8760.55 185687.8 Q 11986.3 184863.25 13729.7 183308.45 Q 11586.1 181684.65 10313.05 179470.9 L 11774.7 179000.55 Q 12810.85 180766.95 14741.7 182132 Q 15730.7 180672.65 16012.45 178506.05 L 10313.05 178506.05 L 10313.05 172052.25 L 16130.9 172052.25 L 16130.9 169744.2 L 9631.1 169744.2 L 9631.1 168143.4 L 16130.9 168143.4 L 16130.9 165622.6 L 17851.3 165622.6 L 17851.3 168143.4 L 24632.85 168143.4 L 24632.85 169744.2 L 17851.3 169744.2 L 17851.3 172052.25 L 23855.45 172052.25 L 23855.45 178506.05 L 17732.85 178506.05 L 17734 178506.05 Z M 43676.35 178199 L 43676.35 174290.15 L 37341 174290.15 L 37341 178199 L 43676.35 178199 Z M 35597.6 178199 L 35597.6 174290.15 L 29968.35 174290.15 L 29968.35 175679.35 Q 29968.35 177045.55 29875.2 178199 L 35597.6 178199 Z M 29968.35 168873.65 L 29968.35 172641.05 L 35597.6 172641.05 L 35597.6 168873.65 L 29968.35 168873.65 Z M 43676.35 168873.65 L 37341 168873.65 L 37341 172641.05 L 43676.35 172641.05 L 43676.35 168873.65 Z M 45395.6 184675.8 Q 45395.6 186207.6 44336.45 186630.8 Q 43440.6 186960.85 39954.95 186914.85 Q 39836.5 186183.45 39366.15 185218.6 Q 40473.6 185264.6 43040.4 185264.6 Q 43676.35 185241.6 43676.35 184652.8 L 43676.35 179872.25 L 37341 179872.25 L 37341 186819.4 L 35597.6 186819.4 L 35597.6 179872.25 L 29709.6 179872.25 Q 29074.8 184605.65 26765.6 187173.6 Q 26272.25 186489.35 25424.7 186019 Q 28250.25 182839.25 28250.25 175680.5 L 28250.25 167201.55 L 45395.6 167201.55 L 45395.6 184676.95 L 45395.6 184675.8 Z M 51767.25 173324.15 Q 51225.6 172828.5 51225.6 172051.1 Q 51225.6 171250.7 51767.25 170757.35 Q 52262.9 170261.7 52993.15 170261.7 Q 53723.4 170261.7 54242.05 170757.35 Q 54783.7 171276 54783.7 172052.25 Q 54783.7 172829.65 54242.05 173325.3 Q 53723.4 173795.65 52993.15 173795.65 Q 52262.9 173795.65 51767.25 173325.3 L 51767.25 173324.15 Z M 51767.25 184841.4 Q 51225.6 184345.75 51225.6 183568.35 Q 51225.6 182792.1 51767.25 182273.45 Q 52262.9 181800.8 52993.15 181800.8 Q 53723.4 181800.8 54242.05 182273.45 Q 54783.7 182792.1 54783.7 183568.35 Q 54783.7 184345.75 54242.05 184841.4 Q 53723.4 185334.75 52993.15 185334.75 Q 52262.9 185334.75 51767.25 184841.4  Z M 72175.8 181285.6 L 72175.8 174195.85 L 70267.95 174195.85 L 70267.95 172570.9 L 72268.95 172454.75 L 72527.7 168874.8 L 74318.25 168874.8 L 74318.25 172454.75 L 77780.9 172454.75 L 77780.9 174197 L 74318.25 174197 L 74318.25 181332.75 Q 74318.25 183806.4 76296.25 183806.4 Q 76908.05 183806.4 77755.6 183476.35 L 78179.95 185077.15 Q 76718.3 185549.8 75824.75 185549.8 Q 72173.5 185549.8 72173.5 181286.75 L 72175.8 181285.6 Z M 78144.65 183782.25 L 79203.8 182368.9 Q 81065.65 183876.55 82996.5 183876.55 Q 84221.25 183876.55 84903.2 183287.75 Q 85516.15 182746.1 85516.15 181875.55 Q 85516.15 180579.5 82595.15 179447.9 Q 80828.75 178788.95 80028.35 178154.15 Q 78780.6 177188.15 78780.6 175751.8 Q 78780.6 174174 79935.2 173185 Q 81158.8 172123.55 83183.95 172123.55 Q 85304.55 172123.55 87164.1 173559.9 L 86127.95 174950.25 Q 84597.3 173818.65 83183.95 173818.65 Q 82053.5 173818.65 81417.55 174361.45 Q 80852.9 174854.8 80852.9 175655.2 Q 80852.9 176456.75 81723.45 177021.4 Q 82170.8 177305.45 83678.45 177870.1 Q 85609.3 178600.35 86339.55 179166.15 Q 87589.6 180155.15 87589.6 181757.1 Q 87589.6 183382.05 86387.85 184417.05 Q 85117.1 185548.65 82926.35 185548.65 Q 80289.4 185548.65 78145.8 183782.25 L 78144.65 183782.25 Z M 90291.2 183782.25 Q 88547.8 181968.7 88547.8 178859.1 Q 88547.8 175773.65 90409.65 173888.8 Q 92151.9 172122.4 94719.85 172122.4 Q 96745 172122.4 98464.25 173631.2 L 97356.8 175066.4 Q 96086.05 173912.95 94790 173912.95 Q 93046.6 173912.95 91916.15 175279.15 Q 90785.7 176668.35 90785.7 178857.95 Q 90785.7 181071.7 91890.85 182414.9 Q 92975.3 183756.95 94741.7 183756.95 Q 96366.65 183756.95 97755.85 182486.2 L 98674.7 183922.55 Q 96908.3 185547.5 94553.1 185547.5 Q 91939.15 185547.5 90291.2 183781.1 L 90291.2 183782.25 Z M 104669 166493.15 L 106812.6 166493.15 L 106812.6 171627.9 L 106742.45 174264.85 Q 108886.05 172121.25 110982.5 172121.25 Q 114891.35 172121.25 114891.35 177138.7 L 114891.35 185240.45 L 112748.9 185240.45 L 112748.9 177420.45 Q 112748.9 174006.1 110323.55 174006.1 Q 108768.75 174006.1 106813.75 175961.1 L 106813.75 185240.45 L 104670.15 185240.45 L 104670.15 166492 L 104669 166493.15 Z M 118754.35 183782.25 Q 116963.8 181920.4 116963.8 178857.95 Q 116963.8 175867.95 118730.2 173935.95 Q 120403.45 172122.4 122735.65 172122.4 Q 125136.85 172122.4 126503.05 173747.35 Q 127822.1 175349.3 127822.1 178127.7 Q 127822.1 178740.65 127728.95 179352.45 L 119108.55 179352.45 Q 119204 181400.6 120381.6 182602.35 Q 121535.05 183825.95 123348.6 183825.95 Q 125044.85 183825.95 126552.5 182813.95 L 127329.9 184227.3 Q 125279.45 185546.35 123089.85 185546.35 Q 120452.9 185546.35 118756.65 183779.95 L 118754.35 183782.25 Z M 125938.4 177822.95 Q 125938.4 173842.8 122758.65 173842.8 Q 121345.3 173842.8 120333.3 174878.95 Q 119274.15 175986.4 119085.55 177822.95 L 125939.55 177822.95 L 125938.4 177822.95 Z M 129910.6 182697.8 L 129910.6 166493.15 L 132054.2 166493.15 L 132054.2 182838.1 Q 132054.2 183756.95 132666 183756.95 Q 132877.6 183756.95 133113.35 183710.95 L 133420.4 185358.9 Q 132924.75 185547.5 132171.5 185547.5 Q 129909.45 185547.5 129909.45 182696.65 L 129910.6 182697.8 Z M 135542.6 182697.8 L 135542.6 166493.15 L 137686.2 166493.15 L 137686.2 182838.1 Q 137686.2 183756.95 138298 183756.95 Q 138509.6 183756.95 138745.35 183710.95 L 139052.4 185358.9 Q 138556.75 185547.5 137803.5 185547.5 Q 135541.45 185547.5 135541.45 182696.65 L 135542.6 182697.8 Z M 141999.15 183782.25 Q 140208.6 181920.4 140208.6 178857.95 Q 140208.6 175772.5 141999.15 173887.65 Q 143670.1 172121.25 146143.75 172121.25 Q 148617.4 172121.25 150288.35 173887.65 Q 152078.9 175772.5 152078.9 178857.95 Q 152078.9 181920.4 150288.35 183782.25 Q 148617.4 185548.65 146143.75 185548.65 Q 143670.1 185548.65 141999.15 183782.25  Z M 148829 182416.05 Q 149865.15 181072.85 149865.15 178859.1 Q 149865.15 176646.5 148829 175280.3 Q 147817 173914.1 146143.75 173914.1 Q 144495.8 173914.1 143459.65 175280.3 Q 142447.65 176646.5 142447.65 178859.1 Q 142447.65 181072.85 143459.65 182416.05 Q 144472.8 183758.1 146143.75 183758.1 Q 147817 183758.1 148829 182416.05  Z M 154521.6 167977.8 L 156711.2 167977.8 L 156711.2 185241.6 L 154521.6 185241.6 L 154521.6 167977.8 Z M 160169.8 172453.6 L 161936.2 172453.6 L 162124.8 174290.15 L 162194.95 174290.15 Q 164408.7 172122.4 166482.15 172122.4 Q 170391 172122.4 170391 177139.85 L 170391 185241.6 L 168248.55 185241.6 L 168248.55 177421.6 Q 168248.55 174007.25 165823.2 174007.25 Q 164268.4 174007.25 162313.4 175962.25 L 162313.4 185241.6 L 160169.8 185241.6 L 160169.8 172453.6 Z M 174051.65 183805.25 Q 172615.3 182015.85 172615.3 178859.1 Q 172615.3 175844.95 174288.55 173937.1 Q 175866.35 172123.55 178151.4 172123.55 Q 179940.8 172123.55 181754.35 173632.35 L 181635.9 171418.6 L 181635.9 166495.45 L 183779.5 166495.45 L 183779.5 185243.9 L 182036.1 185243.9 L 181824.5 183736.25 L 181777.35 183736.25 Q 179917.8 185549.8 177892.65 185549.8 Q 175467.3 185549.8 174053.95 183806.4 L 174051.65 183805.25 Z M 181634.75 181990.55 L 181634.75 175279.15 Q 180127.1 173935.95 178525.15 173935.95 Q 176947.35 173935.95 175911.2 175279.15 Q 174829.05 176668.35 174829.05 178834.95 Q 174829.05 181167.15 175747.9 182463.2 Q 176666.75 183756.95 178363 183756.95 Q 180059.25 183756.95 181637.05 181990.55 L 181634.75 181990.55 Z M 187925.55 183782.25 Q 186135 181920.4 186135 178857.95 Q 186135 175867.95 187901.4 173935.95 Q 189574.65 172122.4 191906.85 172122.4 Q 194308.05 172122.4 195674.25 173747.35 Q 196993.3 175349.3 196993.3 178127.7 Q 196993.3 178740.65 196900.15 179352.45 L 188279.75 179352.45 Q 188375.2 181400.6 189552.8 182602.35 Q 190706.25 183825.95 192519.8 183825.95 Q 194216.05 183825.95 195723.7 182813.95 L 196501.1 184227.3 Q 194450.65 185546.35 192261.05 185546.35 Q 189624.1 185546.35 187927.85 183779.95 L 187925.55 183782.25 Z M 195109.6 177822.95 Q 195109.6 173842.8 191929.85 173842.8 Q 190516.5 173842.8 189504.5 174878.95 Q 188445.35 175986.4 188256.75 177822.95 L 195110.75 177822.95 L 195109.6 177822.95 Z M 199906.35 183782.25 Q 198115.8 181920.4 198115.8 178857.95 Q 198115.8 175867.95 199882.2 173935.95 Q 201555.45 172122.4 203887.65 172122.4 Q 206288.85 172122.4 207655.05 173747.35 Q 208974.1 175349.3 208974.1 178127.7 Q 208974.1 178740.65 208880.95 179352.45 L 200260.55 179352.45 Q 200356 181400.6 201533.6 182602.35 Q 202687.05 183825.95 204500.6 183825.95 Q 206196.85 183825.95 207704.5 182813.95 L 208481.9 184227.3 Q 206431.45 185546.35 204241.85 185546.35 Q 201604.9 185546.35 199908.65 183779.95 L 199906.35 183782.25 Z M 207090.4 177822.95 Q 207090.4 173842.8 203910.65 173842.8 Q 202497.3 173842.8 201485.3 174878.95 Q 200426.15 175986.4 200237.55 177822.95 L 207091.55 177822.95 L 207090.4 177822.95 Z M 213464.95 178576.2 L 209577.95 172453.6 L 211887.15 172453.6 L 214877.15 177398.6 L 214972.6 177398.6 L 217705 172453.6 L 219941.75 172453.6 L 216054.75 178787.8 L 220271.8 185241.6 L 217916.6 185241.6 L 216031.75 182250.45 Q 215442.95 181168.3 214665.55 179966.55 L 214547.1 179966.55 L 211509.95 185242.75 L 209247.9 185242.75 L 213464.95 178577.35 L 213464.95 178576.2 Z M 221837.6 185100.15 Q 221367.25 184629.8 221367.25 183922.55 Q 221367.25 183215.3 221837.6 182719.65 Q 222284.95 182249.3 222920.9 182249.3 Q 223556.85 182249.3 224027.2 182719.65 Q 224474.55 183215.3 224474.55 183922.55 Q 224474.55 184629.8 224027.2 185100.15 Q 223579.85 185547.5 222920.9 185547.5 Q 222261.95 185547.5 221837.6 185100.15  Z M 227721.4 181285.6 L 227721.4 174195.85 L 225813.55 174195.85 L 225813.55 172570.9 L 227814.55 172454.75 L 228073.3 168874.8 L 229863.85 168874.8 L 229863.85 172454.75 L 233326.5 172454.75 L 233326.5 174197 L 229863.85 174197 L 229863.85 181332.75 Q 229863.85 183806.4 231841.85 183806.4 Q 232453.65 183806.4 233301.2 183476.35 L 233725.55 185077.15 Q 232263.9 185549.8 231370.35 185549.8 Q 227719.1 185549.8 227719.1 181286.75 L 227721.4 181285.6 Z M 233690.25 183782.25 L 234749.4 182368.9 Q 236611.25 183876.55 238542.1 183876.55 Q 239766.85 183876.55 240448.8 183287.75 Q 241061.75 182746.1 241061.75 181875.55 Q 241061.75 180579.5 238140.75 179447.9 Q 236374.35 178788.95 235573.95 178154.15 Q 234326.2 177188.15 234326.2 175751.8 Q 234326.2 174174 235480.8 173185 Q 236704.4 172123.55 238729.55 172123.55 Q 240850.15 172123.55 242709.7 173559.9 L 241673.55 174950.25 Q 240142.9 173818.65 238729.55 173818.65 Q 237599.1 173818.65 236963.15 174361.45 Q 236398.5 174854.8 236398.5 175655.2 Q 236398.5 176456.75 237269.05 177021.4 Q 237716.4 177305.45 239224.05 177870.1 Q 241154.9 178600.35 241885.15 179166.15 Q 243135.2 180155.15 243135.2 181757.1 Q 243135.2 183382.05 241933.45 184417.05 Q 240662.7 185548.65 238471.95 185548.65 Q 235835 185548.65 233691.4 183782.25 L 233690.25 183782.25 Z M 263948.15 187503.65 Q 259260.75 182746.1 259260.75 176292.3 Q 259260.75 169839.65 263948.15 165082.1 L 265360.35 165812.35 Q 260980 170334.15 260980 176292.3 Q 260980 182250.45 265360.35 186772.25 L 263948.15 187503.65 Z M 273310.95 177775.8 Q 273310.95 178646.35 273427.1 179188 Q 267774.85 180508.2 267067.6 180908.4 Q 266903.15 180108 266573.1 179376.6 Q 267114.75 179260.45 268196.9 177824.1 Q 268904.15 176976.55 270317.5 174667.35 Q 267350.5 175091.7 266949.15 175303.3 Q 266714.55 174455.75 266384.5 173725.5 Q 266831.85 173632.35 267632.25 172242 Q 269468.8 169204.85 270527.95 165530.6 L 272201.2 166142.4 Q 270669.4 170216.85 268621.25 173396.6 L 271212.2 173114.85 Q 272131.05 171489.9 272577.25 170430.75 L 273990.6 171254.15 Q 271965.45 175282.6 269421.65 178579.65 L 273308.65 177779.25 L 273310.95 177775.8 Z M 273593.85 182767.95 L 266881.3 185523.35 L 266458.1 183898.4 Q 267800.15 183475.2 273287.95 181355.75 L 273595 182767.95 L 273593.85 182767.95 Z M 276796.6 169555.6 L 276796.6 172076.4 L 285392.85 172076.4 L 285392.85 169555.6 L 276796.6 169555.6 Z M 276796.6 173558.75 Q 276749.45 182203.3 274205.65 186654.95 Q 273664 186066.15 272863.6 185664.8 Q 275194.65 181543.2 275194.65 173158.55 L 275194.65 168072.1 L 280659.45 168072.1 Q 280235.1 166894.5 279646.3 165881.35 L 281296.55 165388 Q 282119.95 166777.2 282520.15 168073.25 L 287018.95 168073.25 L 287018.95 173559.9 L 276797.75 173559.9 L 276796.6 173558.75 Z M 285863.2 180438.05 L 285863.2 176998.4 L 284120.95 176998.4 L 284120.95 180438.05 L 285863.2 180438.05 Z M 282943.35 180438.05 L 282943.35 176998.4 L 281247.1 176998.4 L 281247.1 180438.05 L 282943.35 180438.05 Z M 280070.65 180438.05 L 280070.65 176998.4 L 278138.65 176998.4 L 278138.65 180438.05 L 280070.65 180438.05 Z M 287229.4 175539.05 L 287229.4 185360.05 Q 287229.4 186326.05 286710.75 186607.8 Q 286310.55 186842.4 284944.35 186842.4 Q 284828.2 186207.6 284521.15 185571.65 L 285628.6 185571.65 Q 285863.2 185571.65 285863.2 185335.9 L 285863.2 181850.25 L 284120.95 181850.25 L 284120.95 186253.6 L 282943.35 186253.6 L 282943.35 181850.25 L 281247.1 181850.25 L 281247.1 186278.9 L 280069.5 186278.9 L 280069.5 181850.25 L 278137.5 181850.25 L 278137.5 186842.4 L 276748.3 186842.4 L 276748.3 175562.05 L 285862.05 175562.05 L 285862.05 175539.05 L 287228.25 175539.05 L 287229.4 175539.05 Z M 293129.55 171017.25 Q 292282 169321 290397.15 166941.65 L 291717.35 166094.1 Q 293648.2 168356.15 294544.05 170004.1 L 293130.7 171017.25 L 293129.55 171017.25 Z M 304105.15 181567.35 L 310063.3 181567.35 L 310063.3 183168.15 L 304105.15 183168.15 L 304105.15 187008 L 302338.75 187008 L 302338.75 183168.15 L 296543.9 183168.15 L 296543.9 182863.4 Q 292706.35 185900.55 292259 186512.35 L 292236 186442.2 Q 291788.65 185641.8 291270 185194.45 Q 292423.45 184346.9 292423.45 182910.55 L 292423.45 174551.2 L 289126.4 174551.2 L 289126.4 172877.95 L 294118.55 172854.95 L 294118.55 182769.1 L 295932.1 181379.9 Q 296190.85 182087.15 296543.9 182651.8 L 296543.9 181569.65 L 302338.75 181569.65 L 302338.75 179214.45 L 297675.5 179214.45 L 297675.5 177636.65 L 302338.75 177636.65 L 302338.75 175563.2 L 304105.15 175563.2 L 304105.15 177636.65 L 308674.1 177636.65 L 308674.1 179214.45 L 304105.15 179214.45 L 304105.15 181569.65 L 304105.15 181567.35 Z M 300102 168378 Q 301372.75 170285.85 303374.9 171747.5 Q 305682.95 170169.7 306979 168379.15 L 300102 168379.15 L 300102 168378 Z M 309568.8 167389 Q 308015.15 170403.15 304858.4 172711.2 Q 307520.65 174220 310746.4 174924.95 Q 310134.6 175443.6 309641.25 176409.6 Q 306154.45 175562.05 303376.05 173702.5 Q 300455.05 175491.9 296687.65 176503.9 Q 296310.45 175610.35 295744.65 174997.4 Q 299254.45 174126.85 301914.4 172619.2 Q 299677.65 170711.35 298358.6 168379.15 L 296873.95 168379.15 L 296873.95 166801.35 L 308108.3 166801.35 L 308415.35 166731.2 L 309568.8 167390.15 L 309568.8 167389 Z M 316812.15 170428.45 Q 316081.9 168849.5 314361.5 166871.5 L 315869.15 166212.55 Q 317519.4 168026.1 318412.95 169651.05 L 316812.15 170428.45 Z M 331626.45 171180.55 L 331603.45 172099.4 Q 331107.8 184534.35 330000.35 185853.4 Q 329295.4 186677.95 328047.65 186771.1 Q 326751.6 186889.55 324326.25 186725.1 Q 324230.8 185782.1 323712.15 184911.55 Q 325266.95 185076 327363.4 185076 Q 328047.65 185076 328377.7 184722.95 Q 329319.55 183781.1 329766.9 172923.95 L 321688.15 172923.95 Q 320580.7 181826.1 313210.35 186725.1 Q 312740 186017.85 311844.15 185452.05 Q 318814.3 180907.25 319898.75 172922.8 L 312503.1 172922.8 L 312503.1 171179.4 L 320087.35 171179.4 Q 320180.5 169860.35 320180.5 168352.7 L 320180.5 165597.3 L 321923.9 165597.3 L 321923.9 168375.7 Q 321923.9 169694.75 321853.75 171179.4 L 331627.6 171179.4 L 331626.45 171180.55 Z M 325408.4 181120 Q 324442.4 179094.85 322229.8 176503.9 L 323666.15 175798.95 Q 325951.2 178295.6 326940.2 180273.6 L 325408.4 181121.15 L 325408.4 181120 Z M 335171.4 166493.15 L 337315 166493.15 L 337315 171627.9 L 337244.85 174264.85 Q 339388.45 172121.25 341484.9 172121.25 Q 345393.75 172121.25 345393.75 177138.7 L 345393.75 185240.45 L 343251.3 185240.45 L 343251.3 177420.45 Q 343251.3 174006.1 340825.95 174006.1 Q 339271.15 174006.1 337316.15 175961.1 L 337316.15 185240.45 L 335172.55 185240.45 L 335172.55 166492 L 335171.4 166493.15 Z M 349256.75 183782.25 Q 347466.2 181920.4 347466.2 178857.95 Q 347466.2 175867.95 349232.6 173935.95 Q 350905.85 172122.4 353238.05 172122.4 Q 355639.25 172122.4 357005.45 173747.35 Q 358324.5 175349.3 358324.5 178127.7 Q 358324.5 178740.65 358231.35 179352.45 L 349610.95 179352.45 Q 349706.4 181400.6 350884 182602.35 Q 352037.45 183825.95 353851 183825.95 Q 355547.25 183825.95 357054.9 182813.95 L 357832.3 184227.3 Q 355781.85 185546.35 353592.25 185546.35 Q 350955.3 185546.35 349259.05 183779.95 L 349256.75 183782.25 Z M 356440.8 177822.95 Q 356440.8 173842.8 353261.05 173842.8 Q 351847.7 173842.8 350835.7 174878.95 Q 349776.55 175986.4 349587.95 177822.95 L 356441.95 177822.95 L 356440.8 177822.95 Z M 360413 182697.8 L 360413 166493.15 L 362556.6 166493.15 L 362556.6 182838.1 Q 362556.6 183756.95 363168.4 183756.95 Q 363380 183756.95 363615.75 183710.95 L 363922.8 185358.9 Q 363427.15 185547.5 362673.9 185547.5 Q 360411.85 185547.5 360411.85 182696.65 L 360413 182697.8 Z M 366045 182697.8 L 366045 166493.15 L 368188.6 166493.15 L 368188.6 182838.1 Q 368188.6 183756.95 368800.4 183756.95 Q 369012 183756.95 369247.75 183710.95 L 369554.8 185358.9 Q 369059.15 185547.5 368305.9 185547.5 Q 366043.85 185547.5 366043.85 182696.65 L 366045 182697.8 Z M 372501.55 183782.25 Q 370711 181920.4 370711 178857.95 Q 370711 175772.5 372501.55 173887.65 Q 374172.5 172121.25 376646.15 172121.25 Q 379119.8 172121.25 380790.75 173887.65 Q 382581.3 175772.5 382581.3 178857.95 Q 382581.3 181920.4 380790.75 183782.25 Q 379119.8 185548.65 376646.15 185548.65 Q 374172.5 185548.65 372501.55 183782.25  Z M 379331.4 182416.05 Q 380367.55 181072.85 380367.55 178859.1 Q 380367.55 176646.5 379331.4 175280.3 Q 378319.4 173914.1 376646.15 173914.1 Q 374998.2 173914.1 373962.05 175280.3 Q 372950.05 176646.5 372950.05 178859.1 Q 372950.05 181072.85 373962.05 182416.05 Q 374975.2 183758.1 376646.15 183758.1 Q 378319.4 183758.1 379331.4 182416.05  Z M 385024 167977.8 L 387213.6 167977.8 L 387213.6 185241.6 L 385024 185241.6 L 385024 167977.8 Z M 390672.2 172453.6 L 392438.6 172453.6 L 392627.2 174290.15 L 392697.35 174290.15 Q 394911.1 172122.4 396984.55 172122.4 Q 400893.4 172122.4 400893.4 177139.85 L 400893.4 185241.6 L 398750.95 185241.6 L 398750.95 177421.6 Q 398750.95 174007.25 396325.6 174007.25 Q 394770.8 174007.25 392815.8 175962.25 L 392815.8 185241.6 L 390672.2 185241.6 L 390672.2 172453.6 Z M 404554.05 183805.25 Q 403117.7 182015.85 403117.7 178859.1 Q 403117.7 175844.95 404790.95 173937.1 Q 406368.75 172123.55 408653.8 172123.55 Q 410443.2 172123.55 412256.75 173632.35 L 412138.3 171418.6 L 412138.3 166495.45 L 414281.9 166495.45 L 414281.9 185243.9 L 412538.5 185243.9 L 412326.9 183736.25 L 412279.75 183736.25 Q 410420.2 185549.8 408395.05 185549.8 Q 405969.7 185549.8 404556.35 183806.4 L 404554.05 183805.25 Z M 412137.15 181990.55 L 412137.15 175279.15 Q 410629.5 173935.95 409027.55 173935.95 Q 407449.75 173935.95 406413.6 175279.15 Q 405331.45 176668.35 405331.45 178834.95 Q 405331.45 181167.15 406250.3 182463.2 Q 407169.15 183756.95 408865.4 183756.95 Q 410561.65 183756.95 412139.45 181990.55 L 412137.15 181990.55 Z M 418427.95 183782.25 Q 416637.4 181920.4 416637.4 178857.95 Q 416637.4 175867.95 418403.8 173935.95 Q 420077.05 172122.4 422409.25 172122.4 Q 424810.45 172122.4 426176.65 173747.35 Q 427495.7 175349.3 427495.7 178127.7 Q 427495.7 178740.65 427402.55 179352.45 L 418782.15 179352.45 Q 418877.6 181400.6 420055.2 182602.35 Q 421208.65 183825.95 423022.2 183825.95 Q 424718.45 183825.95 426226.1 182813.95 L 427003.5 184227.3 Q 424953.05 185546.35 422763.45 185546.35 Q 420126.5 185546.35 418430.25 183779.95 L 418427.95 183782.25 Z M 425612 177822.95 Q 425612 173842.8 422432.25 173842.8 Q 421018.9 173842.8 420006.9 174878.95 Q 418947.75 175986.4 418759.15 177822.95 L 425613.15 177822.95 L 425612 177822.95 Z M 430408.75 183782.25 Q 428618.2 181920.4 428618.2 178857.95 Q 428618.2 175867.95 430384.6 173935.95 Q 432057.85 172122.4 434390.05 172122.4 Q 436791.25 172122.4 438157.45 173747.35 Q 439476.5 175349.3 439476.5 178127.7 Q 439476.5 178740.65 439383.35 179352.45 L 430762.95 179352.45 Q 430858.4 181400.6 432036 182602.35 Q 433189.45 183825.95 435003 183825.95 Q 436699.25 183825.95 438206.9 182813.95 L 438984.3 184227.3 Q 436933.85 185546.35 434744.25 185546.35 Q 432107.3 185546.35 430411.05 183779.95 L 430408.75 183782.25 Z M 437592.8 177822.95 Q 437592.8 173842.8 434413.05 173842.8 Q 432999.7 173842.8 431987.7 174878.95 Q 430928.55 175986.4 430739.95 177822.95 L 437593.95 177822.95 L 437592.8 177822.95 Z M 443967.35 178576.2 L 440080.35 172453.6 L 442389.55 172453.6 L 445379.55 177398.6 L 445475 177398.6 L 448207.4 172453.6 L 450444.15 172453.6 L 446557.15 178787.8 L 450774.2 185241.6 L 448419 185241.6 L 446534.15 182250.45 Q 445945.35 181168.3 445167.95 179966.55 L 445049.5 179966.55 L 442012.35 185242.75 L 439750.3 185242.75 L 443967.35 178577.35 L 443967.35 178576.2 Z M 452340 185100.15 Q 451869.65 184629.8 451869.65 183922.55 Q 451869.65 183215.3 452340 182719.65 Q 452787.35 182249.3 453423.3 182249.3 Q 454059.25 182249.3 454529.6 182719.65 Q 454976.95 183215.3 454976.95 183922.55 Q 454976.95 184629.8 454529.6 185100.15 Q 454082.25 185547.5 453423.3 185547.5 Q 452764.35 185547.5 452340 185100.15  Z M 454643.85 190633.95 L 455068.2 188986 Q 455727.15 189221.75 456268.8 189221.75 Q 457869.6 189221.75 457869.6 186700.95 L 457869.6 172453.6 L 460013.2 172453.6 L 460013.2 186700.95 Q 460013.2 190964 456527.55 190964 Q 455538.55 190964 454642.7 190633.95 L 454643.85 190633.95 Z M 457893.75 169414.15 Q 457469.4 169013.95 457469.4 168425.15 Q 457469.4 167035.95 458954.05 167035.95 Q 459590 167035.95 460013.2 167412 Q 460437.55 167789.2 460437.55 168425.15 Q 460437.55 169013.95 460013.2 169414.15 Q 459565.85 169814.35 458954.05 169814.35 Q 458318.1 169814.35 457894.9 169414.15 L 457893.75 169414.15 Z M 461837.45 183782.25 L 462896.6 182368.9 Q 464758.45 183876.55 466689.3 183876.55 Q 467914.05 183876.55 468596 183287.75 Q 469208.95 182746.1 469208.95 181875.55 Q 469208.95 180579.5 466287.95 179447.9 Q 464521.55 178788.95 463721.15 178154.15 Q 462473.4 177188.15 462473.4 175751.8 Q 462473.4 174174 463628 173185 Q 464851.6 172123.55 466876.75 172123.55 Q 468997.35 172123.55 470856.9 173559.9 L 469820.75 174950.25 Q 468290.1 173818.65 466876.75 173818.65 Q 465746.3 173818.65 465110.35 174361.45 Q 464545.7 174854.8 464545.7 175655.2 Q 464545.7 176456.75 465416.25 177021.4 Q 465863.6 177305.45 467371.25 177870.1 Q 469302.1 178600.35 470032.35 179166.15 Q 471282.4 180155.15 471282.4 181757.1 Q 471282.4 183382.05 470080.65 184417.05 Q 468809.9 185548.65 466619.15 185548.65 Q 463982.2 185548.65 461838.6 183782.25 L 461837.45 183782.25 Z M 473536.65 165080.95 Q 478224.05 169838.5 478224.05 176291.15 Q 478224.05 182744.95 473536.65 187502.5 L 472124.45 186771.1 Q 476504.8 182249.3 476504.8 176291.15 Q 476504.8 170333 472124.45 165811.2 L 473536.65 165080.95 Z M 14954.45 216127.2 Q 14931.45 216691.85 14884.3 216950.6 Q 14342.65 224016.2 13306.5 225075.35 Q 12670.55 225759.6 11422.8 225829.75 Q 9963.45 225922.9 7749.7 225781.45 Q 7656.55 224769.45 7113.75 223992.05 Q 8668.55 224133.5 10789.15 224133.5 Q 11542.4 224133.5 11824.15 223874.75 Q 12625.7 223215.8 13071.9 217751 L 4193.9 217775.15 Q 4971.3 214524.1 5489.95 210872.85 L 13097.2 210872.85 L 13097.2 207128.45 L 4618.25 207128.45 L 4618.25 205480.5 L 14816.45 205480.5 L 14816.45 212521.95 L 6973.45 212521.95 L 6338.65 216127.2 L 14957.9 216127.2 L 14954.45 216127.2 Z M 22160.35 204751.4 L 22160.35 226018.35 L 20418.1 226018.35 L 20418.1 204751.4 L 22160.35 204751.4 Z M 32630.6 205010.15 Q 36233.55 207599.95 39790.5 214665.55 Q 43157.7 221426.4 47186.15 223827.6 Q 46550.2 224675.15 46314.45 225759.6 Q 42900.1 223851.75 40474.75 219846.3 Q 39697.35 218552.55 38566.9 216267.5 Q 37223.7 213535.1 36730.35 212639.25 Q 34045.1 221848.45 27214.1 225851.6 Q 26625.3 225144.35 25636.3 224439.4 Q 32985.95 220647.85 35317 210331.2 Q 33646.05 207953 31572.6 206516.65 L 32631.75 205009 L 32630.6 205010.15 Z M 51767.25 212287.35 Q 51225.6 211791.7 51225.6 211014.3 Q 51225.6 210213.9 51767.25 209720.55 Q 52262.9 209224.9 52993.15 209224.9 Q 53723.4 209224.9 54242.05 209720.55 Q 54783.7 210239.2 54783.7 211015.45 Q 54783.7 211792.85 54242.05 212288.5 Q 53723.4 212758.85 52993.15 212758.85 Q 52262.9 212758.85 51767.25 212288.5 L 51767.25 212287.35 Z M 51767.25 223804.6 Q 51225.6 223308.95 51225.6 222531.55 Q 51225.6 221755.3 51767.25 221236.65 Q 52262.9 220764 52993.15 220764 Q 53723.4 220764 54242.05 221236.65 Q 54783.7 221755.3 54783.7 222531.55 Q 54783.7 223308.95 54242.05 223804.6 Q 53723.4 224297.95 52993.15 224297.95 Q 52262.9 224297.95 51767.25 223804.6  Z M 83410.15 207836.85 Q 81266.55 209556.1 79075.8 210569.25 Q 78699.75 210073.6 77945.35 209437.65 Q 82255.55 207671.25 84375 204515.65 L 86141.4 205034.3 Q 85599.75 205741.55 84987.95 206400.5 L 90051.4 206400.5 L 90358.45 206330.35 L 91488.9 206942.15 Q 88521.9 213254.5 78982.65 215396.95 Q 78605.45 214526.4 78112.1 214007.75 Q 81267.7 213371.8 83716.05 212194.2 Q 82915.65 211040.75 81526.45 209886.15 L 82822.5 209132.9 Q 84164.55 210192.05 85107.55 211416.8 Q 87697.35 209885 89063.55 207836.85 L 83411.3 207836.85 L 83410.15 207836.85 Z M 75096.8 204538.65 L 76790.75 204538.65 L 76790.75 225994.2 L 75096.8 225994.2 L 75096.8 217680.85 Q 73094.65 219635.85 71587 220954.9 L 70621 219495.55 Q 72294.25 218176.5 75096.8 215609.7 L 75096.8 211558.25 L 73872.05 212570.25 Q 72953.2 210756.7 70739.45 208637.25 L 71964.2 207695.4 Q 74176.8 209791.85 75096.8 211392.65 L 75096.8 204538.65 Z M 80984.8 218246.65 Q 83174.4 220436.25 84140.4 222368.25 L 82632.75 223238.8 Q 81736.9 221283.8 79593.3 219024.05 L 80983.65 218246.65 L 80984.8 218246.65 Z M 91936.25 217562.4 L 89085.4 217562.4 L 89085.4 223923.05 Q 89085.4 225335.25 88120.55 225712.45 Q 87319 225994.2 84304.85 225994.2 Q 84186.4 225289.25 83740.2 224323.25 Q 85176.55 224370.4 86872.8 224370.4 Q 87366.15 224346.25 87366.15 223898.9 L 87366.15 217563.55 L 77898.2 217563.55 L 77898.2 215939.75 L 87366.15 215939.75 L 87366.15 213041.75 L 89085.4 213041.75 L 89085.4 215939.75 L 91936.25 215939.75 L 91936.25 217563.55 L 91936.25 217562.4 Z M 100050.15 216739 Q 100050.15 217609.55 100166.3 218151.2 Q 94514.05 219471.4 93806.8 219871.6 Q 93642.35 219071.2 93312.3 218339.8 Q 93853.95 218223.65 94936.1 216787.3 Q 95643.35 215939.75 97056.7 213630.55 Q 94089.7 214054.9 93688.35 214266.5 Q 93453.75 213418.95 93123.7 212688.7 Q 93571.05 212595.55 94371.45 211205.2 Q 96208 208168.05 97267.15 204493.8 L 98940.4 205105.6 Q 97408.6 209180.05 95360.45 212359.8 L 97951.4 212078.05 Q 98870.25 210453.1 99316.45 209393.95 L 100729.8 210217.35 Q 98704.65 214245.8 96160.85 217542.85 L 100047.85 216742.45 L 100050.15 216739 Z M 100333.05 221731.15 L 93620.5 224486.55 L 93197.3 222861.6 Q 94539.35 222438.4 100027.15 220318.95 L 100334.2 221731.15 L 100333.05 221731.15 Z M 103535.8 208518.8 L 103535.8 211039.6 L 112132.05 211039.6 L 112132.05 208518.8 L 103535.8 208518.8 Z M 103535.8 212521.95 Q 103488.65 221166.5 100944.85 225618.15 Q 100403.2 225029.35 99602.8 224628 Q 101933.85 220506.4 101933.85 212121.75 L 101933.85 207035.3 L 107398.65 207035.3 Q 106974.3 205857.7 106385.5 204844.55 L 108035.75 204351.2 Q 108859.15 205740.4 109259.35 207036.45 L 113758.15 207036.45 L 113758.15 212523.1 L 103536.95 212523.1 L 103535.8 212521.95 Z M 112602.4 219401.25 L 112602.4 215961.6 L 110860.15 215961.6 L 110860.15 219401.25 L 112602.4 219401.25 Z M 109682.55 219401.25 L 109682.55 215961.6 L 107986.3 215961.6 L 107986.3 219401.25 L 109682.55 219401.25 Z M 106809.85 219401.25 L 106809.85 215961.6 L 104877.85 215961.6 L 104877.85 219401.25 L 106809.85 219401.25 Z M 113968.6 214502.25 L 113968.6 224323.25 Q 113968.6 225289.25 113449.95 225571 Q 113049.75 225805.6 111683.55 225805.6 Q 111567.4 225170.8 111260.35 224534.85 L 112367.8 224534.85 Q 112602.4 224534.85 112602.4 224299.1 L 112602.4 220813.45 L 110860.15 220813.45 L 110860.15 225216.8 L 109682.55 225216.8 L 109682.55 220813.45 L 107986.3 220813.45 L 107986.3 225242.1 L 106808.7 225242.1 L 106808.7 220813.45 L 104876.7 220813.45 L 104876.7 225805.6 L 103487.5 225805.6 L 103487.5 214525.25 L 112601.25 214525.25 L 112601.25 214502.25 L 113967.45 214502.25 L 113968.6 214502.25 Z M 119868.75 209980.45 Q 119021.2 208284.2 117136.35 205904.85 L 118456.55 205057.3 Q 120387.4 207319.35 121283.25 208967.3 L 119869.9 209980.45 L 119868.75 209980.45 Z M 130844.35 220530.55 L 136802.5 220530.55 L 136802.5 222131.35 L 130844.35 222131.35 L 130844.35 225971.2 L 129077.95 225971.2 L 129077.95 222131.35 L 123283.1 222131.35 L 123283.1 221826.6 Q 119445.55 224863.75 118998.2 225475.55 L 118975.2 225405.4 Q 118527.85 224605 118009.2 224157.65 Q 119162.65 223310.1 119162.65 221873.75 L 119162.65 213514.4 L 115865.6 213514.4 L 115865.6 211841.15 L 120857.75 211818.15 L 120857.75 221732.3 L 122671.3 220343.1 Q 122930.05 221050.35 123283.1 221615 L 123283.1 220532.85 L 129077.95 220532.85 L 129077.95 218177.65 L 124414.7 218177.65 L 124414.7 216599.85 L 129077.95 216599.85 L 129077.95 214526.4 L 130844.35 214526.4 L 130844.35 216599.85 L 135413.3 216599.85 L 135413.3 218177.65 L 130844.35 218177.65 L 130844.35 220532.85 L 130844.35 220530.55 Z M 126841.2 207341.2 Q 128111.95 209249.05 130114.1 210710.7 Q 132422.15 209132.9 133718.2 207342.35 L 126841.2 207342.35 L 126841.2 207341.2 Z M 136308 206352.2 Q 134754.35 209366.35 131597.6 211674.4 Q 134259.85 213183.2 137485.6 213888.15 Q 136873.8 214406.8 136380.45 215372.8 Q 132893.65 214525.25 130115.25 212665.7 Q 127194.25 214455.1 123426.85 215467.1 Q 123049.65 214573.55 122483.85 213960.6 Q 125993.65 213090.05 128653.6 211582.4 Q 126416.85 209674.55 125097.8 207342.35 L 123613.15 207342.35 L 123613.15 205764.55 L 134847.5 205764.55 L 135154.55 205694.4 L 136308 206353.35 L 136308 206352.2 Z M 146329.75 217657.85 L 146329.75 223192.8 L 156057.6 223192.8 L 156057.6 217657.85 L 146329.75 217657.85 Z M 144588.65 216008.75 L 157872.3 216008.75 L 157872.3 225994.2 L 156058.75 225994.2 L 156058.75 224816.6 L 146330.9 224816.6 L 146330.9 226041.35 L 144588.65 226041.35 L 144588.65 216008.75 Z M 159613.4 210969.45 L 159613.4 212665.7 L 142608.35 212665.7 Q 142608.35 221639.15 139499.9 226065.5 Q 138840.95 225242.1 138063.55 224864.9 Q 140818.95 220979.05 140818.95 212665.7 L 140818.95 206612.1 Q 151582.95 205930.15 156504.95 204705.4 L 157964.3 206094.6 Q 152571.95 207413.65 142608.35 208072.6 L 142608.35 210970.6 L 159613.4 210970.6 L 159613.4 210969.45 Z M 168410.4 209837.85 L 163465.4 209837.85 L 163465.4 214761 L 168410.4 214761 L 168410.4 209837.85 Z M 168410.4 221968.05 L 168410.4 216314.65 L 163465.4 216314.65 L 163465.4 221968.05 L 168410.4 221968.05 Z M 167328.25 204797.4 Q 166292.1 207765.55 166103.5 208258.9 L 170013.5 208258.9 L 170013.5 223544.7 L 163466.55 223544.7 L 163466.55 225404.25 L 161864.6 225404.25 L 161864.6 208258.9 L 164503.85 208258.9 Q 165211.1 205973.85 165445.7 204443.2 L 167330.55 204796.25 L 167328.25 204797.4 Z M 181529.6 209084.6 Q 181033.95 223215.8 179903.5 224605 Q 179244.55 225429.55 178043.95 225548 Q 177077.95 225664.15 174557.15 225522.7 Q 174464 224556.7 173968.35 223803.45 Q 175500.15 223944.9 177455.15 223944.9 Q 178137.1 223944.9 178418.85 223591.85 Q 179432 222507.4 179855.2 209812.55 L 173874.05 209812.55 Q 172789.6 212426.5 171659.15 213934.15 Q 171352.1 213652.4 170221.65 212945.15 Q 172529.7 209905.7 173825.75 204394.9 L 175499 204795.1 Q 175051.65 206631.65 174485.85 208186.45 L 181528.45 208186.45 L 181528.45 209082.3 L 181529.6 209084.6 Z M 176323.55 219706 Q 175241.4 217516.4 172744.75 214265.35 L 174110.95 213464.95 Q 176700.75 216762 177808.2 218787.15 L 176323.55 219706 Z M 181235.85 229597.15 L 181660.2 227949.2 Q 182319.15 228184.95 182860.8 228184.95 Q 184461.6 228184.95 184461.6 225664.15 L 184461.6 211416.8 L 186605.2 211416.8 L 186605.2 225664.15 Q 186605.2 229927.2 183119.55 229927.2 Q 182130.55 229927.2 181234.7 229597.15 L 181235.85 229597.15 Z M 184485.75 208377.35 Q 184061.4 207977.15 184061.4 207388.35 Q 184061.4 205999.15 185546.05 205999.15 Q 186182 205999.15 186605.2 206375.2 Q 187029.55 206752.4 187029.55 207388.35 Q 187029.55 207977.15 186605.2 208377.35 Q 186157.85 208777.55 185546.05 208777.55 Q 184910.1 208777.55 184486.9 208377.35 L 184485.75 208377.35 Z M 188429.45 222745.45 L 189488.6 221332.1 Q 191350.45 222839.75 193281.3 222839.75 Q 194506.05 222839.75 195188 222250.95 Q 195800.95 221709.3 195800.95 220838.75 Q 195800.95 219542.7 192879.95 218411.1 Q 191113.55 217752.15 190313.15 217117.35 Q 189065.4 216151.35 189065.4 214715 Q 189065.4 213137.2 190220 212148.2 Q 191443.6 211086.75 193468.75 211086.75 Q 195589.35 211086.75 197448.9 212523.1 L 196412.75 213913.45 Q 194882.1 212781.85 193468.75 212781.85 Q 192338.3 212781.85 191702.35 213324.65 Q 191137.7 213818 191137.7 214618.4 Q 191137.7 215419.95 192008.25 215984.6 Q 192455.6 216268.65 193963.25 216833.3 Q 195894.1 217563.55 196624.35 218129.35 Q 197874.4 219118.35 197874.4 220720.3 Q 197874.4 222345.25 196672.65 223380.25 Q 195401.9 224511.85 193211.15 224511.85 Q 190574.2 224511.85 188430.6 222745.45 L 188429.45 222745.45 Z M 209337.85 208588.95 Q 208867.5 206964 207594.45 204892.85 L 209408 204374.2 Q 210751.2 206470.65 211244.55 207978.3 L 209336.7 208590.1 L 209337.85 208588.95 Z M 204344.55 210355.35 Q 206252.4 215019.75 209478.15 218245.5 Q 212563.6 215135.9 214330 210355.35 L 204344.55 210355.35 Z M 216308 210355.35 Q 214330 215820.15 210797.2 219471.4 Q 214872.8 222908.75 220313.45 224251.95 Q 219724.65 224816.6 219111.7 225878.05 Q 213389.3 224253.1 209456.3 220720.3 Q 205639.45 224064.5 199658.3 225972.35 Q 199210.95 225053.5 198575 224346.25 Q 204369.85 222698.3 208184.4 219472.55 Q 204628.6 215821.3 202532.15 210356.5 L 198903.9 210356.5 L 198903.9 208637.25 L 220007.55 208637.25 L 220007.55 210356.5 L 216309.15 210356.5 L 216308 210355.35 Z M 228167.45 205104.45 Q 227085.3 207907 225837.55 210192.05 L 225837.55 225971.2 L 224164.3 225971.2 L 224164.3 212899.15 Q 223293.75 214195.2 221997.7 215654.55 Q 221667.65 214784 221008.7 213936.45 Q 224518.5 210262.2 226519.5 204585.8 L 228167.45 205104.45 Z M 242487.25 217893.6 L 236105.9 217893.6 L 236105.9 226018.35 L 234362.5 226018.35 L 234362.5 217893.6 L 227649.95 217893.6 L 227649.95 216173.2 L 234362.5 216173.2 L 234362.5 211015.45 L 230665.25 211015.45 Q 229887.85 213183.2 228969 214595.4 Q 228380.2 214148.05 227461.35 213700.7 Q 229415.2 210992.45 230358.2 205670.25 L 232006.15 206023.3 Q 231676.1 207742.55 231228.75 209297.35 L 234361.35 209297.35 L 234361.35 204798.55 L 236104.75 204798.55 L 236104.75 209297.35 L 241474.1 209297.35 L 241474.1 211016.6 L 236104.75 211016.6 L 236104.75 216174.35 L 242486.1 216174.35 L 242486.1 217894.75 L 242487.25 217893.6 Z M 255594.45 216127.2 Q 255571.45 216691.85 255524.3 216950.6 Q 254982.65 224016.2 253946.5 225075.35 Q 253310.55 225759.6 252062.8 225829.75 Q 250603.45 225922.9 248389.7 225781.45 Q 248296.55 224769.45 247753.75 223992.05 Q 249308.55 224133.5 251429.15 224133.5 Q 252182.4 224133.5 252464.15 223874.75 Q 253265.7 223215.8 253711.9 217751 L 244833.9 217775.15 Q 245611.3 214524.1 246129.95 210872.85 L 253737.2 210872.85 L 253737.2 207128.45 L 245258.25 207128.45 L 245258.25 205480.5 L 255456.45 205480.5 L 255456.45 212521.95 L 247613.45 212521.95 L 246978.65 216127.2 L 255597.9 216127.2 L 255594.45 216127.2 Z M 262800.35 204751.4 L 262800.35 226018.35 L 261058.1 226018.35 L 261058.1 204751.4 L 262800.35 204751.4 Z M 273270.6 205010.15 Q 276873.55 207599.95 280430.5 214665.55 Q 283797.7 221426.4 287826.15 223827.6 Q 287190.2 224675.15 286954.45 225759.6 Q 283540.1 223851.75 281114.75 219846.3 Q 280337.35 218552.55 279206.9 216267.5 Q 277863.7 213535.1 277370.35 212639.25 Q 274685.1 221848.45 267854.1 225851.6 Q 267265.3 225144.35 266276.3 224439.4 Q 273625.95 220647.85 275957 210331.2 Q 274286.05 207953 272212.6 206516.65 L 273271.75 205009 L 273270.6 205010.15 Z M 292713.15 209273.2 Q 291724.15 207765.55 289769.15 206069.3 L 290923.75 205173.45 Q 292971.9 206869.7 293937.9 208235.9 L 292713.15 209272.05 L 292713.15 209273.2 Z M 292054.2 215325.65 Q 290995.05 214006.6 288804.3 212428.8 L 289911.75 211416.8 Q 292102.5 212899.15 293184.65 214195.2 L 292054.2 215325.65 Z M 293797.6 218269.65 Q 292218.65 222391.25 290759.3 225289.25 L 289299.95 224370.4 Q 290970.9 221283.8 292478.55 217327.8 L 293798.75 218269.65 L 293797.6 218269.65 Z M 298342.4 208518.8 L 302911.35 208518.8 L 302911.35 210096.6 L 301379.55 210096.6 Q 300767.75 214102.05 299731.6 217304.8 Q 301639.45 220390.25 302370.85 222368.25 L 300957.5 223357.25 Q 300275.55 221472.4 298979.5 219282.8 Q 297331.55 223192.8 294645.15 225594 Q 294174.8 224935.05 293421.55 224323.25 Q 296341.4 221897.9 297966.35 217517.55 Q 296318.4 214855.3 294787.75 212853.15 L 296035.5 212029.75 Q 297377.55 213773.15 298602.3 215585.55 Q 299332.55 212948.6 299756.9 210097.75 L 294339.25 210097.75 L 294339.25 208519.95 L 298295.25 208519.95 Q 297613.3 206800.7 296717.45 205293.05 L 298153.8 204704.25 Q 299308.4 206517.8 299827.05 207859.85 L 298342.4 208518.8 Z M 305408 220907.75 L 303877.35 220907.75 L 303877.35 207011.15 L 305408 207011.15 L 305408 220907.75 Z M 309293.85 204492.65 L 309293.85 224039.2 Q 309293.85 225335.25 308493.45 225735.45 Q 307786.2 226042.5 305478.15 226042.5 Q 305359.7 225335.25 304959.5 224487.7 Q 306773.05 224534.85 307266.4 224487.7 Q 307690.75 224487.7 307690.75 224064.5 L 307690.75 204492.65 L 309291.55 204492.65 L 309293.85 204492.65 Z M 324521.65 208472.8 Q 323602.8 210803.85 322401.05 212381.65 Q 321530.5 211769.85 320918.7 211488.1 Q 322966.85 208990.3 324051.3 204492.65 L 325747.55 204822.7 Q 325393.35 206093.45 325111.6 206893.85 L 332200.2 206893.85 L 332200.2 208472.8 L 324522.8 208472.8 L 324521.65 208472.8 Z M 326899.85 208896 Q 328996.3 210755.55 330055.45 212546.1 L 328501.8 213323.5 Q 327558.8 211532.95 325415.2 209507.8 L 326899.85 208896 Z M 319645.65 213183.2 L 317926.4 213183.2 L 317926.4 204727.25 L 319645.65 204727.25 L 319645.65 213183.2 Z M 316655.65 221330.95 L 314935.25 221330.95 L 314935.25 213888.15 L 329466.65 213888.15 L 329466.65 221189.5 L 327677.25 221189.5 L 327677.25 215442.95 L 316655.65 215442.95 L 316655.65 221330.95 Z M 314746.65 212405.8 L 313050.4 212405.8 L 313050.4 205810.55 L 314746.65 205810.55 L 314746.65 212405.8 Z M 329536.8 224181.8 Q 330221.05 224181.8 330432.65 223757.45 Q 330644.25 223334.25 330691.4 221756.45 Q 331303.2 222156.65 332246.2 222391.25 Q 332080.6 224370.4 331561.95 225005.2 Q 331068.6 225664.15 329679.4 225664.15 L 325580.8 225664.15 Q 323861.55 225664.15 323295.75 225240.95 Q 322706.95 224793.6 322706.95 223545.85 L 322706.95 219847.45 Q 321694.95 223993.2 313027.4 226064.35 Q 312604.2 225240.95 311919.95 224652.15 Q 317573.35 223450.4 319692.8 221519.55 Q 321059 220248.8 321059 218316.8 L 321059 216503.25 L 322848.4 216503.25 L 322848.4 218365.1 Q 322848.4 219118.35 322683.95 219848.6 L 324450.35 219848.6 L 324450.35 223524 Q 324450.35 223947.2 324684.95 224065.65 Q 324920.7 224184.1 325745.25 224184.1 L 329535.65 224184.1 L 329536.8 224181.8 Z M 351664.6 207059.45 L 347308.4 207059.45 L 347308.4 210380.65 L 351664.6 210380.65 L 351664.6 207059.45 Z M 353360.85 211887.15 L 345683.45 211887.15 L 345683.45 205551.8 L 353360.85 205551.8 L 353360.85 211887.15 Z M 351382.85 223781.6 L 351382.85 220318.95 L 347214.1 220318.95 L 347214.1 223781.6 L 351382.85 223781.6 Z M 341725.15 220318.95 L 337816.3 220318.95 L 337816.3 223781.6 L 341725.15 223781.6 L 341725.15 220318.95 Z M 341490.55 207059.45 L 337321.8 207059.45 L 337321.8 210380.65 L 341490.55 210380.65 L 341490.55 207059.45 Z M 348720.6 215820.15 Q 351453 218033.9 355527.45 219045.9 Q 354915.65 219564.55 354420 220435.1 Q 353526.45 220153.35 353079.1 219988.9 L 353079.1 225876.9 L 351382.85 225876.9 L 351382.85 225311.1 L 347214.1 225311.1 L 347214.1 225993.05 L 345589.15 225993.05 L 345589.15 218786 L 350465.15 218786 Q 348180.1 217538.25 346532.15 215819 L 342128.8 215819 Q 340503.85 217515.25 338430.4 218786 L 343399.55 218786 L 343399.55 225875.75 L 341726.3 225875.75 L 341726.3 225309.95 L 337817.45 225309.95 L 337817.45 225991.9 L 336192.5 225991.9 L 336192.5 220010.75 Q 335156.35 220481.1 334590.55 220692.7 Q 334331.8 219962.45 333649.85 219373.65 Q 337252.8 218031.6 339819.6 215817.85 L 334073.05 215817.85 L 334073.05 214263.05 L 341327.25 214263.05 Q 342270.25 213180.9 342905.05 211884.85 L 335746.3 211884.85 L 335746.3 205549.5 L 343164.95 205549.5 L 343164.95 211626.1 L 344838.2 211956.15 Q 344226.4 213156.75 343424.85 214264.2 L 349997.1 214264.2 Q 348749.35 213439.65 347194.55 212850.85 L 348113.4 211932 Q 350280 212663.4 351576.05 213675.4 L 351010.25 214264.2 L 355085.85 214264.2 L 355085.85 215819 L 348725.2 215819 L 348720.6 215820.15 Z M 363148 219424.25 L 363429.75 220979.05 Q 360108.55 222226.8 356717.2 223404.4 L 356269.85 221779.45 L 359167.85 220813.45 L 359167.85 214478.1 L 356742.5 214478.1 L 356742.5 212853.15 L 359167.85 212853.15 L 359167.85 207719.55 L 356388.3 207719.55 L 356388.3 206118.75 L 363360.75 206118.75 L 363360.75 207719.55 L 360793.95 207719.55 L 360793.95 212853.15 L 362865.1 212853.15 L 362865.1 214478.1 L 360793.95 214478.1 L 360793.95 220249.95 L 363149.15 219425.4 L 363148 219424.25 Z M 372544.65 211674.4 Q 375913 215349.8 377443.65 217821.15 L 376007.3 218905.6 Q 374522.65 216314.65 371225.6 212570.25 L 372544.65 211674.4 Z M 377490.8 206022.15 L 377490.8 207695.4 L 372426.2 207695.4 Q 371837.4 209414.65 371202.6 210662.4 L 371202.6 225948.2 L 369482.2 225948.2 L 369482.2 213865.15 Q 367481.2 217090.9 365078.85 219187.35 Q 364608.5 218552.55 363712.65 217821.15 Q 368116 214288.35 370543.65 207695.4 L 364560.2 207695.4 L 364560.2 206022.15 L 377490.8 206022.15 Z M 398982.65 207718.4 L 387229.65 207718.4 L 387229.65 206233.75 L 392317.25 206233.75 L 391658.3 204680.1 L 393283.25 204373.05 Q 393753.6 205314.9 394083.65 206233.75 L 398982.65 206233.75 L 398982.65 207718.4 Z M 399594.45 212005.6 L 386522.4 212005.6 L 386522.4 210496.8 L 389843.6 210496.8 Q 389655 209484.8 389113.35 208237.05 L 390549.7 207930 Q 391231.65 209577.95 391397.25 210262.2 L 390526.7 210496.8 L 394435.55 210496.8 Q 395096.8 209084.6 395426.85 208000.15 L 397050.65 208354.35 L 396015.65 210496.8 L 399594.45 210496.8 L 399594.45 212005.6 Z M 386192.35 220176.35 Q 383132.2 221426.4 379315.35 222885.75 L 378750.7 221119.35 Q 379858.15 220765.15 381694.7 220106.2 L 381694.7 211863 L 379103.75 211863 L 379103.75 210215.05 L 381694.7 210215.05 L 381694.7 204774.4 L 383390.95 204774.4 L 383390.95 210215.05 L 385676 210215.05 L 385676 211863 L 383390.95 211863 L 383390.95 219494.4 L 385862.3 218575.55 L 386192.35 220176.35 Z M 389278.95 218694 L 396674.6 218694 L 396674.6 217116.2 L 389278.95 217116.2 L 389278.95 218694 Z M 389278.95 215961.6 L 396674.6 215961.6 L 396674.6 214430.95 L 389278.95 214430.95 L 389278.95 215961.6 Z M 397475 224323.25 Q 398110.95 224323.25 398275.4 224227.8 Q 398582.45 224157.65 398700.9 223734.45 Q 398746.9 223357.25 398794.05 221732.3 Q 399382.85 222227.95 400207.4 222486.7 Q 400111.95 224228.95 399923.35 224771.75 Q 399618.6 225336.4 399052.8 225502 Q 398487 225690.6 397616.45 225690.6 L 396038.65 225690.6 Q 394931.2 225690.6 394435.55 225290.4 Q 393846.75 224889.05 393846.75 223381.4 L 393846.75 219895.75 L 391750.3 219895.75 Q 391445.55 222558 390290.95 223877.05 Q 388971.9 225361.7 385886.45 226091.95 Q 385579.4 225337.55 384967.6 224725.75 Q 387723 224159.95 388853.45 223052.5 Q 389866.6 222040.5 390101.2 219896.9 L 387652.85 219896.9 L 387652.85 213231.5 L 398344.4 213231.5 L 398344.4 219896.9 L 395495.85 219896.9 L 395495.85 223548.15 Q 395495.85 224136.95 395707.45 224207.1 Q 395896.05 224325.55 396343.4 224325.55 L 397473.85 224325.55 L 397475 224323.25 Z M 406813.65 225523.85 Q 404505.6 222627 401608.75 220271.8 L 403139.4 218928.6 Q 405776.35 221049.2 408415.6 224157.65 L 406813.65 225523.85 Z M 430684.85 216431.95 L 430684.85 212475.95 L 427127.9 212475.95 L 427127.9 213772 Q 427127.9 214548.25 427081.9 216433.1 L 430684.85 216433.1 L 430684.85 216431.95 Z M 427126.75 206988.15 L 427126.75 210851 L 430683.7 210851 L 430683.7 206988.15 L 427126.75 206988.15 Z M 432309.8 223923.05 Q 432309.8 225289.25 431508.25 225689.45 Q 430873.45 226019.5 428399.8 226019.5 Q 428304.35 225146.65 427881.15 224346.25 Q 429740.7 224393.4 430236.35 224346.25 Q 430683.7 224323.25 430683.7 223898.9 L 430683.7 218106.35 L 426985.3 218106.35 Q 426585.1 223239.95 425218.9 226042.5 Q 424677.25 225549.15 423781.4 225194.95 Q 425524.8 221662.15 425524.8 213773.15 L 425524.8 205364.35 L 432308.65 205364.35 L 432308.65 223924.2 L 432309.8 223923.05 Z M 438150.65 214995.6 Q 439139.65 218009.75 440717.45 220271.8 Q 442272.25 217963.75 443072.65 214995.6 L 438150.65 214995.6 Z M 444979.35 213676.55 Q 444085.8 218316.8 441753.6 221613.85 Q 443520 223639 445686.6 224700.45 Q 445050.65 225216.8 444557.3 226041.35 Q 442436.7 224840.75 440742.75 222861.6 Q 439163.8 224723.45 437185.8 225878.05 Q 436715.45 225076.5 436149.65 224583.15 Q 438128.8 223498.7 439752.6 221590.85 Q 437844.75 218835.45 436621.15 214995.6 L 436032.35 214995.6 L 436032.35 226018.35 L 434382.1 226018.35 L 434382.1 205433.35 L 444321.55 205433.35 L 444321.55 209955.15 Q 444321.55 211228.2 443402.7 211558.25 Q 442649.45 211792.85 439705.45 211792.85 Q 439610 211158.05 439139.65 210310.5 Q 441565 210356.5 442153.8 210310.5 Q 442624.15 210310.5 442624.15 209933.3 L 442624.15 207059.45 L 436031.2 207059.45 L 436031.2 213370.65 L 443661.45 213370.65 L 443968.5 213324.65 L 444980.5 213677.7 L 444979.35 213676.55 Z M 465836.4 217562.4 Q 465812.25 218105.2 465742.1 218339.8 Q 465083.15 224016.2 463905.55 225100.65 Q 463293.75 225665.3 461997.7 225735.45 Q 460372.75 225782.6 458513.2 225664.15 Q 458466.05 224840.75 457972.7 224110.5 Q 459714.95 224274.95 461528.5 224274.95 Q 462258.75 224274.95 462540.5 224063.35 Q 463413.35 223356.1 463955 219093.05 L 456819.25 219093.05 Q 454771.1 224296.8 447821.65 225970.05 Q 447398.45 225074.2 446856.8 224485.4 Q 453097.85 223284.8 454957.4 219093.05 L 448480.6 219093.05 L 448480.6 217561.25 L 455500.2 217561.25 Q 455830.25 216360.65 455948.7 215230.2 L 457761.1 215371.65 Q 457596.65 216383.65 457312.6 217561.25 L 465839.85 217561.25 L 465836.4 217562.4 Z M 453071.4 208754.55 Q 454553.75 210614.1 457404.6 211838.85 Q 460960.4 210402.5 462938.4 208424.5 L 453424.45 208424.5 L 453071.4 208754.55 Z M 465647.8 207552.8 Q 463692.8 210496.8 459452.75 212570.25 Q 462915.4 213629.4 467955.85 213936.45 Q 467391.2 214572.4 466989.85 215514.25 Q 461197.3 215020.9 457382.75 213441.95 Q 453237 215066.9 447301.85 215797.15 Q 447090.25 214950.75 446596.9 214266.5 Q 451471.75 213796.15 455451.9 212523.1 Q 453355.45 211369.65 451942.1 209744.7 Q 450648.35 210803.85 448716.35 211911.3 Q 448197.7 211040.75 447631.9 210616.4 Q 452226.15 208285.35 454462.9 204468.5 L 456299.45 204845.7 Q 455499.05 206046.3 454791.8 206919.15 L 464282.75 206919.15 L 464589.8 206823.7 L 465648.95 207553.95 L 465647.8 207552.8 Z M 486832.6 207059.45 L 482476.4 207059.45 L 482476.4 210380.65 L 486832.6 210380.65 L 486832.6 207059.45 Z M 488528.85 211887.15 L 480851.45 211887.15 L 480851.45 205551.8 L 488528.85 205551.8 L 488528.85 211887.15 Z M 486550.85 223781.6 L 486550.85 220318.95 L 482382.1 220318.95 L 482382.1 223781.6 L 486550.85 223781.6 Z M 476893.15 220318.95 L 472984.3 220318.95 L 472984.3 223781.6 L 476893.15 223781.6 L 476893.15 220318.95 Z M 476658.55 207059.45 L 472489.8 207059.45 L 472489.8 210380.65 L 476658.55 210380.65 L 476658.55 207059.45 Z M 483888.6 215820.15 Q 486621 218033.9 490695.45 219045.9 Q 490083.65 219564.55 489588 220435.1 Q 488694.45 220153.35 488247.1 219988.9 L 488247.1 225876.9 L 486550.85 225876.9 L 486550.85 225311.1 L 482382.1 225311.1 L 482382.1 225993.05 L 480757.15 225993.05 L 480757.15 218786 L 485633.15 218786 Q 483348.1 217538.25 481700.15 215819 L 477296.8 215819 Q 475671.85 217515.25 473598.4 218786 L 478567.55 218786 L 478567.55 225875.75 L 476894.3 225875.75 L 476894.3 225309.95 L 472985.45 225309.95 L 472985.45 225991.9 L 471360.5 225991.9 L 471360.5 220010.75 Q 470324.35 220481.1 469758.55 220692.7 Q 469499.8 219962.45 468817.85 219373.65 Q 472420.8 218031.6 474987.6 215817.85 L 469241.05 215817.85 L 469241.05 214263.05 L 476495.25 214263.05 Q 477438.25 213180.9 478073.05 211884.85 L 470914.3 211884.85 L 470914.3 205549.5 L 478332.95 205549.5 L 478332.95 211626.1 L 480006.2 211956.15 Q 479394.4 213156.75 478592.85 214264.2 L 485165.1 214264.2 Q 483917.35 213439.65 482362.55 212850.85 L 483281.4 211932 Q 485448 212663.4 486744.05 213675.4 L 486178.25 214264.2 L 490253.85 214264.2 L 490253.85 215819 L 483893.2 215819 L 483888.6 215820.15 Z M 498316 219424.25 L 498597.75 220979.05 Q 495276.55 222226.8 491885.2 223404.4 L 491437.85 221779.45 L 494335.85 220813.45 L 494335.85 214478.1 L 491910.5 214478.1 L 491910.5 212853.15 L 494335.85 212853.15 L 494335.85 207719.55 L 491556.3 207719.55 L 491556.3 206118.75 L 498528.75 206118.75 L 498528.75 207719.55 L 495961.95 207719.55 L 495961.95 212853.15 L 498033.1 212853.15 L 498033.1 214478.1 L 495961.95 214478.1 L 495961.95 220249.95 L 498317.15 219425.4 L 498316 219424.25 Z M 507712.65 211674.4 Q 511081 215349.8 512611.65 217821.15 L 511175.3 218905.6 Q 509690.65 216314.65 506393.6 212570.25 L 507712.65 211674.4 Z M 512658.8 206022.15 L 512658.8 207695.4 L 507594.2 207695.4 Q 507005.4 209414.65 506370.6 210662.4 L 506370.6 225948.2 L 504650.2 225948.2 L 504650.2 213865.15 Q 502649.2 217090.9 500246.85 219187.35 Q 499776.5 218552.55 498880.65 217821.15 Q 503284 214288.35 505711.65 207695.4 L 499728.2 207695.4 L 499728.2 206022.15 L 512658.8 206022.15 Z M 534150.65 207718.4 L 522397.65 207718.4 L 522397.65 206233.75 L 527485.25 206233.75 L 526826.3 204680.1 L 528451.25 204373.05 Q 528921.6 205314.9 529251.65 206233.75 L 534150.65 206233.75 L 534150.65 207718.4 Z M 534762.45 212005.6 L 521690.4 212005.6 L 521690.4 210496.8 L 525011.6 210496.8 Q 524823 209484.8 524281.35 208237.05 L 525717.7 207930 Q 526399.65 209577.95 526565.25 210262.2 L 525694.7 210496.8 L 529603.55 210496.8 Q 530264.8 209084.6 530594.85 208000.15 L 532218.65 208354.35 L 531183.65 210496.8 L 534762.45 210496.8 L 534762.45 212005.6 Z M 521360.35 220176.35 Q 518300.2 221426.4 514483.35 222885.75 L 513918.7 221119.35 Q 515026.15 220765.15 516862.7 220106.2 L 516862.7 211863 L 514271.75 211863 L 514271.75 210215.05 L 516862.7 210215.05 L 516862.7 204774.4 L 518558.95 204774.4 L 518558.95 210215.05 L 520844 210215.05 L 520844 211863 L 518558.95 211863 L 518558.95 219494.4 L 521030.3 218575.55 L 521360.35 220176.35 Z M 524446.95 218694 L 531842.6 218694 L 531842.6 217116.2 L 524446.95 217116.2 L 524446.95 218694 Z M 524446.95 215961.6 L 531842.6 215961.6 L 531842.6 214430.95 L 524446.95 214430.95 L 524446.95 215961.6 Z M 532643 224323.25 Q 533278.95 224323.25 533443.4 224227.8 Q 533750.45 224157.65 533868.9 223734.45 Q 533914.9 223357.25 533962.05 221732.3 Q 534550.85 222227.95 535375.4 222486.7 Q 535279.95 224228.95 535091.35 224771.75 Q 534786.6 225336.4 534220.8 225502 Q 533655 225690.6 532784.45 225690.6 L 531206.65 225690.6 Q 530099.2 225690.6 529603.55 225290.4 Q 529014.75 224889.05 529014.75 223381.4 L 529014.75 219895.75 L 526918.3 219895.75 Q 526613.55 222558 525458.95 223877.05 Q 524139.9 225361.7 521054.45 226091.95 Q 520747.4 225337.55 520135.6 224725.75 Q 522891 224159.95 524021.45 223052.5 Q 525034.6 222040.5 525269.2 219896.9 L 522820.85 219896.9 L 522820.85 213231.5 L 533512.4 213231.5 L 533512.4 219896.9 L 530663.85 219896.9 L 530663.85 223548.15 Q 530663.85 224136.95 530875.45 224207.1 Q 531064.05 224325.55 531511.4 224325.55 L 532641.85 224325.55 L 532643 224323.25 Z M 555782.8 208237.05 Q 554416.6 206918 551802.65 205670.25 L 552815.8 204585.8 Q 555452.75 205763.4 556866.1 207011.15 L 555781.65 208235.9 L 555782.8 208237.05 Z M 547586.75 222179.65 Q 539696.6 223875.9 537411.55 224394.55 L 537081.5 222628.15 Q 542193.25 221639.15 547445.3 220531.7 L 547586.75 222179.65 Z M 544972.8 213583.4 L 540192.25 213583.4 L 540192.25 217657.85 L 544972.8 217657.85 L 544972.8 213583.4 Z M 546692.05 212051.6 L 546692.05 219164.35 L 538567.3 219164.35 L 538567.3 212051.6 L 546692.05 212051.6 Z M 556583.2 212075.75 Q 555052.55 216832.15 552415.6 220318.95 Q 553804.8 224204.8 555501.05 224204.8 Q 556396.9 224204.8 556584.35 219847.45 Q 557245.6 220554.7 558116.15 220838.75 Q 557880.4 223828.75 557291.6 224936.2 Q 556702.8 226020.65 555336.6 226020.65 Q 552793.95 226020.65 551097.7 221945.05 Q 548906.95 224347.4 546128.55 225995.35 Q 545515.6 225217.95 544762.35 224653.3 Q 548059.4 222909.9 550414.6 220036.05 Q 549261.15 216198.5 548765.5 209980.45 L 537201.1 209980.45 L 537201.1 208260.05 L 548672.35 208260.05 Q 548599.9 207036.45 548553.9 204562.8 L 550390.45 204562.8 Q 550390.45 206447.65 550460.6 208260.05 L 557526.2 208260.05 L 557526.2 209980.45 L 550579.05 209980.45 Q 550955.1 214902.45 551802.65 218199.5 Q 553734.65 215279.65 554842.1 211651.4 L 556584.35 212075.75 L 556583.2 212075.75 Z M 565475.65 219352.95 L 574189.2 219352.95 L 574189.2 216786.15 L 565475.65 216786.15 L 565475.65 219352.95 Z M 565475.65 208896 L 565475.65 211228.2 L 574189.2 211228.2 L 574189.2 208896 L 565475.65 208896 Z M 565475.65 215279.65 L 574189.2 215279.65 L 574189.2 212735.85 L 565475.65 212735.85 L 565475.65 215279.65 Z M 580242.8 220979.05 L 559446.2 220979.05 L 559446.2 219354.1 L 563756.4 219354.1 L 563756.4 208897.15 L 560105.15 208897.15 L 560105.15 207249.2 L 563756.4 207249.2 L 563756.4 204539.8 L 565475.65 204539.8 L 565475.65 207249.2 L 574189.2 207249.2 L 574189.2 204539.8 L 575932.6 204539.8 L 575932.6 207249.2 L 579700 207249.2 L 579700 208897.15 L 575932.6 208897.15 L 575932.6 219354.1 L 580242.8 219354.1 L 580242.8 220979.05 Z M 568159.75 222485.55 Q 565097.3 224370.4 560363.9 225971.2 Q 559939.55 225359.4 559209.3 224628 Q 563943.85 223215.8 566603.8 221402.25 L 568158.6 222486.7 L 568159.75 222485.55 Z M 572752.85 221519.55 Q 577228.65 223097.35 580314.1 224770.6 L 578759.3 225924.05 Q 575885.45 224227.8 571575.25 222627 L 572752.85 221519.55 Z M 588544.15 205081.45 Q 587555.15 207625.25 586165.95 210050.6 L 586165.95 225971.2 L 584446.7 225971.2 L 584446.7 212735.85 Q 583362.25 214266.5 582114.5 215585.55 Q 581548.7 214455.1 581125.5 213936.45 Q 584846.9 210310.5 586943.35 204586.95 L 588544.15 205082.6 L 588544.15 205081.45 Z M 599708.35 224111.65 Q 600767.5 224111.65 601121.7 223450.4 Q 601426.45 222838.6 601592.05 220695 Q 602322.3 221213.65 603218.15 221426.4 Q 602982.4 223946.05 602346.45 224770.6 Q 601664.5 225689.45 599779.65 225689.45 L 593632.9 225689.45 Q 591536.45 225689.45 590783.2 225030.5 Q 590005.8 224371.55 590005.8 222462.55 L 590005.8 214808.15 L 587720.75 215704 L 587036.5 214173.35 L 590004.65 213018.75 L 590004.65 206823.7 L 591723.9 206823.7 L 591723.9 212335.65 L 595161.25 210992.45 L 595161.25 204538.65 L 596834.5 204538.65 L 596834.5 210356.5 L 600508.75 208944.3 L 601027.4 208496.95 L 602228 208990.3 L 602157.85 209297.35 Q 602157.85 216598.7 601876.1 217917.75 Q 601640.35 219329.95 600462.75 219637 Q 599639.35 219848.6 598084.55 219802.6 Q 597991.4 218813.6 597661.35 218152.35 Q 598296.15 218199.5 599450.75 218199.5 Q 600086.7 218199.5 600251.15 217492.25 Q 600462.75 216739 600509.9 210709.55 L 596835.65 212145.9 L 596835.65 220789.3 L 595162.4 220789.3 L 595162.4 212804.85 L 591725.05 214171.05 L 591725.05 222460.25 Q 591725.05 223473.4 592078.1 223780.45 Q 592455.3 224110.5 593680.05 224110.5 L 599709.5 224110.5 L 599708.35 224111.65 Z M 610956 219424.25 L 611237.75 220979.05 Q 607916.55 222226.8 604525.2 223404.4 L 604077.85 221779.45 L 606975.85 220813.45 L 606975.85 214478.1 L 604550.5 214478.1 L 604550.5 212853.15 L 606975.85 212853.15 L 606975.85 207719.55 L 604196.3 207719.55 L 604196.3 206118.75 L 611168.75 206118.75 L 611168.75 207719.55 L 608601.95 207719.55 L 608601.95 212853.15 L 610673.1 212853.15 L 610673.1 214478.1 L 608601.95 214478.1 L 608601.95 220249.95 L 610957.15 219425.4 L 610956 219424.25 Z M 620352.65 211674.4 Q 623721 215349.8 625251.65 217821.15 L 623815.3 218905.6 Q 622330.65 216314.65 619033.6 212570.25 L 620352.65 211674.4 Z M 625298.8 206022.15 L 625298.8 207695.4 L 620234.2 207695.4 Q 619645.4 209414.65 619010.6 210662.4 L 619010.6 225948.2 L 617290.2 225948.2 L 617290.2 213865.15 Q 615289.2 217090.9 612886.85 219187.35 Q 612416.5 218552.55 611520.65 217821.15 Q 615924 214288.35 618351.65 207695.4 L 612368.2 207695.4 L 612368.2 206022.15 L 625298.8 206022.15 Z M 646790.65 207718.4 L 635037.65 207718.4 L 635037.65 206233.75 L 640125.25 206233.75 L 639466.3 204680.1 L 641091.25 204373.05 Q 641561.6 205314.9 641891.65 206233.75 L 646790.65 206233.75 L 646790.65 207718.4 Z M 647402.45 212005.6 L 634330.4 212005.6 L 634330.4 210496.8 L 637651.6 210496.8 Q 637463 209484.8 636921.35 208237.05 L 638357.7 207930 Q 639039.65 209577.95 639205.25 210262.2 L 638334.7 210496.8 L 642243.55 210496.8 Q 642904.8 209084.6 643234.85 208000.15 L 644858.65 208354.35 L 643823.65 210496.8 L 647402.45 210496.8 L 647402.45 212005.6 Z M 634000.35 220176.35 Q 630940.2 221426.4 627123.35 222885.75 L 626558.7 221119.35 Q 627666.15 220765.15 629502.7 220106.2 L 629502.7 211863 L 626911.75 211863 L 626911.75 210215.05 L 629502.7 210215.05 L 629502.7 204774.4 L 631198.95 204774.4 L 631198.95 210215.05 L 633484 210215.05 L 633484 211863 L 631198.95 211863 L 631198.95 219494.4 L 633670.3 218575.55 L 634000.35 220176.35 Z M 637086.95 218694 L 644482.6 218694 L 644482.6 217116.2 L 637086.95 217116.2 L 637086.95 218694 Z M 637086.95 215961.6 L 644482.6 215961.6 L 644482.6 214430.95 L 637086.95 214430.95 L 637086.95 215961.6 Z M 645283 224323.25 Q 645918.95 224323.25 646083.4 224227.8 Q 646390.45 224157.65 646508.9 223734.45 Q 646554.9 223357.25 646602.05 221732.3 Q 647190.85 222227.95 648015.4 222486.7 Q 647919.95 224228.95 647731.35 224771.75 Q 647426.6 225336.4 646860.8 225502 Q 646295 225690.6 645424.45 225690.6 L 643846.65 225690.6 Q 642739.2 225690.6 642243.55 225290.4 Q 641654.75 224889.05 641654.75 223381.4 L 641654.75 219895.75 L 639558.3 219895.75 Q 639253.55 222558 638098.95 223877.05 Q 636779.9 225361.7 633694.45 226091.95 Q 633387.4 225337.55 632775.6 224725.75 Q 635531 224159.95 636661.45 223052.5 Q 637674.6 222040.5 637909.2 219896.9 L 635460.85 219896.9 L 635460.85 213231.5 L 646152.4 213231.5 L 646152.4 219896.9 L 643303.85 219896.9 L 643303.85 223548.15 Q 643303.85 224136.95 643515.45 224207.1 Q 643704.05 224325.55 644151.4 224325.55 L 645281.85 224325.55 L 645283 224323.25 Z M 13588.25 247388.85 L 7888.85 247388.85 L 7888.85 248966.65 L 13588.25 248966.65 L 13588.25 247388.85 Z M 13588.25 250214.4 L 7888.85 250214.4 L 7888.85 251769.2 L 13588.25 251769.2 L 13588.25 250214.4 Z M 13588.25 253016.95 L 7888.85 253016.95 L 7888.85 254641.9 L 13588.25 254641.9 L 13588.25 253016.95 Z M 6169.6 249295.55 Q 5369.2 250143.1 4121.45 251202.25 Q 3578.65 250495 2873.7 250071.8 Q 6382.35 247409.55 8337.35 243429.4 L 10126.75 243759.45 Q 9233.2 245361.4 8785.85 245973.2 L 14132.2 245973.2 Q 13589.4 244772.6 13047.75 243853.75 L 14602.55 243383.4 Q 15568.55 244865.75 15944.6 245973.2 L 22845.75 245973.2 L 22845.75 247386.55 L 15284.5 247386.55 L 15284.5 248964.35 L 21902.75 248964.35 L 21902.75 250212.1 L 15284.5 250212.1 L 15284.5 251766.9 L 21974.05 251766.9 L 21974.05 253014.65 L 15284.5 253014.65 L 15284.5 254639.6 L 23623.15 254639.6 L 23623.15 256051.8 L 7890 256051.8 L 7890 256759.05 L 6170.75 256759.05 L 6170.75 249293.25 L 6169.6 249295.55 Z M 16249.35 259305.15 Q 19593.55 261848.95 24728.3 263119.7 Q 24162.5 263638.35 23620.85 264534.2 Q 18321.65 262979.4 14623.25 259893.95 L 14623.25 264957.4 L 12904 264957.4 L 12904 259916.95 Q 9278.05 263049.55 3978.85 264722.8 Q 3436.05 263803.95 2824.25 263285.3 Q 7934.85 261919.1 11349.2 259305.15 L 3390.05 259305.15 L 3390.05 257868.8 L 12904 257868.8 L 12904 256291 L 14623.25 256291 L 14623.25 257868.8 L 24279.8 257868.8 L 24279.8 259305.15 L 16248.2 259305.15 L 16249.35 259305.15 Z M 41392.45 243572 Q 44147.85 244962.35 45607.2 246258.4 L 44525.05 247459 Q 43017.4 246069.8 40355.15 244633.45 L 41391.3 243572 L 41392.45 243572 Z M 45465.75 251439.15 Q 43935.1 256054.1 41321.15 259398.3 Q 42710.35 263049.55 44476.75 263049.55 Q 45349.6 263049.55 45584.2 258693.35 Q 46291.45 259398.3 47091.85 259634.05 Q 46857.25 262625.2 46268.45 263707.35 Q 45679.65 264791.8 44336.45 264791.8 Q 41745.5 264791.8 40026.25 260928.95 Q 37882.65 263260 35174.4 264838.95 Q 34538.45 263966.1 33903.65 263447.45 Q 37059.25 261751.2 39319 259091.25 Q 38095.4 255228.4 37599.75 249174.8 L 29475 249174.8 L 29475 252237.25 L 35481.45 252237.25 L 35481.45 252990.5 Q 35315.85 260128.55 34727.05 260858.8 Q 34279.7 261447.6 33314.85 261540.75 Q 32371.85 261610.9 30512.3 261540.75 Q 30465.15 260621.9 30017.8 259891.65 Q 31384 260010.1 32514.45 260010.1 Q 33057.25 260010.1 33221.7 259751.35 Q 33646.05 259304 33762.2 253863.35 L 29476.15 253863.35 L 29476.15 254051.95 Q 29476.15 261564.9 27002.5 265143.7 Q 26343.55 264390.45 25543.15 263966.1 Q 27686.75 260787.5 27686.75 254026.65 L 27686.75 247456.7 L 37507.75 247456.7 Q 37412.3 246160.65 37365.15 243498.4 L 39178.7 243498.4 Q 39178.7 245760.45 39274.15 247456.7 L 46881.4 247456.7 L 46881.4 249175.95 L 39391.45 249175.95 Q 39768.65 254097.95 40687.5 257349 Q 42619.5 254523.45 43701.65 250990.65 L 45468.05 251438 L 45465.75 251439.15 Z M 51767.25 251250.55 Q 51225.6 250754.9 51225.6 249977.5 Q 51225.6 249177.1 51767.25 248683.75 Q 52262.9 248188.1 52993.15 248188.1 Q 53723.4 248188.1 54242.05 248683.75 Q 54783.7 249202.4 54783.7 249978.65 Q 54783.7 250756.05 54242.05 251251.7 Q 53723.4 251722.05 52993.15 251722.05 Q 52262.9 251722.05 51767.25 251251.7 L 51767.25 251250.55 Z M 51767.25 262767.8 Q 51225.6 262272.15 51225.6 261494.75 Q 51225.6 260718.5 51767.25 260199.85 Q 52262.9 259727.2 52993.15 259727.2 Q 53723.4 259727.2 54242.05 260199.85 Q 54783.7 260718.5 54783.7 261494.75 Q 54783.7 262272.15 54242.05 262767.8 Q 53723.4 263261.15 52993.15 263261.15 Q 52262.9 263261.15 51767.25 262767.8  Z " fill-rule="nonzero" style="fill:#ffffff;;fill-opacity:1;"/>
</svg>