<svg version="1.1" x="0" y="0" width="100%" height="100%" viewBox="0 0 186163.2 34457.6" xmlns="http://www.w3.org/2000/svg">
  <path d="M 23716.6 13220 L 19456.6 13220 L 19456.6 10701 L 31048.6 10701 L 31048.6 13220 L 26747.6 13220 L 26747.6 25856 L 23716.6 25856 L 23716.6 13220 Z M 32685.6 30239 L 33238.6 27924 Q 33709.6 28068 34037.6 28068 Q 35614.6 28068 36187.6 26327 L 36392.6 25651 L 31927.6 14387 L 34958.6 14387 L 36781.6 19712 L 37744.6 22948 L 37847.6 22948 Q 37991.6 22416 38256.6 21329 Q 38543.6 20244 38666.6 19712 L 40243.6 14387 L 43131.6 14387 L 39055.6 26204 Q 38256.6 28375 37253.6 29338 Q 36085.6 30465 34262.6 30465 Q 33402.6 30465 32685.6 30240 L 32685.6 30239 Z M 45034.6 14387 L 47493.6 14387 L 47697.6 15575 L 47780.6 15575 Q 49520.6 14100 51159.6 14100 Q 53268.6 14100 54476.6 15697 Q 55664.6 17274 55664.6 19937 Q 55664.6 22764 54169.6 24504 Q 52777.6 26143 50790.6 26143 Q 49315.6 26143 47943.6 24894 L 48024.6 26778 L 48024.6 30259 L 45033.6 30259 L 45033.6 14387 L 45034.6 14387 Z M 51876.6 22764 Q 52572.6 21780 52572.6 19979 Q 52572.6 16579 50299.6 16579 Q 49214.6 16579 48026.6 17767 L 48026.6 22804 Q 49030.6 23664 50115.6 23664 Q 51220.6 23664 51876.6 22764  Z M 59187.2 24545 Q 57528.2 22906 57528.2 20142 Q 57528.2 17458 59167.2 15718 Q 60723.2 14099 62874.2 14099 Q 65167.2 14099 66458.2 15656 Q 67666.2 17131 67666.2 19588 Q 67666.2 20489 67523.2 20960 L 60456.2 20960 Q 60825.2 23827 63630.2 23827 Q 64941.2 23827 66210.2 23028 L 67234.2 24872 Q 65391.2 26141 63220.2 26141 Q 60763.2 26141 59186.2 24544 L 59187.2 24545 Z M 65086.2 18975 Q 65086.2 16435 62915.2 16435 Q 61972.2 16435 61296.2 17071 Q 60579.2 17767 60416.2 18975 L 65085.2 18975 L 65086.2 18975 Z M 68986.4 24525 L 70358.4 22640 Q 71957.4 23889 73430.4 23889 Q 75090.4 23889 75090.4 22681 Q 75090.4 22108 74353.4 21679 Q 73984.4 21474 72695.4 20962 Q 69560.4 19774 69560.4 17623 Q 69560.4 16067 70728.4 15084 Q 71895.4 14100 73820.4 14100 Q 75828.4 14100 77732.4 15513 L 76380.4 17336 Q 74967.4 16353 73903.4 16353 Q 72387.4 16353 72387.4 17458 Q 72387.4 18011 73104.4 18400 Q 73369.4 18543 74721.4 19055 Q 76216.4 19630 76892.4 20203 Q 77916.4 21083 77916.4 22516 Q 77916.4 24093 76749.4 25076 Q 75520.4 26141 73349.4 26141 Q 70912.4 26141 68987.4 24524 L 68986.4 24525 Z M 81091 24565 Q 79494 22906 79494 20142 Q 79494 17377 81255 15677 Q 82914 14100 85351 14100 Q 87194 14100 88689 15371 L 87256 17316 Q 86376 16559 85495 16559 Q 84184 16559 83385 17542 Q 82566 18525 82566 20144 Q 82566 21741 83365 22724 Q 84164 23687 85413 23687 Q 86540 23687 87645 22766 L 88833 24753 Q 87256 26145 85085 26145 Q 82648 26145 81092 24568 L 81091 24565 Z M 90961 14387 L 93420 14387 L 93624 16415 L 93707 16415 Q 94996 14100 96963 14100 Q 97720 14100 98315 14347 L 97782 16947 Q 97209 16763 96594 16763 Q 94833 16763 93953 19016 L 93953 25856 L 90962 25856 L 90962 14387 L 90961 14387 Z M 99921 14387 L 102912 14387 L 102912 25856 L 99921 25856 L 99921 14387 Z M 100147 12073 Q 99635 11622 99635 10905 Q 99635 10168 100147 9717 Q 100639 9266 101438 9266 Q 102217 9266 102708 9717 Q 103220 10168 103220 10905 Q 103220 11601 102708 12073 Q 102217 12544 101438 12544 Q 100659 12544 100147 12073  Z M 106116.2 14387 L 108575.2 14387 L 108779.2 15575 L 108862.2 15575 Q 110602.2 14100 112241.2 14100 Q 114350.2 14100 115558.2 15697 Q 116746.2 17274 116746.2 19937 Q 116746.2 22764 115251.2 24504 Q 113859.2 26143 111872.2 26143 Q 110397.2 26143 109025.2 24894 L 109106.2 26778 L 109106.2 30259 L 106115.2 30259 L 106115.2 14387 L 106116.2 14387 Z M 112958.2 22764 Q 113654.2 21780 113654.2 19979 Q 113654.2 16579 111381.2 16579 Q 110296.2 16579 109108.2 17767 L 109108.2 22804 Q 110112.2 23664 111197.2 23664 Q 112302.2 23664 112958.2 22764  Z M 119756.8 21841 L 119756.8 16762 L 118139.8 16762 L 118139.8 14530 L 119900.8 14386 L 120248.8 11314 L 122767.8 11314 L 122767.8 14386 L 125594.8 14386 L 125594.8 16762 L 122767.8 16762 L 122767.8 21841 Q 122767.8 23766 124323.8 23766 Q 124835.8 23766 125450.8 23521 L 125942.8 25712 Q 124651.8 26143 123524.8 26143 Q 119756.8 26143 119756.8 21842 L 119756.8 21841 Z M 131123.4 13629 Q 130324.4 12462 127948.4 10270 L 129504.4 8815 Q 131900.4 10762 132801.4 11909 L 131122.4 13629 L 131123.4 13629 Z M 136591.4 22252 L 136591.4 24852 L 142366.4 24852 L 142366.4 22252 L 136591.4 22252 Z M 134277.4 20163 L 144804.4 20163 L 144804.4 27576 L 142367.4 27576 L 142367.4 26961 L 136592.4 26961 L 136592.4 27637 L 134277.4 27637 L 134277.4 23972 Q 130262.4 26777 129791.4 27372 Q 129402.4 26265 128563.4 25262 Q 129504.4 24545 129504.4 23377 L 129504.4 17110 L 127067.4 17110 L 127067.4 14775 L 131778.4 14775 L 131778.4 23172 L 133785.4 21820 Q 133909.4 22660 134277.4 23643 L 134277.4 20162 L 134277.4 20163 Z M 138987.4 14920 Q 138803.4 15800 138556.4 16784 L 141588.4 16784 L 141751.4 14920 L 138987.4 14920 Z M 146094.4 16784 L 146094.4 18975 L 132802.4 18975 L 132802.4 16784 L 136079.4 16784 Q 136530.4 14879 136530.4 14920 L 134195.4 14920 L 134195.4 12851 L 136959.4 12851 L 137267.4 11295 L 133498.4 11295 L 133498.4 9166 L 145418.4 9166 L 145418.4 11295 L 139703.4 11295 Q 139580.4 12032 139396.4 12851 L 142100.4 12851 L 142488.4 12770 L 144188.4 12873 Q 144148.4 14388 143901.4 16785 L 146093.4 16785 L 146094.4 16784 Z M 152566.4 12789 Q 151193.4 11622 148757.4 10515 L 150088.4 8714 Q 152545.4 9697 153978.4 10782 L 152566.4 12789 Z M 151378.4 18217 Q 150067.4 17110 147547.4 16005 L 148838.4 14182 Q 151418.4 15185 152729.4 16189 L 151378.4 18217 Z M 148265.4 25775 Q 150333.4 22846 152136.4 19323 L 153939.4 20962 Q 152279.4 24198 150334.4 27413 L 148266.4 25776 L 148265.4 25775 Z M 164239.4 27637 Q 164014.4 26777 163522.4 25836 Q 155761.4 26777 154982.4 27166 Q 154654.4 25917 154122.4 24729 Q 154737.4 24545 155453.4 23418 Q 156477.4 21903 157624.4 19035 L 153775.4 19035 L 153775.4 16742 L 158628.4 16742 L 158628.4 13854 L 154593.4 13854 L 154593.4 11539 L 158628.4 11539 L 158628.4 8488 L 161107.4 8488 L 161107.4 11539 L 165284.4 11539 L 165284.4 13854 L 161107.4 13854 L 161107.4 16742 L 166042.4 16742 L 166042.4 19035 L 160471.4 19035 Q 159304.4 21698 157624.4 24299 L 162437.4 23807 Q 161720.4 22599 161065.4 21698 L 163052.4 20715 Q 165673.4 24175 166430.4 26531 L 164239.4 27636 L 164239.4 27637 Z " fill-rule="nonzero" style="fill:#ffffff;;fill-opacity:1;"/>
</svg>