<svg version="1.1" x="0" y="0" width="100%" height="100%" viewBox="0 0 468940.8 34457.6" xmlns="http://www.w3.org/2000/svg">
  <path d="M 187360.8 15288 L 184883.8 15288 L 184883.8 10721 L 192010.8 10721 Q 191785.8 10189 191232.8 9041 L 193792.8 8448 Q 194387.8 9492 194919.8 10721 L 202148.8 10721 L 202148.8 15288 L 199548.8 15288 L 199548.8 12975 L 187361.8 12975 L 187361.8 15288 L 187360.8 15288 Z M 191764.8 18729 Q 191047.8 19896 190638.8 20491 Q 191969.8 20962 193997.8 21719 Q 195328.8 20430 196065.8 18730 L 191765.8 18730 L 191764.8 18729 Z M 198891.8 18729 Q 197990.8 21022 196434.8 22702 Q 200285.8 24319 202434.8 25630 L 200447.8 27698 Q 198276.8 26265 194364.8 24504 Q 191272.8 26635 186009.8 27638 Q 185456.8 26410 184555.8 25386 Q 188958.8 24771 191662.8 23358 Q 188897.8 22231 186788.8 21555 L 186829.8 21515 Q 187750.8 20327 188733.8 18730 L 184494.8 18730 L 184494.8 16435 L 190045.8 16435 Q 190905.8 14776 191437.8 13424 L 194161.8 13957 Q 193730.8 15042 193014.8 16434 L 202537.8 16434 L 202537.8 18729 L 198892.8 18729 L 198891.8 18729 Z M 216176.8 12995 L 211813.8 12995 L 211813.8 10886 L 216176.8 10886 L 216176.8 8510 L 218633.8 8510 L 218633.8 10886 L 223077.8 10886 L 223077.8 12995 L 218633.8 12995 L 218633.8 15391 L 222648.8 15391 L 222648.8 17480 L 212347.8 17480 L 212347.8 15391 L 216176.8 15391 L 216176.8 12995 Z M 207267.8 13036 Q 206448.8 12032 204748.8 10824 L 206140.8 9452 Q 207923.8 10619 208742.8 11520 L 207267.8 13036 Z M 208824.8 15883 Q 205977.8 17132 205137.8 17480 L 204358.8 15513 Q 205955.8 14940 208823.8 13732 L 208823.8 8509 L 211075.8 8509 L 211075.8 18340 L 208823.8 18340 L 208823.8 15883 L 208824.8 15883 Z M 216135.8 21125 Q 216708.8 22088 217629.8 22948 Q 219289.8 22047 220497.8 21126 L 216134.8 21126 L 216135.8 21125 Z M 222443.8 22252 Q 221030.8 23235 219249.8 24115 Q 221030.8 25099 223611.8 25528 Q 222771.8 26368 222238.8 27515 Q 216197.8 26224 213842.8 21187 Q 212654.8 22272 211118.8 23091 L 211118.8 24996 L 215542.8 24156 Q 215357.8 24976 215357.8 26101 Q 208825.8 27453 208252.8 27781 Q 208047.8 26716 207555.8 25937 Q 208764.8 25508 208764.8 24484 L 208764.8 24156 Q 207165.8 24729 205629.8 25057 Q 205117.8 24136 204298.8 23316 Q 208127.8 22681 210790.8 21125 L 204687.8 21125 L 204687.8 19200 L 212674.8 19200 Q 212470.8 18647 212306.8 18299 L 214682.8 17623 Q 215153.8 18463 215440.8 19200 L 223263.8 19200 L 223263.8 21125 L 220928.8 21125 L 222444.8 22252 L 222443.8 22252 Z M 229427.8 27269 Q 227399.8 24790 225023.8 22742 L 227154.8 20899 Q 229509.8 22824 231618.8 25384 L 229427.8 27268 L 229427.8 27269 Z M 256644.8 18176 L 256644.8 16148 L 254125.8 16148 L 254125.8 18176 L 256644.8 18176 Z M 259061.8 16148 L 259061.8 18176 L 261600.8 18176 L 261600.8 16148 L 259061.8 16148 Z M 258939.8 20143 Q 258672.8 22191 257812.8 23706 Q 260637.8 25058 264816.8 25426 Q 263996.8 26266 263361.8 27598 Q 259225.8 27065 256357.8 25448 Q 254821.8 26861 252158.8 27638 Q 251503.8 26513 250643.8 25612 Q 253019.8 25079 254370.8 24035 Q 252978.8 22867 251851.8 20983 L 253838.8 20370 Q 254534.8 21495 255742.8 22479 Q 256315.8 21455 256500.8 20144 L 251932.8 20144 L 251932.8 14163 L 256643.8 14163 L 256643.8 12730 L 251503.8 12730 L 251503.8 10846 Q 250888.8 12115 250273.8 13202 L 250273.8 27681 L 247960.8 27681 L 247960.8 16684 Q 247017.8 17872 246280.8 18609 Q 245748.8 17216 244989.8 16111 Q 248205.8 13079 249946.8 8471 L 252198.8 9208 L 251645.8 10519 L 256642.8 10519 L 256642.8 8656 L 259059.8 8656 L 259059.8 10519 L 264486.8 10519 L 264486.8 12731 L 259059.8 12731 L 259059.8 14164 L 263932.8 14164 L 263932.8 20145 L 258936.8 20145 L 258939.8 20143 Z M 281159.8 19364 L 281159.8 16845 L 276838.8 16845 L 276838.8 19364 L 281159.8 19364 Z M 274380.8 19364 L 274380.8 16845 L 270529.8 16845 L 270529.8 17213 Q 270529.8 18217 270468.8 19364 L 274380.8 19364 Z M 270529.8 12196 L 270529.8 14572 L 274380.8 14572 L 274380.8 12196 L 270529.8 12196 Z M 281159.8 12196 L 276838.8 12196 L 276838.8 14572 L 281159.8 14572 L 281159.8 12196 Z M 283576.8 24751 Q 283576.8 26594 282469.8 27086 Q 281528.8 27557 278537.8 27516 Q 278414.8 26533 277758.8 25181 Q 278517.8 25222 280626.8 25222 Q 281158.8 25222 281158.8 24730 L 281158.8 21658 L 276837.8 21658 L 276837.8 27373 L 274380.8 27373 L 274380.8 21658 L 270203.8 21658 Q 269547.8 25651 267622.8 27740 Q 266721.8 26696 265697.8 26163 Q 268114.8 23502 268114.8 17194 L 268114.8 9882 L 283577.8 9882 L 283577.8 24751 L 283576.8 24751 Z " fill-rule="nonzero" style="fill:#ffffff;;fill-opacity:1;"/>
</svg>