<svg version="1.1" x="0" y="0" width="100%" height="100%" viewBox="0 0 575590.4 116889.6" xmlns="http://www.w3.org/2000/svg">
  <path d="M 4121.45 27599.4 L 7959 27599.4 L 7959 14715.95 L 4898.85 14715.95 L 4898.85 13349.75 Q 7041.3 12949.55 8477.65 12125 L 10125.6 12125 L 10125.6 27599.4 L 13588.25 27599.4 L 13588.25 29388.8 L 4121.45 29388.8 L 4121.45 27599.4 Z M 16218.4 29247.35 Q 15748.05 28777 15748.05 28069.75 Q 15748.05 27362.5 16218.4 26866.85 Q 16665.75 26396.5 17301.7 26396.5 Q 17937.65 26396.5 18408 26866.85 Q 18855.35 27362.5 18855.35 28069.75 Q 18855.35 28777 18408 29247.35 Q 17960.65 29694.7 17301.7 29694.7 Q 16642.75 29694.7 16218.4 29247.35  Z M 25187.65 34029.05 Q 21725 28376.8 21725 22064.45 Q 21725 15729.1 25187.65 10125.15 L 26530.85 10736.95 Q 23514.4 15681.95 23514.4 22065.6 Q 23514.4 28472.25 26530.85 33394.25 L 25187.65 34030.2 L 25187.65 34029.05 Z M 29980.2 27340.65 Q 27836.6 24890 27836.6 20768.4 Q 27836.6 16670.95 30026.2 14197.3 Q 32146.8 11794.95 35491 11794.95 Q 38316.55 11794.95 40224.4 13938.55 L 39046.8 15350.75 Q 37516.15 13702.8 35514 13702.8 Q 33040.35 13702.8 31558 15587.65 Q 30073.35 17495.5 30073.35 20698.25 Q 30073.35 23972.3 31532.7 25880.15 Q 32969.05 27789.15 35442.7 27789.15 Q 37656.45 27789.15 39445.85 25857.15 L 40647.6 27223.35 Q 38504 29697 35348.4 29697 Q 32050.2 29697 29979.05 27341.8 L 29980.2 27340.65 Z M 41460 33391.95 Q 44476.45 28422.8 44476.45 22064.45 Q 44476.45 15753.25 41460 10735.8 L 42780.2 10124 Q 46265.85 15704.95 46265.85 22063.3 Q 46265.85 28398.65 42780.2 34027.9 L 41460 33391.95 Z M 49715.2 12125 L 51977.25 12125 L 58265.45 23005.15 L 60102 26562.1 L 60220.45 26562.1 Q 59936.4 22370.35 59936.4 21097.3 L 59936.4 12123.85 L 62009.85 12123.85 L 62009.85 29387.65 L 59773.1 29387.65 L 53484.9 18482.2 L 51623.05 14926.4 L 51529.9 14926.4 Q 51788.65 19706.95 51788.65 20318.75 L 51788.65 29386.5 L 49715.2 29386.5 L 49715.2 12122.7 L 49715.2 12125 Z M 65638.4 12125 L 70560.4 12125 Q 77037.2 12125 77037.2 17189.6 Q 77037.2 19849.55 75270.8 21238.75 Q 73622.85 22534.8 70678.85 22534.8 L 67828 22534.8 L 67828 29388.8 L 65638.4 29388.8 L 65638.4 12125 Z M 70395.95 20768.4 Q 74870.6 20768.4 74870.6 17189.6 Q 74870.6 15376.05 73716 14598.65 Q 72656.85 13891.4 70301.65 13891.4 L 67828 13891.4 L 67828 20768.4 L 70395.95 20768.4 Z M 79513.6 12125 L 82150.55 12125 L 85471.75 21357.2 Q 86272.15 23759.55 86696.5 24960.15 L 86814.95 24960.15 Q 87026.55 24348.35 87403.75 23147.75 L 87992.55 21357.2 L 91289.6 12125 L 93926.55 12125 L 93926.55 29388.8 L 91878.4 29388.8 L 91878.4 19826.55 Q 91878.4 18367.2 92160.15 14738.95 L 92067 14738.95 L 90700.8 18671.95 L 87426.75 27645.4 L 85967.4 27645.4 L 82693.35 18671.95 L 81327.15 14738.95 L 81231.7 14738.95 Q 81490.45 18883.55 81490.45 19826.55 L 81490.45 29388.8 L 79512.45 29388.8 L 79512.45 12125 L 79513.6 12125 Z M 116287.35 31650.85 Q 111599.95 26893.3 111599.95 20439.5 Q 111599.95 13986.85 116287.35 9229.3 L 117699.55 9959.55 Q 113319.2 14481.35 113319.2 20439.5 Q 113319.2 26397.65 117699.55 30919.45 L 116287.35 31650.85 Z M 123389.25 34029.05 Q 119926.6 28376.8 119926.6 22064.45 Q 119926.6 15729.1 123389.25 10125.15 L 124732.45 10736.95 Q 121716 15681.95 121716 22065.6 Q 121716 28472.25 124732.45 33394.25 L 123389.25 34030.2 L 123389.25 34029.05 Z M 127616 27929.45 Q 125872.6 26115.9 125872.6 23006.3 Q 125872.6 19920.85 127734.45 18036 Q 129476.7 16269.6 132044.65 16269.6 Q 134069.8 16269.6 135789.05 17778.4 L 134681.6 19213.6 Q 133410.85 18060.15 132114.8 18060.15 Q 130371.4 18060.15 129240.95 19426.35 Q 128110.5 20815.55 128110.5 23005.15 Q 128110.5 25218.9 129215.65 26562.1 Q 130300.1 27904.15 132066.5 27904.15 Q 133691.45 27904.15 135080.65 26633.4 L 135999.5 28069.75 Q 134233.1 29694.7 131877.9 29694.7 Q 129263.95 29694.7 127616 27928.3 L 127616 27929.45 Z M 136589.6 33391.95 Q 139606.05 28422.8 139606.05 22064.45 Q 139606.05 15753.25 136589.6 10735.8 L 137909.8 10124 Q 141395.45 15704.95 141395.45 22063.3 Q 141395.45 28398.65 137909.8 34027.9 L 136589.6 33391.95 Z M 144656.2 16600.8 L 146422.6 16600.8 L 146611.2 18437.35 L 146681.35 18437.35 Q 148895.1 16269.6 150968.55 16269.6 Q 154877.4 16269.6 154877.4 21287.05 L 154877.4 29388.8 L 152734.95 29388.8 L 152734.95 21568.8 Q 152734.95 18154.45 150309.6 18154.45 Q 148754.8 18154.45 146799.8 20109.45 L 146799.8 29388.8 L 144656.2 29388.8 L 144656.2 16600.8 Z M 158019.4 16600.8 L 159785.8 16600.8 L 159974.4 18060.15 L 160044.55 18060.15 Q 162235.3 16269.6 164117.85 16269.6 Q 166543.2 16269.6 167909.4 18060.15 Q 169205.45 19779.4 169205.45 22793.55 Q 169205.45 25949.15 167534.5 27881.15 Q 165955.55 29694.7 163647.5 29694.7 Q 161928.25 29694.7 160114.7 28210.05 L 160161.85 30446.8 L 160161.85 34780 L 158018.25 34780 L 158018.25 16599.65 L 158019.4 16600.8 Z M 165932.55 26563.25 Q 166968.7 25149.9 166968.7 22818.85 Q 166968.7 18084.3 163600.35 18084.3 Q 162069.7 18084.3 160161.85 19850.7 L 160161.85 26563.25 Q 161739.65 27905.3 163294.45 27905.3 Q 164919.4 27905.3 165931.4 26563.25 L 165932.55 26563.25 Z M 171587.4 16600.8 L 173353.8 16600.8 L 173542.4 18460.35 L 173612.55 18460.35 Q 175590.55 16269.6 177592.7 16269.6 Q 180277.95 16269.6 181125.5 18720.25 Q 183362.25 16269.6 185340.25 16269.6 Q 189227.25 16269.6 189227.25 21287.05 L 189227.25 29388.8 L 187083.65 29388.8 L 187083.65 21568.8 Q 187083.65 18154.45 184705.45 18154.45 Q 183269.1 18154.45 181478.55 20109.45 L 181478.55 29388.8 L 179336.1 29388.8 L 179336.1 21568.8 Q 179336.1 18154.45 176956.75 18154.45 Q 175474.4 18154.45 173731 20109.45 L 173731 29388.8 L 171587.4 29388.8 L 171587.4 16600.8 Z M 196573 16600.8 L 198716.6 16600.8 L 198716.6 29388.8 L 196573 29388.8 L 196573 16600.8 Z M 196596 13561.35 Q 196172.8 13161.15 196172.8 12572.35 Q 196172.8 11183.15 197657.45 11183.15 Q 199139.8 11183.15 199139.8 12572.35 Q 199139.8 13161.15 198716.6 13561.35 Q 198292.25 13961.55 197657.45 13961.55 Q 197021.5 13961.55 196597.15 13561.35 L 196596 13561.35 Z M 202000.2 16600.8 L 203766.6 16600.8 L 203955.2 18437.35 L 204025.35 18437.35 Q 206239.1 16269.6 208312.55 16269.6 Q 212221.4 16269.6 212221.4 21287.05 L 212221.4 29388.8 L 210078.95 29388.8 L 210078.95 21568.8 Q 210078.95 18154.45 207653.6 18154.45 Q 206098.8 18154.45 204143.8 20109.45 L 204143.8 29388.8 L 202000.2 29388.8 L 202000.2 16600.8 Z M 213927.05 27929.45 L 214986.2 26516.1 Q 216848.05 28023.75 218778.9 28023.75 Q 220003.65 28023.75 220685.6 27434.95 Q 221298.55 26893.3 221298.55 26022.75 Q 221298.55 24726.7 218377.55 23595.1 Q 216611.15 22936.15 215810.75 22301.35 Q 214563 21335.35 214563 19899 Q 214563 18321.2 215717.6 17332.2 Q 216941.2 16270.75 218966.35 16270.75 Q 221086.95 16270.75 222946.5 17707.1 L 221910.35 19097.45 Q 220379.7 17965.85 218966.35 17965.85 Q 217835.9 17965.85 217199.95 18508.65 Q 216635.3 19002 216635.3 19802.4 Q 216635.3 20603.95 217505.85 21168.6 Q 217953.2 21452.65 219460.85 22017.3 Q 221391.7 22747.55 222121.95 23313.35 Q 223372 24302.35 223372 25904.3 Q 223372 27529.25 222170.25 28564.25 Q 220899.5 29695.85 218708.75 29695.85 Q 216071.8 29695.85 213928.2 27929.45 L 213927.05 27929.45 Z M 225673.4 25432.8 L 225673.4 18343.05 L 223765.55 18343.05 L 223765.55 16718.1 L 225766.55 16601.95 L 226025.3 13022 L 227815.85 13022 L 227815.85 16601.95 L 231278.5 16601.95 L 231278.5 18344.2 L 227815.85 18344.2 L 227815.85 25479.95 Q 227815.85 27953.6 229793.85 27953.6 Q 230405.65 27953.6 231253.2 27623.55 L 231677.55 29224.35 Q 230215.9 29697 229322.35 29697 Q 225671.1 29697 225671.1 25433.95 L 225673.4 25432.8 Z M 233337.35 28752.85 Q 232278.2 27763.85 232278.2 26067.6 Q 232278.2 23996.45 234163.05 22864.85 Q 236022.6 21757.4 240144.2 21287.05 Q 240144.2 18061.3 237507.25 18061.3 Q 235693.7 18061.3 233668.55 19427.5 L 232821 17942.85 Q 235434.95 16269.6 237860.3 16269.6 Q 242288.95 16269.6 242288.95 21522.8 L 242288.95 29388.8 L 240522.55 29388.8 L 240333.95 27858.15 L 240263.8 27858.15 Q 238050.05 29694.7 236024.9 29694.7 Q 234376.95 29694.7 233340.8 28751.7 L 233337.35 28752.85 Z M 240144.2 26279.2 L 240144.2 22700.4 Q 234374.65 23382.35 234374.65 25926.15 Q 234374.65 27974.3 236634.4 27974.3 Q 238236.35 27974.3 240144.2 26278.05 L 240144.2 26279.2 Z M 245264.2 26845 L 245264.2 10640.35 L 247407.8 10640.35 L 247407.8 26985.3 Q 247407.8 27904.15 248019.6 27904.15 Q 248231.2 27904.15 248466.95 27858.15 L 248774 29506.1 Q 248278.35 29694.7 247525.1 29694.7 Q 245263.05 29694.7 245263.05 26843.85 L 245264.2 26845 Z M 250896.2 26845 L 250896.2 10640.35 L 253039.8 10640.35 L 253039.8 26985.3 Q 253039.8 27904.15 253651.6 27904.15 Q 253863.2 27904.15 254098.95 27858.15 L 254406 29506.1 Q 253910.35 29694.7 253157.1 29694.7 Q 250895.05 29694.7 250895.05 26843.85 L 250896.2 26845 Z M 259695.65 21970.15 L 265725.1 21970.15 L 265725.1 23618.1 L 259695.65 23618.1 L 259695.65 21970.15 Z M 268390.25 34380.95 Q 266905.6 33462.1 266905.6 31837.15 Q 266905.6 30166.2 268813.45 28941.45 L 268813.45 28848.3 Q 267635.85 28164.05 267635.85 26751.85 Q 267635.85 25408.65 269072.2 24372.5 L 269072.2 24279.35 Q 267401.25 22936.15 267401.25 20839.7 Q 267401.25 18791.55 268837.6 17495.5 Q 270202.65 16270.75 272204.8 16270.75 Q 273100.65 16270.75 273994.2 16601.95 L 278445.85 16601.95 L 278445.85 18249.9 L 275831.9 18249.9 Q 276868.05 19238.9 276868.05 20886.85 Q 276868.05 22889 275501.85 24136.75 Q 274208.1 25337.35 272205.95 25337.35 Q 271193.95 25337.35 270298.1 24890 Q 269473.55 25597.25 269473.55 26421.8 Q 269473.55 27811 271710.3 27811 L 274208.1 27811 Q 278659.75 27811 278659.75 30848.15 Q 278659.75 32684.7 276916.35 33957.75 Q 275079.8 35276.8 272205.95 35276.8 Q 269803.6 35276.8 268391.4 34380.95 L 268390.25 34380.95 Z M 274112.65 23053.45 Q 274913.05 22205.9 274913.05 20839.7 Q 274913.05 19473.5 274136.8 18650.1 Q 273359.4 17849.7 272204.8 17849.7 Q 271027.2 17849.7 270272.8 18625.95 Q 269472.4 19473.5 269472.4 20839.7 Q 269472.4 22205.9 270272.8 23053.45 Q 271050.2 23878 272204.8 23878 Q 273335.25 23878 274112.65 23053.45  Z M 275478.85 32991.75 Q 276586.3 32238.5 276586.3 31177.05 Q 276586.3 29599.25 273972.35 29599.25 L 271758.6 29599.25 Q 270958.2 29599.25 270110.65 29387.65 Q 268791.6 30329.5 268791.6 31554.25 Q 268791.6 32590.4 269780.6 33202.2 Q 270769.6 33815.15 272513 33815.15 Q 274279.4 33815.15 275480 32990.6 L 275478.85 32991.75 Z M 284707 25432.8 L 284707 18343.05 L 282799.15 18343.05 L 282799.15 16718.1 L 284800.15 16601.95 L 285058.9 13022 L 286849.45 13022 L 286849.45 16601.95 L 290312.1 16601.95 L 290312.1 18344.2 L 286849.45 18344.2 L 286849.45 25479.95 Q 286849.45 27953.6 288827.45 27953.6 Q 289439.25 27953.6 290286.8 27623.55 L 290711.15 29224.35 Q 289249.5 29697 288355.95 29697 Q 284704.7 29697 284704.7 25433.95 L 284707 25432.8 Z M 290816.15 34640.85 L 291240.5 32921.6 Q 291829.3 33133.2 292206.5 33133.2 Q 294207.5 33133.2 295103.35 30377.8 L 295385.1 29411.8 L 290251.5 16600.8 L 292488.25 16600.8 L 295102.2 23712.4 Q 295998.05 26374.65 296328.1 27293.5 L 296444.25 27293.5 L 297528.7 23713.55 L 299813.75 16601.95 L 301910.2 16601.95 L 297081.35 30449.1 Q 295503.55 34900.75 292323.8 34900.75 Q 291453.25 34900.75 290817.3 34642 L 290816.15 34640.85 Z M 303325 16600.8 L 305091.4 16600.8 L 305280 18060.15 L 305350.15 18060.15 Q 307540.9 16269.6 309423.45 16269.6 Q 311848.8 16269.6 313215 18060.15 Q 314511.05 19779.4 314511.05 22793.55 Q 314511.05 25949.15 312840.1 27881.15 Q 311261.15 29694.7 308953.1 29694.7 Q 307233.85 29694.7 305420.3 28210.05 L 305467.45 30446.8 L 305467.45 34780 L 303323.85 34780 L 303323.85 16599.65 L 303325 16600.8 Z M 311238.15 26563.25 Q 312274.3 25149.9 312274.3 22818.85 Q 312274.3 18084.3 308905.95 18084.3 Q 307375.3 18084.3 305467.45 19850.7 L 305467.45 26563.25 Q 307045.25 27905.3 308600.05 27905.3 Q 310225 27905.3 311237 26563.25 L 311238.15 26563.25 Z M 317717.55 27929.45 Q 315927 26067.6 315927 23005.15 Q 315927 20015.15 317693.4 18083.15 Q 319366.65 16269.6 321698.85 16269.6 Q 324100.05 16269.6 325466.25 17894.55 Q 326785.3 19496.5 326785.3 22274.9 Q 326785.3 22887.85 326692.15 23499.65 L 318071.75 23499.65 Q 318167.2 25547.8 319344.8 26749.55 Q 320498.25 27973.15 322311.8 27973.15 Q 324008.05 27973.15 325515.7 26961.15 L 326293.1 28374.5 Q 324242.65 29693.55 322053.05 29693.55 Q 319416.1 29693.55 317719.85 27927.15 L 317717.55 27929.45 Z M 324901.6 21970.15 Q 324901.6 17990 321721.85 17990 Q 320308.5 17990 319296.5 19026.15 Q 318237.35 20133.6 318048.75 21970.15 L 324902.75 21970.15 L 324901.6 21970.15 Z M 327437.45 27929.45 L 328496.6 26516.1 Q 330358.45 28023.75 332289.3 28023.75 Q 333514.05 28023.75 334196 27434.95 Q 334808.95 26893.3 334808.95 26022.75 Q 334808.95 24726.7 331887.95 23595.1 Q 330121.55 22936.15 329321.15 22301.35 Q 328073.4 21335.35 328073.4 19899 Q 328073.4 18321.2 329228 17332.2 Q 330451.6 16270.75 332476.75 16270.75 Q 334597.35 16270.75 336456.9 17707.1 L 335420.75 19097.45 Q 333890.1 17965.85 332476.75 17965.85 Q 331346.3 17965.85 330710.35 18508.65 Q 330145.7 19002 330145.7 19802.4 Q 330145.7 20603.95 331016.25 21168.6 Q 331463.6 21452.65 332971.25 22017.3 Q 334902.1 22747.55 335632.35 23313.35 Q 336882.4 24302.35 336882.4 25904.3 Q 336882.4 27529.25 335680.65 28564.25 Q 334409.9 29695.85 332219.15 29695.85 Q 329582.2 29695.85 327438.6 27929.45 L 327437.45 27929.45 Z M 339584 27929.45 Q 337840.6 26115.9 337840.6 23006.3 Q 337840.6 19920.85 339702.45 18036 Q 341444.7 16269.6 344012.65 16269.6 Q 346037.8 16269.6 347757.05 17778.4 L 346649.6 19213.6 Q 345378.85 18060.15 344082.8 18060.15 Q 342339.4 18060.15 341208.95 19426.35 Q 340078.5 20815.55 340078.5 23005.15 Q 340078.5 25218.9 341183.65 26562.1 Q 342268.1 27904.15 344034.5 27904.15 Q 345659.45 27904.15 347048.65 26633.4 L 347967.5 28069.75 Q 346201.1 29694.7 343845.9 29694.7 Q 341231.95 29694.7 339584 27928.3 L 339584 27929.45 Z M 349712.2 16600.8 L 351478.6 16600.8 L 351667.2 18931.85 L 351737.35 18931.85 Q 353196.7 16269.6 355364.45 16269.6 Q 356187.85 16269.6 356729.5 16553.65 L 356329.3 18438.5 Q 355787.65 18225.75 355080.4 18225.75 Q 352983.95 18225.75 351853.5 21169.75 L 351853.5 29389.95 L 349709.9 29389.95 L 349709.9 16601.95 L 349712.2 16600.8 Z M 357801.8 16600.8 L 359945.4 16600.8 L 359945.4 29388.8 L 357801.8 29388.8 L 357801.8 16600.8 Z M 357824.8 13561.35 Q 357401.6 13161.15 357401.6 12572.35 Q 357401.6 11183.15 358886.25 11183.15 Q 360368.6 11183.15 360368.6 12572.35 Q 360368.6 13161.15 359945.4 13561.35 Q 359521.05 13961.55 358886.25 13961.55 Q 358250.3 13961.55 357825.95 13561.35 L 357824.8 13561.35 Z M 363229 16600.8 L 364995.4 16600.8 L 365184 18060.15 L 365254.15 18060.15 Q 367444.9 16269.6 369327.45 16269.6 Q 371752.8 16269.6 373119 18060.15 Q 374415.05 19779.4 374415.05 22793.55 Q 374415.05 25949.15 372744.1 27881.15 Q 371165.15 29694.7 368857.1 29694.7 Q 367137.85 29694.7 365324.3 28210.05 L 365371.45 30446.8 L 365371.45 34780 L 363227.85 34780 L 363227.85 16599.65 L 363229 16600.8 Z M 371142.15 26563.25 Q 372178.3 25149.9 372178.3 22818.85 Q 372178.3 18084.3 368809.95 18084.3 Q 367279.3 18084.3 365371.45 19850.7 L 365371.45 26563.25 Q 366949.25 27905.3 368504.05 27905.3 Q 370129 27905.3 371141 26563.25 L 371142.15 26563.25 Z M 377174.2 25432.8 L 377174.2 18343.05 L 375266.35 18343.05 L 375266.35 16718.1 L 377267.35 16601.95 L 377526.1 13022 L 379316.65 13022 L 379316.65 16601.95 L 382779.3 16601.95 L 382779.3 18344.2 L 379316.65 18344.2 L 379316.65 25479.95 Q 379316.65 27953.6 381294.65 27953.6 Q 381906.45 27953.6 382754 27623.55 L 383178.35 29224.35 Q 381716.7 29697 380823.15 29697 Q 377171.9 29697 377171.9 25433.95 L 377174.2 25432.8 Z M 384909.45 9228.15 Q 389596.85 13985.7 389596.85 20438.35 Q 389596.85 26892.15 384909.45 31649.7 L 383497.25 30918.3 Q 387877.6 26396.5 387877.6 20438.35 Q 387877.6 14480.2 383497.25 9958.4 L 384909.45 9228.15 Z M 3084.15 67081.25 Q 10997.3 60157.1 10997.3 55940.05 Q 10997.3 54386.4 10219.9 53490.55 Q 9372.35 52524.55 7817.55 52524.55 Q 5909.7 52524.55 4236.45 54526.7 L 2988.7 53301.95 Q 5343.9 50758.15 8076.3 50758.15 Q 10384.35 50758.15 11750.55 52147.35 Q 13093.75 53537.7 13093.75 55868.75 Q 13093.75 60249.1 6335.2 66655.75 Q 8431.65 66491.3 9161.9 66491.3 L 13942.45 66491.3 L 13942.45 68350.85 L 3085.3 68350.85 L 3085.3 67080.1 L 3084.15 67081.25 Z M 16218.4 68210.55 Q 15748.05 67740.2 15748.05 67032.95 Q 15748.05 66325.7 16218.4 65830.05 Q 16665.75 65359.7 17301.7 65359.7 Q 17937.65 65359.7 18408 65830.05 Q 18855.35 66325.7 18855.35 67032.95 Q 18855.35 67740.2 18408 68210.55 Q 17960.65 68657.9 17301.7 68657.9 Q 16642.75 68657.9 16218.4 68210.55  Z M 24716.15 61639.45 L 19535.4 51088.2 L 21866.45 51088.2 L 24080.2 55964.2 Q 25423.4 59001.35 25776.45 59731.6 L 25869.6 59731.6 Q 27212.8 56906.05 27590 55964.2 L 29826.75 51088.2 L 32088.8 51088.2 L 26905.75 61639.45 L 26905.75 68352 L 24716.15 68352 L 24716.15 61639.45 Z M 40703.85 61333.55 L 39879.3 58694.3 Q 39172.05 56504.7 38135.9 52853.45 L 38042.75 52853.45 Q 37406.8 55255.8 36324.65 58693.15 L 35477.1 61332.4 L 40706.15 61332.4 L 40703.85 61333.55 Z M 41244.35 63075.8 L 34932 63075.8 L 33261.05 68352 L 31047.3 68352 L 36912.3 51088.2 L 39337.65 51088.2 L 45201.5 68352 L 42893.45 68352 L 41245.5 63075.8 L 41244.35 63075.8 Z M 48781.6 59261.25 L 51679.6 59261.25 Q 55871.35 59261.25 55871.35 55940.05 Q 55871.35 52854.6 51679.6 52854.6 L 48781.6 52854.6 L 48781.6 59261.25 Z M 56082.95 68352 L 51891.2 61027.65 L 48781.6 61027.65 L 48781.6 68352 L 46592 68352 L 46592 51088.2 L 52009.65 51088.2 Q 58039.1 51088.2 58039.1 55940.05 Q 58039.1 59850.05 54129.1 60791.9 L 58557.75 68353.15 L 56084.1 68353.15 L 56082.95 68352 Z M 60467.2 51088.2 L 62729.25 51088.2 L 69017.45 61968.35 L 70854 65525.3 L 70972.45 65525.3 Q 70688.4 61333.55 70688.4 60060.5 L 70688.4 51087.05 L 72761.85 51087.05 L 72761.85 68350.85 L 70525.1 68350.85 L 64236.9 57445.4 L 62375.05 53889.6 L 62281.9 53889.6 Q 62540.65 58670.15 62540.65 59281.95 L 62540.65 68349.7 L 60467.2 68349.7 L 60467.2 51085.9 L 60467.2 51088.2 Z M 95090.55 70614.05 Q 90403.15 65856.5 90403.15 59402.7 Q 90403.15 52950.05 95090.55 48192.5 L 96502.75 48922.75 Q 92122.4 53444.55 92122.4 59402.7 Q 92122.4 65360.85 96502.75 69882.65 L 95090.55 70614.05 Z M 97433.75 73604.05 L 97858.1 71884.8 Q 98446.9 72096.4 98824.1 72096.4 Q 100825.1 72096.4 101720.95 69341 L 102002.7 68375 L 96869.1 55564 L 99105.85 55564 L 101719.8 62675.6 Q 102615.65 65337.85 102945.7 66256.7 L 103061.85 66256.7 L 104146.3 62676.75 L 106431.35 55565.15 L 108527.8 55565.15 L 103698.95 69412.3 Q 102121.15 73863.95 98941.4 73863.95 Q 98070.85 73863.95 97434.9 73605.2 L 97433.75 73604.05 Z M 110201.35 67716.05 Q 109142.2 66727.05 109142.2 65030.8 Q 109142.2 62959.65 111027.05 61828.05 Q 112886.6 60720.6 117008.2 60250.25 Q 117008.2 57024.5 114371.25 57024.5 Q 112557.7 57024.5 110532.55 58390.7 L 109685 56906.05 Q 112298.95 55232.8 114724.3 55232.8 Q 119152.95 55232.8 119152.95 60486 L 119152.95 68352 L 117386.55 68352 L 117197.95 66821.35 L 117127.8 66821.35 Q 114914.05 68657.9 112888.9 68657.9 Q 111240.95 68657.9 110204.8 67714.9 L 110201.35 67716.05 Z M 117008.2 65242.4 L 117008.2 61663.6 Q 111238.65 62345.55 111238.65 64889.35 Q 111238.65 66937.5 113498.4 66937.5 Q 115100.35 66937.5 117008.2 65241.25 L 117008.2 65242.4 Z M 122128.2 55564 L 123894.6 55564 L 124083.2 57895.05 L 124153.35 57895.05 Q 125612.7 55232.8 127780.45 55232.8 Q 128603.85 55232.8 129145.5 55516.85 L 128745.3 57401.7 Q 128203.65 57188.95 127496.4 57188.95 Q 125399.95 57188.95 124269.5 60132.95 L 124269.5 68353.15 L 122125.9 68353.15 L 122125.9 55565.15 L 122128.2 55564 Z M 130217.8 55564 L 131984.2 55564 L 132172.8 57400.55 L 132242.95 57400.55 Q 134456.7 55232.8 136530.15 55232.8 Q 140439 55232.8 140439 60250.25 L 140439 68352 L 138296.55 68352 L 138296.55 60532 Q 138296.55 57117.65 135871.2 57117.65 Q 134316.4 57117.65 132361.4 59072.65 L 132361.4 68352 L 130217.8 68352 L 130217.8 55564 Z M 148326.25 73344.15 Q 146841.6 72425.3 146841.6 70800.35 Q 146841.6 69129.4 148749.45 67904.65 L 148749.45 67811.5 Q 147571.85 67127.25 147571.85 65715.05 Q 147571.85 64371.85 149008.2 63335.7 L 149008.2 63242.55 Q 147337.25 61899.35 147337.25 59802.9 Q 147337.25 57754.75 148773.6 56458.7 Q 150138.65 55233.95 152140.8 55233.95 Q 153036.65 55233.95 153930.2 55565.15 L 158381.85 55565.15 L 158381.85 57213.1 L 155767.9 57213.1 Q 156804.05 58202.1 156804.05 59850.05 Q 156804.05 61852.2 155437.85 63099.95 Q 154144.1 64300.55 152141.95 64300.55 Q 151129.95 64300.55 150234.1 63853.2 Q 149409.55 64560.45 149409.55 65385 Q 149409.55 66774.2 151646.3 66774.2 L 154144.1 66774.2 Q 158595.75 66774.2 158595.75 69811.35 Q 158595.75 71647.9 156852.35 72920.95 Q 155015.8 74240 152141.95 74240 Q 149739.6 74240 148327.4 73344.15 L 148326.25 73344.15 Z M 154048.65 62016.65 Q 154849.05 61169.1 154849.05 59802.9 Q 154849.05 58436.7 154072.8 57613.3 Q 153295.4 56812.9 152140.8 56812.9 Q 150963.2 56812.9 150208.8 57589.15 Q 149408.4 58436.7 149408.4 59802.9 Q 149408.4 61169.1 150208.8 62016.65 Q 150986.2 62841.2 152140.8 62841.2 Q 153271.25 62841.2 154048.65 62016.65  Z M 155414.85 71954.95 Q 156522.3 71201.7 156522.3 70140.25 Q 156522.3 68562.45 153908.35 68562.45 L 151694.6 68562.45 Q 150894.2 68562.45 150046.65 68350.85 Q 148727.6 69292.7 148727.6 70517.45 Q 148727.6 71553.6 149716.6 72165.4 Q 150705.6 72778.35 152449 72778.35 Q 154215.4 72778.35 155416 71953.8 L 155414.85 71954.95 Z M 160016.2 65808.2 L 160016.2 49603.55 L 162159.8 49603.55 L 162159.8 65948.5 Q 162159.8 66867.35 162771.6 66867.35 Q 162983.2 66867.35 163218.95 66821.35 L 163526 68469.3 Q 163030.35 68657.9 162277.1 68657.9 Q 160015.05 68657.9 160015.05 65807.05 L 160016.2 65808.2 Z M 166472.75 66892.65 Q 164682.2 65030.8 164682.2 61968.35 Q 164682.2 58882.9 166472.75 56998.05 Q 168143.7 55231.65 170617.35 55231.65 Q 173091 55231.65 174761.95 56998.05 Q 176552.5 58882.9 176552.5 61968.35 Q 176552.5 65030.8 174761.95 66892.65 Q 173091 68659.05 170617.35 68659.05 Q 168143.7 68659.05 166472.75 66892.65  Z M 173302.6 65526.45 Q 174338.75 64183.25 174338.75 61969.5 Q 174338.75 59756.9 173302.6 58390.7 Q 172290.6 57024.5 170617.35 57024.5 Q 168969.4 57024.5 167933.25 58390.7 Q 166921.25 59756.9 166921.25 61969.5 Q 166921.25 64183.25 167933.25 65526.45 Q 168946.4 66868.5 170617.35 66868.5 Q 172290.6 66868.5 173302.6 65526.45  Z M 180784.6 67032.95 L 180714.45 67032.95 L 180525.85 68352 L 178806.6 68352 L 178806.6 49603.55 L 180950.2 49603.55 L 180950.2 54738.3 L 180880.05 57046.35 Q 182951.2 55232.8 184883.2 55232.8 Q 187331.55 55232.8 188674.75 57023.35 Q 189993.8 58742.6 189993.8 61733.75 Q 189993.8 64912.35 188322.85 66844.35 Q 186743.9 68657.9 184435.85 68657.9 Q 182551 68657.9 180784.6 67032.95  Z M 186719.75 65526.45 Q 187755.9 64113.1 187755.9 61782.05 Q 187755.9 57047.5 184387.55 57047.5 Q 182833.9 57047.5 180949.05 58813.9 L 180949.05 65526.45 Q 182479.7 66868.5 184081.65 66868.5 Q 185706.6 66868.5 186718.6 65526.45 L 186719.75 65526.45 Z M 192530.95 67716.05 Q 191471.8 66727.05 191471.8 65030.8 Q 191471.8 62959.65 193356.65 61828.05 Q 195216.2 60720.6 199337.8 60250.25 Q 199337.8 57024.5 196700.85 57024.5 Q 194887.3 57024.5 192862.15 58390.7 L 192014.6 56906.05 Q 194628.55 55232.8 197053.9 55232.8 Q 201482.55 55232.8 201482.55 60486 L 201482.55 68352 L 199716.15 68352 L 199527.55 66821.35 L 199457.4 66821.35 Q 197243.65 68657.9 195218.5 68657.9 Q 193570.55 68657.9 192534.4 67714.9 L 192530.95 67716.05 Z M 199337.8 65242.4 L 199337.8 61663.6 Q 193568.25 62345.55 193568.25 64889.35 Q 193568.25 66937.5 195828 66937.5 Q 197429.95 66937.5 199337.8 65241.25 L 199337.8 65242.4 Z M 204457.8 65808.2 L 204457.8 49603.55 L 206601.4 49603.55 L 206601.4 65948.5 Q 206601.4 66867.35 207213.2 66867.35 Q 207424.8 66867.35 207660.55 66821.35 L 207967.6 68469.3 Q 207471.95 68657.9 206718.7 68657.9 Q 204456.65 68657.9 204456.65 65807.05 L 204457.8 65808.2 Z M 214598.15 67716.05 Q 213539 66727.05 213539 65030.8 Q 213539 62959.65 215423.85 61828.05 Q 217283.4 60720.6 221405 60250.25 Q 221405 57024.5 218768.05 57024.5 Q 216954.5 57024.5 214929.35 58390.7 L 214081.8 56906.05 Q 216695.75 55232.8 219121.1 55232.8 Q 223549.75 55232.8 223549.75 60486 L 223549.75 68352 L 221783.35 68352 L 221594.75 66821.35 L 221524.6 66821.35 Q 219310.85 68657.9 217285.7 68657.9 Q 215637.75 68657.9 214601.6 67714.9 L 214598.15 67716.05 Z M 221405 65242.4 L 221405 61663.6 Q 215635.45 62345.55 215635.45 64889.35 Q 215635.45 66937.5 217895.2 66937.5 Q 219497.15 66937.5 221405 65241.25 L 221405 65242.4 Z M 227043.65 66915.65 Q 225607.3 65126.25 225607.3 61969.5 Q 225607.3 58955.35 227280.55 57047.5 Q 228858.35 55233.95 231143.4 55233.95 Q 232932.8 55233.95 234746.35 56742.75 L 234627.9 54529 L 234627.9 49605.85 L 236771.5 49605.85 L 236771.5 68354.3 L 235028.1 68354.3 L 234816.5 66846.65 L 234769.35 66846.65 Q 232909.8 68660.2 230884.65 68660.2 Q 228459.3 68660.2 227045.95 66916.8 L 227043.65 66915.65 Z M 234626.75 65100.95 L 234626.75 58389.55 Q 233119.1 57046.35 231517.15 57046.35 Q 229939.35 57046.35 228903.2 58389.55 Q 227821.05 59778.75 227821.05 61945.35 Q 227821.05 64277.55 228739.9 65573.6 Q 229658.75 66867.35 231355 66867.35 Q 233051.25 66867.35 234629.05 65100.95 L 234626.75 65100.95 Z M 240611.65 66915.65 Q 239175.3 65126.25 239175.3 61969.5 Q 239175.3 58955.35 240848.55 57047.5 Q 242426.35 55233.95 244711.4 55233.95 Q 246500.8 55233.95 248314.35 56742.75 L 248195.9 54529 L 248195.9 49605.85 L 250339.5 49605.85 L 250339.5 68354.3 L 248596.1 68354.3 L 248384.5 66846.65 L 248337.35 66846.65 Q 246477.8 68660.2 244452.65 68660.2 Q 242027.3 68660.2 240613.95 66916.8 L 240611.65 66915.65 Z M 248194.75 65100.95 L 248194.75 58389.55 Q 246687.1 57046.35 245085.15 57046.35 Q 243507.35 57046.35 242471.2 58389.55 Q 241389.05 59778.75 241389.05 61945.35 Q 241389.05 64277.55 242307.9 65573.6 Q 243226.75 66867.35 244923 66867.35 Q 246619.25 66867.35 248197.05 65100.95 L 248194.75 65100.95 Z M 258287.8 64396 L 258287.8 57306.25 L 256379.95 57306.25 L 256379.95 55681.3 L 258380.95 55565.15 L 258639.7 51985.2 L 260430.25 51985.2 L 260430.25 55565.15 L 263892.9 55565.15 L 263892.9 57307.4 L 260430.25 57307.4 L 260430.25 64443.15 Q 260430.25 66916.8 262408.25 66916.8 Q 263020.05 66916.8 263867.6 66586.75 L 264291.95 68187.55 Q 262830.3 68660.2 261936.75 68660.2 Q 258285.5 68660.2 258285.5 64397.15 L 258287.8 64396 Z M 264396.95 73604.05 L 264821.3 71884.8 Q 265410.1 72096.4 265787.3 72096.4 Q 267788.3 72096.4 268684.15 69341 L 268965.9 68375 L 263832.3 55564 L 266069.05 55564 L 268683 62675.6 Q 269578.85 65337.85 269908.9 66256.7 L 270025.05 66256.7 L 271109.5 62676.75 L 273394.55 55565.15 L 275491 55565.15 L 270662.15 69412.3 Q 269084.35 73863.95 265904.6 73863.95 Q 265034.05 73863.95 264398.1 73605.2 L 264396.95 73604.05 Z M 276905.8 55564 L 278672.2 55564 L 278860.8 57023.35 L 278930.95 57023.35 Q 281121.7 55232.8 283004.25 55232.8 Q 285429.6 55232.8 286795.8 57023.35 Q 288091.85 58742.6 288091.85 61756.75 Q 288091.85 64912.35 286420.9 66844.35 Q 284841.95 68657.9 282533.9 68657.9 Q 280814.65 68657.9 279001.1 67173.25 L 279048.25 69410 L 279048.25 73743.2 L 276904.65 73743.2 L 276904.65 55562.85 L 276905.8 55564 Z M 284818.95 65526.45 Q 285855.1 64113.1 285855.1 61782.05 Q 285855.1 57047.5 282486.75 57047.5 Q 280956.1 57047.5 279048.25 58813.9 L 279048.25 65526.45 Q 280626.05 66868.5 282180.85 66868.5 Q 283805.8 66868.5 284817.8 65526.45 L 284818.95 65526.45 Z M 291298.35 66892.65 Q 289507.8 65030.8 289507.8 61968.35 Q 289507.8 58978.35 291274.2 57046.35 Q 292947.45 55232.8 295279.65 55232.8 Q 297680.85 55232.8 299047.05 56857.75 Q 300366.1 58459.7 300366.1 61238.1 Q 300366.1 61851.05 300272.95 62462.85 L 291652.55 62462.85 Q 291748 64511 292925.6 65712.75 Q 294079.05 66936.35 295892.6 66936.35 Q 297588.85 66936.35 299096.5 65924.35 L 299873.9 67337.7 Q 297823.45 68656.75 295633.85 68656.75 Q 292996.9 68656.75 291300.65 66890.35 L 291298.35 66892.65 Z M 298482.4 60933.35 Q 298482.4 56953.2 295302.65 56953.2 Q 293889.3 56953.2 292877.3 57989.35 Q 291818.15 59096.8 291629.55 60933.35 L 298483.55 60933.35 L 298482.4 60933.35 Z M 301018.25 66892.65 L 302077.4 65479.3 Q 303939.25 66986.95 305870.1 66986.95 Q 307094.85 66986.95 307776.8 66398.15 Q 308389.75 65856.5 308389.75 64985.95 Q 308389.75 63689.9 305468.75 62558.3 Q 303702.35 61899.35 302901.95 61264.55 Q 301654.2 60298.55 301654.2 58862.2 Q 301654.2 57284.4 302808.8 56295.4 Q 304032.4 55233.95 306057.55 55233.95 Q 308178.15 55233.95 310037.7 56670.3 L 309001.55 58060.65 Q 307470.9 56929.05 306057.55 56929.05 Q 304927.1 56929.05 304291.15 57471.85 Q 303726.5 57965.2 303726.5 58765.6 Q 303726.5 59567.15 304597.05 60131.8 Q 305044.4 60415.85 306552.05 60980.5 Q 308482.9 61710.75 309213.15 62276.55 Q 310463.2 63265.55 310463.2 64867.5 Q 310463.2 66492.45 309261.45 67527.45 Q 307990.7 68659.05 305799.95 68659.05 Q 303163 68659.05 301019.4 66892.65 L 301018.25 66892.65 Z M 313164.8 66892.65 Q 311421.4 65079.1 311421.4 61969.5 Q 311421.4 58884.05 313283.25 56999.2 Q 315025.5 55232.8 317593.45 55232.8 Q 319618.6 55232.8 321337.85 56741.6 L 320230.4 58176.8 Q 318959.65 57023.35 317663.6 57023.35 Q 315920.2 57023.35 314789.75 58389.55 Q 313659.3 59778.75 313659.3 61968.35 Q 313659.3 64182.1 314764.45 65525.3 Q 315848.9 66867.35 317615.3 66867.35 Q 319240.25 66867.35 320629.45 65596.6 L 321548.3 67032.95 Q 319781.9 68657.9 317426.7 68657.9 Q 314812.75 68657.9 313164.8 66891.5 L 313164.8 66892.65 Z M 323293 55564 L 325059.4 55564 L 325248 57895.05 L 325318.15 57895.05 Q 326777.5 55232.8 328945.25 55232.8 Q 329768.65 55232.8 330310.3 55516.85 L 329910.1 57401.7 Q 329368.45 57188.95 328661.2 57188.95 Q 326564.75 57188.95 325434.3 60132.95 L 325434.3 68353.15 L 323290.7 68353.15 L 323290.7 55565.15 L 323293 55564 Z M 331382.6 55564 L 333526.2 55564 L 333526.2 68352 L 331382.6 68352 L 331382.6 55564 Z M 331405.6 52524.55 Q 330982.4 52124.35 330982.4 51535.55 Q 330982.4 50146.35 332467.05 50146.35 Q 333949.4 50146.35 333949.4 51535.55 Q 333949.4 52124.35 333526.2 52524.55 Q 333101.85 52924.75 332467.05 52924.75 Q 331831.1 52924.75 331406.75 52524.55 L 331405.6 52524.55 Z M 336809.8 55564 L 338576.2 55564 L 338764.8 57023.35 L 338834.95 57023.35 Q 341025.7 55232.8 342908.25 55232.8 Q 345333.6 55232.8 346699.8 57023.35 Q 347995.85 58742.6 347995.85 61756.75 Q 347995.85 64912.35 346324.9 66844.35 Q 344745.95 68657.9 342437.9 68657.9 Q 340718.65 68657.9 338905.1 67173.25 L 338952.25 69410 L 338952.25 73743.2 L 336808.65 73743.2 L 336808.65 55562.85 L 336809.8 55564 Z M 344722.95 65526.45 Q 345759.1 64113.1 345759.1 61782.05 Q 345759.1 57047.5 342390.75 57047.5 Q 340860.1 57047.5 338952.25 58813.9 L 338952.25 65526.45 Q 340530.05 66868.5 342084.85 66868.5 Q 343709.8 66868.5 344721.8 65526.45 L 344722.95 65526.45 Z M 350755 64396 L 350755 57306.25 L 348847.15 57306.25 L 348847.15 55681.3 L 350848.15 55565.15 L 351106.9 51985.2 L 352897.45 51985.2 L 352897.45 55565.15 L 356360.1 55565.15 L 356360.1 57307.4 L 352897.45 57307.4 L 352897.45 64443.15 Q 352897.45 66916.8 354875.45 66916.8 Q 355487.25 66916.8 356334.8 66586.75 L 356759.15 68187.55 Q 355297.5 68660.2 354403.95 68660.2 Q 350752.7 68660.2 350752.7 64397.15 L 350755 64396 Z M 358490.25 48191.35 Q 363177.65 52948.9 363177.65 59401.55 Q 363177.65 65855.35 358490.25 70612.9 L 357078.05 69881.5 Q 361458.4 65359.7 361458.4 59401.55 Q 361458.4 53443.4 357078.05 48921.6 L 358490.25 48191.35 Z M 2729.95 105267.05 L 3814.4 103853.7 Q 5699.25 105831.7 8101.6 105831.7 Q 9655.25 105831.7 10621.25 104961.15 Q 11610.25 104090.6 11610.25 102628.95 Q 11610.25 99166.3 6240.9 99166.3 L 6240.9 97518.35 Q 11021.45 97518.35 11021.45 94221.3 Q 11021.45 92973.55 10244.05 92219.15 Q 9443.65 91488.9 8101.6 91441.75 Q 6169.6 91511.9 4521.65 93162.15 L 3367.05 91795.95 Q 5603.8 89722.5 8194.75 89722.5 Q 10431.5 89722.5 11797.7 90852.95 Q 13211.05 92030.55 13211.05 94055.7 Q 13211.05 97069.85 10124.45 98224.45 L 10124.45 98317.6 Q 11726.4 98694.8 12738.4 99802.25 Q 13799.85 101004 13799.85 102697.95 Q 13799.85 104960 12174.9 106326.2 Q 10643.1 107622.25 8264.9 107622.25 Q 4897.7 107622.25 2729.95 105267.05  Z M 16218.4 107173.75 Q 15748.05 106703.4 15748.05 105996.15 Q 15748.05 105288.9 16218.4 104793.25 Q 16665.75 104322.9 17301.7 104322.9 Q 17937.65 104322.9 18408 104793.25 Q 18855.35 105288.9 18855.35 105996.15 Q 18855.35 106703.4 18408 107173.75 Q 17960.65 107621.1 17301.7 107621.1 Q 16642.75 107621.1 16218.4 107173.75  Z M 21913.6 90051.4 L 24103.2 90051.4 L 24103.2 107315.2 L 21913.6 107315.2 L 21913.6 90051.4 Z M 27750.4 90051.4 L 32083.6 90051.4 Q 36040.75 90051.4 38137.2 92288.15 Q 40233.65 94501.9 40233.65 98623.5 Q 40233.65 102745.1 38160.2 105007.15 Q 36063.75 107315.2 32177.9 107315.2 L 27749.25 107315.2 L 27749.25 90051.4 L 27750.4 90051.4 Z M 31895 105525.8 Q 34909.15 105525.8 36463.95 103712.25 Q 37971.6 101945.85 37971.6 98624.65 Q 37971.6 91817.8 31895 91817.8 L 29940 91817.8 L 29940 105525.8 L 31895 105525.8 Z M 42905.6 90051.4 L 52868.05 90051.4 L 52868.05 91887.95 L 45095.2 91887.95 L 45095.2 97305.6 L 51644.45 97305.6 L 51644.45 99165.15 L 45095.2 99165.15 L 45095.2 105454.5 L 53126.8 105454.5 L 53126.8 107314.05 L 42905.6 107314.05 L 42905.6 90050.25 L 42905.6 90051.4 Z M 61452.15 99683.8 L 58885.35 100485.35 L 58885.35 107055.3 Q 58885.35 108326.05 58178.1 108703.25 Q 57565.15 109033.3 55634.3 109033.3 Q 55468.7 108068.45 55138.65 107407.2 Q 55916.05 107431.35 56859.05 107431.35 Q 57212.1 107431.35 57212.1 107054.15 L 57212.1 101001.7 L 54715.45 101754.95 L 54315.25 100081.7 Q 55327.25 99824.1 57212.1 99281.3 L 57212.1 93959.1 L 54715.45 93959.1 L 54715.45 92334.15 L 57212.1 92334.15 L 57212.1 87623.75 L 58885.35 87623.75 L 58885.35 92334.15 L 61122.1 92334.15 L 61122.1 93959.1 L 58885.35 93959.1 L 58885.35 98810.95 L 61240.55 98103.7 L 61452.15 99681.5 L 61452.15 99683.8 Z M 73251.15 106349.2 L 73251.15 103075.15 L 70542.9 103075.15 L 70542.9 101567.5 L 73251.15 101567.5 L 73251.15 98647.65 L 70518.75 98647.65 L 70518.75 97138.85 L 74828.95 97138.85 L 74828.95 109150.6 L 73251.15 109150.6 L 73251.15 107950 L 64230.55 107950 L 64230.55 109103.45 L 62652.75 109103.45 L 62652.75 97704.65 Q 64773.35 97092.85 66209.7 96338.45 L 67080.25 97774.8 Q 65784.2 98316.45 64229.4 98693.65 L 64229.4 101591.65 L 67008.95 101591.65 L 67008.95 103099.3 L 64229.4 103099.3 L 64229.4 106348.05 L 68020.95 106348.05 L 68020.95 94713.5 L 62039.8 94713.5 L 62039.8 93112.7 L 68020.95 93112.7 L 68020.95 90357.3 Q 65454.15 90616.05 63264.55 90686.2 Q 63192.1 90073.25 62816.05 89272.85 Q 70281.85 88849.65 73532.9 87765.2 L 74451.75 89178.55 Q 72542.75 89814.5 69622.9 90144.55 L 69622.9 93111.55 L 75629.35 93111.55 L 75629.35 94712.35 L 69622.9 94712.35 L 69622.9 106346.9 L 73248.85 106346.9 L 73251.15 106349.2 Z M 83885.85 88214.85 Q 82803.7 91017.4 81555.95 93302.45 L 81555.95 109081.6 L 79882.7 109081.6 L 79882.7 96009.55 Q 79012.15 97305.6 77716.1 98764.95 Q 77386.05 97894.4 76727.1 97046.85 Q 80236.9 93372.6 82237.9 87696.2 L 83885.85 88214.85 Z M 98205.65 101004 L 91824.3 101004 L 91824.3 109128.75 L 90080.9 109128.75 L 90080.9 101004 L 83368.35 101004 L 83368.35 99283.6 L 90080.9 99283.6 L 90080.9 94125.85 L 86383.65 94125.85 Q 85606.25 96293.6 84687.4 97705.8 Q 84098.6 97258.45 83179.75 96811.1 Q 85133.6 94102.85 86076.6 88780.65 L 87724.55 89133.7 Q 87394.5 90852.95 86947.15 92407.75 L 90079.75 92407.75 L 90079.75 87908.95 L 91823.15 87908.95 L 91823.15 92407.75 L 97192.5 92407.75 L 97192.5 94127 L 91823.15 94127 L 91823.15 99284.75 L 98204.5 99284.75 L 98204.5 101005.15 L 98205.65 101004 Z M 119461.75 109577.25 Q 114774.35 104819.7 114774.35 98365.9 Q 114774.35 91913.25 119461.75 87155.7 L 120873.95 87885.95 Q 116493.6 92407.75 116493.6 98365.9 Q 116493.6 104324.05 120873.95 108845.85 L 119461.75 109577.25 Z M 126656.8 94054.55 Q 126140.45 96456.9 125197.45 99801.1 Q 126422.2 100648.65 128235.75 102037.85 Q 129859.55 98835.1 130355.2 94054.55 L 126656.8 94054.55 Z M 132191.75 92572.2 Q 131721.4 99190.45 129600.8 103170.6 Q 131367.2 104652.95 132168.75 105689.1 L 131014.15 107148.45 Q 130236.75 106183.6 128658.95 104721.95 Q 126585.5 107619.95 123195.3 109150.6 Q 122770.95 108350.2 122112 107691.25 Q 125363.05 106466.5 127318.05 103545.5 Q 125338.9 101874.55 123242.45 100438.2 Q 124090 98035.85 124985.85 94055.7 L 122112 94055.7 L 122112 92430.75 L 125314.75 92430.75 Q 125785.1 90099.7 126092.15 87649.05 L 127811.4 87767.5 Q 127576.8 89533.9 126988 92430.75 L 130802.55 92430.75 L 131109.6 92360.6 L 132191.75 92573.35 L 132191.75 92572.2 Z M 140883.45 105101.45 L 140883.45 91817.8 L 135113.9 91817.8 L 135113.9 105101.45 L 140883.45 105101.45 Z M 142601.55 90146.85 L 142601.55 108186.9 L 140882.3 108186.9 L 140882.3 106774.7 L 135112.75 106774.7 L 135112.75 108516.95 L 133464.8 108516.95 L 133464.8 90148 L 142601.55 90148 L 142601.55 90146.85 Z M 143485.4 90051.4 L 145770.45 90051.4 L 148573 99402.05 L 149397.55 102252.9 Q 149867.9 103949.15 150245.1 105102.6 L 150338.25 105102.6 Q 150692.45 103995.15 151185.8 102252.9 Q 151751.6 100250.75 152010.35 99403.2 L 154788.75 90052.55 L 157002.5 90052.55 L 151514.7 107316.35 L 148995.05 107316.35 L 143483.1 90052.55 L 143485.4 90051.4 Z M 158121.8 94527.2 L 160265.4 94527.2 L 160265.4 107315.2 L 158121.8 107315.2 L 158121.8 94527.2 Z M 158144.8 91487.75 Q 157721.6 91087.55 157721.6 90498.75 Q 157721.6 89109.55 159206.25 89109.55 Q 160688.6 89109.55 160688.6 90498.75 Q 160688.6 91087.55 160265.4 91487.75 Q 159841.05 91887.95 159206.25 91887.95 Q 158570.3 91887.95 158145.95 91487.75 L 158144.8 91487.75 Z M 162112.65 105855.85 L 163171.8 104442.5 Q 165033.65 105950.15 166964.5 105950.15 Q 168189.25 105950.15 168871.2 105361.35 Q 169484.15 104819.7 169484.15 103949.15 Q 169484.15 102653.1 166563.15 101521.5 Q 164796.75 100862.55 163996.35 100227.75 Q 162748.6 99261.75 162748.6 97825.4 Q 162748.6 96247.6 163903.2 95258.6 Q 165126.8 94197.15 167151.95 94197.15 Q 169272.55 94197.15 171132.1 95633.5 L 170095.95 97023.85 Q 168565.3 95892.25 167151.95 95892.25 Q 166021.5 95892.25 165385.55 96435.05 Q 164820.9 96928.4 164820.9 97728.8 Q 164820.9 98530.35 165691.45 99095 Q 166138.8 99379.05 167646.45 99943.7 Q 169577.3 100673.95 170307.55 101239.75 Q 171557.6 102228.75 171557.6 103830.7 Q 171557.6 105455.65 170355.85 106490.65 Q 169085.1 107622.25 166894.35 107622.25 Q 164257.4 107622.25 162113.8 105855.85 L 162112.65 105855.85 Z M 173317.35 102627.8 L 173317.35 94527.2 L 175459.8 94527.2 L 175459.8 102369.05 Q 175459.8 104159.6 176025.6 104960 Q 176591.4 105760.4 177862.15 105760.4 Q 179581.4 105760.4 181324.8 103593.8 L 181324.8 94527.2 L 183468.4 94527.2 L 183468.4 107315.2 L 181677.85 107315.2 L 181513.4 105313.05 L 181443.25 105313.05 Q 179441.1 107622.25 177204.35 107622.25 Q 173318.5 107622.25 173318.5 102627.8 L 173317.35 102627.8 Z M 187001.35 106679.25 Q 185942.2 105690.25 185942.2 103994 Q 185942.2 101922.85 187827.05 100791.25 Q 189686.6 99683.8 193808.2 99213.45 Q 193808.2 95987.7 191171.25 95987.7 Q 189357.7 95987.7 187332.55 97353.9 L 186485 95869.25 Q 189098.95 94196 191524.3 94196 Q 195952.95 94196 195952.95 99449.2 L 195952.95 107315.2 L 194186.55 107315.2 L 193997.95 105784.55 L 193927.8 105784.55 Q 191714.05 107621.1 189688.9 107621.1 Q 188040.95 107621.1 187004.8 106678.1 L 187001.35 106679.25 Z M 193808.2 104205.6 L 193808.2 100626.8 Q 188038.65 101308.75 188038.65 103852.55 Q 188038.65 105900.7 190298.4 105900.7 Q 191900.35 105900.7 193808.2 104204.45 L 193808.2 104205.6 Z M 198928.2 104771.4 L 198928.2 88566.75 L 201071.8 88566.75 L 201071.8 104911.7 Q 201071.8 105830.55 201683.6 105830.55 Q 201895.2 105830.55 202130.95 105784.55 L 202438 107432.5 Q 201942.35 107621.1 201189.1 107621.1 Q 198927.05 107621.1 198927.05 104770.25 L 198928.2 104771.4 Z M 207750.65 105053.15 L 209046.7 103570.8 Q 211117.85 105714.4 213827.25 105714.4 Q 215498.2 105714.4 216487.2 104937 Q 217453.2 104182.6 217453.2 102886.55 Q 217453.2 101685.95 216629.8 100955.7 Q 216111.15 100508.35 214579.35 99826.4 L 212082.7 98741.95 Q 208574.05 97234.3 208574.05 94313.3 Q 208574.05 92312.3 210127.7 91016.25 Q 211659.5 89720.2 214014.7 89720.2 Q 217028.85 89720.2 219100 91863.8 L 217946.55 93253 Q 216203.15 91628.05 214013.55 91628.05 Q 212551.9 91628.05 211658.35 92312.3 Q 210785.5 93017.25 210785.5 94171.85 Q 210785.5 95279.3 211704.35 96033.7 Q 212247.15 96456.9 213636.35 97045.7 L 216110 98104.85 Q 219665.8 99659.65 219665.8 102722.1 Q 219665.8 104818.55 218088 106184.75 Q 216440.05 107621.1 213800.8 107621.1 Q 210197.85 107621.1 207749.5 105053.15 L 207750.65 105053.15 Z M 222191.8 103359.2 L 222191.8 96269.45 L 220283.95 96269.45 L 220283.95 94644.5 L 222284.95 94528.35 L 222543.7 90948.4 L 224334.25 90948.4 L 224334.25 94528.35 L 227796.9 94528.35 L 227796.9 96270.6 L 224334.25 96270.6 L 224334.25 103406.35 Q 224334.25 105880 226312.25 105880 Q 226924.05 105880 227771.6 105549.95 L 228195.95 107150.75 Q 226734.3 107623.4 225840.75 107623.4 Q 222189.5 107623.4 222189.5 103360.35 L 222191.8 103359.2 Z M 229432.55 102627.8 L 229432.55 94527.2 L 231575 94527.2 L 231575 102369.05 Q 231575 104159.6 232140.8 104960 Q 232706.6 105760.4 233977.35 105760.4 Q 235696.6 105760.4 237440 103593.8 L 237440 94527.2 L 239583.6 94527.2 L 239583.6 107315.2 L 237793.05 107315.2 L 237628.6 105313.05 L 237558.45 105313.05 Q 235556.3 107622.25 233319.55 107622.25 Q 229433.7 107622.25 229433.7 102627.8 L 229432.55 102627.8 Z M 243376.45 105878.85 Q 241940.1 104089.45 241940.1 100932.7 Q 241940.1 97918.55 243613.35 96010.7 Q 245191.15 94197.15 247476.2 94197.15 Q 249265.6 94197.15 251079.15 95705.95 L 250960.7 93492.2 L 250960.7 88569.05 L 253104.3 88569.05 L 253104.3 107317.5 L 251360.9 107317.5 L 251149.3 105809.85 L 251102.15 105809.85 Q 249242.6 107623.4 247217.45 107623.4 Q 244792.1 107623.4 243378.75 105880 L 243376.45 105878.85 Z M 250959.55 104064.15 L 250959.55 97352.75 Q 249451.9 96009.55 247849.95 96009.55 Q 246272.15 96009.55 245236 97352.75 Q 244153.85 98741.95 244153.85 100908.55 Q 244153.85 103240.75 245072.7 104536.8 Q 245991.55 105830.55 247687.8 105830.55 Q 249384.05 105830.55 250961.85 104064.15 L 250959.55 104064.15 Z M 256425.8 94527.2 L 258569.4 94527.2 L 258569.4 107315.2 L 256425.8 107315.2 L 256425.8 94527.2 Z M 256448.8 91487.75 Q 256025.6 91087.55 256025.6 90498.75 Q 256025.6 89109.55 257510.25 89109.55 Q 258992.6 89109.55 258992.6 90498.75 Q 258992.6 91087.55 258569.4 91487.75 Q 258145.05 91887.95 257510.25 91887.95 Q 256874.3 91887.95 256449.95 91487.75 L 256448.8 91487.75 Z M 262677.55 105855.85 Q 260887 103994 260887 100931.55 Q 260887 97846.1 262677.55 95961.25 Q 264348.5 94194.85 266822.15 94194.85 Q 269295.8 94194.85 270966.75 95961.25 Q 272757.3 97846.1 272757.3 100931.55 Q 272757.3 103994 270966.75 105855.85 Q 269295.8 107622.25 266822.15 107622.25 Q 264348.5 107622.25 262677.55 105855.85  Z M 269507.4 104489.65 Q 270543.55 103146.45 270543.55 100932.7 Q 270543.55 98720.1 269507.4 97353.9 Q 268495.4 95987.7 266822.15 95987.7 Q 265174.2 95987.7 264138.05 97353.9 Q 263126.05 98720.1 263126.05 100932.7 Q 263126.05 103146.45 264138.05 104489.65 Q 265151.2 105831.7 266822.15 105831.7 Q 268495.4 105831.7 269507.4 104489.65  Z M 279274.45 108634.25 Q 276966.4 105737.4 274069.55 103382.2 L 275600.2 102039 Q 278237.15 104159.6 280876.4 107268.05 L 279274.45 108634.25 Z M 295961.6 90051.4 L 298223.65 90051.4 L 300554.7 102227.6 L 301050.35 105030.15 L 301143.5 105030.15 Q 301543.7 103170.6 302391.25 99449.2 L 304770.6 90051.4 L 306748.6 90051.4 L 309173.95 99449.2 Q 309669.6 101568.65 310399.85 105031.3 L 310516 105031.3 L 311506.15 99450.35 L 313318.55 90052.55 L 315415 90052.55 L 311836.2 107316.35 L 309222.25 107316.35 L 306608.3 96906.55 L 305760.75 92973.55 L 305665.3 92973.55 L 304794.75 96906.55 L 302227.95 107316.35 L 299637 107316.35 L 295962.75 90052.55 L 295961.6 90051.4 Z M 318024.75 105855.85 Q 316234.2 103994 316234.2 100931.55 Q 316234.2 97941.55 318000.6 96009.55 Q 319673.85 94196 322006.05 94196 Q 324407.25 94196 325773.45 95820.95 Q 327092.5 97422.9 327092.5 100201.3 Q 327092.5 100814.25 326999.35 101426.05 L 318378.95 101426.05 Q 318474.4 103474.2 319652 104675.95 Q 320805.45 105899.55 322619 105899.55 Q 324315.25 105899.55 325822.9 104887.55 L 326600.3 106300.9 Q 324549.85 107619.95 322360.25 107619.95 Q 319723.3 107619.95 318027.05 105853.55 L 318024.75 105855.85 Z M 325208.8 99896.55 Q 325208.8 95916.4 322029.05 95916.4 Q 320615.7 95916.4 319603.7 96952.55 Q 318544.55 98060 318355.95 99896.55 L 325209.95 99896.55 L 325208.8 99896.55 Z M 331159 105996.15 L 331088.85 105996.15 L 330900.25 107315.2 L 329181 107315.2 L 329181 88566.75 L 331324.6 88566.75 L 331324.6 93701.5 L 331254.45 96009.55 Q 333325.6 94196 335257.6 94196 Q 337705.95 94196 339049.15 95986.55 Q 340368.2 97705.8 340368.2 100696.95 Q 340368.2 103875.55 338697.25 105807.55 Q 337118.3 107621.1 334810.25 107621.1 Q 332925.4 107621.1 331159 105996.15  Z M 337094.15 104489.65 Q 338130.3 103076.3 338130.3 100745.25 Q 338130.3 96010.7 334761.95 96010.7 Q 333208.3 96010.7 331323.45 97777.1 L 331323.45 104489.65 Q 332854.1 105831.7 334456.05 105831.7 Q 336081 105831.7 337093 104489.65 L 337094.15 104489.65 Z M 341587.45 105053.15 L 342883.5 103570.8 Q 344954.65 105714.4 347664.05 105714.4 Q 349335 105714.4 350324 104937 Q 351290 104182.6 351290 102886.55 Q 351290 101685.95 350466.6 100955.7 Q 349947.95 100508.35 348416.15 99826.4 L 345919.5 98741.95 Q 342410.85 97234.3 342410.85 94313.3 Q 342410.85 92312.3 343964.5 91016.25 Q 345496.3 89720.2 347851.5 89720.2 Q 350865.65 89720.2 352936.8 91863.8 L 351783.35 93253 Q 350039.95 91628.05 347850.35 91628.05 Q 346388.7 91628.05 345495.15 92312.3 Q 344622.3 93017.25 344622.3 94171.85 Q 344622.3 95279.3 345541.15 96033.7 Q 346083.95 96456.9 347473.15 97045.7 L 349946.8 98104.85 Q 353502.6 99659.65 353502.6 102722.1 Q 353502.6 104818.55 351924.8 106184.75 Q 350276.85 107621.1 347637.6 107621.1 Q 344034.65 107621.1 341586.3 105053.15 L 341587.45 105053.15 Z M 356028.6 103359.2 L 356028.6 96269.45 L 354120.75 96269.45 L 354120.75 94644.5 L 356121.75 94528.35 L 356380.5 90948.4 L 358171.05 90948.4 L 358171.05 94528.35 L 361633.7 94528.35 L 361633.7 96270.6 L 358171.05 96270.6 L 358171.05 103406.35 Q 358171.05 105880 360149.05 105880 Q 360760.85 105880 361608.4 105549.95 L 362032.75 107150.75 Q 360571.1 107623.4 359677.55 107623.4 Q 356026.3 107623.4 356026.3 103360.35 L 356028.6 103359.2 Z M 363433.8 94527.2 L 365200.2 94527.2 L 365388.8 96858.25 L 365458.95 96858.25 Q 366918.3 94196 369086.05 94196 Q 369909.45 94196 370451.1 94480.05 L 370050.9 96364.9 Q 369509.25 96152.15 368802 96152.15 Q 366705.55 96152.15 365575.1 99096.15 L 365575.1 107316.35 L 363431.5 107316.35 L 363431.5 94528.35 L 363433.8 94527.2 Z M 372347.95 105855.85 Q 370557.4 103994 370557.4 100931.55 Q 370557.4 97846.1 372347.95 95961.25 Q 374018.9 94194.85 376492.55 94194.85 Q 378966.2 94194.85 380637.15 95961.25 Q 382427.7 97846.1 382427.7 100931.55 Q 382427.7 103994 380637.15 105855.85 Q 378966.2 107622.25 376492.55 107622.25 Q 374018.9 107622.25 372347.95 105855.85  Z M 379177.8 104489.65 Q 380213.95 103146.45 380213.95 100932.7 Q 380213.95 98720.1 379177.8 97353.9 Q 378165.8 95987.7 376492.55 95987.7 Q 374844.6 95987.7 373808.45 97353.9 Q 372796.45 98720.1 372796.45 100932.7 Q 372796.45 103146.45 373808.45 104489.65 Q 374821.6 105831.7 376492.55 105831.7 Q 378165.8 105831.7 379177.8 104489.65  Z M 384681.8 94527.2 L 386448.2 94527.2 L 386636.8 96386.75 L 386706.95 96386.75 Q 388684.95 94196 390687.1 94196 Q 393372.35 94196 394219.9 96646.65 Q 396456.65 94196 398434.65 94196 Q 402321.65 94196 402321.65 99213.45 L 402321.65 107315.2 L 400178.05 107315.2 L 400178.05 99495.2 Q 400178.05 96080.85 397799.85 96080.85 Q 396363.5 96080.85 394572.95 98035.85 L 394572.95 107315.2 L 392430.5 107315.2 L 392430.5 99495.2 Q 392430.5 96080.85 390051.15 96080.85 Q 388568.8 96080.85 386825.4 98035.85 L 386825.4 107315.2 L 384681.8 107315.2 L 384681.8 94527.2 Z M 409680.85 108634.25 Q 407372.8 105737.4 404475.95 103382.2 L 406006.6 102039 Q 408643.55 104159.6 411282.8 107268.05 L 409680.85 108634.25 Z M 428134.4 90051.4 L 430324 90051.4 L 430324 97282.6 L 438379.75 97282.6 L 438379.75 90051.4 L 440546.35 90051.4 L 440546.35 107315.2 L 438379.75 107315.2 L 438379.75 99165.15 L 430324 99165.15 L 430324 107315.2 L 428134.4 107315.2 L 428134.4 90051.4 Z M 446051.8 105996.15 L 445981.65 105996.15 L 445793.05 107315.2 L 444073.8 107315.2 L 444073.8 88566.75 L 446217.4 88566.75 L 446217.4 93701.5 L 446147.25 96009.55 Q 448218.4 94196 450150.4 94196 Q 452598.75 94196 453941.95 95986.55 Q 455261 97705.8 455261 100696.95 Q 455261 103875.55 453590.05 105807.55 Q 452011.1 107621.1 449703.05 107621.1 Q 447818.2 107621.1 446051.8 105996.15  Z M 451986.95 104489.65 Q 453023.1 103076.3 453023.1 100745.25 Q 453023.1 96010.7 449654.75 96010.7 Q 448101.1 96010.7 446216.25 97777.1 L 446216.25 104489.65 Q 447746.9 105831.7 449348.85 105831.7 Q 450973.8 105831.7 451985.8 104489.65 L 451986.95 104489.65 Z M 457374.95 102627.8 L 457374.95 94527.2 L 459517.4 94527.2 L 459517.4 102369.05 Q 459517.4 104159.6 460083.2 104960 Q 460649 105760.4 461919.75 105760.4 Q 463639 105760.4 465382.4 103593.8 L 465382.4 94527.2 L 467526 94527.2 L 467526 107315.2 L 465735.45 107315.2 L 465571 105313.05 L 465500.85 105313.05 Q 463498.7 107622.25 461261.95 107622.25 Q 457376.1 107622.25 457376.1 102627.8 L 457374.95 102627.8 Z M 470800.2 94527.2 L 472943.8 94527.2 L 472943.8 107315.2 L 470800.2 107315.2 L 470800.2 94527.2 Z M 470823.2 91487.75 Q 470400 91087.55 470400 90498.75 Q 470400 89109.55 471884.65 89109.55 Q 473367 89109.55 473367 90498.75 Q 473367 91087.55 472943.8 91487.75 Q 472519.45 91887.95 471884.65 91887.95 Q 471248.7 91887.95 470824.35 91487.75 L 470823.2 91487.75 Z M 476227.4 104771.4 L 476227.4 88566.75 L 478371 88566.75 L 478371 104911.7 Q 478371 105830.55 478982.8 105830.55 Q 479194.4 105830.55 479430.15 105784.55 L 479737.2 107432.5 Q 479241.55 107621.1 478488.3 107621.1 Q 476226.25 107621.1 476226.25 104770.25 L 476227.4 104771.4 Z M 482378.05 105878.85 Q 480941.7 104089.45 480941.7 100932.7 Q 480941.7 97918.55 482614.95 96010.7 Q 484192.75 94197.15 486477.8 94197.15 Q 488267.2 94197.15 490080.75 95705.95 L 489962.3 93492.2 L 489962.3 88569.05 L 492105.9 88569.05 L 492105.9 107317.5 L 490362.5 107317.5 L 490150.9 105809.85 L 490103.75 105809.85 Q 488244.2 107623.4 486219.05 107623.4 Q 483793.7 107623.4 482380.35 105880 L 482378.05 105878.85 Z M 489961.15 104064.15 L 489961.15 97352.75 Q 488453.5 96009.55 486851.55 96009.55 Q 485273.75 96009.55 484237.6 97352.75 Q 483155.45 98741.95 483155.45 100908.55 Q 483155.45 103240.75 484074.3 104536.8 Q 484993.15 105830.55 486689.4 105830.55 Q 488385.65 105830.55 489963.45 104064.15 L 489961.15 104064.15 Z M 496251.95 105855.85 Q 494461.4 103994 494461.4 100931.55 Q 494461.4 97941.55 496227.8 96009.55 Q 497901.05 94196 500233.25 94196 Q 502634.45 94196 504000.65 95820.95 Q 505319.7 97422.9 505319.7 100201.3 Q 505319.7 100814.25 505226.55 101426.05 L 496606.15 101426.05 Q 496701.6 103474.2 497879.2 104675.95 Q 499032.65 105899.55 500846.2 105899.55 Q 502542.45 105899.55 504050.1 104887.55 L 504827.5 106300.9 Q 502777.05 107619.95 500587.45 107619.95 Q 497950.5 107619.95 496254.25 105853.55 L 496251.95 105855.85 Z M 503436 99896.55 Q 503436 95916.4 500256.25 95916.4 Q 498842.9 95916.4 497830.9 96952.55 Q 496771.75 98060 496583.15 99896.55 L 503437.15 99896.55 L 503436 99896.55 Z M 507408.2 94527.2 L 509174.6 94527.2 L 509363.2 96858.25 L 509433.35 96858.25 Q 510892.7 94196 513060.45 94196 Q 513883.85 94196 514425.5 94480.05 L 514025.3 96364.9 Q 513483.65 96152.15 512776.4 96152.15 Q 510679.95 96152.15 509549.5 99096.15 L 509549.5 107316.35 L 507405.9 107316.35 L 507405.9 94528.35 L 507408.2 94527.2 Z M 518771.85 98390.05 L 514061.45 90051.4 L 516463.8 90051.4 L 519454.95 95632.35 Q 519878.15 96433.9 520185.2 96975.55 L 520278.35 96975.55 L 521503.1 94454.75 L 523811.15 90051.4 L 526096.2 90051.4 L 521385.8 98506.2 L 526426.25 107315.2 L 524023.9 107315.2 L 519997.75 99872.4 L 519902.3 99872.4 Q 519172.05 101404.2 518513.1 102651.95 L 516016.45 107315.2 L 513731.4 107315.2 L 518771.85 98390.05 Z M 528320.65 87154.55 Q 533008.05 91912.1 533008.05 98364.75 Q 533008.05 104818.55 528320.65 109576.1 L 526908.45 108844.7 Q 531288.8 104322.9 531288.8 98364.75 Q 531288.8 92406.6 526908.45 87884.8 L 528320.65 87154.55 Z " fill-rule="nonzero" style="fill:#ffffff;;fill-opacity:1;"/>
</svg>