<svg version="1.1" x="0" y="0" width="100%" height="100%" viewBox="0 0 779980.8 147968" xmlns="http://www.w3.org/2000/svg">
  <path d="M 8157.45 20619.15 L 15355.6 20619.15 L 15355.6 18498.75 L 8157.45 18498.75 L 8157.45 20619.15 Z M 8157.45 11980.8 L 8157.45 13907.4 L 15355.6 13907.4 L 15355.6 11980.8 L 8157.45 11980.8 Z M 8157.45 17254.25 L 15355.6 17254.25 L 15355.6 15152.85 L 8157.45 15152.85 L 8157.45 17254.25 Z M 20356.4 21962.45 L 3176.6 21962.45 L 3176.6 20620.1 L 6737.2 20620.1 L 6737.2 11981.75 L 3720.95 11981.75 L 3720.95 10620.4 L 6737.2 10620.4 L 6737.2 8382.2 L 8157.45 8382.2 L 8157.45 10620.4 L 15355.6 10620.4 L 15355.6 8382.2 L 16795.8 8382.2 L 16795.8 10620.4 L 19908 10620.4 L 19908 11981.75 L 16795.8 11981.75 L 16795.8 20620.1 L 20356.4 20620.1 L 20356.4 21962.45 Z M 10374.75 23206.95 Q 7844.9 24764 3934.7 26086.4 Q 3584.15 25581 2980.9 24976.8 Q 6892.05 23810.2 9089.4 22312.05 L 10373.8 23207.9 L 10374.75 23206.95 Z M 14169.05 22408.95 Q 17866.45 23712.35 20415.3 25094.6 L 19130.9 26047.45 Q 16756.85 24646.2 13196.25 23323.8 L 14169.05 22408.95 Z M 28059.95 8829.65 Q 27242.95 10931.05 26095.35 12934.6 L 26095.35 26086.4 L 24675.1 26086.4 L 24675.1 15152.85 Q 23779.25 16417.3 22748.5 17506.95 Q 22281.1 16573.1 21931.5 16144.65 Q 25005.7 13149.3 26737.55 8421.15 L 28059.95 8830.6 L 28059.95 8829.65 Z M 37282.55 24550.25 Q 38157.5 24550.25 38450.1 24004 Q 38701.85 23498.6 38838.65 21727.8 Q 39441.9 22156.25 40181.95 22332 Q 39987.2 24413.45 39461.85 25094.6 Q 38898.5 25853.65 37341.45 25853.65 L 32263.7 25853.65 Q 30531.85 25853.65 29909.6 25309.3 Q 29267.4 24764.95 29267.4 23187.95 L 29267.4 16864.75 L 27379.75 17604.8 L 26814.5 16340.35 L 29266.45 15386.55 L 29266.45 10268.9 L 30686.7 10268.9 L 30686.7 14822.25 L 33526.25 13712.65 L 33526.25 8381.25 L 34908.5 8381.25 L 34908.5 13187.3 L 37943.75 12020.7 L 38372.2 11651.15 L 39364 12058.7 L 39306.05 12312.35 Q 39306.05 18343.9 39073.3 19433.55 Q 38878.55 20600.15 37905.75 20853.8 Q 37225.55 21028.6 35941.15 20990.6 Q 35864.2 20173.6 35591.55 19627.35 Q 36115.95 19666.3 37069.75 19666.3 Q 37595.1 19666.3 37730.95 19082.05 Q 37905.75 18459.8 37944.7 13478.95 L 34909.45 14665.5 L 34909.45 21805.7 L 33527.2 21805.7 L 33527.2 15209.85 L 30687.65 16338.45 L 30687.65 23186.05 Q 30687.65 24023 30979.3 24276.65 Q 31290.9 24549.3 32302.65 24549.3 L 37283.5 24549.3 L 37282.55 24550.25 Z M 42828.65 12720.85 L 44248.9 12720.85 L 44248.9 26126.3 L 42828.65 26126.3 L 42828.65 12720.85 Z M 44092.15 8614.95 Q 46251.5 10774.3 46991.55 11747.1 L 45920.9 12544.15 Q 45083.95 11416.5 43042.4 9295.15 L 44092.15 8614.95 Z M 48567.6 15541.4 L 48567.6 20016.85 L 52633.6 20016.85 L 52633.6 15541.4 L 48567.6 15541.4 Z M 48567.6 21339.25 L 48567.6 22604.65 L 47244.25 22604.65 L 47244.25 14218.05 L 54034.85 14218.05 L 54034.85 21339.25 L 48567.6 21339.25 Z M 58547.35 24101.85 Q 58547.35 25405.25 57730.35 25697.85 Q 56992.2 26009.45 54502.25 25970.5 Q 54404.4 25270.35 54015.85 24551.2 Q 55747.7 24609.15 56662.55 24551.2 Q 57129 24551.2 57129 24083.8 L 57129 10795.2 L 47887.4 10795.2 L 47887.4 9452.85 L 58549.25 9452.85 L 58549.25 24102.8 L 58547.35 24101.85 Z M 73043.4 12292.4 Q 73257.15 11767.05 73625.75 10424.7 L 70125 10424.7 L 70125 9238.15 L 78938.15 9238.15 L 78938.15 10424.7 L 75104.9 10424.7 L 74364.85 12293.35 L 78002.4 12293.35 L 78002.4 20367.4 L 76718.95 20367.4 L 76718.95 13383 L 72127.6 13383 L 72127.6 20425.35 L 70901.15 20425.35 L 70901.15 12293.35 L 73041.5 12293.35 L 73043.4 12292.4 Z M 78024.25 23946.05 Q 76816.8 22584.7 74579.55 20989.65 L 75435.5 20230.6 Q 77672.75 21806.65 78899.2 23052.1 L 78024.25 23946.05 Z M 75144.8 14335.85 Q 75008 18849.3 74191 20678.05 Q 73120.35 23012.2 70027.15 24042.95 Q 69754.5 23420.7 69326.05 23109.1 Q 72165.6 22194.25 73100.4 20111.85 Q 73800.55 18516.8 73896.5 14333.95 L 75142.9 14333.95 L 75144.8 14335.85 Z M 67828.85 10229.95 L 63879.7 10229.95 L 63879.7 11689.15 L 67828.85 11689.15 L 67828.85 10229.95 Z M 67828.85 12699.95 L 63879.7 12699.95 L 63879.7 14159.15 L 67828.85 14159.15 L 67828.85 12699.95 Z M 69190.2 15229.8 L 62575.35 15229.8 L 62575.35 9160.25 L 69190.2 9160.25 L 69190.2 15229.8 Z M 66602.4 23731.35 Q 68354.2 24452.4 72381.25 24490.4 Q 77966.3 24490.4 79094.9 24452.4 Q 78685.45 25055.65 78549.6 25697.85 L 72362.25 25697.85 Q 68938.45 25697.85 67109.7 25132.6 Q 64852.5 24471.4 63646.95 22662.6 Q 63198.55 24744.05 62167.8 26086.4 Q 61779.25 25736.8 61137.05 25346.35 Q 62694.1 23537.55 62888.85 18731.5 L 64113.4 18829.35 Q 64055.45 19976.95 63899.65 21163.5 Q 64445.9 22272.15 65358.85 23012.2 L 65358.85 17798.6 L 61429.65 17798.6 L 61429.65 16670 L 70164.9 16670 L 70164.9 17798.6 L 66604.3 17798.6 L 66604.3 19861.05 L 69815.3 19861.05 L 69815.3 20969.7 L 66604.3 20969.7 L 66604.3 23732.3 L 66602.4 23731.35 Z M 83724.25 14782.35 Q 83276.8 14372.9 83276.8 13730.7 Q 83276.8 13069.5 83724.25 12661.95 Q 84133.7 12252.5 84736.95 12252.5 Q 85340.2 12252.5 85768.65 12661.95 Q 86216.1 13090.4 86216.1 13731.65 Q 86216.1 14373.85 85768.65 14783.3 Q 85340.2 15171.85 84736.95 15171.85 Q 84133.7 15171.85 83724.25 14783.3 L 83724.25 14782.35 Z M 83724.25 24296.6 Q 83276.8 23887.15 83276.8 23244.95 Q 83276.8 22603.7 83724.25 22175.25 Q 84133.7 21784.8 84736.95 21784.8 Q 85340.2 21784.8 85768.65 22175.25 Q 86216.1 22603.7 86216.1 23244.95 Q 86216.1 23887.15 85768.65 24296.6 Q 85340.2 24704.15 84736.95 24704.15 Q 84133.7 24704.15 83724.25 24296.6  Z M 3760.85 51923.4 L 6931 51923.4 L 6931 41280.55 L 4403.05 41280.55 L 4403.05 40151.95 Q 6172.9 39821.35 7359.45 39140.2 L 8720.8 39140.2 L 8720.8 51923.4 L 11581.25 51923.4 L 11581.25 53401.6 L 3760.85 53401.6 L 3760.85 51923.4 Z M 14608.8 53284.75 Q 14220.25 52896.2 14220.25 52311.95 Q 14220.25 51727.7 14608.8 51318.25 Q 14978.35 50929.7 15503.7 50929.7 Q 16029.05 50929.7 16417.6 51318.25 Q 16787.15 51727.7 16787.15 52311.95 Q 16787.15 52896.2 16417.6 53284.75 Q 16048.05 53654.3 15503.7 53654.3 Q 14959.35 53654.3 14608.8 53284.75  Z M 28013.15 48342.85 L 26632.8 48342.85 L 26632.8 38070.5 L 35309.15 38070.5 L 35309.15 48342.85 L 33888.9 48342.85 L 33888.9 39354.9 L 28013.15 39354.9 L 28013.15 48342.85 Z M 26048.55 50852.75 L 19452.7 52817.35 L 19141.1 51416.1 L 21942.65 50657.05 L 21942.65 45364.6 L 19646.5 45364.6 L 19646.5 44022.25 L 21942.65 44022.25 L 21942.65 39800.45 L 19373.85 39800.45 L 19373.85 38439.1 L 25755 38439.1 L 25755 39800.45 L 23342.95 39800.45 L 23342.95 44022.25 L 25365.5 44022.25 L 25365.5 45364.6 L 23342.95 45364.6 L 23342.95 50248.55 Q 23829.35 50131.7 25851.9 49508.5 L 26046.65 50850.85 L 26048.55 50852.75 Z M 34666.95 53284.75 Q 35173.3 53284.75 35348.1 52681.5 Q 35483.95 52116.25 35562.8 50014.85 Q 36147.05 50443.3 36729.4 50560.15 Q 36593.55 52954.15 36262.95 53615.35 Q 35874.4 54374.4 34666.95 54374.4 L 32896.15 54374.4 Q 31885.35 54374.4 31475.9 54043.8 Q 31047.45 53674.25 31047.45 52740.4 L 31047.45 48654.45 Q 29841.9 52759.4 25620.1 54937.75 Q 25152.7 54218.6 24705.25 53888 Q 27993.2 52215.05 29276.65 49510.4 Q 30191.5 47583.8 30191.5 44723.35 L 30191.5 40987.95 L 31554.75 40987.95 L 31554.75 44762.3 Q 31554.75 46572.05 31204.2 48031.25 L 32390.75 48031.25 L 32390.75 52602.65 Q 32390.75 53012.1 32546.55 53147.95 Q 32682.4 53284.75 33091.85 53284.75 L 34667.9 53284.75 L 34666.95 53284.75 Z M 52217.25 44548.55 L 44104.25 44548.55 L 44104.25 46514.1 L 52217.25 46514.1 L 52217.25 44548.55 Z M 52217.25 49802.05 L 52217.25 47779.5 L 44104.25 47779.5 L 44104.25 49802.05 L 52217.25 49802.05 Z M 45446.6 40987.95 Q 44746.45 42428.15 44260.05 43245.15 L 53637.5 43245.15 L 53637.5 53071 Q 53637.5 54297.45 52820.5 54608.1 Q 52120.35 54861.75 49434.7 54861.75 Q 49357.75 54238.55 48969.2 53441.5 Q 49825.15 53479.5 51770.75 53479.5 Q 52218.2 53460.5 52218.2 53071.95 L 52218.2 51047.5 L 44105.2 51047.5 L 44105.2 54880.75 L 42684.95 54880.75 L 42684.95 45503.3 Q 41225.75 47332.05 39435 48577.5 Q 39085.4 47993.25 38520.15 47467.9 Q 41808.1 45249.65 43870.55 40988.9 L 38987.55 40988.9 L 38987.55 39627.55 L 44474.75 39627.55 Q 44999.15 38285.2 45329.75 37118.6 L 46769.95 37468.2 Q 46283.55 39006.25 46010.9 39628.5 L 55913.7 39628.5 L 55913.7 40989.85 L 45447.55 40989.85 L 45446.6 40987.95 Z M 68384.35 41318.55 Q 68889.75 39898.3 69065.5 39295.05 L 64551.1 39295.05 L 64551.1 37991.65 L 75699.35 37991.65 L 75699.35 39295.05 L 70739.4 39295.05 Q 70058.25 40929.05 69863.5 41317.6 L 74416.85 41317.6 L 74416.85 50365.4 L 72976.65 50365.4 L 72976.65 42621.95 L 66672.45 42621.95 L 66672.45 50404.35 L 65252.2 50404.35 L 65252.2 41317.6 L 68384.35 41317.6 L 68384.35 41318.55 Z M 64512.15 49121.85 Q 60017.7 50678.9 58150.95 51301.15 L 57762.4 49803 Q 58948 49492.35 60544 49005.95 L 60544 40795.1 L 58093 40795.1 L 58093 39412.85 L 64202.45 39412.85 L 64202.45 40795.1 L 61964.25 40795.1 L 61964.25 48596.5 L 64319.3 47877.35 L 64513.1 49122.8 L 64512.15 49121.85 Z M 70583.6 47797.55 Q 70583.6 50093.7 69474 51629.85 Q 67976.8 53692.3 64260.4 54859.85 Q 63929.8 54236.65 63364.55 53712.25 Q 66886.2 52758.45 68228.55 50968.65 Q 69162.4 49742.2 69162.4 47777.6 L 69162.4 43711.6 L 70583.6 43711.6 L 70583.6 47796.6 L 70583.6 47797.55 Z M 71419.6 50715.95 Q 74338 52505.75 75778.2 53848.1 L 74824.4 54878.85 Q 73327.2 53381.65 70504.75 51610.85 L 71419.6 50715 L 71419.6 50715.95 Z M 91324 52040.25 L 91324 48849.2 L 81147.6 48849.2 L 81147.6 52040.25 L 91324 52040.25 Z M 81147.6 44276.85 L 81147.6 47467.9 L 91324 47467.9 L 91324 44276.85 L 81147.6 44276.85 Z M 81147.6 39743.45 L 81147.6 42896.5 L 91324 42896.5 L 91324 39743.45 L 81147.6 39743.45 Z M 92821.2 38342.2 L 92821.2 54783.85 L 91324 54783.85 L 91324 53460.5 L 81147.6 53460.5 L 81147.6 54783.85 L 79727.35 54783.85 L 79727.35 38342.2 L 92821.2 38342.2 Z M 107452.15 45171.75 L 102159.7 45171.75 L 102159.7 43848.4 L 107452.15 43848.4 L 107452.15 39684.55 Q 105467.6 39996.15 102977.65 40228.9 Q 102860.8 39528.75 102588.15 39081.3 Q 109378.75 38362.15 112277.2 37331.4 L 113328.85 38421.05 Q 111635 38984.4 108872.4 39470.8 L 108872.4 43848.4 L 114476.45 43848.4 L 114476.45 45171.75 L 108872.4 45171.75 L 108872.4 52273 L 107452.15 52273 L 107452.15 45171.75 Z M 100370.85 41709 Q 99300.2 40113 97393.55 38479 L 98443.3 37700 Q 100525.7 39451.8 101498.5 40853.05 L 100369.9 41709 L 100370.85 41709 Z M 101187.85 51144.4 L 102608.1 52137.15 Q 104067.3 53052 107685.85 53052 Q 111674.9 53052 114730.1 52701.45 Q 114339.65 53616.3 114320.65 54141.65 Q 111597 54335.45 107647.85 54335.45 Q 103989.4 54335.45 102276.55 53264.8 Q 100505.75 52117.2 100447.8 52117.2 Q 99688.75 52117.2 97822 54569.15 L 96907.15 53342.7 Q 98580.1 51513.95 99766.65 51027.55 L 99766.65 46027.7 L 97062 46027.7 L 97062 44664.45 L 101185.95 44664.45 L 101185.95 51143.45 L 101187.85 51144.4 Z M 126967.05 40210.85 Q 125605.7 41437.3 123892.85 42352.15 Q 123445.4 41709.95 122920.05 41379.35 Q 126266.9 39744.4 127920.85 37118.6 L 129380.05 37410.25 Q 128737.85 38383.05 128172.6 38986.3 L 131831.05 38986.3 L 132084.7 38928.35 L 132999.55 39414.75 Q 130800.3 44239.8 123737.05 46127.45 Q 123523.3 45641.05 122978.95 45018.8 Q 125391.95 44453.55 127337.55 43384.8 Q 126539.55 42644.75 125449.9 41963.6 L 126520.55 41263.45 Q 127356.55 41749.85 128504.15 42664.7 Q 130100.15 41594.05 130996 40213.7 L 126968 40213.7 L 126967.05 40210.85 Z M 122277.85 48576.55 Q 121947.25 47836.5 120780.65 46007.75 L 120780.65 54918.75 L 119417.4 54918.75 L 119417.4 46319.35 Q 118269.8 49685.2 116966.4 51475 Q 116674.75 50755.85 116207.35 50171.6 Q 117958.2 47914.4 119125.75 44023.2 L 116499 44023.2 L 116499 42661.85 L 119417.4 42661.85 L 119417.4 39529.7 Q 118406.6 39724.45 117103.2 39938.2 Q 116985.4 39353.95 116674.75 38809.6 Q 120156.5 38225.35 122160.05 37291.5 L 123055.9 38459.05 Q 122044.15 38866.6 120779.7 39197.2 L 120779.7 42659.95 L 123151.85 42659.95 L 123151.85 44021.3 L 120779.7 44021.3 L 120779.7 44469.7 Q 121927.3 45734.15 123132.85 47426.1 L 122276.9 48574.65 L 122277.85 48576.55 Z M 134067.35 46300.35 Q 131849.1 52954.15 123288.65 54976.7 Q 123074.9 54392.45 122549.55 53789.2 Q 126033.2 53109 128582.05 51377.15 Q 127570.3 50365.4 126383.75 49606.35 L 127454.4 48866.3 Q 128680.85 49585.45 129672.65 50520.25 Q 131345.6 49080.05 132220.55 47153.45 L 128427.2 47153.45 Q 126558.55 49003.1 124126.55 50208.65 Q 123795.95 49645.3 123192.7 49196.9 Q 127337.55 47290.25 129069.4 44139.1 L 130567.55 44430.75 Q 130081.15 45208.8 129536.8 45908.95 L 132881.75 45908.95 L 133155.35 45851 L 134068.3 46299.4 L 134067.35 46300.35 Z M 153388.45 51961.4 L 153388.45 53401.6 L 136033.85 53401.6 L 136033.85 51961.4 L 143855.2 51961.4 L 143855.2 40794.15 L 137045.6 40794.15 L 137045.6 39315 L 152415.65 39315 L 152415.65 40794.15 L 145431.25 40794.15 L 145431.25 51961.4 L 153388.45 51961.4 Z M 161384.6 37642.05 Q 160665.45 39587.65 159400.05 41805.9 L 159400.05 54861.75 L 157960.8 54861.75 L 157960.8 44044.1 Q 157104.85 45249.65 156034.2 46359.25 Q 155664.65 45444.4 155197.25 44919.05 Q 158252.45 41961.7 160003.3 37195.55 L 161385.55 37643 L 161384.6 37642.05 Z M 167065.6 41747 L 167065.6 44529.55 L 172610.75 44529.55 L 172610.75 45871.9 L 167065.6 45871.9 L 167065.6 48809.3 L 172883.4 48809.3 L 172883.4 50170.65 L 167065.6 50170.65 L 167065.6 54878.85 L 165606.4 54878.85 L 165606.4 41746.05 L 164264.05 41746.05 Q 162979.65 44140.05 161501.45 45793.05 Q 161034.05 45287.65 160372.85 44820.25 Q 163097.45 41999.7 164652.6 37368.45 L 166034.85 37738 Q 165625.4 38905.55 164964.2 40364.75 L 173058.2 40364.75 L 173058.2 41745.1 L 167065.6 41745.1 L 167065.6 41747 Z M 188390.25 38614.85 L 178758.2 38614.85 L 178758.2 39666.5 L 188390.25 39666.5 L 188390.25 38614.85 Z M 188390.25 40501.55 L 178758.2 40501.55 L 178758.2 41572.2 L 188390.25 41572.2 L 188390.25 40501.55 Z M 189809.55 42447.15 L 177376.9 42447.15 L 177376.9 37738.95 L 189809.55 37738.95 L 189809.55 42447.15 Z M 192281.45 44354.75 L 174964.85 44354.75 L 174964.85 43245.15 L 192281.45 43245.15 L 192281.45 44354.75 Z M 182884.05 49179.8 L 182884.05 48070.2 L 178369.65 48070.2 L 178369.65 49179.8 L 182884.05 49179.8 Z M 178369.65 47215.2 L 182884.05 47215.2 L 182884.05 46124.6 L 178369.65 46124.6 L 178369.65 47215.2 Z M 188972.6 46124.6 L 184264.4 46124.6 L 184264.4 47215.2 L 188972.6 47215.2 L 188972.6 46124.6 Z M 188972.6 48070.2 L 184264.4 48070.2 L 184264.4 49179.8 L 188972.6 49179.8 L 188972.6 48070.2 Z M 192377.4 53284.75 L 192377.4 54413.35 L 174848 54413.35 L 174848 53284.75 L 182884.05 53284.75 L 182884.05 52156.15 L 176463 52156.15 L 176463 51144.4 L 182884.05 51144.4 L 182884.05 50073.75 L 177027.3 50073.75 L 177027.3 45229.7 L 190394.75 45229.7 L 190394.75 50073.75 L 184265.35 50073.75 L 184265.35 51144.4 L 190802.3 51144.4 L 190802.3 52156.15 L 184265.35 52156.15 L 184265.35 53284.75 L 192378.35 53284.75 L 192377.4 53284.75 Z M 198642.65 54491.25 Q 196736 52098.2 194342.95 50152.6 L 195607.4 49043 Q 197785.75 50794.8 199966 53362.65 L 198642.65 54491.25 Z M 226679.05 37213.6 Q 228955.25 38362.15 230160.8 39432.8 L 229266.85 40424.6 Q 228021.4 39277 225822.15 38090.45 L 226678.1 37213.6 L 226679.05 37213.6 Z M 230043.95 43712.55 Q 228779.5 47524.9 226620.15 50287.5 Q 227767.75 53303.75 229226.95 53303.75 Q 229948 53303.75 230141.8 49705.15 Q 230726.05 50287.5 231387.25 50482.25 Q 231193.45 52953.2 230707.05 53847.15 Q 230220.65 54743 229111.05 54743 Q 226970.7 54743 225550.45 51551.95 Q 223779.65 53477.6 221542.4 54781.95 Q 221017.05 54060.9 220492.65 53632.45 Q 223099.45 52231.2 224966.2 50033.85 Q 223955.4 46842.8 223545.95 41842 L 216834.2 41842 L 216834.2 44371.85 L 221796.05 44371.85 L 221796.05 44994.1 Q 221659.25 50890.75 221172.85 51494 Q 220803.3 51980.4 220006.25 52057.35 Q 219227.25 52115.3 217691.1 52057.35 Q 217652.15 51298.3 217282.6 50695.05 Q 218411.2 50792.9 219345.05 50792.9 Q 219793.45 50792.9 219929.3 50579.15 Q 220279.85 50209.6 220375.8 45715.15 L 216835.15 45715.15 L 216835.15 45870.95 Q 216835.15 52077.3 214791.7 55033.7 Q 214247.35 54411.45 213586.15 54060.9 Q 215356.95 51435.1 215356.95 45850.05 L 215356.95 40422.7 L 223469.95 40422.7 Q 223391.1 39352.05 223352.15 37152.8 L 224850.3 37152.8 Q 224850.3 39021.45 224929.15 40422.7 L 231213.4 40422.7 L 231213.4 41842.95 L 225026.05 41842.95 Q 225337.65 45908.95 226096.7 48594.6 Q 227692.7 46260.45 228586.65 43342.05 L 230045.85 43711.6 L 230043.95 43712.55 Z M 244403.2 42642.85 Q 246758.25 48149.05 250941.1 50523.1 Q 250182.05 51165.3 249831.5 51747.65 Q 245415.9 48966.05 242983.9 42642.85 L 242711.25 42642.85 L 242711.25 49822 L 247224.7 49822 L 247224.7 51261.25 L 242711.25 51261.25 L 242711.25 54879.8 L 241213.1 54879.8 L 241213.1 51261.25 L 236698.7 51261.25 L 236698.7 49822 L 241213.1 49822 L 241213.1 42642.85 L 240901.5 42642.85 Q 238450.5 48829.25 234091.9 51805.6 Q 233644.45 51144.4 233060.2 50658 Q 237030.25 48226 239442.3 42642.85 L 233566.55 42642.85 L 233566.55 41202.65 L 241213.1 41202.65 L 241213.1 37136.65 L 242711.25 37136.65 L 242711.25 41202.65 L 250414.8 41202.65 L 250414.8 42642.85 L 244403.2 42642.85 Z M 256465.35 44023.2 L 256465.35 47876.4 L 266466 47876.4 L 266466 44023.2 L 256465.35 44023.2 Z M 269579.15 52740.4 L 269579.15 54141.65 L 254987.15 54141.65 L 254987.15 38128.45 L 269150.7 38128.45 L 269150.7 39529.7 L 256465.35 39529.7 L 256465.35 42642.85 L 267945.15 42642.85 L 267945.15 49257.7 L 256465.35 49257.7 L 256465.35 52741.35 L 269579.15 52741.35 L 269579.15 52740.4 Z M 282088.75 44160 Q 284364.95 51300.2 289735.3 53499.45 Q 289093.1 54102.7 288645.65 54861.75 Q 283391.2 52371.8 280901.25 45231.6 Q 279190.3 52099.15 273139.75 54861.75 Q 272770.2 54180.6 272051.05 53675.2 Q 278120.6 51029.45 279618.75 44161.9 L 272439.6 44161.9 L 272439.6 42683.7 L 279852.45 42683.7 Q 280106.1 40970.85 280144.1 37156.6 L 281701.15 37156.6 Q 281662.2 40679.2 281389.55 42682.75 L 289425.6 42682.75 L 289425.6 44160.95 L 282090.65 44160.95 L 282088.75 44160 Z M 293237.95 54451.35 Q 295552.15 53498.5 295688.95 51591.85 Q 295572.1 51610.85 295358.35 51610.85 Q 294735.15 51610.85 294327.6 51260.3 Q 293899.15 50891.7 293899.15 50229.55 Q 293899.15 49568.35 294346.6 49179.8 Q 294756.05 48829.25 295378.3 48829.25 Q 297032.25 48829.25 297032.25 51067.45 Q 297032.25 54297.45 293666.4 55484 L 293237.95 54451.35 Z M 321000.75 44160 Q 323276.95 51300.2 328647.3 53499.45 Q 328005.1 54102.7 327557.65 54861.75 Q 322303.2 52371.8 319813.25 45231.6 Q 318102.3 52099.15 312051.75 54861.75 Q 311682.2 54180.6 310963.05 53675.2 Q 317032.6 51029.45 318530.75 44161.9 L 311351.6 44161.9 L 311351.6 42683.7 L 318764.45 42683.7 Q 319018.1 40970.85 319056.1 37156.6 L 320613.15 37156.6 Q 320574.2 40679.2 320301.55 42682.75 L 328337.6 42682.75 L 328337.6 44160.95 L 321002.65 44160.95 L 321000.75 44160 Z M 344038.25 38614.85 L 334406.2 38614.85 L 334406.2 39666.5 L 344038.25 39666.5 L 344038.25 38614.85 Z M 344038.25 40501.55 L 334406.2 40501.55 L 334406.2 41572.2 L 344038.25 41572.2 L 344038.25 40501.55 Z M 345457.55 42447.15 L 333024.9 42447.15 L 333024.9 37738.95 L 345457.55 37738.95 L 345457.55 42447.15 Z M 347929.45 44354.75 L 330612.85 44354.75 L 330612.85 43245.15 L 347929.45 43245.15 L 347929.45 44354.75 Z M 338532.05 49179.8 L 338532.05 48070.2 L 334017.65 48070.2 L 334017.65 49179.8 L 338532.05 49179.8 Z M 334017.65 47215.2 L 338532.05 47215.2 L 338532.05 46124.6 L 334017.65 46124.6 L 334017.65 47215.2 Z M 344620.6 46124.6 L 339912.4 46124.6 L 339912.4 47215.2 L 344620.6 47215.2 L 344620.6 46124.6 Z M 344620.6 48070.2 L 339912.4 48070.2 L 339912.4 49179.8 L 344620.6 49179.8 L 344620.6 48070.2 Z M 348025.4 53284.75 L 348025.4 54413.35 L 330496 54413.35 L 330496 53284.75 L 338532.05 53284.75 L 338532.05 52156.15 L 332111 52156.15 L 332111 51144.4 L 338532.05 51144.4 L 338532.05 50073.75 L 332675.3 50073.75 L 332675.3 45229.7 L 346042.75 45229.7 L 346042.75 50073.75 L 339913.35 50073.75 L 339913.35 51144.4 L 346450.3 51144.4 L 346450.3 52156.15 L 339913.35 52156.15 L 339913.35 53284.75 L 348026.35 53284.75 L 348025.4 53284.75 Z M 353220 39899.25 Q 352326.05 41397.4 351158.5 42506.05 Q 350672.1 42137.45 349952.95 41805.9 Q 352073.35 39978.1 353144 37039.75 L 354486.35 37351.35 Q 354232.7 37993.55 353863.15 38791.55 L 358844.95 38791.55 L 358844.95 39900.2 L 355731.8 39900.2 Q 356316.05 41009.8 356529.8 41787.85 L 355245.4 42216.3 Q 354953.75 41068.7 354291.6 39901.15 L 353220.95 39901.15 L 353220 39899.25 Z M 353512.6 46824.75 L 353220 48634.5 L 357890.2 48634.5 L 357890.2 46824.75 L 353512.6 46824.75 Z M 359310.45 45600.2 L 364407.2 45600.2 L 364407.2 43810.4 L 359310.45 43810.4 L 359310.45 45600.2 Z M 366470.6 48635.45 L 366431.65 49238.7 Q 366062.1 52974.1 365400.9 53577.35 Q 364991.45 54025.75 364194.4 54063.75 Q 363357.45 54121.7 361742.45 54063.75 Q 361703.5 53344.6 361353.9 52721.4 Q 362307.7 52819.25 363553.15 52819.25 Q 364058.55 52819.25 364253.3 52663.45 Q 364660.85 52235 364914.5 49881.85 L 359310.45 49881.85 L 359310.45 54901.65 L 357890.2 54901.65 L 357890.2 50426.2 Q 355225.45 53421.55 351353.25 54919.7 Q 350885.85 54160.65 350419.4 53772.1 Q 354173.8 52545.65 356742.6 49880.9 L 351605.95 49880.9 Q 352013.5 47974.25 352286.15 45600.2 L 357890.2 45600.2 L 357890.2 43810.4 L 351605.95 43810.4 L 351605.95 42583.95 L 365828.4 42583.95 L 365828.4 46824.75 L 359310.45 46824.75 L 359310.45 48634.5 L 366470.6 48634.5 L 366470.6 48635.45 Z M 367345.55 38790.6 L 367345.55 39899.25 L 363861.9 39899.25 Q 364659.9 40872.05 365048.45 41728 L 363784 42233.4 Q 363316.6 41164.65 362285.85 39899.25 L 360963.45 39899.25 Q 360223.4 41378.4 359289.55 42370.2 Q 358666.35 41922.75 358024.15 41630.15 Q 359737 39977.15 360611.95 37038.8 L 361994.2 37350.4 Q 361896.35 37662 361486.9 38790.6 L 367343.65 38790.6 L 367345.55 38790.6 Z M 385478.2 39004.35 L 385478.2 40443.6 L 370886.2 40443.6 L 370886.2 39004.35 L 385478.2 39004.35 Z M 383961.05 45307.6 L 383961.05 46766.8 L 372131.65 46766.8 L 372131.65 45307.6 L 383961.05 45307.6 Z M 386529.85 52019.35 L 386529.85 53478.55 L 369778.5 53478.55 L 369778.5 52019.35 L 386529.85 52019.35 Z M 396141 41902.8 Q 396043.15 43692.6 395868.35 44977 L 404137.15 44977 Q 404117.2 45463.4 404079.2 45677.15 Q 403592.8 52973.15 402560.15 54003.9 Q 401996.8 54607.15 400887.2 54686 Q 399641.75 54762.95 397638.2 54607.15 Q 397561.25 53829.1 397132.8 53205.9 Q 398747.8 53342.7 400381.8 53342.7 Q 401043 53342.7 401296.65 53128.95 Q 402133.6 52409.8 402581.05 46378.25 L 395654.6 46378.25 Q 394545 52506.7 389913.75 54958.65 Q 389487.2 54258.5 388864 53791.1 Q 392170.95 52138.1 393494.3 48577.5 Q 394330.3 46262.35 394544.05 41903.75 L 389291.5 41903.75 L 389291.5 40483.5 L 397793.05 40483.5 Q 397345.6 39122.15 396470.65 37565.1 L 397851 37020.75 Q 398881.75 38810.55 399251.3 39900.2 L 397908.95 40484.45 L 406022.9 40484.45 L 406022.9 41904.7 L 396139.1 41904.7 L 396141 41902.8 Z M 411180.45 40443.6 L 411180.45 44646.4 Q 411180.45 51611.8 409273.8 54997.6 Q 408708.55 54432.35 408047.35 54159.7 Q 409760.2 51143.45 409760.2 44645.45 L 409760.2 39081.3 L 417366.85 39081.3 Q 416959.3 38166.45 416472.9 37505.25 L 417874.15 37116.7 Q 418516.35 37913.75 419002.75 39081.3 L 425792.4 39081.3 L 425792.4 40442.65 L 411181.4 40442.65 L 411180.45 40443.6 Z M 425811.4 51903.45 L 420285.25 51903.45 L 420285.25 54879.8 L 418865 54879.8 L 418865 51903.45 L 411880.6 51903.45 L 411880.6 50581.05 L 418865 50581.05 L 418865 48342.85 L 415499.15 48342.85 Q 414001 48342.85 413670.4 48635.45 Q 413456.65 47779.5 413203 47216.15 Q 413612.45 47118.3 414254.65 46087.55 Q 414624.2 45543.2 415383.25 44064.05 L 412444.9 44064.05 L 412444.9 42760.65 L 415986.5 42760.65 Q 416356.05 41962.65 416725.6 40834.05 L 418222.8 41359.4 Q 417931.15 42059.55 417580.6 42759.7 L 425013.4 42759.7 L 425013.4 44063.1 L 416938.4 44063.1 Q 416083.4 45736.05 415187.55 47039.45 L 418865 47039.45 L 418865 44996 L 420285.25 44996 L 420285.25 47039.45 L 424566.9 47039.45 L 424566.9 48342.85 L 420285.25 48342.85 L 420285.25 50581.05 L 425811.4 50581.05 L 425811.4 51903.45 Z M 438671.55 39938.2 Q 438204.15 40736.2 437289.3 42077.6 L 437289.3 54841.8 L 435753.15 54841.8 L 435753.15 44023.2 Q 432562.1 47662.65 428708.9 49685.2 Q 428436.25 49218.75 427736.1 48420.75 Q 433630.85 45463.4 436821.9 39938.2 L 428222.5 39938.2 L 428222.5 38498 L 444838.95 38498 L 444838.95 39938.2 L 438671.55 39938.2 Z M 438749.45 43187.2 Q 443282.85 46124.6 445384.25 48304.85 L 444236.65 49413.5 Q 441900.6 46904.55 437678.8 44122 L 438749.45 43188.15 L 438749.45 43187.2 Z M 451863.25 45910.85 Q 453322.45 48674.4 456065.1 50444.25 Q 458983.5 48596.5 460423.7 45910.85 L 451863.25 45910.85 Z M 462524.15 45055.85 Q 460948.1 48829.25 457406.5 51223.25 Q 460636.5 52876.25 464937.15 53401.6 Q 464411.8 54004.85 464042.25 54802.85 Q 459217.2 54062.8 456006.2 52117.2 Q 452680.25 53964.95 447835.25 54899.75 Q 447581.6 54178.7 447037.25 53517.5 Q 451551.65 52777.45 454683.8 51222.3 Q 451921.2 49218.75 450345.15 46065.7 L 450773.6 45909.9 L 448710.2 45909.9 L 448710.2 44489.65 L 455209.15 44489.65 L 455209.15 41513.3 L 447834.3 41513.3 L 447834.3 40093.05 L 455209.15 40093.05 L 455209.15 37135.7 L 456687.35 37135.7 L 456687.35 40093.05 L 464100.2 40093.05 L 464100.2 41513.3 L 456687.35 41513.3 L 456687.35 44489.65 L 461239.75 44489.65 L 461532.35 44431.7 L 462524.15 45054.9 L 462524.15 45055.85 Z M 472543.8 46903.6 L 470423.4 47583.8 L 470423.4 53147.95 Q 470423.4 54257.55 469762.2 54569.15 Q 469177.95 54860.8 467349.2 54841.8 Q 467232.35 54141.65 466920.75 53479.5 Q 468263.1 53539.35 468730.5 53500.4 Q 469080.1 53500.4 469080.1 53149.85 L 469080.1 48034.1 Q 467990.45 48402.7 466687.05 48793.15 L 466317.5 47410.9 Q 467329.25 47119.25 469080.1 46574.9 L 469080.1 42372.1 L 466590.15 42372.1 L 466590.15 41029.75 L 469080.1 41029.75 L 469080.1 37138.55 L 470422.45 37138.55 L 470422.45 41029.75 L 472484.9 41029.75 L 472484.9 42372.1 L 470422.45 42372.1 L 470422.45 46184.45 L 472349.05 45581.2 L 472542.85 46904.55 L 472543.8 46903.6 Z M 475541.05 48770.35 Q 477098.1 50620 477759.3 52117.2 L 476553.75 52838.25 Q 475911.55 51223.25 474432.4 49433.45 L 475542 48771.3 L 475541.05 48770.35 Z M 481805.35 44763.25 L 481805.35 46903.6 L 484198.4 46903.6 L 484198.4 48226 L 481805.35 48226 L 481805.35 53128.95 Q 481805.35 54355.4 481065.3 54628.05 Q 480443.05 54879.8 478107 54879.8 Q 478011.05 54237.6 477660.5 53478.55 Q 479431.3 53538.4 480073.5 53499.45 Q 480443.05 53479.5 480443.05 53129.9 L 480443.05 48226.95 L 472991.25 48226.95 L 472991.25 46904.55 L 480443.05 46904.55 L 480443.05 44764.2 L 472756.6 44764.2 L 472756.6 43421.85 L 477874.25 43421.85 L 477874.25 40951.85 L 473750.3 40951.85 L 473750.3 39628.5 L 477874.25 39628.5 L 477874.25 37215.5 L 479256.5 37215.5 L 479256.5 39628.5 L 483399.45 39628.5 L 483399.45 40951.85 L 479256.5 40951.85 L 479256.5 43421.85 L 484334.25 43421.85 L 484334.25 44764.2 L 481804.4 44764.2 L 481805.35 44763.25 Z M 2903.95 81126.25 Q 9440.9 75406.3 9440.9 71922.65 Q 9440.9 70639.2 8798.7 69899.15 Q 8098.55 69101.15 6814.15 69101.15 Q 5238.1 69101.15 3855.85 70755.1 L 2825.1 69743.35 Q 4770.7 67641.95 7027.9 67641.95 Q 8934.55 67641.95 10063.15 68789.55 Q 11172.75 69938.1 11172.75 71863.75 Q 11172.75 75482.3 5589.6 80774.75 Q 7321.45 80638.9 7924.7 80638.9 L 11873.85 80638.9 L 11873.85 82175.05 L 2904.9 82175.05 L 2904.9 81125.3 L 2903.95 81126.25 Z M 14608.8 82059.15 Q 14220.25 81670.6 14220.25 81086.35 Q 14220.25 80502.1 14608.8 80092.65 Q 14978.35 79704.1 15503.7 79704.1 Q 16029.05 79704.1 16417.6 80092.65 Q 16787.15 80502.1 16787.15 81086.35 Q 16787.15 81670.6 16417.6 82059.15 Q 16048.05 82428.7 15503.7 82428.7 Q 14959.35 82428.7 14608.8 82059.15  Z M 21222.55 72953.4 L 19842.2 72953.4 L 19842.2 69120.15 L 23052.25 69120.15 Q 22527.85 68011.5 21379.3 66650.15 L 22586.75 66084.9 Q 23928.15 67622.95 24434.5 68731.6 L 23694.45 69120.15 L 27955.2 69120.15 Q 27487.8 67699.9 26496 66221.7 L 27741.45 65754.3 Q 28947 67427.25 29316.55 68711.65 L 28324.75 69119.2 L 31496.8 69119.2 Q 32682.4 67641 33461.4 66026 L 34920.6 66532.35 Q 34005.75 67893.7 33032.95 69118.25 L 36205 69118.25 L 36205 72951.5 L 34783.8 72951.5 L 34783.8 70423.55 L 21222.55 70423.55 L 21222.55 72951.5 L 21222.55 72953.4 Z M 36554.6 78167.95 L 28636.35 78167.95 L 28636.35 81884.35 Q 28636.35 83089.9 27701.55 83381.55 Q 26942.5 83635.2 24121.95 83635.2 Q 24005.1 83167.8 23518.7 82233.95 Q 25950.7 82331.8 26690.75 82252.95 Q 27196.15 82233.95 27196.15 81864.4 L 27196.15 78167.95 L 19452.7 78167.95 L 19452.7 76825.6 L 27196.15 76825.6 L 27196.15 75424.35 Q 28869.1 74821.1 30561.05 73692.5 L 22701.7 73692.5 L 22701.7 72408.1 L 32215.95 72408.1 L 32488.6 72331.15 L 33442.4 73050.3 Q 31632.65 74704.25 28637.3 76046.6 L 28637.3 76824.65 L 36555.55 76824.65 L 36555.55 78167 L 36554.6 78167.95 Z M 51614 77058.35 Q 51419.25 77116.3 40271 80988.5 L 39745.65 79529.3 Q 43909.5 78283.85 51342.3 75696.05 L 51614.95 77057.4 L 51614 77058.35 Z M 43208.4 70307.65 Q 46807.95 72759.6 48365 74198.85 L 47334.25 75308.45 Q 45757.25 73732.4 42235.6 71242.45 L 43208.4 70307.65 Z M 54901.95 68128.35 Q 54726.2 81416.95 53890.2 82545.55 Q 53345.85 83381.55 52275.2 83460.4 Q 51360.35 83558.25 49161.1 83440.45 Q 49161.1 82721.3 48694.65 82060.1 Q 50056 82157.95 51768.85 82157.95 Q 52313.2 82157.95 52545.95 81846.35 Q 53286 81048.35 53441.8 68713.55 L 40055.35 68713.55 L 40055.35 67312.3 L 54901 67312.3 L 54901 68129.3 L 54901.95 68128.35 Z M 71031.05 65988 Q 73307.25 67136.55 74512.8 68207.2 L 73618.85 69199 Q 72373.4 68051.4 70174.15 66864.85 L 71030.1 65988 L 71031.05 65988 Z M 74395.95 72486.95 Q 73131.5 76299.3 70972.15 79061.9 Q 72119.75 82078.15 73578.95 82078.15 Q 74300 82078.15 74493.8 78479.55 Q 75078.05 79061.9 75739.25 79256.65 Q 75545.45 81727.6 75059.05 82621.55 Q 74572.65 83517.4 73463.05 83517.4 Q 71322.7 83517.4 69902.45 80326.35 Q 68131.65 82252 65894.4 83556.35 Q 65369.05 82835.3 64844.65 82406.85 Q 67451.45 81005.6 69318.2 78808.25 Q 68307.4 75617.2 67897.95 70616.4 L 61186.2 70616.4 L 61186.2 73146.25 L 66148.05 73146.25 L 66148.05 73768.5 Q 66011.25 79665.15 65524.85 80268.4 Q 65155.3 80754.8 64358.25 80831.75 Q 63579.25 80889.7 62043.1 80831.75 Q 62004.15 80072.7 61634.6 79469.45 Q 62763.2 79567.3 63697.05 79567.3 Q 64145.45 79567.3 64281.3 79353.55 Q 64631.85 78984 64727.8 74489.55 L 61187.15 74489.55 L 61187.15 74645.35 Q 61187.15 80851.7 59143.7 83808.1 Q 58599.35 83185.85 57938.15 82835.3 Q 59708.95 80209.5 59708.95 74624.45 L 59708.95 69197.1 L 67821.95 69197.1 Q 67743.1 68126.45 67704.15 65927.2 L 69202.3 65927.2 Q 69202.3 67795.85 69281.15 69197.1 L 75565.4 69197.1 L 75565.4 70617.35 L 69378.05 70617.35 Q 69689.65 74683.35 70448.7 77369 Q 72044.7 75034.85 72938.65 72116.45 L 74397.85 72486 L 74395.95 72486.95 Z M 88755.2 71417.25 Q 91110.25 76923.45 95293.1 79297.5 Q 94534.05 79939.7 94183.5 80522.05 Q 89767.9 77740.45 87335.9 71417.25 L 87063.25 71417.25 L 87063.25 78596.4 L 91576.7 78596.4 L 91576.7 80035.65 L 87063.25 80035.65 L 87063.25 83654.2 L 85565.1 83654.2 L 85565.1 80035.65 L 81050.7 80035.65 L 81050.7 78596.4 L 85565.1 78596.4 L 85565.1 71417.25 L 85253.5 71417.25 Q 82802.5 77603.65 78443.9 80580 Q 77996.45 79918.8 77412.2 79432.4 Q 81382.25 77000.4 83794.3 71417.25 L 77918.55 71417.25 L 77918.55 69977.05 L 85565.1 69977.05 L 85565.1 65911.05 L 87063.25 65911.05 L 87063.25 69977.05 L 94766.8 69977.05 L 94766.8 71417.25 L 88755.2 71417.25 Z M 112200.25 81028.4 L 112200.25 76748.65 L 108756.5 76748.65 L 108756.5 81028.4 L 112200.25 81028.4 Z M 99398.05 81028.4 L 102647.05 81028.4 L 102647.05 76748.65 L 99398.05 76748.65 L 99398.05 81028.4 Z M 99398.05 71183.55 L 99398.05 75366.4 L 102647.05 75366.4 L 102647.05 71183.55 L 99398.05 71183.55 Z M 104066.35 76748.65 L 104066.35 81028.4 L 107335.3 81028.4 L 107335.3 76748.65 L 104066.35 76748.65 Z M 104066.35 71183.55 L 104066.35 75366.4 L 107335.3 75366.4 L 107335.3 71183.55 L 104066.35 71183.55 Z M 108755.55 71183.55 L 108755.55 75366.4 L 112199.3 75366.4 L 112199.3 71183.55 L 108755.55 71183.55 Z M 113619.55 69762.35 L 113619.55 83595.3 L 112199.3 83595.3 L 112199.3 82428.7 L 99397.1 82428.7 L 99397.1 83674.15 L 98014.85 83674.15 L 98014.85 69762.35 L 102646.1 69762.35 L 102646.1 66105.8 L 104066.35 66105.8 L 104066.35 69762.35 L 107335.3 69762.35 L 107335.3 66105.8 L 108755.55 66105.8 L 108755.55 69762.35 L 113619.55 69762.35 Z M 131967.85 68810.45 Q 130956.1 67914.6 129185.3 67058.65 L 130002.3 66261.6 Q 131696.15 66980.75 132804.8 67914.6 L 131968.8 68810.45 L 131967.85 68810.45 Z M 122997.95 75989.6 Q 122919.1 76688.8 122997.95 77195.15 Q 117627.6 78303.8 117103.2 78596.4 Q 116889.45 77798.4 116654.8 77273.05 Q 117141.2 77175.2 118095 76008.6 Q 118854.05 75210.6 120059.6 73381.85 Q 117394.85 73732.4 116966.4 73965.15 Q 116868.55 73478.75 116518.95 72584.8 Q 116907.5 72486.95 117626.65 71397.3 Q 119241.65 68847.5 120214.45 65968.05 L 121575.8 66591.25 Q 120155.55 69898.2 118463.6 72349.2 L 120895.6 72116.45 Q 121575.8 71026.8 122120.15 69956.15 L 123327.6 70696.2 Q 121265.15 74236.85 119143.8 76687.85 L 122997 75988.65 L 122997.95 75989.6 Z M 123289.6 80580 L 116927.45 82467.65 L 116635.8 81066.4 Q 117064.25 80970.45 123075.85 79355.45 L 123289.6 80580 Z M 133913.45 75950.65 Q 132434.3 78245.85 130100.15 79997.65 Q 131034 82215.9 132279.45 82215.9 Q 132688.9 82215.9 132863.7 81767.5 Q 133038.5 81301.05 133096.45 80035.65 Q 133642.7 80600.9 134167.1 80794.7 Q 133973.3 82429.65 133563.85 83012 Q 133135.4 83616.2 132143.6 83616.2 Q 130198 83616.2 128932.6 80833.65 Q 126558.55 82390.7 123853.9 83324.55 Q 123523.3 82702.3 122959.95 82137.05 Q 125955.3 81222.2 128445.25 79569.2 Q 127920.85 77973.2 127492.4 75289.45 L 123795 76008.6 L 123543.25 74705.2 L 127317.6 74005.05 Q 127180.8 72759.6 127082.95 71398.25 L 124203.5 71845.7 L 123949.85 70542.3 L 127005.05 70093.9 Q 126907.2 68266.1 126868.25 65872.1 L 128289.45 65872.1 Q 128289.45 68168.25 128366.4 69879.2 L 133016.65 69199 L 133249.4 70463.45 L 128443.35 71203.5 Q 128580.15 72779.55 128697 73752.35 L 133542 72837.5 L 133793.75 74102.9 L 128852.8 75036.75 Q 129164.4 77099.2 129650.8 78714.2 Q 131596.4 77138.15 132705.05 75386.35 L 133912.5 75951.6 L 133913.45 75950.65 Z M 142240.2 67253.4 Q 141130.6 70444.45 140255.65 72487.9 Q 142006.5 74452.5 142045.45 76767.65 Q 142045.45 78499.5 141247.45 79024.85 Q 140858.9 79335.5 140236.65 79395.35 Q 139730.3 79472.3 138894.3 79433.35 Q 138894.3 78753.15 138543.75 78110.95 Q 138992.15 78148.95 139672.35 78148.95 Q 140060.9 78110.95 140295.55 77974.15 Q 140703.1 77701.5 140703.1 76611.85 Q 140664.15 74549.4 138953.2 72661.75 Q 139672.35 70793.1 140509.3 68050.45 L 137804.65 68050.45 L 137804.65 83673.2 L 136462.3 83673.2 L 136462.3 66726.15 L 141033.7 66726.15 L 141268.35 66668.2 L 142241.15 67252.45 L 142240.2 67253.4 Z M 148524.45 81747.55 Q 149302.5 81942.3 150586.9 81942.3 Q 153232.65 81942.3 153874.85 81922.35 Q 153544.25 82525.6 153427.4 83285.6 L 150470.05 83285.6 Q 148193.85 83285.6 146832.5 82623.45 Q 145217.5 81864.4 144302.65 79957.75 Q 143504.65 82252.95 142084.4 83693.15 Q 141753.8 83343.55 140955.8 82818.2 Q 143426.75 80580 143874.2 74822.05 L 145254.55 74938.9 Q 145118.7 76534.9 144807.1 78052.05 Q 145547.15 80386.2 147142.2 81261.15 L 147142.2 73536.7 L 141870.65 73536.7 L 141870.65 72233.3 L 146948.4 72233.3 L 146948.4 69684.45 L 142920.4 69684.45 L 142920.4 68439 L 146948.4 68439 L 146948.4 65870.2 L 148328.75 65870.2 L 148328.75 68439 L 152668.35 68439 L 152668.35 69684.45 L 148328.75 69684.45 L 148328.75 72233.3 L 153543.3 72233.3 L 153543.3 73536.7 L 148523.5 73536.7 L 148523.5 76629.9 L 152843.15 76629.9 L 152843.15 77895.3 L 148523.5 77895.3 L 148523.5 81747.55 L 148524.45 81747.55 Z M 172765.6 67330.35 Q 171637.95 69626.5 170665.15 71027.75 L 169613.5 70541.35 Q 170858.95 68653.7 171599 66785.05 L 172765.6 67329.4 L 172765.6 67330.35 Z M 160917.2 69762.35 L 162026.8 69762.35 L 162026.8 81493.9 L 160917.2 81493.9 L 160917.2 80541.05 L 155878.4 81163.3 L 155878.4 69762.35 L 157026 69762.35 L 157026 79820.95 L 158387.35 79666.1 L 158387.35 66104.85 L 159613.8 66104.85 L 159613.8 79529.3 L 160917.2 79373.5 L 160917.2 69762.35 Z M 165022.15 70988.8 Q 164399.9 69392.8 163271.3 67234.4 L 164360.95 66767 Q 165703.3 69256.95 166169.75 70424.5 L 165022.15 70987.85 L 165022.15 70988.8 Z M 170839.95 78245.85 L 170839.95 76183.4 L 164983.2 76183.4 L 164983.2 78245.85 L 170839.95 78245.85 Z M 164983.2 73011.35 L 164983.2 75016.8 L 170839.95 75016.8 L 170839.95 73011.35 L 164983.2 73011.35 Z M 172260.2 81903.35 Q 172260.2 82974 171580 83285.6 Q 171033.75 83537.35 168992.2 83537.35 Q 168874.4 82915.1 168485.85 82194.05 Q 169381.7 82233 170490.35 82233 Q 170840.9 82214 170840.9 81883.4 L 170840.9 79470.4 L 164984.15 79470.4 L 164984.15 83673.2 L 163563.9 83673.2 L 163563.9 71726.95 L 167241.35 71726.95 L 167241.35 65909.15 L 168662.55 65909.15 L 168662.55 71726.95 L 172261.15 71726.95 L 172261.15 81902.4 L 172260.2 81903.35 Z M 2611.35 109258.45 L 3507.2 108090.9 Q 5064.25 109724.9 7048.8 109724.9 Q 8332.25 109724.9 9130.25 109005.75 Q 9947.25 108286.6 9947.25 107079.15 Q 9947.25 104218.7 5511.7 104218.7 L 5511.7 102857.35 Q 9460.85 102857.35 9460.85 100133.7 Q 9460.85 99102.95 8818.65 98479.75 Q 8157.45 97876.5 7048.8 97837.55 Q 5452.8 97895.5 4091.45 99258.75 L 3137.65 98130.15 Q 4985.4 96417.3 7125.75 96417.3 Q 8973.5 96417.3 10102.1 97351.15 Q 11269.65 98323.95 11269.65 99996.9 Q 11269.65 102486.85 8719.85 103440.65 L 8719.85 103517.6 Q 10043.2 103829.2 10879.2 104744.05 Q 11756.05 105736.8 11756.05 107136.15 Q 11756.05 109004.8 10413.7 110133.4 Q 9148.3 111204.05 7183.7 111204.05 Q 4402.1 111204.05 2611.35 109258.45  Z M 14608.8 110833.55 Q 14220.25 110445 14220.25 109860.75 Q 14220.25 109276.5 14608.8 108867.05 Q 14978.35 108478.5 15503.7 108478.5 Q 16029.05 108478.5 16417.6 108867.05 Q 16787.15 109276.5 16787.15 109860.75 Q 16787.15 110445 16417.6 110833.55 Q 16048.05 111203.1 15503.7 111203.1 Q 14959.35 111203.1 14608.8 110833.55  Z M 29160.75 101708.8 Q 31436.95 108849 36807.3 111048.25 Q 36165.1 111651.5 35717.65 112410.55 Q 30463.2 109920.6 27973.25 102780.4 Q 26262.3 109647.95 20211.75 112410.55 Q 19842.2 111729.4 19123.05 111224 Q 25192.6 108578.25 26690.75 101710.7 L 19511.6 101710.7 L 19511.6 100232.5 L 26924.45 100232.5 Q 27178.1 98519.65 27216.1 94705.4 L 28773.15 94705.4 Q 28734.2 98228 28461.55 100231.55 L 36497.6 100231.55 L 36497.6 101709.75 L 29162.65 101709.75 L 29160.75 101708.8 Z M 52198.25 96163.65 L 42566.2 96163.65 L 42566.2 97215.3 L 52198.25 97215.3 L 52198.25 96163.65 Z M 52198.25 98050.35 L 42566.2 98050.35 L 42566.2 99121 L 52198.25 99121 L 52198.25 98050.35 Z M 53617.55 99995.95 L 41184.9 99995.95 L 41184.9 95287.75 L 53617.55 95287.75 L 53617.55 99995.95 Z M 56089.45 101903.55 L 38772.85 101903.55 L 38772.85 100793.95 L 56089.45 100793.95 L 56089.45 101903.55 Z M 46692.05 106728.6 L 46692.05 105619 L 42177.65 105619 L 42177.65 106728.6 L 46692.05 106728.6 Z M 42177.65 104764 L 46692.05 104764 L 46692.05 103673.4 L 42177.65 103673.4 L 42177.65 104764 Z M 52780.6 103673.4 L 48072.4 103673.4 L 48072.4 104764 L 52780.6 104764 L 52780.6 103673.4 Z M 52780.6 105619 L 48072.4 105619 L 48072.4 106728.6 L 52780.6 106728.6 L 52780.6 105619 Z M 56185.4 110833.55 L 56185.4 111962.15 L 38656 111962.15 L 38656 110833.55 L 46692.05 110833.55 L 46692.05 109704.95 L 40271 109704.95 L 40271 108693.2 L 46692.05 108693.2 L 46692.05 107622.55 L 40835.3 107622.55 L 40835.3 102778.5 L 54202.75 102778.5 L 54202.75 107622.55 L 48073.35 107622.55 L 48073.35 108693.2 L 54610.3 108693.2 L 54610.3 109704.95 L 48073.35 109704.95 L 48073.35 110833.55 L 56186.35 110833.55 L 56185.4 110833.55 Z M 57664.55 100386.4 L 59473.35 100386.4 L 61049.4 106495.85 L 61672.6 109452.25 L 61770.45 109452.25 Q 62314.8 107099.1 62489.6 106495.85 L 64123.6 100386.4 L 65855.45 100386.4 L 67509.4 106495.85 L 68249.45 109452.25 L 68326.4 109452.25 L 68987.6 106495.85 L 70544.65 100386.4 L 72217.6 100386.4 L 69376.15 110950.4 L 67236.75 110950.4 L 65698.7 105250.4 L 64979.55 102214.2 L 64881.7 102214.2 Q 64415.25 104315.6 64161.6 105288.4 L 62683.4 110950.4 L 60601 110950.4 L 57663.6 100386.4 L 57664.55 100386.4 Z M 75174.95 109744.85 Q 73695.8 108206.8 73695.8 105676.95 Q 73695.8 103206.95 75155 101610.95 Q 76537.25 100112.8 78463.85 100112.8 Q 80447.45 100112.8 81576.05 101455.15 Q 82665.7 102778.5 82665.7 105073.7 Q 82665.7 105580.05 82588.75 106085.45 L 75467.55 106085.45 Q 75546.4 107777.4 76519.2 108770.15 Q 77472.05 109780.95 78970.2 109780.95 Q 80371.45 109780.95 81616.9 108944.95 L 82259.1 110112.5 Q 80565.25 111202.15 78756.45 111202.15 Q 76578.1 111202.15 75176.85 109742.95 L 75174.95 109744.85 Z M 81109.6 104821.95 Q 81109.6 101534 78482.85 101534 Q 77315.3 101534 76479.3 102389.95 Q 75604.35 103304.8 75448.55 104821.95 L 81110.55 104821.95 L 81109.6 104821.95 Z M 86879.8 109860.75 L 86821.85 109860.75 L 86666.05 110950.4 L 85245.8 110950.4 L 85245.8 95462.55 L 87016.6 95462.55 L 87016.6 99704.3 L 86958.65 101610.95 Q 88669.6 100112.8 90265.6 100112.8 Q 92288.15 100112.8 93397.75 101591.95 Q 94487.4 103012.2 94487.4 105483.15 Q 94487.4 108108.95 93107.05 109704.95 Q 91802.7 111203.1 89896.05 111203.1 Q 88339 111203.1 86879.8 109860.75  Z M 91782.75 108616.25 Q 92638.7 107448.7 92638.7 105523.05 Q 92638.7 101611.9 89856.15 101611.9 Q 88572.7 101611.9 87015.65 103071.1 L 87015.65 108616.25 Q 88280.1 109724.9 89603.45 109724.9 Q 90945.8 109724.9 91781.8 108616.25 L 91782.75 108616.25 Z M 102732.8 104510.35 L 100417.65 105190.55 L 100417.65 110619.8 Q 100417.65 111709.45 99756.45 112001.1 Q 99251.05 112273.75 97363.4 112273.75 Q 97265.55 111710.4 96934.95 110951.35 Q 97732 110970.35 98685.8 110970.35 Q 99016.4 110970.35 99016.4 110639.75 L 99016.4 105600.95 L 96623.35 106320.1 L 96331.7 104880.85 Q 97770.95 104550.25 99016.4 104180.7 L 99016.4 99938.95 L 96565.4 99938.95 L 96565.4 98577.6 L 99016.4 98577.6 L 99016.4 94686.4 L 100417.65 94686.4 L 100417.65 98577.6 L 102500.05 98577.6 L 102500.05 99938.95 L 100417.65 99938.95 L 100417.65 103792.15 L 102538.05 103187.95 L 102732.8 104511.3 L 102732.8 104510.35 Z M 106137.6 94822.25 L 107538.85 94822.25 L 107538.85 112428.6 L 106137.6 112428.6 L 106137.6 107331.85 L 102849.65 107331.85 L 102849.65 106009.45 L 106137.6 106009.45 L 106137.6 103284.85 L 103317.05 103284.85 L 103317.05 102000.45 L 106137.6 102000.45 L 106137.6 99295.8 L 103258.15 99295.8 L 103258.15 97992.4 L 106137.6 97992.4 L 106137.6 94822.25 Z M 114056.8 107389.8 L 110690 107389.8 L 110690 112448.55 L 109309.65 112448.55 L 109309.65 94801.35 L 110690 94801.35 L 110690 97992.4 L 113862.05 97992.4 L 113862.05 99295.8 L 110690 99295.8 L 110690 102000.45 L 113687.25 102000.45 L 113687.25 103284.85 L 110690 103284.85 L 110690 106067.4 L 114056.8 106067.4 L 114056.8 107389.8 Z M 118336.55 102739.55 Q 118336.55 103654.4 118316.6 104121.8 L 122286.65 104121.8 L 122286.65 112428.6 L 120944.3 112428.6 L 120944.3 105425.2 L 118279.55 105425.2 Q 118025.9 109977.6 116585.7 112507.45 Q 116197.15 112021.05 115554.95 111611.6 Q 116995.15 108830 116995.15 102758.55 L 116995.15 95093.95 L 118337.5 95093.95 L 118337.5 100034.9 L 120418.95 100034.9 L 120418.95 94645.55 L 121742.3 94645.55 L 121742.3 100034.9 L 123434.25 100034.9 L 123434.25 101338.3 L 118337.5 101338.3 L 118337.5 102739.55 L 118336.55 102739.55 Z M 127227.6 101650.85 Q 127986.65 105074.65 129310 107273.9 Q 130788.2 104899.85 131430.4 101650.85 L 127227.6 101650.85 Z M 132947.55 100503.25 Q 132305.35 105328.3 130146 108538.35 Q 131567.2 110407 133550.8 111321.85 Q 133006.45 111769.3 132578 112488.45 Q 130671.35 111496.65 129289.1 109667.9 Q 127733.95 111477.65 125749.4 112488.45 Q 125360.85 111769.3 124893.45 111321.85 Q 126955.9 110388 128493.95 108442.4 Q 126859 105717.8 126099.95 101651.8 L 125671.5 101651.8 L 125671.5 102663.55 Q 125671.5 109394.3 123785.75 112547.35 Q 123220.5 112022 122636.25 111729.4 Q 124290.2 108849.95 124290.2 102663.55 L 124290.2 96009.75 Q 129367.95 95600.3 132363.3 94841.25 L 133278.15 96046.8 Q 130359.75 96786.85 125670.55 97136.45 L 125670.55 100308.5 L 131857.9 100308.5 L 132090.65 100269.55 L 132946.6 100504.2 L 132947.55 100503.25 Z M 144854.85 94743.4 Q 144796.9 96553.15 144719.95 97563.95 Q 146023.35 107954.1 153046.7 111066.3 Q 152346.55 111650.55 151996.95 112292.75 Q 146179.15 109568.15 144116.7 101591.95 Q 142364.9 109199.55 136411.25 112369.7 Q 136041.7 111785.45 135244.65 111241.1 Q 140419.3 108634.3 142268.95 102564.75 Q 143162.9 99588.4 143260.75 94743.4 L 144855.8 94743.4 L 144854.85 94743.4 Z M 159038.35 99004.15 L 168085.2 99004.15 L 168085.2 96804.9 L 159038.35 96804.9 L 159038.35 99004.15 Z M 169623.25 95541.4 L 169623.25 100288.55 L 157559.2 100288.55 L 157559.2 95541.4 L 169623.25 95541.4 Z M 164194 104569.25 L 164194 106378.05 Q 164194 108304.65 162851.65 109589.05 Q 160964 111417.8 156119.95 112507.45 Q 155731.4 111826.3 155166.15 111320.9 Q 159797.4 110406.05 161529.25 108907.9 Q 162676.85 107896.15 162676.85 106341 L 162676.85 104570.2 L 164194 104570.2 L 164194 104569.25 Z M 164797.25 108576.35 Q 169603.3 110172.35 171958.35 111300 L 171199.3 112507.45 Q 168650.45 111204.05 164078.1 109628 L 164797.25 108576.35 Z M 170400.35 101981.45 L 170400.35 108965.85 L 168864.2 108965.85 L 168864.2 103342.8 L 158338.2 103342.8 L 158338.2 109102.65 L 156879 109102.65 L 156879 101981.45 L 170400.35 101981.45 Z M 185129.15 97487 Q 184661.75 98285 183746.9 99626.4 L 183746.9 112390.6 L 182210.75 112390.6 L 182210.75 101572 Q 179019.7 105211.45 175166.5 107234 Q 174893.85 106767.55 174193.7 105969.55 Q 180088.45 103012.2 183279.5 97487 L 174680.1 97487 L 174680.1 96046.8 L 191296.55 96046.8 L 191296.55 97487 L 185129.15 97487 Z M 185207.05 100736 Q 189740.45 103673.4 191841.85 105853.65 L 190694.25 106962.3 Q 188358.2 104453.35 184136.4 101670.8 L 185207.05 100736.95 L 185207.05 100736 Z M 210674.65 97973.4 L 200208.5 97973.4 L 200208.5 96708 L 204644.05 96708 Q 204215.6 95774.15 203748.2 95055 L 205090.55 94822.25 Q 205674.8 95677.25 206161.2 96708 L 210674.65 96708 L 210674.65 97973.4 Z M 203008.15 101164.45 Q 202560.7 99938 201607.85 98634.6 L 202697.5 98187.15 Q 203728.25 99529.5 204156.7 100638.15 L 203008.15 101163.5 L 203008.15 101164.45 Z M 211161.05 102486.85 L 199526.4 102486.85 L 199526.4 101222.4 L 206024.4 101222.4 Q 207095.05 99588.4 207658.4 98206.15 L 209021.65 98575.7 Q 207698.3 100812.95 207425.65 101222.4 L 211161.05 101222.4 L 211161.05 102486.85 Z M 197231.2 105211.45 L 197231.2 110717.65 Q 197231.2 111786.4 196589 112117.95 Q 196004.75 112428.6 194291.9 112390.6 Q 194214.95 111709.45 193884.35 111028.3 Q 195129.8 111088.15 195558.25 111049.2 Q 195888.85 111049.2 195888.85 110718.6 L 195888.85 105640.85 L 193708.6 106341 L 193340 104958.75 Q 194099.05 104745 195888.85 104200.65 L 195888.85 99920.9 L 193592.7 99920.9 L 193592.7 98578.55 L 195888.85 98578.55 L 195888.85 94687.35 L 197231.2 94687.35 L 197231.2 98578.55 L 199176.8 98578.55 L 199176.8 99920.9 L 197231.2 99920.9 L 197231.2 103793.1 L 198942.15 103246.85 L 199155.9 104570.2 L 197230.25 105212.4 L 197231.2 105211.45 Z M 203671.25 105853.65 Q 203068 106903.4 202502.75 107662.45 Q 204253.6 108206.8 205751.75 108830 Q 207017.15 107682.4 207561.5 105853.65 L 203670.3 105853.65 L 203671.25 105853.65 Z M 209040.65 105853.65 Q 208418.4 108090.9 207114.05 109394.3 Q 209566 110464.95 210869.4 111379.8 L 209915.6 112488.45 Q 208554.25 111515.65 205986.4 110329.1 Q 203806.15 111788.3 199603.35 112411.5 Q 199409.55 111750.3 198981.1 111166.05 Q 202541.7 110796.5 204506.3 109706.85 Q 202658.55 108928.8 200538.15 108266.65 Q 201297.2 107274.85 202191.15 105854.6 L 199272.75 105854.6 L 199272.75 104609.15 L 202912.2 104609.15 Q 203436.6 103694.3 203923 102565.7 L 205265.35 102838.35 Q 204934.75 103597.4 204371.4 104609.15 L 211374.8 104609.15 L 211374.8 105854.6 L 209040.65 105854.6 L 209040.65 105853.65 Z M 229098.95 95774.15 Q 223729.55 96902.75 214157.35 97272.3 Q 214137.4 96785.9 213826.75 96045.85 Q 223320.1 95638.3 228086.25 94607.55 L 229098 95774.15 L 229098.95 95774.15 Z M 221551.2 100132.75 Q 221356.45 98809.4 220578.4 97273.25 L 221881.8 96981.6 Q 222678.85 98498.75 222913.5 99802.15 L 221552.15 100132.75 L 221551.2 100132.75 Z M 214993.35 104198.75 L 213632 104198.75 L 213632 100249.6 L 216725.2 100249.6 Q 216336.65 99102 215440.8 97680.8 L 216687.2 97331.2 Q 217698 98751.45 218067.55 99880.05 L 216919.95 100249.6 L 225382.55 100249.6 Q 226492.15 98576.65 227192.3 96942.65 L 228651.5 97390.1 Q 227970.35 98616.55 226861.7 100250.55 L 230187.65 100250.55 L 230187.65 104199.7 L 228767.4 104199.7 L 228767.4 101534.95 L 214992.4 101534.95 L 214992.4 104199.7 L 214993.35 104198.75 Z M 218146.4 105074.65 Q 219507.75 107020.25 221958.75 108421.5 Q 224390.75 107020.25 225655.2 105074.65 L 218146.4 105074.65 Z M 227814.55 104277.6 Q 226375.3 107234 223359.05 109160.6 Q 226414.25 110540.95 230557.2 111047.3 Q 230070.8 111533.7 229682.25 112389.65 Q 225206.8 111766.45 221918.85 109976.65 Q 218669.85 111649.6 214078.5 112389.65 Q 213728.9 111610.65 213222.55 111105.25 Q 217600.15 110502 220538.5 109159.65 Q 218067.55 107467.7 216608.35 105152.55 L 216803.1 105073.7 L 215966.15 105073.7 L 215966.15 103731.35 L 226569.1 103731.35 L 226861.7 103673.4 L 227814.55 104277.6 Z M 8643.85 134374.4 L 8643.85 129996.8 Q 8643.85 129627.25 8760.7 127409 L 8683.75 127409 Q 8216.35 128342.85 7536.15 129510.4 L 4286.2 134374.4 L 8644.8 134374.4 L 8643.85 134374.4 Z M 12223.45 135794.65 L 10335.8 135794.65 L 10335.8 139724.8 L 8643.85 139724.8 L 8643.85 135794.65 L 2437.5 135794.65 L 2437.5 134628.05 L 8372.15 125463.4 L 10336.75 125463.4 L 10336.75 134374.4 L 12224.4 134374.4 L 12224.4 135794.65 L 12223.45 135794.65 Z M 14608.8 139607.95 Q 14220.25 139219.4 14220.25 138635.15 Q 14220.25 138050.9 14608.8 137641.45 Q 14978.35 137252.9 15503.7 137252.9 Q 16029.05 137252.9 16417.6 137641.45 Q 16787.15 138050.9 16787.15 138635.15 Q 16787.15 139219.4 16417.6 139607.95 Q 16048.05 139977.5 15503.7 139977.5 Q 14959.35 139977.5 14608.8 139607.95  Z M 28304.8 126378.25 Q 28304.8 130055.7 24842.05 131709.65 Q 24492.45 131144.4 23889.2 130658 Q 26905.45 129237.75 26905.45 126338.35 L 26905.45 124141 L 33520.3 124141 L 33520.3 128400.8 Q 33520.3 129160.8 33908.85 129160.8 L 35581.8 129160.8 Q 36224 129160.8 36633.45 129043 L 36769.3 130444.25 Q 36457.7 130561.1 35621.7 130561.1 L 33811.95 130561.1 Q 32801.15 130561.1 32431.6 130055.7 Q 32101 129608.25 32101 128362.8 L 32101 125502.35 L 28305.75 125502.35 L 28305.75 126377.3 L 28304.8 126378.25 Z M 23421.8 126980.55 Q 22079.45 125968.8 19920.1 124744.25 L 20737.1 123713.5 Q 23033.25 124919.05 24259.7 125814.9 L 23422.75 126981.5 L 23421.8 126980.55 Z M 22546.85 132079.2 Q 21204.5 131086.45 18967.25 129977.8 L 19764.3 128907.15 Q 22177.3 130073.75 23363.85 130891.7 L 22546.85 132078.25 L 22546.85 132079.2 Z M 24083 134686 Q 22506.95 138051.85 20775.1 140931.3 L 19569.55 139997.45 Q 21242.5 137467.6 23032.3 133790.15 L 24082.05 134686 L 24083 134686 Z M 27157.2 133343.65 Q 28227.85 135464.05 30250.4 137040.1 Q 32351.8 135464.05 33442.4 133343.65 L 27157.2 133343.65 Z M 35426 132351.85 Q 34278.4 135638.85 31476.85 137877.05 Q 33869.9 139336.25 36925.1 139880.6 Q 36321.85 140522.8 35991.25 141222.95 Q 32605.45 140443.95 30212.4 138771 Q 27701.55 140386 24179.9 141203 Q 23888.25 140464.85 23439.85 139880.6 Q 26534 139296.35 29023.95 137856.15 Q 26922.55 136086.3 25717 133478.55 L 26105.55 133342.7 L 24879.1 133342.7 L 24879.1 131981.35 L 34199.55 131981.35 L 34472.2 131923.4 L 35425.05 132351.85 L 35426 132351.85 Z M 52217.25 130871.75 L 44104.25 130871.75 L 44104.25 132837.3 L 52217.25 132837.3 L 52217.25 130871.75 Z M 52217.25 136125.25 L 52217.25 134102.7 L 44104.25 134102.7 L 44104.25 136125.25 L 52217.25 136125.25 Z M 45446.6 127311.15 Q 44746.45 128751.35 44260.05 129568.35 L 53637.5 129568.35 L 53637.5 139394.2 Q 53637.5 140620.65 52820.5 140931.3 Q 52120.35 141184.95 49434.7 141184.95 Q 49357.75 140561.75 48969.2 139764.7 Q 49825.15 139802.7 51770.75 139802.7 Q 52218.2 139783.7 52218.2 139395.15 L 52218.2 137370.7 L 44105.2 137370.7 L 44105.2 141203.95 L 42684.95 141203.95 L 42684.95 131826.5 Q 41225.75 133655.25 39435 134900.7 Q 39085.4 134316.45 38520.15 133791.1 Q 41808.1 131572.85 43870.55 127312.1 L 38987.55 127312.1 L 38987.55 125950.75 L 44474.75 125950.75 Q 44999.15 124608.4 45329.75 123441.8 L 46769.95 123791.4 Q 46283.55 125329.45 46010.9 125951.7 L 55913.7 125951.7 L 55913.7 127313.05 L 45447.55 127313.05 L 45446.6 127311.15 Z M 60232.4 129938.85 L 58812.15 129938.85 L 58812.15 125678.1 L 66321.9 125678.1 Q 65874.45 124607.45 65349.1 123692.6 L 66789.3 123285.05 Q 67606.3 124588.45 68034.75 125678.1 L 74882.35 125678.1 L 74882.35 129938.85 L 73404.15 129938.85 L 73404.15 127059.4 L 60232.4 127059.4 L 60232.4 129938.85 Z M 61593.75 130464.2 L 61593.75 129121.85 L 72080.8 129121.85 L 72080.8 130464.2 L 61593.75 130464.2 Z M 73444.05 139569 Q 73988.4 139569 74163.2 139121.55 Q 74319 138674.1 74376.95 137001.15 Q 74844.35 137369.75 75699.35 137564.5 Q 75563.5 139587.05 75154.05 140249.2 Q 74725.6 140910.4 73578 140910.4 L 70601.65 140910.4 Q 69279.25 140910.4 68830.85 140500.95 Q 68383.4 140093.4 68383.4 138925.85 L 68383.4 134081.8 L 64959.6 134081.8 Q 64724.95 137310.85 63597.3 138790 Q 62273.95 140500.95 58830.2 141241 Q 58616.45 140579.8 58072.1 140035.45 Q 61185.25 139432.2 62332.85 138030.95 Q 63305.65 136844.4 63500.4 134081.8 L 58324.8 134081.8 L 58324.8 132699.55 L 75406.75 132699.55 L 75406.75 134081.8 L 69823.6 134081.8 L 69823.6 138906.85 Q 69823.6 139335.3 69998.4 139452.15 Q 70154.2 139569 70757.45 139569 L 73443.1 139569 L 73444.05 139569 Z M 81653.95 137137 L 81653.95 139375.2 L 91089.35 139375.2 L 91089.35 137137 L 81653.95 137137 Z M 80232.75 135970.4 L 92548.55 135970.4 L 92548.55 141145.05 L 91089.35 141145.05 L 91089.35 140541.8 L 81653.95 140541.8 L 81653.95 141203 L 80232.75 141203 L 80232.75 135970.4 Z M 94980.55 133634.35 L 94980.55 134801.9 L 77683.9 134801.9 L 77683.9 133634.35 L 81477.25 133634.35 Q 80990.85 132623.55 80485.45 131961.4 L 81788.85 131611.8 Q 82625.8 132623.55 82994.4 133557.4 L 82742.65 133634.35 L 85544.2 133634.35 L 85544.2 131611.8 L 78267.2 131611.8 L 78267.2 130483.2 L 85544.2 130483.2 L 85544.2 129121.85 L 79940.15 129121.85 L 79940.15 128032.2 L 85544.2 128032.2 L 85544.2 126689.85 L 78792.55 126689.85 L 78792.55 125580.25 L 82470 125580.25 Q 82002.6 124588.45 81458.25 123869.3 L 82742.65 123478.85 Q 83540.65 124451.65 83909.25 125307.6 L 83112.2 125580.25 L 88539.55 125580.25 Q 89258.7 124509.6 89726.1 123419.95 L 91204.3 123770.5 Q 90543.1 124937.1 90037.7 125579.3 L 93908.95 125579.3 L 93908.95 126688.9 L 87003.4 126688.9 L 87003.4 128031.25 L 92703.4 128031.25 L 92703.4 129120.9 L 87003.4 129120.9 L 87003.4 130482.25 L 94493.2 130482.25 L 94493.2 131610.85 L 87003.4 131610.85 L 87003.4 133633.4 L 89590.25 133633.4 Q 90290.4 132504.8 90621.95 131649.8 L 92081.15 131980.4 Q 91496.9 133051.05 91108.35 133633.4 L 94979.6 133633.4 L 94980.55 133634.35 Z M 102316.45 129160.8 L 105702.25 129160.8 L 105702.25 130502.2 L 102316.45 130502.2 L 102316.45 131008.55 Q 103775.65 132544.7 105565.45 134762.95 L 104690.5 135949.5 Q 104125.25 135015.65 102316.45 132660.6 L 102316.45 141164.05 L 100896.2 141164.05 L 100896.2 132602.65 Q 99319.2 136358 97412.55 138401.45 Q 97160.8 137797.25 96614.55 137078.1 Q 99027.55 134665.1 100525.7 130501.25 L 97100.95 130501.25 L 97100.95 129159.85 L 100896.2 129159.85 L 100896.2 125929.85 Q 99398.05 126162.6 97685.2 126395.35 Q 97549.35 125754.1 97276.7 125247.75 Q 102236.65 124567.55 104591.7 123632.75 L 105564.5 124761.35 Q 104222.15 125247.75 102315.5 125657.2 L 102315.5 129159.85 L 102316.45 129160.8 Z M 112121.4 137350.75 L 112121.4 126630.95 L 107782.75 126630.95 L 107782.75 137350.75 L 112121.4 137350.75 Z M 113561.6 125249.65 L 113561.6 140211.2 L 112121.4 140211.2 L 112121.4 138752 L 107782.75 138752 L 107782.75 140348 L 106362.5 140348 L 106362.5 125249.65 L 113560.65 125249.65 L 113561.6 125249.65 Z M 131148.95 130581.05 Q 127744.15 128284.9 125235.2 125405.45 Q 122880.15 128323.85 119437.35 130581.05 L 131148.95 130581.05 Z M 125975.25 131884.45 L 125975.25 134900.7 L 131208.8 134900.7 L 131208.8 136184.15 L 125975.25 136184.15 L 125975.25 139356.2 L 133504 139356.2 L 133504 140679.55 L 117064.25 140679.55 L 117064.25 139356.2 L 124496.1 139356.2 L 124496.1 136184.15 L 119496.25 136184.15 L 119496.25 134900.7 L 124496.1 134900.7 L 124496.1 131884.45 L 119380.35 131884.45 L 119380.35 130620 Q 118465.5 131242.25 117104.15 131942.4 Q 116792.55 131398.05 116092.4 130755.85 Q 122065.05 128012.25 125100.3 123246.1 L 126384.7 123830.35 L 126035.1 124355.7 Q 129226.15 128052.15 134439.75 130795.75 Q 133759.55 131380 133428.95 132021.25 Q 131813.95 131029.45 131210.7 130621.9 L 131210.7 131886.35 L 125977.15 131886.35 L 125975.25 131884.45 Z M 150877.6 129898.95 L 147959.2 129898.95 L 147959.2 138848.9 L 150877.6 138848.9 L 150877.6 129898.95 Z M 138444.95 138849.85 L 141208.5 138849.85 L 141208.5 129899.9 L 138444.95 129899.9 L 138444.95 138849.85 Z M 146636.8 129898.95 L 142531.85 129898.95 L 142531.85 132039.3 L 146636.8 132039.3 L 146636.8 129898.95 Z M 142531.85 138849.85 L 146636.8 138849.85 L 146636.8 136592.65 L 142531.85 136592.65 L 142531.85 138849.85 Z M 146636.8 133226.8 L 142531.85 133226.8 L 142531.85 135405.15 L 146636.8 135405.15 L 146636.8 133226.8 Z M 145294.45 126124.6 Q 144924.9 127428 144536.35 128556.6 L 152337.75 128556.6 L 152337.75 141222.95 L 150878.55 141222.95 L 150878.55 140192.2 L 138445.9 140192.2 L 138445.9 141222.95 L 137046.55 141222.95 L 137046.55 128556.6 L 143058.15 128556.6 Q 143330.8 127603.75 143622.45 126124.6 L 136170.65 126124.6 L 136170.65 124744.25 L 153273.5 124744.25 L 153273.5 126124.6 L 145296.35 126124.6 L 145294.45 126124.6 Z M 161578.4 127856.45 L 157493.4 127856.45 L 157493.4 131923.4 L 161578.4 131923.4 L 161578.4 127856.45 Z M 161578.4 137877.05 L 161578.4 133206.85 L 157493.4 133206.85 L 157493.4 137877.05 L 161578.4 137877.05 Z M 160684.45 123692.6 Q 159828.5 126144.55 159672.7 126552.1 L 162902.7 126552.1 L 162902.7 139179.5 L 157494.35 139179.5 L 157494.35 140715.65 L 156171 140715.65 L 156171 126552.1 L 158351.25 126552.1 Q 158935.5 124664.45 159129.3 123400 L 160686.35 123691.65 L 160684.45 123692.6 Z M 172416 127234.2 Q 172006.55 138907.8 171072.7 140055.4 Q 170528.35 140736.55 169536.55 140834.4 Q 168738.55 140930.35 166656.15 140813.5 Q 166579.2 140015.5 166169.75 139393.25 Q 167435.15 139510.1 169050.15 139510.1 Q 169613.5 139510.1 169846.25 139218.45 Q 170683.2 138322.6 171032.8 127835.55 L 166091.85 127835.55 Q 165196 129994.9 164262.15 131240.35 Q 164008.5 131007.6 163074.65 130423.35 Q 164981.3 127912.5 166051.95 123360.1 L 167434.2 123690.7 Q 167064.65 125207.85 166597.25 126492.25 L 172415.05 126492.25 L 172415.05 127232.3 L 172416 127234.2 Z M 168115.35 136008.4 Q 167221.4 134199.6 165158.95 131513.95 L 166287.55 130852.75 Q 168426.95 133576.4 169341.8 135249.35 L 168115.35 136008.4 Z M 176870.55 130502.2 L 175490.2 130502.2 L 175490.2 126668.95 L 178700.25 126668.95 Q 178175.85 125560.3 177027.3 124198.95 L 178234.75 123633.7 Q 179576.15 125171.75 180082.5 126280.4 L 179342.45 126668.95 L 183603.2 126668.95 Q 183135.8 125248.7 182144 123770.5 L 183389.45 123303.1 Q 184595 124976.05 184964.55 126260.45 L 183972.75 126668 L 187144.8 126668 Q 188330.4 125189.8 189109.4 123574.8 L 190568.6 124081.15 Q 189653.75 125442.5 188680.95 126667.05 L 191853 126667.05 L 191853 130500.3 L 190431.8 130500.3 L 190431.8 127972.35 L 176870.55 127972.35 L 176870.55 130500.3 L 176870.55 130502.2 Z M 192202.6 135716.75 L 184284.35 135716.75 L 184284.35 139433.15 Q 184284.35 140638.7 183349.55 140930.35 Q 182590.5 141184 179769.95 141184 Q 179653.1 140716.6 179166.7 139782.75 Q 181598.7 139880.6 182338.75 139801.75 Q 182844.15 139782.75 182844.15 139413.2 L 182844.15 135716.75 L 175100.7 135716.75 L 175100.7 134374.4 L 182844.15 134374.4 L 182844.15 132973.15 Q 184517.1 132369.9 186209.05 131241.3 L 178349.7 131241.3 L 178349.7 129956.9 L 187863.95 129956.9 L 188136.6 129879.95 L 189090.4 130599.1 Q 187280.65 132253.05 184285.3 133595.4 L 184285.3 134373.45 L 192203.55 134373.45 L 192203.55 135715.8 L 192202.6 135716.75 Z M 207262 134607.15 Q 207067.25 134665.1 195919 138537.3 L 195393.65 137078.1 Q 199557.5 135832.65 206990.3 133244.85 L 207262.95 134606.2 L 207262 134607.15 Z M 198856.4 127856.45 Q 202455.95 130308.4 204013 131747.65 L 202982.25 132857.25 Q 201405.25 131281.2 197883.6 128791.25 L 198856.4 127856.45 Z M 210549.95 125677.15 Q 210374.2 138965.75 209538.2 140094.35 Q 208993.85 140930.35 207923.2 141009.2 Q 207008.35 141107.05 204809.1 140989.25 Q 204809.1 140270.1 204342.65 139608.9 Q 205704 139706.75 207416.85 139706.75 Q 207961.2 139706.75 208193.95 139395.15 Q 208934 138597.15 209089.8 126262.35 L 195703.35 126262.35 L 195703.35 124861.1 L 210549 124861.1 L 210549 125678.1 L 210549.95 125677.15 Z M 217768.05 126668.95 Q 217145.8 125385.5 215938.35 124082.1 L 217028 123439.9 Q 218391.25 124841.15 218915.65 125949.8 L 217768.05 126668.95 Z M 220160.15 135270.25 Q 219518.9 134393.4 218136.65 132857.25 L 218136.65 141203 L 216716.4 141203 L 216716.4 133284.75 Q 215315.15 134686 214030.75 135522 Q 213777.1 134647.05 213369.55 134121.7 Q 217026.1 131962.35 219010.65 128110.1 L 213894.9 128110.1 L 213894.9 126787.7 L 219769.7 126787.7 L 220042.35 126729.75 L 220821.35 127293.1 Q 219944.5 129433.45 218389.35 131398.05 L 221073.1 134083.7 L 220158.25 135270.25 L 220160.15 135270.25 Z M 231387.25 139043.65 L 231387.25 140464.85 L 220278.9 140464.85 L 220278.9 139043.65 L 225394.65 139043.65 L 225394.65 130911.65 L 221192.8 130911.65 L 221192.8 129510.4 L 225394.65 129510.4 L 225394.65 123419.95 L 226834.85 123419.95 L 226834.85 129510.4 L 230979.7 129510.4 L 230979.7 130911.65 L 226834.85 130911.65 L 226834.85 139043.65 L 231387.25 139043.65 Z M 250687.45 139257.4 L 250687.45 140639.65 L 234188.8 140639.65 L 234188.8 124509.6 L 250201.05 124509.6 L 250201.05 125891.85 L 235609.05 125891.85 L 235609.05 139257.4 L 250687.45 139257.4 Z M 247223.75 137896.05 Q 245706.6 136008.4 243060.85 133518.45 Q 240493 136164.2 237826.35 137896.05 Q 237088.2 137098.05 236678.75 136825.4 Q 239539.2 135114.45 242048.15 132545.65 Q 239499.3 130192.5 237301.95 128382.75 L 238312.75 127526.8 Q 240493 129278.6 243001.95 131534.85 Q 244986.5 129337.5 246425.75 126826.65 L 247768.1 127371 Q 246192.05 130037.65 244032.7 132469.65 Q 246971.05 135174.3 248370.4 136866.25 L 247222.8 137897 L 247223.75 137896.05 Z " fill-rule="nonzero" style="fill:#ffffff;;fill-opacity:1;"/>
</svg>