<svg version="1.1" x="0" y="0" width="100%" height="100%" viewBox="0 0 340224 64819.2" xmlns="http://www.w3.org/2000/svg">
  <path d="M 20685.4 24873 L 25538.4 24873 L 25538.4 27125 L 13270.4 27125 L 13270.4 24873 L 18227.4 24873 L 18227.4 20204 L 14070.4 20204 L 14070.4 17951 L 18227.4 17951 L 18227.4 14551 L 20684.4 14551 L 20684.4 17951 L 24739.4 17951 L 24739.4 20204 L 20684.4 20204 L 20684.4 24873 L 20685.4 24873 Z M 25599.4 11336 L 25599.4 13671 L 14643.4 13671 Q 13516.4 16006 12245.4 17706 L 12245.4 27618 L 9768.4 27618 L 9768.4 20491 Q 8969.4 21248 7965.4 21924 Q 7413.4 20572 6757.4 19568 Q 9809.4 17583 11857.4 13671 L 7413.4 13671 L 7413.4 11336 L 12942.4 11336 Q 13515.4 9759 13843.4 8490 L 16403.4 9105 Q 16116.4 10088 15624.4 11337 L 25597.4 11337 L 25599.4 11336 Z M 41513.4 23603 L 41513.4 19016 L 32420.4 19016 L 32420.4 23603 L 41513.4 23603 Z M 32419.4 12196 L 32419.4 16599 L 41512.4 16599 L 41512.4 12196 L 32419.4 12196 Z M 44134.4 9739 L 44134.4 27351 L 41513.4 27351 L 41513.4 26062 L 32420.4 26062 L 32420.4 27393 L 29901.4 27393 L 29901.4 9740 L 44134.4 9740 L 44134.4 9739 Z M 54354.4 17377 L 60437.4 17377 L 60437.4 16108 L 54354.4 16108 L 54354.4 17377 Z M 65106.4 24525 Q 65106.4 26142 64061.4 26613 Q 63262.4 26961 60682.4 26961 Q 60477.4 25814 59904.4 24750 Q 60825.4 24790 62198.4 24790 Q 62607.4 24790 62607.4 24483 L 62607.4 22496 L 58920.4 22496 L 58920.4 27657 L 56401.4 27657 L 56401.4 22496 L 52550.4 22496 L 52550.4 26735 L 50071.4 26735 L 50071.4 20326 L 56400.4 20326 L 56400.4 19097 L 52017.4 19097 L 52017.4 14386 L 62912.4 14386 L 62912.4 19097 L 58919.4 19097 L 58919.4 20326 L 65104.4 20326 L 65104.4 24525 L 65106.4 24525 Z M 66294.4 11295 L 66294.4 16231 L 63857.4 16231 L 63857.4 13404 L 51036.4 13404 L 51036.4 16231 L 48701.4 16231 L 48701.4 11295 L 51466.4 11295 Q 50954.4 10312 50319.4 9513 L 52531.4 8612 Q 53616.4 9840 54025.4 10803 L 52918.4 11295 L 56175.4 11295 L 56175.4 8490 L 58694.4 8490 L 58694.4 11295 L 61909.4 11295 L 60762.4 10886 Q 61622.4 9862 62237.4 8654 L 64858.4 9431 Q 63978.4 10496 63179.4 11295 L 66292.4 11295 L 66294.4 11295 Z M 79646.4 18176 L 79646.4 16148 L 77127.4 16148 L 77127.4 18176 L 79646.4 18176 Z M 82063.4 16148 L 82063.4 18176 L 84602.4 18176 L 84602.4 16148 L 82063.4 16148 Z M 81941.4 20143 Q 81674.4 22191 80814.4 23706 Q 83639.4 25058 87818.4 25426 Q 86998.4 26266 86363.4 27598 Q 82227.4 27065 79359.4 25448 Q 77823.4 26861 75160.4 27638 Q 74505.4 26513 73645.4 25612 Q 76021.4 25079 77372.4 24035 Q 75980.4 22867 74853.4 20983 L 76840.4 20370 Q 77536.4 21495 78744.4 22479 Q 79317.4 21455 79502.4 20144 L 74934.4 20144 L 74934.4 14163 L 79645.4 14163 L 79645.4 12730 L 74505.4 12730 L 74505.4 10846 Q 73890.4 12115 73275.4 13202 L 73275.4 27681 L 70962.4 27681 L 70962.4 16684 Q 70019.4 17872 69282.4 18609 Q 68750.4 17216 67991.4 16111 Q 71207.4 13079 72948.4 8471 L 75200.4 9208 L 74647.4 10519 L 79644.4 10519 L 79644.4 8656 L 82061.4 8656 L 82061.4 10519 L 87488.4 10519 L 87488.4 12731 L 82061.4 12731 L 82061.4 14164 L 86934.4 14164 L 86934.4 20145 L 81938.4 20145 L 81941.4 20143 Z M 104161.4 19364 L 104161.4 16845 L 99840.4 16845 L 99840.4 19364 L 104161.4 19364 Z M 97382.4 19364 L 97382.4 16845 L 93531.4 16845 L 93531.4 17213 Q 93531.4 18217 93470.4 19364 L 97382.4 19364 Z M 93531.4 12196 L 93531.4 14572 L 97382.4 14572 L 97382.4 12196 L 93531.4 12196 Z M 104161.4 12196 L 99840.4 12196 L 99840.4 14572 L 104161.4 14572 L 104161.4 12196 Z M 106578.4 24751 Q 106578.4 26594 105471.4 27086 Q 104530.4 27557 101539.4 27516 Q 101416.4 26533 100760.4 25181 Q 101519.4 25222 103628.4 25222 Q 104160.4 25222 104160.4 24730 L 104160.4 21658 L 99839.4 21658 L 99839.4 27373 L 97382.4 27373 L 97382.4 21658 L 93205.4 21658 Q 92549.4 25651 90624.4 27740 Q 89723.4 26696 88699.4 26163 Q 91116.4 23502 91116.4 17194 L 91116.4 9882 L 106579.4 9882 L 106579.4 24751 L 106578.4 24751 Z M 124763.4 18852 L 124763.4 14448 L 120135.4 14448 L 120135.4 18852 L 124763.4 18852 Z M 117555.4 18852 L 117555.4 14448 L 112947.4 14448 L 112947.4 18852 L 117555.4 18852 Z M 127323.4 12052 L 127323.4 22272 L 124763.4 22272 L 124763.4 21248 L 120135.4 21248 L 120135.4 27637 L 117555.4 27637 L 117555.4 21248 L 112947.4 21248 L 112947.4 22375 L 110488.4 22375 L 110488.4 12052 L 117555.4 12052 L 117555.4 8509 L 120135.4 8509 L 120135.4 12052 L 127323.4 12052 Z M 132443.4 27024 Q 134902.4 26245 135086.4 24545 Q 135025.4 24565 134861.4 24565 Q 134062.4 24565 133509.4 24094 Q 132916.4 23582 132916.4 22742 Q 132916.4 21903 133509.4 21391 Q 134082.4 20899 134922.4 20899 Q 137134.4 20899 137134.4 23704 Q 137134.4 25465 136069.4 26776 Q 135004.4 28108 133100.4 28681 L 132444.4 27022 L 132443.4 27024 Z M 160747.4 12463 L 160747.4 15678 L 161156.4 15207 Q 166092.4 17684 168140.4 19344 L 166337.4 21576 Q 164637.4 20080 160746.4 17848 L 160746.4 27576 L 158125.4 27576 L 158125.4 12463 L 150732.4 12463 L 150732.4 10004 L 168980.4 10004 L 168980.4 12463 L 160747.4 12463 Z M 171130.4 9431 L 181781.4 9431 L 181781.4 11766 L 176312.4 11766 Q 175964.4 13201 175719.4 13978 L 179487.4 13978 L 179896.4 13897 L 181432.4 14348 Q 180040.4 24465 172831.4 27802 Q 172135.4 26491 171378.4 25734 Q 174225.4 24649 176068.4 22212 Q 175576.4 21680 173652.4 20061 L 175085.4 18197 Q 177050.4 19754 177419.4 20061 Q 178259.4 18300 178750.4 16211 L 174962.4 16211 Q 173917.4 18792 172586.4 20431 Q 171746.4 19407 170743.4 18751 Q 172852.4 16396 173855.4 11767 L 171131.4 11767 L 171131.4 9432 L 171130.4 9431 Z M 185118.4 22416 L 182722.4 22416 L 182722.4 10680 L 185118.4 10680 L 185118.4 22416 Z M 189378.4 8693 L 189378.4 24770 Q 189378.4 26573 188334.4 27105 Q 187350.4 27576 184750.4 27536 Q 184566.4 26409 183971.4 25200 Q 185691.4 25263 186450.4 25222 Q 186921.4 25222 186921.4 24771 L 186921.4 8694 L 189378.4 8694 L 189378.4 8693 Z M 193719.4 12544 L 193719.4 20080 L 194867.4 20080 L 194867.4 12544 L 193719.4 12544 Z M 193719.4 22292 L 193719.4 24217 L 191918.4 24217 L 191918.4 10312 L 196690.4 10312 L 196690.4 22292 L 193719.4 22292 Z M 201563.4 19016 L 201584.4 16209 L 200499.4 16209 Q 200499.4 17500 200375.4 19016 L 201563.4 19016 Z M 200499.4 14161 L 201604.4 14161 L 201624.4 11458 L 200499.4 11458 L 200499.4 14161 Z M 203591.4 9411 Q 203591.4 10210 203571.4 10455 Q 203468.4 25590 202976.4 26471 Q 202505.4 27290 201706.4 27474 Q 201111.4 27618 199822.4 27577 Q 199781.4 26410 199289.4 25447 Q 199822.4 25488 200599.4 25488 Q 200948.4 25508 201172.4 25057 Q 201439.4 24565 201522.4 21064 L 200087.4 21064 Q 199310.4 25344 197221.4 27679 Q 196648.4 26799 195808.4 26224 Q 197528.4 24279 198164.4 21064 L 197241.4 21064 L 197241.4 19016 L 198450.4 19016 Q 198551.4 17787 198551.4 16210 L 197262.4 16210 L 197262.4 14162 L 198551.4 14162 L 198551.4 11459 L 197262.4 11459 L 197262.4 9411 L 203590.4 9411 L 203591.4 9411 Z M 210247.4 10189 Q 209018.4 15452 208670.4 16721 Q 209878.4 18790 209919.4 21493 Q 209919.4 23602 209079.4 24299 Q 208711.4 24626 208035.4 24729 Q 207606.4 24790 206991.4 24790 Q 206991.4 23602 206560.4 22763 L 207195.4 22763 Q 207462.4 22763 207667.4 22558 Q 207932.4 22271 207932.4 21144 Q 207932.4 18789 206847.4 16905 Q 207359.4 14632 207892.4 11375 L 206396.4 11375 L 206396.4 27658 L 204409.4 27658 L 204409.4 9410 L 208465.4 9410 L 208752.4 9349 L 210247.4 10189 Z M 225054.4 19303 Q 223293.4 19303 222678.4 18627 Q 222085.4 17971 222085.4 16128 L 222085.4 8529 L 224522.4 8529 L 224522.4 12093 Q 226611.4 11356 228228.4 10496 L 230051.4 12421 Q 227736.4 13424 224521.4 14305 L 224521.4 16128 Q 224521.4 16721 224664.4 16865 Q 224808.4 17029 225381.4 17029 L 227573.4 17029 Q 228064.4 17029 228228.4 16578 Q 228392.4 16147 228473.4 14591 Q 229272.4 15184 230665.4 15533 Q 230460.4 17704 229845.4 18503 Q 229252.4 19302 227797.4 19302 L 225053.4 19302 L 225054.4 19303 Z M 214405.4 20531 L 228332.4 20531 L 228332.4 22866 L 214405.4 22866 L 214405.4 20531 Z M 221491.4 18811 L 212008.4 19958 L 211763.4 17542 L 212888.4 17439 L 212888.4 10599 L 215141.4 10599 L 215141.4 17234 L 216309.4 17111 L 216309.4 8530 L 218725.4 8530 L 218725.4 11602 L 221265.4 11602 L 221265.4 13774 L 218725.4 13774 L 218725.4 16886 L 221429.4 16599 L 221490.4 18811 L 221491.4 18811 Z M 212050.4 24791 L 230522.4 24791 L 230522.4 27228 L 212050.4 27228 L 212050.4 24791 Z M 236502.4 13609 Q 235725.4 12502 233349.4 10434 L 234885.4 8939 Q 237322.4 10926 238162.4 11970 L 236502.4 13609 Z M 238878.4 21412 Q 239145.4 22661 239554.4 23501 Q 235377.4 26716 234946.4 27311 Q 234578.4 26532 233655.4 25712 Q 234843.4 24627 234843.4 23276 L 234843.4 17132 L 232344.4 17132 L 232344.4 14797 L 237116.4 14797 L 237116.4 22681 L 238877.4 21412 L 238878.4 21412 Z M 247214.4 15084 L 239431.4 15084 L 239431.4 13056 L 247214.4 13056 L 247214.4 15084 Z M 242175.4 18647 L 242175.4 21268 L 244367.4 21268 L 244367.4 18647 L 242175.4 18647 Z M 242175.4 23296 L 242175.4 24525 L 240046.4 24525 L 240046.4 16598 L 246538.4 16598 L 246538.4 23295 L 242175.4 23295 L 242175.4 23296 Z M 250531.4 24832 Q 250531.4 26655 249487.4 27187 Q 248606.4 27638 245801.4 27638 Q 245637.4 26307 245044.4 25222 Q 245781.4 25263 247726.4 25263 Q 248217.4 25263 248217.4 24791 L 248217.4 11643 L 239042.4 11643 L 239042.4 9411 L 250531.4 9411 L 250531.4 24832 Z M 266874.4 10905 L 257494.4 10905 L 257494.4 11950 L 266874.4 11950 L 266874.4 10905 Z M 266874.4 13548 L 257494.4 13548 L 257494.4 14612 L 266874.4 14612 L 266874.4 13548 Z M 269353.4 16312 L 255120.4 16312 L 255120.4 9205 L 269353.4 9205 L 269353.4 16312 Z M 263701.4 24996 Q 264500.4 25057 265339.4 25057 Q 270419.4 25057 271872.4 24996 Q 271279.4 26000 271054.4 27331 L 265217.4 27331 Q 262186.4 27331 260445.4 26758 Q 258438.4 26102 257209.4 24423 Q 256084.4 26471 254343.4 27679 Q 253524.4 26635 252500.4 25979 Q 255572.4 24075 256309.4 19774 L 258745.4 20143 Q 258582.4 20900 258274.4 22005 Q 259155.4 23910 261223.4 24565 L 261223.4 19364 L 253236.4 19364 L 253236.4 17213 L 271299.4 17213 L 271299.4 19364 L 263702.4 19364 L 263702.4 20900 L 270009.4 20900 L 270009.4 23009 L 263702.4 23009 L 263702.4 24996 L 263701.4 24996 Z M 316763.4 27024 Q 319222.4 26245 319406.4 24545 Q 319345.4 24565 319181.4 24565 Q 318382.4 24565 317829.4 24094 Q 317236.4 23582 317236.4 22742 Q 317236.4 21903 317829.4 21391 Q 318402.4 20899 319242.4 20899 Q 321454.4 20899 321454.4 23704 Q 321454.4 25465 320389.4 26776 Q 319324.4 28108 317420.4 28681 L 316764.4 27022 L 316763.4 27024 Z M 116531.4 49110.6 Q 116551.4 48393.6 116551.4 46714.6 L 114523.4 46714.6 Q 114462.4 47554.6 114298.4 49110.6 L 116531.4 49110.6 Z M 114687.4 42106.6 Q 114687.4 43355.6 114626.4 44563.6 L 116571.4 44563.6 L 116592.4 42106.6 L 114687.4 42106.6 Z M 119050.4 39894.6 L 119030.4 41123.6 Q 118967.4 55438.6 118394.4 56401.6 Q 117821.4 57364.6 116858.4 57589.6 Q 116223.4 57753.6 114400.4 57712.6 Q 114319.4 56299.6 113663.4 55112.6 Q 114422.4 55173.6 115486.4 55173.6 Q 115875.4 55173.6 116120.4 54742.6 Q 116407.4 54271.6 116490.4 51260.6 L 113971.4 51260.6 Q 113131.4 55560.6 111164.4 57997.6 Q 110571.4 57178.6 109178.4 56195.6 Q 110797.4 54392.6 111513.4 51259.6 L 109609.4 51259.6 L 109609.4 49108.6 L 111902.4 49108.6 Q 112005.4 48248.6 112128.4 46712.6 L 109855.4 46712.6 L 109855.4 44561.6 L 112231.4 44561.6 Q 112272.4 42964.6 112272.4 42104.6 L 109609.4 42104.6 L 109609.4 39892.6 L 119050.4 39892.6 L 119050.4 39894.6 Z M 128491.4 40857.6 Q 126791.4 44953.6 125828.4 46878.6 Q 128143.4 49069.6 128143.4 51609.6 Q 128143.4 53780.6 126934.4 54600.6 Q 126341.4 54988.6 125440.4 55112.6 Q 124764.4 55193.6 123495.4 55152.6 Q 123414.4 53863.6 122819.4 52859.6 Q 123598.4 52940.6 124314.4 52900.6 Q 124867.4 52900.6 125256.4 52715.6 Q 125829.4 52408.6 125829.4 51364.6 Q 125829.4 49255.6 123433.4 47186.6 Q 124190.4 45547.6 125398.4 42127.6 L 122634.4 42127.6 L 122634.4 57979.6 L 120319.4 57979.6 L 120319.4 39834.6 L 126402.4 39834.6 L 126750.4 39753.6 L 128491.4 40858.6 L 128491.4 40857.6 Z M 143134.4 49664.6 Q 141373.4 49664.6 140758.4 48988.6 Q 140165.4 48332.6 140165.4 46489.6 L 140165.4 38890.6 L 142602.4 38890.6 L 142602.4 42454.6 Q 144691.4 41717.6 146308.4 40857.6 L 148131.4 42782.6 Q 145816.4 43785.6 142601.4 44666.6 L 142601.4 46489.6 Q 142601.4 47082.6 142744.4 47226.6 Q 142888.4 47390.6 143461.4 47390.6 L 145653.4 47390.6 Q 146144.4 47390.6 146308.4 46939.6 Q 146472.4 46508.6 146553.4 44952.6 Q 147352.4 45545.6 148745.4 45894.6 Q 148540.4 48065.6 147925.4 48864.6 Q 147332.4 49663.6 145877.4 49663.6 L 143133.4 49663.6 L 143134.4 49664.6 Z M 132485.4 50892.6 L 146412.4 50892.6 L 146412.4 53227.6 L 132485.4 53227.6 L 132485.4 50892.6 Z M 139571.4 49172.6 L 130088.4 50319.6 L 129843.4 47903.6 L 130968.4 47800.6 L 130968.4 40960.6 L 133221.4 40960.6 L 133221.4 47595.6 L 134389.4 47472.6 L 134389.4 38891.6 L 136805.4 38891.6 L 136805.4 41963.6 L 139345.4 41963.6 L 139345.4 44135.6 L 136805.4 44135.6 L 136805.4 47247.6 L 139509.4 46960.6 L 139570.4 49172.6 L 139571.4 49172.6 Z M 130130.4 55152.6 L 148602.4 55152.6 L 148602.4 57589.6 L 130130.4 57589.6 L 130130.4 55152.6 Z M 164474.4 41266.6 L 155094.4 41266.6 L 155094.4 42311.6 L 164474.4 42311.6 L 164474.4 41266.6 Z M 164474.4 43909.6 L 155094.4 43909.6 L 155094.4 44973.6 L 164474.4 44973.6 L 164474.4 43909.6 Z M 166953.4 46673.6 L 152720.4 46673.6 L 152720.4 39566.6 L 166953.4 39566.6 L 166953.4 46673.6 Z M 161301.4 55357.6 Q 162100.4 55418.6 162939.4 55418.6 Q 168019.4 55418.6 169472.4 55357.6 Q 168879.4 56361.6 168654.4 57692.6 L 162817.4 57692.6 Q 159786.4 57692.6 158045.4 57119.6 Q 156038.4 56463.6 154809.4 54784.6 Q 153684.4 56832.6 151943.4 58040.6 Q 151124.4 56996.6 150100.4 56340.6 Q 153172.4 54436.6 153909.4 50135.6 L 156345.4 50504.6 Q 156182.4 51261.6 155874.4 52366.6 Q 156755.4 54271.6 158823.4 54926.6 L 158823.4 49725.6 L 150836.4 49725.6 L 150836.4 47574.6 L 168899.4 47574.6 L 168899.4 49725.6 L 161302.4 49725.6 L 161302.4 51261.6 L 167609.4 51261.6 L 167609.4 53370.6 L 161302.4 53370.6 L 161302.4 55357.6 L 161301.4 55357.6 Z M 214610.4 50953.6 Q 214363.4 49110.6 216043.4 47431.6 Q 217804.4 45670.6 217804.4 44850.6 Q 217804.4 43089.6 215940.4 43089.6 Q 214548.4 43089.6 213380.4 44380.6 L 211701.4 42824.6 Q 213605.4 40652.6 216268.4 40652.6 Q 218255.4 40652.6 219443.4 41636.6 Q 220692.4 42700.6 220692.4 44585.6 Q 220692.4 46121.6 218848.4 47841.6 Q 217087.4 49480.6 217251.4 50953.6 L 214610.4 50953.6 Z M 214425.4 52920.6 Q 215020.4 52367.6 215941.4 52367.6 Q 216862.4 52367.6 217477.4 52920.6 Q 218070.4 53493.6 218070.4 54374.6 Q 218070.4 55254.6 217477.4 55827.6 Q 216862.4 56400.6 215941.4 56400.6 Q 215020.4 56400.6 214425.4 55827.6 Q 213812.4 55254.6 213812.4 54374.6 Q 213812.4 53493.6 214425.4 52920.6  Z " fill-rule="nonzero" style="fill:#ffffff;;fill-opacity:1;"/>
  <path d="M 281846.4 11152 Q 281210.4 15944 279613.4 19631 Q 281293.4 22027 281908.4 23174 L 280147.4 25017 Q 279552.4 23850 278405.4 22067 Q 276788.4 24771 274740.4 26430 Q 273961.4 25201 273018.4 24505 Q 275169.4 22949 276828.4 19774 Q 275436.4 17809 273367.4 15146 L 274924.4 13630 L 277913.4 17358 Q 278712.4 15310 279163.4 12851 L 273347.4 12851 L 273347.4 10702 L 279860.4 10702 L 280269.4 10619 L 281846.4 11152 Z M 292229.4 15104 L 290038.4 15104 L 290038.4 24607 Q 290038.4 26512 288993.4 27064 Q 288052.4 27576 285307.4 27536 Q 285123.4 26307 284550.4 25016 Q 285677.4 25077 287130.4 25077 Q 287622.4 25057 287622.4 24606 L 287622.4 15103 L 282235.4 15103 L 282235.4 12768 L 287622.4 12768 L 287622.4 8569 L 290039.4 8569 L 290039.4 12768 L 292230.4 12768 L 292230.4 15103 L 292229.4 15104 Z M 284651.4 22661 Q 284180.4 20572 282295.4 17644 L 284242.4 16721 Q 286207.4 19486 286780.4 21595 L 284651.4 22660 L 284651.4 22661 Z M 299990.4 23377 L 299990.4 19364 L 296734.4 19364 L 296734.4 23377 L 299990.4 23377 Z M 299990.4 13936 L 296734.4 13936 L 296734.4 17255 L 299990.4 17255 L 299990.4 13936 Z M 312258.4 11664 Q 312258.4 12483 312238.4 12770 Q 311890.4 24997 310906.4 26266 Q 310230.4 27167 308941.4 27392 Q 308040.4 27515 305725.4 27434 Q 305644.4 26205 304927.4 25058 Q 306238.4 25181 307979.4 25181 Q 308532.4 25181 308880.4 24833 Q 309657.4 23973 309965.4 13876 L 305582.4 13876 Q 304783.4 15720 303779.4 17112 Q 303431.4 16785 302202.4 15965 L 302202.4 25529 L 296734.4 25529 L 296734.4 27025 L 294522.4 27025 L 294522.4 11808 L 296837.4 11808 Q 297308.4 10027 297431.4 8511 L 300094.4 8880 Q 299521.4 10559 299030.4 11808 L 302203.4 11808 L 302203.4 15125 Q 303964.4 12565 304968.4 8530 L 307283.4 9063 Q 307036.4 10107 306484.4 11664 L 312259.4 11664 L 312258.4 11664 Z M 306790.4 22272 Q 306033.4 20675 303944.4 17542 L 305848.4 16457 Q 308060.4 19508 308859.4 21004 L 306791.4 22273 L 306790.4 22272 Z " fill-rule="nonzero" style="fill:#00b050;;fill-opacity:1;"/>
  <path d="M 175963.4 48844.6 L 178483.4 48844.6 L 178483.4 51016.6 L 175963.4 51016.6 L 175963.4 54169.6 L 178114.4 53145.6 Q 178175.4 54230.6 178483.4 55254.6 Q 174202.4 57486.6 173751.4 57937.6 Q 173403.4 56749.6 172727.4 55910.6 Q 173751.4 55274.6 173751.4 54149.6 L 173751.4 51016.6 L 171254.4 51016.6 L 171254.4 48844.6 L 173751.4 48844.6 L 173751.4 46837.6 L 172278.4 46837.6 L 172278.4 45178.6 Q 171970.4 45546.6 171622.4 45833.6 Q 171110.4 44338.6 170557.4 43581.6 Q 172524.4 41717.6 173487.4 38932.6 L 175535.4 39567.6 Q 175351.4 40079.6 174900.4 41103.6 L 178360.4 41103.6 L 178360.4 43398.6 L 173629.4 43398.6 Q 173178.4 44094.6 172727.4 44667.6 L 178094.4 44667.6 L 178094.4 46838.6 L 175963.4 46838.6 L 175963.4 48845.6 L 175963.4 48844.6 Z M 182026.4 50626.6 L 182026.4 51977.6 L 186367.4 51977.6 L 186367.4 50626.6 L 182026.4 50626.6 Z M 186367.4 55296.6 L 186367.4 53903.6 L 182026.4 53903.6 L 182026.4 55296.6 L 186367.4 55296.6 Z M 179834.4 48640.6 L 188662.4 48640.6 L 188662.4 57876.6 L 186367.4 57876.6 L 186367.4 57241.6 L 182026.4 57241.6 L 182026.4 57978.6 L 179834.4 57978.6 L 179834.4 48639.6 L 179834.4 48640.6 Z M 183030.4 45301.6 L 185057.4 45301.6 L 185057.4 43356.6 L 183030.4 43356.6 L 183030.4 45301.6 Z M 189829.4 45301.6 L 189829.4 47493.6 L 178585.4 47493.6 L 178585.4 45301.6 L 180858.4 45301.6 L 180858.4 43356.6 L 179015.4 43356.6 L 179015.4 41247.6 L 180858.4 41247.6 L 180858.4 38871.6 L 183030.4 38871.6 L 183030.4 41247.6 L 185057.4 41247.6 L 185057.4 38871.6 L 187269.4 38871.6 L 187269.4 41247.6 L 189317.4 41247.6 L 189317.4 43356.6 L 187269.4 43356.6 L 187269.4 45301.6 L 189829.4 45301.6 Z M 197590.4 53738.6 L 197590.4 49725.6 L 194334.4 49725.6 L 194334.4 53738.6 L 197590.4 53738.6 Z M 197590.4 44297.6 L 194334.4 44297.6 L 194334.4 47616.6 L 197590.4 47616.6 L 197590.4 44297.6 Z M 209858.4 42025.6 Q 209858.4 42844.6 209838.4 43131.6 Q 209490.4 55358.6 208506.4 56627.6 Q 207830.4 57528.6 206541.4 57753.6 Q 205640.4 57876.6 203325.4 57795.6 Q 203244.4 56566.6 202527.4 55419.6 Q 203838.4 55542.6 205579.4 55542.6 Q 206132.4 55542.6 206480.4 55194.6 Q 207257.4 54334.6 207565.4 44237.6 L 203182.4 44237.6 Q 202383.4 46081.6 201379.4 47473.6 Q 201031.4 47146.6 199802.4 46326.6 L 199802.4 55890.6 L 194334.4 55890.6 L 194334.4 57386.6 L 192122.4 57386.6 L 192122.4 42169.6 L 194437.4 42169.6 Q 194908.4 40388.6 195031.4 38872.6 L 197694.4 39241.6 Q 197121.4 40920.6 196630.4 42169.6 L 199803.4 42169.6 L 199803.4 45486.6 Q 201564.4 42926.6 202568.4 38891.6 L 204883.4 39424.6 Q 204636.4 40468.6 204084.4 42025.6 L 209859.4 42025.6 L 209858.4 42025.6 Z M 204390.4 52633.6 Q 203633.4 51036.6 201544.4 47903.6 L 203448.4 46818.6 Q 205660.4 49869.6 206459.4 51365.6 L 204391.4 52634.6 L 204390.4 52633.6 Z " fill-rule="nonzero" style="fill:#ff0000;;fill-opacity:1;"/>
</svg>