<svg version="1.1" x="0" y="0" width="100%" height="100%" viewBox="0 0 340992 34457.6" xmlns="http://www.w3.org/2000/svg">
  <path d="M 38206.2 13220 L 33946.2 13220 L 33946.2 10701 L 45538.2 10701 L 45538.2 13220 L 41237.2 13220 L 41237.2 25856 L 38206.2 25856 L 38206.2 13220 Z M 47175.2 30239 L 47728.2 27924 Q 48199.2 28068 48527.2 28068 Q 50104.2 28068 50677.2 26327 L 50882.2 25651 L 46417.2 14387 L 49448.2 14387 L 51271.2 19712 L 52234.2 22948 L 52337.2 22948 Q 52481.2 22416 52746.2 21329 Q 53033.2 20244 53156.2 19712 L 54733.2 14387 L 57621.2 14387 L 53545.2 26204 Q 52746.2 28375 51743.2 29338 Q 50575.2 30465 48752.2 30465 Q 47892.2 30465 47175.2 30240 L 47175.2 30239 Z M 59524.2 14387 L 61983.2 14387 L 62187.2 15575 L 62270.2 15575 Q 64010.2 14100 65649.2 14100 Q 67758.2 14100 68966.2 15697 Q 70154.2 17274 70154.2 19937 Q 70154.2 22764 68659.2 24504 Q 67267.2 26143 65280.2 26143 Q 63805.2 26143 62433.2 24894 L 62514.2 26778 L 62514.2 30259 L 59523.2 30259 L 59523.2 14387 L 59524.2 14387 Z M 66366.2 22764 Q 67062.2 21780 67062.2 19979 Q 67062.2 16579 64789.2 16579 Q 63704.2 16579 62516.2 17767 L 62516.2 22804 Q 63520.2 23664 64605.2 23664 Q 65710.2 23664 66366.2 22764  Z M 73676.8 24545 Q 72017.8 22906 72017.8 20142 Q 72017.8 17458 73656.8 15718 Q 75212.8 14099 77363.8 14099 Q 79656.8 14099 80947.8 15656 Q 82155.8 17131 82155.8 19588 Q 82155.8 20489 82012.8 20960 L 74945.8 20960 Q 75314.8 23827 78119.8 23827 Q 79430.8 23827 80699.8 23028 L 81723.8 24872 Q 79880.8 26141 77709.8 26141 Q 75252.8 26141 73675.8 24544 L 73676.8 24545 Z M 79575.8 18975 Q 79575.8 16435 77404.8 16435 Q 76461.8 16435 75785.8 17071 Q 75068.8 17767 74905.8 18975 L 79574.8 18975 L 79575.8 18975 Z M 83476 24525 L 84848 22640 Q 86447 23889 87920 23889 Q 89580 23889 89580 22681 Q 89580 22108 88843 21679 Q 88474 21474 87185 20962 Q 84050 19774 84050 17623 Q 84050 16067 85218 15084 Q 86385 14100 88310 14100 Q 90318 14100 92222 15513 L 90870 17336 Q 89457 16353 88393 16353 Q 86877 16353 86877 17458 Q 86877 18011 87594 18400 Q 87859 18543 89211 19055 Q 90706 19630 91382 20203 Q 92406 21083 92406 22516 Q 92406 24093 91239 25076 Q 90010 26141 87839 26141 Q 85402 26141 83477 24524 L 83476 24525 Z M 95580.6 24565 Q 93983.6 22906 93983.6 20142 Q 93983.6 17377 95744.6 15677 Q 97403.6 14100 99840.6 14100 Q 101683.6 14100 103178.6 15371 L 101745.6 17316 Q 100865.6 16559 99984.6 16559 Q 98673.6 16559 97874.6 17542 Q 97055.6 18525 97055.6 20144 Q 97055.6 21741 97854.6 22724 Q 98653.6 23687 99902.6 23687 Q 101029.6 23687 102134.6 22766 L 103322.6 24753 Q 101745.6 26145 99574.6 26145 Q 97137.6 26145 95581.6 24568 L 95580.6 24565 Z M 105450.6 14387 L 107909.6 14387 L 108113.6 16415 L 108196.6 16415 Q 109485.6 14100 111452.6 14100 Q 112209.6 14100 112804.6 14347 L 112271.6 16947 Q 111698.6 16763 111083.6 16763 Q 109322.6 16763 108442.6 19016 L 108442.6 25856 L 105451.6 25856 L 105451.6 14387 L 105450.6 14387 Z M 114410.6 14387 L 117401.6 14387 L 117401.6 25856 L 114410.6 25856 L 114410.6 14387 Z M 114636.6 12073 Q 114124.6 11622 114124.6 10905 Q 114124.6 10168 114636.6 9717 Q 115128.6 9266 115927.6 9266 Q 116706.6 9266 117197.6 9717 Q 117709.6 10168 117709.6 10905 Q 117709.6 11601 117197.6 12073 Q 116706.6 12544 115927.6 12544 Q 115148.6 12544 114636.6 12073  Z M 120605.8 14387 L 123064.8 14387 L 123268.8 15575 L 123351.8 15575 Q 125091.8 14100 126730.8 14100 Q 128839.8 14100 130047.8 15697 Q 131235.8 17274 131235.8 19937 Q 131235.8 22764 129740.8 24504 Q 128348.8 26143 126361.8 26143 Q 124886.8 26143 123514.8 24894 L 123595.8 26778 L 123595.8 30259 L 120604.8 30259 L 120604.8 14387 L 120605.8 14387 Z M 127447.8 22764 Q 128143.8 21780 128143.8 19979 Q 128143.8 16579 125870.8 16579 Q 124785.8 16579 123597.8 17767 L 123597.8 22804 Q 124601.8 23664 125686.8 23664 Q 126791.8 23664 127447.8 22764  Z M 134246.4 21841 L 134246.4 16762 L 132629.4 16762 L 132629.4 14530 L 134390.4 14386 L 134738.4 11314 L 137257.4 11314 L 137257.4 14386 L 140084.4 14386 L 140084.4 16762 L 137257.4 16762 L 137257.4 21841 Q 137257.4 23766 138813.4 23766 Q 139325.4 23766 139940.4 23521 L 140432.4 25712 Q 139141.4 26143 138014.4 26143 Q 134246.4 26143 134246.4 21842 L 134246.4 21841 Z M 154583 22845 L 141866 22845 L 141866 20510 L 154583 20510 L 154583 22845 Z M 159477 16108 Q 159437 16845 159376 17172 Q 158679 25037 157348 26348 Q 156549 27187 154910 27351 Q 153722 27434 151101 27331 Q 151040 26082 150160 24894 Q 151777 25038 154132 25038 Q 154911 25038 155239 24791 Q 156242 24034 156775 18361 L 146146 18361 L 144037 18341 Q 145122 14245 145921 8838 L 148420 9083 Q 148195 10496 148092 10988 L 158947 10988 L 158947 13323 L 147663 13323 L 147110 16108 L 159479 16108 L 159477 16108 Z M 161731 23480 L 163820 21944 Q 164659 23521 166072 23521 Q 168100 23521 168100 20716 L 168100 10701 L 171131 10701 L 171131 20961 Q 171131 23234 170004 24626 Q 168776 26142 166441 26142 Q 163286 26142 161730 23479 L 161731 23480 Z M 174838.2 25180 Q 173895.2 24217 173895.2 22742 Q 173895.2 20899 175472.2 19875 Q 177028.2 18871 180489.2 18503 Q 180408.2 16516 178544.2 16516 Q 177275.2 16516 175391.2 17601 L 174306.2 15614 Q 176742.2 14098 179098.2 14098 Q 183501.2 14098 183501.2 19157 L 183501.2 25854 L 181044.2 25854 L 180819.2 24625 L 180758.2 24625 Q 178997.2 26141 177297.2 26141 Q 175781.2 26141 174840.2 25178 L 174838.2 25180 Z M 180490.2 22661 L 180490.2 20346 Q 176763.2 20838 176763.2 22497 Q 176763.2 23788 178278.2 23788 Q 179363.2 23788 180490.2 22661  Z M 185221.4 14387 L 188252.4 14387 L 189932.4 20102 L 190853.4 23583 L 190956.4 23583 Q 191201.4 22559 191877.4 20102 L 193557.4 14387 L 196444.4 14387 L 192615.4 25856 L 189134.4 25856 L 185222.4 14387 L 185221.4 14387 Z M 198697.4 25180 Q 197754.4 24217 197754.4 22742 Q 197754.4 20899 199331.4 19875 Q 200887.4 18871 204348.4 18503 Q 204267.4 16516 202403.4 16516 Q 201134.4 16516 199250.4 17601 L 198165.4 15614 Q 200601.4 14098 202957.4 14098 Q 207360.4 14098 207360.4 19157 L 207360.4 25854 L 204903.4 25854 L 204678.4 24625 L 204617.4 24625 Q 202856.4 26141 201156.4 26141 Q 199640.4 26141 198699.4 25178 L 198697.4 25180 Z M 204349.4 22661 L 204349.4 20346 Q 200622.4 20838 200622.4 22497 Q 200622.4 23788 202137.4 23788 Q 203222.4 23788 204349.4 22661  Z M 209325.6 24525 L 210697.6 22640 Q 212296.6 23889 213769.6 23889 Q 215429.6 23889 215429.6 22681 Q 215429.6 22108 214692.6 21679 Q 214323.6 21474 213034.6 20962 Q 209899.6 19774 209899.6 17623 Q 209899.6 16067 211067.6 15084 Q 212234.6 14100 214159.6 14100 Q 216167.6 14100 218071.6 15513 L 216719.6 17336 Q 215306.6 16353 214242.6 16353 Q 212726.6 16353 212726.6 17458 Q 212726.6 18011 213443.6 18400 Q 213708.6 18543 215060.6 19055 Q 216555.6 19630 217231.6 20203 Q 218255.6 21083 218255.6 22516 Q 218255.6 24093 217088.6 25076 Q 215859.6 26141 213688.6 26141 Q 211251.6 26141 209326.6 24524 L 209325.6 24525 Z M 221430.2 24565 Q 219833.2 22906 219833.2 20142 Q 219833.2 17377 221594.2 15677 Q 223253.2 14100 225690.2 14100 Q 227533.2 14100 229028.2 15371 L 227595.2 17316 Q 226715.2 16559 225834.2 16559 Q 224523.2 16559 223724.2 17542 Q 222905.2 18525 222905.2 20144 Q 222905.2 21741 223704.2 22724 Q 224503.2 23687 225752.2 23687 Q 226879.2 23687 227984.2 22766 L 229172.2 24753 Q 227595.2 26145 225424.2 26145 Q 222987.2 26145 221431.2 24568 L 221430.2 24565 Z M 231300.2 14387 L 233759.2 14387 L 233963.2 16415 L 234046.2 16415 Q 235335.2 14100 237302.2 14100 Q 238059.2 14100 238654.2 14347 L 238121.2 16947 Q 237548.2 16763 236933.2 16763 Q 235172.2 16763 234292.2 19016 L 234292.2 25856 L 231301.2 25856 L 231301.2 14387 L 231300.2 14387 Z M 240260.2 14387 L 243251.2 14387 L 243251.2 25856 L 240260.2 25856 L 240260.2 14387 Z M 240486.2 12073 Q 239974.2 11622 239974.2 10905 Q 239974.2 10168 240486.2 9717 Q 240978.2 9266 241777.2 9266 Q 242556.2 9266 243047.2 9717 Q 243559.2 10168 243559.2 10905 Q 243559.2 11601 243047.2 12073 Q 242556.2 12544 241777.2 12544 Q 240998.2 12544 240486.2 12073  Z M 246455.4 14387 L 248914.4 14387 L 249118.4 15575 L 249201.4 15575 Q 250941.4 14100 252580.4 14100 Q 254689.4 14100 255897.4 15697 Q 257085.4 17274 257085.4 19937 Q 257085.4 22764 255590.4 24504 Q 254198.4 26143 252211.4 26143 Q 250736.4 26143 249364.4 24894 L 249445.4 26778 L 249445.4 30259 L 246454.4 30259 L 246454.4 14387 L 246455.4 14387 Z M 253297.4 22764 Q 253993.4 21780 253993.4 19979 Q 253993.4 16579 251720.4 16579 Q 250635.4 16579 249447.4 17767 L 249447.4 22804 Q 250451.4 23664 251536.4 23664 Q 252641.4 23664 253297.4 22764  Z M 260096 21841 L 260096 16762 L 258479 16762 L 258479 14530 L 260240 14386 L 260588 11314 L 263107 11314 L 263107 14386 L 265934 14386 L 265934 16762 L 263107 16762 L 263107 21841 Q 263107 23766 264663 23766 Q 265175 23766 265790 23521 L 266282 25712 Q 264991 26143 263864 26143 Q 260096 26143 260096 21842 L 260096 21841 Z M 286208.6 24729 L 286208.6 27064 L 268391.6 27064 L 268391.6 9411 L 285675.6 9411 L 285675.6 11746 L 270766.6 11746 L 270766.6 24730 L 286209.6 24730 L 286208.6 24729 Z M 282377.6 23788 Q 281169.6 22375 278322.6 19774 Q 275803.6 22170 273079.6 23829 Q 272136.6 22682 271215.6 21945 Q 273898.6 20573 276521.6 18197 Q 274104.6 16109 272056.6 14512 L 273756.6 13016 Q 277360.6 15843 278200.6 16539 Q 280023.6 14594 281334.6 12382 L 283649.6 13303 Q 282133.6 15782 280024.6 18055 Q 282829.6 20390 284284.6 21987 L 282379.6 23790 L 282377.6 23788 Z M 294973.6 11540 L 291020.6 11540 L 291020.6 14347 L 294973.6 14347 L 294973.6 11540 Z M 297328.6 16517 L 288809.6 16517 L 288809.6 9390 L 297328.6 9390 L 297328.6 16517 Z M 297840.6 18217 L 297800.6 19158 Q 297553.6 25691 296877.6 26511 Q 296365.6 27166 295444.6 27330 Q 294728.6 27453 293171.6 27412 Q 293090.6 26101 292517.6 25098 Q 293233.6 25179 294217.6 25179 Q 294605.6 25179 294830.6 24934 Q 295219.6 24422 295383.6 20407 L 293396.6 20407 Q 292720.6 25732 289055.6 27719 Q 288522.6 26634 287622.6 25897 Q 290550.6 24320 291123.6 20408 L 288256.6 20408 L 288256.6 18217 L 291307.6 18217 L 291370.6 16926 L 293663.6 16926 L 293602.6 18217 L 297841.6 18217 L 297840.6 18217 Z M 301752.6 22517 L 299397.6 22517 L 299397.6 10988 L 301752.6 10988 L 301752.6 22517 Z M 306073.6 8919 L 306073.6 24730 Q 306073.6 26614 305029.6 27167 Q 304066.6 27659 301259.6 27659 Q 301075.6 26410 300482.6 25139 Q 301649.6 25180 303165.6 25180 Q 303657.6 25180 303657.6 24709 L 303657.6 8918 L 306073.6 8918 L 306073.6 8919 Z " fill-rule="nonzero" style="fill:#ffffff;;fill-opacity:1;"/>
</svg>